<svg width="86" height="64" viewBox="0 0 86 64" fill="none" xmlns="http://www.w3.org/2000/svg">
<path d="M85.3333 0H0V64H85.3333V0Z" fill="#0C9AD0"/>
<path d="M55.489 32.4538L53.5941 31.8681L52.8544 33.6883L52.1362 31.8599L50.2341 32.4232L51.234 30.7278L49.6025 29.6101L51.5667 29.3252L51.4342 27.368L52.8843 28.7083L54.3499 27.385L54.1941 29.3405L56.155 29.6485L54.5102 30.747L55.489 32.4538Z" fill="#EBEDED"/>
<path d="M31.4259 52.4079L28.0815 51.3745L26.7755 54.587L25.5084 51.3597L22.1518 52.3537L23.9158 49.362L21.0366 47.3895L24.5036 46.8871L24.2696 43.4324L26.8282 45.7973L29.4157 43.4626L29.1401 46.9139L32.601 47.4575L29.6979 49.396L31.4259 52.4079Z" fill="#EBEDED"/>
<path d="M64.498 21.9376L62.6031 21.3525L61.8634 23.1727L61.1453 21.3437L59.2432 21.9069L60.243 20.2123L58.6116 19.094L60.5757 18.8096L60.4432 16.8524L61.8933 18.1921L63.359 16.8694L63.2032 18.8249L65.164 19.1328L63.5193 20.2314L64.498 21.9376Z" fill="#EBEDED"/>
<path d="M76.9518 31.8429L75.0569 31.2572L74.3166 33.0774L73.5985 31.249L71.697 31.8122L72.6962 30.1169L71.0648 28.9992L73.0295 28.7143L72.8964 26.7571L74.3466 28.0974L75.8128 26.7741L75.6564 28.7302L77.6172 29.0376L75.9725 30.1361L76.9518 31.8429Z" fill="#EBEDED"/>
<path d="M64.8068 49.122L62.912 48.5369L62.1722 50.357L61.4541 48.5281L59.5526 49.0913L60.5519 47.3966L58.9204 46.2784L60.8846 45.994L60.752 44.0368L62.2022 45.3765L63.6684 44.0538L63.512 46.0093L65.4728 46.3172L63.8281 47.4158L64.8068 49.122Z" fill="#EBEDED"/>
<path d="M44.1304 0H0V33.0977H44.1304V0Z" fill="#EBEDED"/>
<path d="M44.1304 14.8033V17.9643H23.6702V33.0977H20.4816V17.9643H0.000244141V14.8033H20.4816V0.000244141H23.6702V14.8033H44.1304Z" fill="#E43B3A"/>
<path d="M2.33153 0.000244141L18.9444 13.1398V13.605H17.0207L0.000244141 0.299418V0.000244141H2.33153Z" fill="#E43B3A"/>
<path d="M44.1303 33.0669V33.0976H41.9554L25.0708 19.8956V19.6583H27.193L44.1303 33.0669Z" fill="#E43B3A"/>
<path d="M17.0938 19.6583H18.9443V20.1125L2.33142 33.0976H0.114929L17.0938 19.6583Z" fill="#E43B3A"/>
<path d="M44.1303 0.00012207V0.413267L27.2563 13.6049H25.0708V13.3567L41.9554 0.00012207H44.1303Z" fill="#E43B3A"/>
<path d="M15.6199 13.6049H0.000183105V1.38419L15.6199 13.6049Z" fill="#0C9AD0"/>
<path d="M18.9964 0.00012207V12.2307L3.32465 0.00012207H18.9964Z" fill="#0C9AD0"/>
<path d="M44.1304 1.32224V13.6049H28.4375L44.1304 1.32224Z" fill="#0C9AD0"/>
<path d="M40.7326 0.00012207L25.0708 12.2307V0.00012207H40.7326Z" fill="#0C9AD0"/>
<path d="M15.6199 19.6791L0.000183105 31.9098V19.6791H15.6199Z" fill="#0C9AD0"/>
<path d="M18.9964 21.0528V33.0977H3.57581L18.9964 21.0528Z" fill="#0C9AD0"/>
<path d="M44.1304 19.6791V31.9613L28.4375 19.6791H44.1304Z" fill="#0C9AD0"/>
<path d="M40.492 33.0977H25.0708V21.0528L40.492 33.0977Z" fill="#0C9AD0"/>
<path d="M68.3054 35.9983L68.4823 36.9293L67.6577 37.9182L68.7768 38.0344L69.3064 39.0233L69.7777 38.0924L70.955 37.9182L70.1177 37.1116L70.284 35.9945L69.3197 36.5205L68.3054 35.9983Z" fill="#EBEDED"/>
</svg>
