<svg width="86" height="64" viewBox="0 0 86 64" fill="none" xmlns="http://www.w3.org/2000/svg">
<path d="M85.3333 0H56.7877V64H85.3333V0Z" fill="#E43B3A"/>
<path d="M28.5253 0H0V64H28.5253V0Z" fill="#E43B3A"/>
<path d="M56.7877 0H28.5253V64H56.7877V0Z" fill="#EBEDED"/>
<path d="M42.044 37.9648L41.9569 44.9233H43.2612V38.1368L48.9131 39.1675L48.4783 37.1916L54.5643 32.0374L52.9995 31.0062L54.0425 27.2267L50.5645 27.8277L49.6084 25.852L46.1304 29.7175L47.3476 22.4155L45.0002 23.2746L42.6529 19.237L40.2184 23.1031L37.8705 22.4155L38.9142 29.546L35.6102 26.1095L34.5666 27.6563L31.0891 27.2267L32.0457 31.0922L30.3937 32.0374L36.6533 37.1916L36.3056 39.0815L42.044 37.9648Z" fill="#E43B3A"/>
</svg>
