<svg width="85" height="64" viewBox="0 0 85 64" fill="none" xmlns="http://www.w3.org/2000/svg">
<path d="M84.3145 0H0V64H84.3145V0Z" fill="#0C9AD0"/>
<path d="M51.3646 32.1651L49.1006 32.8439L50.2906 30.8013L48.3483 29.4545L50.6868 29.1121L50.5284 26.7538L52.2549 28.368L53.9995 26.7741L53.8137 29.1307L56.1484 29.5011L54.1907 30.8243L55.3556 32.8807L53.0998 32.1749L52.2193 34.3682L51.3646 32.1651Z" fill="#E43B3A"/>
<path d="M50.8199 27.3681L52.2526 28.7081L53.7011 27.3853L53.5468 29.3409L55.4842 29.6486L53.859 30.7472L54.8263 32.4538L52.9542 31.8682L52.223 33.6885L51.5135 31.8597L49.6345 32.4229L50.622 30.728L49.0101 29.6103L50.9509 29.3253L50.8199 27.368V27.3681ZM50.2371 26.1393L50.3216 27.4014L50.4218 28.8982L48.9376 29.116L47.686 29.2996L48.7255 30.0204L49.9583 30.8752L49.2032 32.1713L48.5664 33.2643L49.778 32.9011L51.215 32.4703L51.7574 33.869L52.2148 35.0482L52.6863 33.8745L53.2452 32.4824L54.677 32.9302L55.8842 33.3078L55.2604 32.2074L54.5208 30.9023L55.7635 30.0621L56.8114 29.3537L55.5622 29.1552L54.0806 28.9199L54.1986 27.4244L54.2981 26.1634L53.364 27.0164L52.2563 28.028L51.1605 27.0034L50.2366 26.1393H50.2371Z" fill="#EBEDED"/>
<path d="M60.266 21.6489L58.002 22.3283L59.1921 20.2857L57.2498 18.9389L59.5877 18.5959L59.4305 16.2377L61.1564 17.8523L62.901 16.2585L62.7152 18.6145L65.0499 18.9854L63.0917 20.3087L64.2571 22.365L62.0013 21.6593L61.1208 23.8526L60.266 21.6489Z" fill="#E43B3A"/>
<path d="M59.7215 16.8521L61.1542 18.1921L62.6027 16.8693L62.4484 18.8248L64.3858 19.1326L62.7606 20.2312L63.7279 21.9378L61.8558 21.3522L61.1246 23.1725L60.4151 21.3436L58.5361 21.9069L59.5236 20.212L57.9117 19.0942L59.8525 18.8093L59.7215 16.8521V16.8521ZM59.1387 15.6233L59.2232 16.8854L59.3235 18.3822L57.8392 18.6L56.5876 18.7836L57.6271 19.5044L58.8599 20.3591L58.1047 21.6552L57.468 22.7482L58.6796 22.3849L60.1166 21.9543L60.659 23.3529L61.1165 24.5321L61.588 23.3584L62.1469 21.9663L63.5786 22.4141L64.7859 22.7917L64.1624 21.6917L63.4227 20.3866L64.6655 19.5464L65.7134 18.838L64.4642 18.6395L62.9826 18.4039L63.1006 16.9084L63.2001 15.6475L62.266 16.5004L61.1583 17.512L60.0625 16.4874L59.1386 15.6233L59.1387 15.6233Z" fill="#EBEDED"/>
<path d="M72.5711 31.5547L70.3071 32.2324L71.4966 30.1909L69.5548 28.8441L71.8928 28.5006L71.7344 26.1434L73.4615 27.7576L75.206 26.1637L75.0203 28.5192L77.3539 28.8901L75.3967 30.2139L76.5621 32.2697L74.3064 31.5645L73.4248 33.7578L72.5711 31.5547Z" fill="#E43B3A"/>
<path d="M72.0264 26.7572L73.4591 28.0971L74.9077 26.7743L74.7534 28.7299L76.6907 29.0376L75.0656 30.1363L76.0329 31.8429L74.1607 31.2573L73.4295 33.0776L72.7201 31.2487L70.841 31.812L71.8285 30.117L70.2166 28.9993L72.1574 28.7144L72.0264 26.7572V26.7572ZM71.4437 25.5284L71.5282 26.7905L71.6284 28.2873L70.1441 28.5051L68.8926 28.6887L69.932 29.4095L71.1648 30.2643L70.4097 31.5604L69.7729 32.6534L70.9845 32.2901L72.4215 31.8594L72.9639 33.258L73.4214 34.4373L73.8929 33.2636L74.4518 31.8714L75.8835 32.3193L77.0908 32.6968L76.467 31.5965L75.7273 30.2914L76.9701 29.4511L78.0181 28.7427L76.7688 28.5443L75.2873 28.3087L75.4053 26.8132L75.5047 25.5522L74.5707 26.4052L73.4629 27.4167L72.3671 26.3921L71.4432 25.5281L71.4437 25.5284Z" fill="#EBEDED"/>
<path d="M60.5712 48.8338L58.3078 49.5127L59.4973 47.47L57.5549 46.1233L59.8934 45.7803L59.7351 43.4226L61.4616 45.0367L63.2067 43.4429L63.021 45.7989L65.3545 46.1698L63.3974 47.493L64.5628 49.5488L62.3065 48.8436L61.4265 51.037L60.5712 48.8338Z" fill="#E43B3A"/>
<path d="M60.0269 44.0365L61.4596 45.3764L62.9082 44.0536L62.7539 46.0092L64.6912 46.3169L63.0661 47.4156L64.0334 49.1222L62.1611 48.5366L61.43 50.3569L60.7205 48.528L58.8415 49.0913L59.829 47.3964L58.2171 46.2786L60.1579 45.9937L60.0269 44.0364V44.0365ZM59.4441 42.8077L59.5286 44.0697L59.6288 45.5666L58.1446 45.7843L56.8931 45.9679L57.9325 46.6887L59.1653 47.5435L58.4101 48.8397L57.7733 49.9327L58.985 49.5695L60.422 49.1387L60.9644 50.5373L61.4219 51.7166L61.8931 50.5428L62.452 49.1508L63.8838 49.5986L65.091 49.9762L64.4673 48.8758L63.7276 47.5706L64.9704 46.7305L66.0184 46.0221L64.7691 45.8236L63.2875 45.588L63.4055 44.0925L63.505 42.8315L62.571 43.6845L61.4632 44.6961L60.3674 43.6714L59.4435 42.8074L59.4441 42.8077Z" fill="#EBEDED"/>
<path d="M43.6035 0H0V33.0976H43.6035V0Z" fill="#EBEDED"/>
<path d="M43.6033 14.8033V17.9643H23.3873V33.0978H20.2368V17.9643H0V14.8033H20.2368V0.000244141H23.3873V14.8033H43.6033Z" fill="#E43B3A"/>
<path d="M2.30345 0.000244141L18.718 13.1398V13.605H16.8172L0 0.299418V0.000244141H2.30345Z" fill="#E43B3A"/>
<path d="M43.6032 33.0669V33.0976H41.4548L24.7719 19.8955V19.6583H26.8687L43.6032 33.0669Z" fill="#E43B3A"/>
<path d="M16.8895 19.6583H18.7179V20.1125L2.30343 33.0976H0.113403L16.8895 19.6583Z" fill="#E43B3A"/>
<path d="M43.6032 0.00012207V0.4132L26.9306 13.6049H24.7719V13.3567L41.4548 0.00012207H43.6032Z" fill="#E43B3A"/>
<path d="M15.4332 13.6049H0V1.38416L15.4332 13.6049Z" fill="#0C9AD0"/>
<path d="M18.77 0.00012207V12.2307L3.28479 0.00012207H18.77Z" fill="#0C9AD0"/>
<path d="M43.6033 1.32222V13.6049H28.0978L43.6033 1.32222Z" fill="#0C9AD0"/>
<path d="M40.2461 0.00012207L24.7719 12.2307V0.00012207H40.2461Z" fill="#0C9AD0"/>
<path d="M15.4332 19.6791L0 31.9097V19.6791H15.4332Z" fill="#0C9AD0"/>
<path d="M18.77 21.0527V33.0976H3.53296L18.77 21.0527Z" fill="#0C9AD0"/>
<path d="M43.6033 19.6791V31.9612L28.0978 19.6791H43.6033Z" fill="#0C9AD0"/>
<path d="M40.0083 33.0976H24.7719V21.0527L40.0083 33.0976Z" fill="#0C9AD0"/>
</svg>
