<svg width="85" height="64" viewBox="0 0 85 64" fill="none" xmlns="http://www.w3.org/2000/svg">
<path d="M84.3148 0H0V64H84.3148V0Z" fill="#EBEDED"/>
<path d="M26.2949 12.5148L24.5563 11.3558L16.7261 23.1024L18.4648 24.2614L26.2949 12.5148Z" fill="#231F20"/>
<path d="M29.0399 14.3446L27.3171 13.1962L19.487 24.9428L21.2098 26.0912L29.0399 14.3446Z" fill="#231F20"/>
<path d="M23.5282 10.6705L21.7852 9.50861L13.955 21.2552L15.698 22.4171L23.5282 10.6705Z" fill="#231F20"/>
<path d="M62.0353 46.1767L58.5944 51.3384L60.3369 52.5L63.7778 47.3383L62.0353 46.1767Z" fill="#231F20"/>
<path d="M68.1398 40.7624L64.4249 46.3348L62.688 45.1732L66.4029 39.6008L68.1398 40.7624Z" fill="#231F20"/>
<path d="M64.7703 48.0276L61.3293 53.1889L63.0552 54.3396L66.4962 49.1782L64.7703 48.0276Z" fill="#231F20"/>
<path d="M69.159 41.4421L65.4441 47.0144L67.1701 48.1651L70.8849 42.5927L69.159 41.4421Z" fill="#231F20"/>
<path d="M59.2635 44.3362L55.8268 49.4915L57.5693 50.6531L61.006 45.4978L59.2635 44.3362Z" fill="#231F20"/>
<path d="M63.6305 37.7545L59.9156 43.3269L61.658 44.4884L65.3729 38.9161L63.6305 37.7545Z" fill="#231F20"/>
<path d="M21.9228 44.7129L20.1859 45.869L16.7395 40.7022L18.4764 39.5406L21.9228 44.7129Z" fill="#231F20"/>
<path d="M26.3501 51.3482L24.6077 52.5098L20.8818 46.9156L22.6187 45.754L26.3501 51.3482Z" fill="#231F20"/>
<path d="M23.5886 53.1892L21.8626 54.3399L18.1368 48.7456L17.4409 47.6991L13.9945 42.5322L15.715 41.3816L19.1614 46.5539L19.8572 47.595L23.5886 53.1892Z" fill="#231F20"/>
<path d="M29.1226 49.5017L27.3747 50.6633L23.6489 45.0691L22.953 44.028L19.5066 38.8557L21.249 37.6941L24.6954 42.861L25.3913 43.9075L29.1226 49.5017Z" fill="#231F20"/>
<path d="M68.1398 22.977L66.3974 24.1386L62.8195 18.7744L62.1236 17.7279L58.5238 12.3309L60.2716 11.1693L63.866 16.5663L64.5673 17.6129L68.1398 22.977Z" fill="#231F20"/>
<path d="M61.0936 18.4128L59.3676 19.5634L55.7678 14.1664L57.4992 13.0158L61.0936 18.4128Z" fill="#231F20"/>
<path d="M65.3673 24.8235L63.6414 25.9796L60.0635 20.61L61.7949 19.4593L65.3673 24.8235Z" fill="#231F20"/>
<path d="M63.0483 9.31317L61.3004 10.4802L64.9029 15.8755L66.6508 14.7084L63.0483 9.31317Z" fill="#231F20"/>
<path d="M70.9232 21.125L69.1753 22.2866L65.5974 16.9225L67.3453 15.7554L70.9232 21.125Z" fill="#231F20"/>
<path d="M56.2913 31.9321C56.2902 32.9338 56.1763 33.9321 55.9516 34.9083C55.2202 38.2243 53.2898 41.1534 50.5308 43.1331C47.7719 45.1129 44.3789 46.0037 41.0033 45.6347C37.6276 45.2657 34.5073 43.6628 32.2412 41.1338C29.9752 38.6048 28.7231 35.3278 28.7255 31.9321C28.7177 30.6961 28.8859 29.4652 29.2248 28.2766C30.1089 25.0602 32.1297 22.2737 34.9123 20.4341C37.6948 18.5945 41.0502 17.8267 44.3558 18.2732C47.6615 18.7196 50.693 20.3501 52.8878 22.8619C55.0827 25.3737 56.2919 28.5964 56.2911 31.9321H56.2913Z" fill="#2B3F77"/>
<path d="M56.2913 31.9321C56.2903 32.9338 56.1763 33.9321 55.9516 34.9083C55.1837 33.3313 54.195 31.8718 53.0152 30.5738C50.4985 27.8572 46.1239 28.5563 43.6869 30.7535C41.25 32.9308 39.3124 34.7685 35.3973 34.7685C32.5009 34.7685 30.2238 30.5338 29.225 28.2766C30.1091 25.0602 32.1299 22.2737 34.9124 20.4341C37.6949 18.5945 41.0503 17.8267 44.356 18.2732C47.6616 18.7196 50.6931 20.3501 52.8879 22.8619C55.0828 25.3737 56.292 28.5964 56.2912 31.9321H56.2913Z" fill="#D9283C"/>
</svg>
