<svg width="85" height="64" viewBox="0 0 85 64" fill="none" xmlns="http://www.w3.org/2000/svg">
<path d="M84.3147 0H0V64H84.3147V0Z" fill="#E43B3A"/>
<path d="M84.3147 17.2797H0V46.7203H84.3147V17.2797Z" fill="#F1B920"/>
<path d="M14.9139 27.9118H27.6714V36.2144C27.6714 36.2144 28.1632 43.2151 21.2782 43.2151C14.3932 43.2151 14.9139 36.1276 14.9139 36.1276V27.9118Z" stroke="#231F20" stroke-width="0.617679" stroke-miterlimit="10"/>
<path d="M18.9959 32.3669H23.5883V35.1605C23.6184 35.4727 23.5799 35.7876 23.4757 36.0834C23.3715 36.3791 23.2039 36.6486 22.9848 36.8729C22.7657 37.0972 22.5002 37.271 22.207 37.3821C21.9137 37.4932 21.5998 37.539 21.287 37.5162C18.8086 37.5162 18.996 35.1313 18.996 35.1313L18.9959 32.3669Z" stroke="#231F20" stroke-width="0.617679" stroke-miterlimit="10"/>
<path d="M19.8178 33.1624H22.7659V35.0615C22.7886 35.2668 22.7669 35.4745 22.7024 35.6707C22.6379 35.8669 22.5321 36.047 22.392 36.1988C22.252 36.3505 22.081 36.4705 21.8906 36.5506C21.7002 36.6306 21.4949 36.6689 21.2885 36.6628C19.6974 36.6628 19.8178 35.0416 19.8178 35.0416V33.1624Z" stroke="#231F20" stroke-width="0.617679" stroke-miterlimit="10"/>
<path d="M21.2347 28.0275V32.2583" stroke="#231F20" stroke-width="0.617679" stroke-miterlimit="10"/>
<path d="M21.307 37.575V38.7673" stroke="#231F20" stroke-width="0.617679" stroke-miterlimit="10"/>
<path d="M17.8934 42.3906C18.7928 42.199 19.5935 41.6909 20.1499 40.9587C21.2998 39.6352 21.2998 38.7022 21.2998 38.7022C21.4675 39.5077 21.8162 40.2645 22.3195 40.9153C22.9471 41.5305 23.673 42.0365 24.4674 42.4123" stroke="#231F20" stroke-width="0.617679" stroke-linecap="round" stroke-linejoin="round"/>
<path d="M14.9862 34.9487H18.8482" stroke="#231F20" stroke-width="0.617679" stroke-miterlimit="10"/>
<path d="M23.7732 34.9487H27.6351" stroke="#231F20" stroke-width="0.617679" stroke-miterlimit="10"/>
<path d="M14.7908 30.501C14.7257 30.5229 13.4673 31.0868 12.3608 31.4339C11.6108 31.7168 10.9459 32.1875 10.4298 32.8008V34.645L11.341 35.361V33.8639C11.7898 33.5915 12.2618 33.3592 12.7513 33.1697C13.3805 32.9527 14.8342 32.3018 14.8342 32.3018" stroke="#231F20" stroke-width="0.617679" stroke-linecap="round" stroke-linejoin="round"/>
<path d="M10.7987 39.7437C10.7535 39.4342 10.5902 39.1543 10.343 38.9626V37.1184C10.9614 36.726 11.6339 36.4263 12.3391 36.2289C12.7707 36.1727 13.1811 36.0085 13.5324 35.7515V34.4714C14.0534 34.57 14.5309 34.8278 14.8993 35.2091V36.6845C14.3765 37.2462 13.708 37.6518 12.9683 37.8561C12.2342 38.0061 11.5303 38.2774 10.8855 38.6589C10.8855 38.6589 11.558 39.3314 10.7987 39.7437Z" stroke="#231F20" stroke-width="0.617679" stroke-linecap="round" stroke-linejoin="round"/>
<path d="M11.3427 36.5651V33.929" stroke="#231F20" stroke-width="0.617679" stroke-linecap="round" stroke-linejoin="round"/>
<path d="M13.5327 37.791V40.6331H11.3427V38.4529" stroke="#231F20" stroke-width="0.617679" stroke-linecap="round" stroke-linejoin="round"/>
<path d="M13.5325 33.0178V35.643" stroke="#231F20" stroke-width="0.617679" stroke-linecap="round" stroke-linejoin="round"/>
<path d="M11.3427 31.9656V29.8068H13.5327V30.9673" stroke="#231F20" stroke-width="0.617679" stroke-linecap="round" stroke-linejoin="round"/>
<path d="M11.3427 40.6332C11.3427 40.6332 11.1459 40.6875 11.1459 41.0129V41.3383H10.9181V41.935H13.9231V41.3383H13.7169V40.9912C13.718 40.9074 13.6964 40.8248 13.6544 40.7522C13.6124 40.6797 13.5515 40.6198 13.4782 40.579" stroke="#231F20" stroke-width="0.617679" stroke-linecap="round" stroke-linejoin="round"/>
<path d="M11.3751 29.7525V28.6895C11.2647 28.5682 11.2061 28.4086 11.2118 28.2447H10.9614V27.9301H14.0208V28.1904H13.7051C13.7051 28.1904 13.7595 28.6569 13.5091 28.7871V29.7092" stroke="#231F20" stroke-width="0.617679" stroke-linecap="round" stroke-linejoin="round"/>
<path d="M10.2274 42.434C10.3668 42.3174 10.5284 42.2304 10.7024 42.1782C10.8765 42.126 11.0593 42.1097 11.2399 42.1303C11.9921 42.1303 11.9776 42.3762 12.397 42.3762C12.8164 42.3762 13.1925 42.0725 13.5976 42.0725C13.9318 42.1011 14.2592 42.1841 14.5666 42.3184V43.5188C14.2843 43.3826 13.9812 43.2947 13.6699 43.2585C13.3227 43.2585 12.8743 43.5478 12.4549 43.5478C12.0354 43.5478 11.7606 43.273 11.2543 43.273C10.8914 43.2755 10.5343 43.3648 10.2129 43.5333L10.2274 42.434Z" stroke="#231F20" stroke-width="0.617679" stroke-linecap="round" stroke-linejoin="round"/>
<path d="M10.4298 34.645C10.7053 34.3534 11.0108 34.0916 11.341 33.8639" stroke="#231F20" stroke-width="0.617679" stroke-linecap="round" stroke-linejoin="round"/>
<path d="M13.5325 35.7515C13.9477 35.566 14.3427 35.3382 14.7113 35.0717" stroke="#231F20" stroke-width="0.617679" stroke-linecap="round" stroke-linejoin="round"/>
<path d="M11.1964 27.8685V27.3041C11.1188 27.2183 11.0723 27.1089 11.0644 26.9934C11.0566 26.878 11.0877 26.7632 11.153 26.6677C11.4334 26.383 11.7746 26.1654 12.1511 26.0313V25.4238H12.5995V26.0023C13.0133 26.0725 13.3909 26.2817 13.6699 26.5954C13.7204 26.6438 13.7586 26.7035 13.7815 26.7697C13.8043 26.8358 13.8111 26.9065 13.8012 26.9757C13.7913 27.045 13.765 27.1109 13.7246 27.168C13.6841 27.2251 13.6307 27.2718 13.5686 27.3041V27.8827" stroke="#231F20" stroke-width="0.617679" stroke-linecap="round" stroke-linejoin="round"/>
<path d="M27.7075 30.501C27.7726 30.5229 29.031 31.0868 30.1375 31.4339C30.8875 31.7168 31.5524 32.1875 32.0685 32.8008V34.645L31.1572 35.361V33.8639C30.7084 33.5915 30.2365 33.3592 29.7469 33.1697C29.1178 32.9527 27.6641 32.3018 27.6641 32.3018" stroke="#231F20" stroke-width="0.617679" stroke-linecap="round" stroke-linejoin="round"/>
<path d="M31.6997 39.7437C31.7449 39.4342 31.9081 39.1543 32.1553 38.9626V37.1184C31.5369 36.726 30.8644 36.4263 30.1592 36.2289C29.7276 36.1727 29.3172 36.0085 28.9659 35.7515V34.4714C28.4449 34.57 27.9674 34.8278 27.599 35.2091V36.6845C28.1218 37.2462 28.7903 37.6518 29.53 37.8561C30.2641 38.0061 30.968 38.2774 31.6129 38.6589C31.6129 38.6589 30.9406 39.3314 31.6997 39.7437Z" stroke="#231F20" stroke-width="0.617679" stroke-linecap="round" stroke-linejoin="round"/>
<path d="M31.1558 36.5651V33.929" stroke="#231F20" stroke-width="0.617679" stroke-linecap="round" stroke-linejoin="round"/>
<path d="M28.9659 37.791V40.6331H31.156V38.4529" stroke="#231F20" stroke-width="0.617679" stroke-linecap="round" stroke-linejoin="round"/>
<path d="M28.9659 33.0178V35.643" stroke="#231F20" stroke-width="0.617679" stroke-linecap="round" stroke-linejoin="round"/>
<path d="M31.156 31.9656V29.8068H28.9659V30.9673" stroke="#231F20" stroke-width="0.617679" stroke-linecap="round" stroke-linejoin="round"/>
<path d="M31.1557 40.6332C31.1557 40.6332 31.3526 40.6875 31.3526 41.0129V41.3383H31.5804V41.935H28.5754V41.3383H28.7815V40.9912C28.7804 40.9074 28.8021 40.8248 28.8441 40.7522C28.8861 40.6797 28.9469 40.6198 29.0202 40.579" stroke="#231F20" stroke-width="0.617679" stroke-linecap="round" stroke-linejoin="round"/>
<path d="M31.1232 29.7525V28.6895C31.2336 28.5682 31.2923 28.4086 31.2866 28.2447H31.537V27.9301H28.4778V28.1904H28.7935C28.7935 28.1904 28.739 28.6569 28.9894 28.7871V29.7092" stroke="#231F20" stroke-width="0.617679" stroke-linecap="round" stroke-linejoin="round"/>
<path d="M32.2711 42.434C32.1317 42.3174 31.97 42.2304 31.796 42.1782C31.6219 42.126 31.4391 42.1097 31.2586 42.1303C30.5064 42.1303 30.5209 42.3762 30.1014 42.3762C29.6819 42.3762 29.3059 42.0725 28.9009 42.0725C28.5666 42.1011 28.2392 42.1841 27.9318 42.3184V43.5188C28.2141 43.3827 28.5172 43.2947 28.8286 43.2585C29.1757 43.2585 29.6241 43.5478 30.0436 43.5478C30.463 43.5478 30.7379 43.273 31.2441 43.273C31.6071 43.2755 31.9641 43.3648 32.2856 43.5333L32.2711 42.434Z" stroke="#231F20" stroke-width="0.617679" stroke-linecap="round" stroke-linejoin="round"/>
<path d="M32.0685 34.645C31.793 34.3534 31.4875 34.0916 31.1572 33.8639" stroke="#231F20" stroke-width="0.617679" stroke-linecap="round" stroke-linejoin="round"/>
<path d="M28.966 35.7515C28.5507 35.566 28.1557 35.3382 27.7871 35.0717" stroke="#231F20" stroke-width="0.617679" stroke-linecap="round" stroke-linejoin="round"/>
<path d="M31.3023 27.8685V27.3041C31.3799 27.2183 31.4265 27.1089 31.4343 26.9934C31.4422 26.878 31.411 26.7632 31.3457 26.6677C31.0653 26.383 30.724 26.1654 30.3476 26.0313V25.4238H29.8992V26.0023C29.4853 26.0725 29.1077 26.2817 28.8288 26.5954C28.7783 26.6438 28.7401 26.7036 28.7172 26.7697C28.6944 26.8358 28.6876 26.9065 28.6975 26.9757C28.7074 27.045 28.7337 27.1109 28.7742 27.168C28.8146 27.2251 28.868 27.2718 28.9301 27.3041V27.8827" stroke="#231F20" stroke-width="0.617679" stroke-linecap="round" stroke-linejoin="round"/>
<path d="M16.447 27.7385V26.4656L16.042 25.5978C16.042 25.5978 16.9677 26.3499 17.0835 25.2217C17.0835 25.2217 18.067 26.4367 18.1827 24.9903C18.1827 24.9903 19.0506 26.4946 19.5713 24.9903C19.5713 24.9903 20.7285 26.5813 21.2781 24.5564C21.2781 24.5564 21.8567 26.5234 22.8692 25.0769C22.8692 25.0769 23.6792 26.1472 24.2577 25.0769C24.2577 25.0769 24.8074 26.234 25.2992 25.2504C25.2992 25.2504 25.7042 26.4943 26.3696 25.4532L26.0803 26.4367V27.7096" stroke="#231F20" stroke-width="0.617679" stroke-linecap="round" stroke-linejoin="round"/>
<path d="M16.4181 25.6554C16.5048 25.6265 15.6659 24.5272 15.8684 23.0518C16.071 21.5764 17.7199 21.9525 17.7199 21.9525C17.7199 21.9525 17.1703 23.2544 17.8067 25.6554" stroke="#231F20" stroke-width="0.617679" stroke-linecap="round" stroke-linejoin="round"/>
<path d="M18.9927 25.6265C18.9927 25.6265 17.2281 21.287 20.3813 21.4029L20.9018 25.2794" stroke="#231F20" stroke-width="0.617679" stroke-linecap="round" stroke-linejoin="round"/>
<path d="M25.9619 25.6554C25.8751 25.6265 26.7141 24.5272 26.5116 23.0518C26.309 21.5764 24.6601 21.9525 24.6601 21.9525C24.6601 21.9525 25.2414 23.0518 24.605 25.4529" stroke="#231F20" stroke-width="0.617679" stroke-linecap="round" stroke-linejoin="round"/>
<path d="M23.4188 25.5397C23.4188 25.5397 25.1518 21.2872 21.9986 21.4029L21.5383 25.0768" stroke="#231F20" stroke-width="0.617679" stroke-linecap="round" stroke-linejoin="round"/>
<path d="M16.1867 26.1761C15.4332 25.3755 14.9654 24.3483 14.856 23.2544C14.6245 21.3451 17.3438 20.94 18.0381 21.2583C18.369 20.9572 18.7701 20.7438 19.2047 20.6377C19.6393 20.5315 20.0936 20.536 20.526 20.6507C20.526 20.6507 20.3524 19.6093 21.1914 19.5515C21.3254 19.5381 21.4607 19.5594 21.5842 19.6133C21.7077 19.6672 21.8153 19.752 21.8966 19.8594C21.9779 19.9669 22.0302 20.0935 22.0486 20.227C22.0669 20.3605 22.0506 20.4964 22.0013 20.6218C22.0013 20.6218 23.6214 20.4482 24.3156 21.2872C24.3156 21.2872 27.0928 20.6508 27.5556 22.7337C28.0185 24.8167 26.225 26.2052 26.225 26.2052" stroke="#231F20" stroke-width="0.617679" stroke-linecap="round" stroke-linejoin="round"/>
</svg>
