<svg width="85" height="64" viewBox="0 0 85 64" fill="none" xmlns="http://www.w3.org/2000/svg">
<path d="M84.3144 0H0V63.9997H84.3144V0Z" fill="#EBEDED"/>
<path d="M84.3145 28.6238V34.7364H45.2234V64.0001H39.1311V34.7364H0V28.6238H39.1311V0.00012207H45.2234V28.6238H84.3145Z" fill="#E43B3A"/>
<path d="M4.45456 0.00012207L36.1948 25.4081V26.3072H32.5194L0 0.579273V0.00012207H4.45456Z" fill="#E43B3A"/>
<path d="M84.3144 63.9397V64H80.1596L47.8999 38.472V38.0123H51.955L84.3144 63.9397Z" fill="#E43B3A"/>
<path d="M32.6591 38.0123H36.1948V38.8911L4.45457 64H0.219727L32.6591 38.0123Z" fill="#E43B3A"/>
<path d="M84.3144 4.57764e-05V0.798912L52.0745 26.3071H47.8999V25.8277L80.1596 4.57764e-05H84.3144Z" fill="#E43B3A"/>
<path d="M29.8428 26.3071H0V2.67663L29.8428 26.3071Z" fill="#0C9AD0"/>
<path d="M36.2946 4.57764e-05V23.6503L6.35205 4.57764e-05H36.2946Z" fill="#0C9AD0"/>
<path d="M84.3144 2.55663V26.3071H54.3319L84.3144 2.55663Z" fill="#0C9AD0"/>
<path d="M77.8222 4.57764e-05L47.8999 23.6503V4.57764e-05H77.8222Z" fill="#0C9AD0"/>
<path d="M29.8428 38.0523L0 61.7026V38.0523H29.8428Z" fill="#0C9AD0"/>
<path d="M36.2945 40.7091V64H6.83142L36.2945 40.7091Z" fill="#0C9AD0"/>
<path d="M84.3144 38.0523V61.8023L54.3319 38.0523H84.3144Z" fill="#0C9AD0"/>
<path d="M77.363 64H47.8999V40.7091L77.363 64Z" fill="#0C9AD0"/>
</svg>
