<svg width="85" height="64" viewBox="0 0 85 64" fill="none" xmlns="http://www.w3.org/2000/svg">
<path d="M84.3147 0H0V64H84.3147V0Z" fill="#EBEDED"/>
<path d="M84.3147 59.08H0V63.9965H84.3147V59.08Z" fill="#E43B3A"/>
<path d="M84.3147 49.3058H0V54.2223H84.3147V49.3058Z" fill="#E43B3A"/>
<path d="M84.3147 39.4443H0V44.3609H84.3147V39.4443Z" fill="#E43B3A"/>
<path d="M84.3147 29.5829H48.3314V34.4994H84.3147V29.5829Z" fill="#E43B3A"/>
<path d="M48.3396 0H0V34.4968H48.3396V0Z" fill="#0C9AD0"/>
<path d="M84.3147 19.8087H48.3314V24.7253H84.3147V19.8087Z" fill="#E43B3A"/>
<path d="M84.3147 10.0346H48.3314V14.951H84.3147V10.0346Z" fill="#E43B3A"/>
<path d="M84.3147 0.173092H48.3314V5.08965H84.3147V0.173092Z" fill="#E43B3A"/>
<path d="M4.23112 2.42791L4.63986 3.2558L5.55434 3.3889L4.89245 4.03327L5.04861 4.9439L4.23112 4.51384L3.41363 4.9439L3.56978 4.03327L2.90845 3.3889L3.82237 3.2558L4.23112 2.42791Z" fill="#EBEDED"/>
<path d="M12.2017 2.42791L12.6105 3.2558L13.5249 3.3889L12.863 4.03327L13.0192 4.9439L12.2017 4.51384L11.3842 4.9439L11.5404 4.03327L10.879 3.3889L11.793 3.2558L12.2017 2.42791Z" fill="#EBEDED"/>
<path d="M20.2309 2.42791L20.6397 3.2558L21.5536 3.3889L20.8923 4.03327L21.0484 4.9439L20.2309 4.51384L19.4129 4.9439L19.5691 4.03327L18.9077 3.3889L19.8222 3.2558L20.2309 2.42791Z" fill="#EBEDED"/>
<path d="M28.2015 2.42791L28.6103 3.2558L29.5242 3.3889L28.8629 4.03327L29.019 4.9439L28.2015 4.51384L27.384 4.9439L27.5396 4.03327L26.8783 3.3889L27.7928 3.2558L28.2015 2.42791Z" fill="#EBEDED"/>
<path d="M36.2592 2.42791L36.6679 3.2558L37.5819 3.3889L36.9205 4.03327L37.0767 4.9439L36.2592 4.51384L35.4417 4.9439L35.5979 4.03327L34.9365 3.3889L35.8505 3.2558L36.2592 2.42791Z" fill="#EBEDED"/>
<path d="M44.2298 2.42791L44.6385 3.2558L45.5525 3.3889L44.8911 4.03327L45.0473 4.9439L44.2298 4.51384L43.4123 4.9439L43.5684 4.03327L42.9071 3.3889L43.821 3.2558L44.2298 2.42791Z" fill="#EBEDED"/>
<path d="M4.23112 9.23468L4.63986 10.0631L5.55434 10.1957L4.89245 10.8407L5.04861 11.7507L4.23112 11.3211L3.41363 11.7507L3.56978 10.8407L2.90845 10.1957L3.82237 10.0631L4.23112 9.23468Z" fill="#EBEDED"/>
<path d="M12.2017 9.23468L12.6105 10.0631L13.5249 10.1957L12.863 10.8407L13.0192 11.7507L12.2017 11.3211L11.3842 11.7507L11.5404 10.8407L10.879 10.1957L11.793 10.0631L12.2017 9.23468Z" fill="#EBEDED"/>
<path d="M20.2309 9.23468L20.6397 10.0631L21.5536 10.1957L20.8923 10.8407L21.0484 11.7507L20.2309 11.3211L19.4129 11.7507L19.5691 10.8407L18.9077 10.1957L19.8222 10.0631L20.2309 9.23468Z" fill="#EBEDED"/>
<path d="M28.2015 9.23468L28.6103 10.0631L29.5242 10.1957L28.8629 10.8407L29.019 11.7507L28.2015 11.3211L27.384 11.7507L27.5396 10.8407L26.8783 10.1957L27.7928 10.0631L28.2015 9.23468Z" fill="#EBEDED"/>
<path d="M36.2592 9.23468L36.6679 10.0631L37.5819 10.1957L36.9205 10.8407L37.0767 11.7507L36.2592 11.3211L35.4417 11.7507L35.5979 10.8407L34.9365 10.1957L35.8505 10.0631L36.2592 9.23468Z" fill="#EBEDED"/>
<path d="M44.2298 9.23468L44.6385 10.0631L45.5525 10.1957L44.8911 10.8407L45.0473 11.7507L44.2298 11.3211L43.4123 11.7507L43.5684 10.8407L42.9071 10.1957L43.821 10.0631L44.2298 9.23468Z" fill="#EBEDED"/>
<path d="M4.23112 16.1292L4.63986 16.957L5.55434 17.0902L4.89245 17.7345L5.04861 18.6451L4.23112 18.2151L3.41363 18.6451L3.56978 17.7345L2.90845 17.0902L3.82237 16.957L4.23112 16.1292Z" fill="#EBEDED"/>
<path d="M12.2017 16.1292L12.6105 16.957L13.5249 17.0902L12.863 17.7345L13.0192 18.6451L12.2017 18.2151L11.3842 18.6451L11.5404 17.7345L10.879 17.0902L11.793 16.957L12.2017 16.1292Z" fill="#EBEDED"/>
<path d="M20.2309 16.1292L20.6397 16.957L21.5536 17.0902L20.8923 17.7345L21.0484 18.6451L20.2309 18.2151L19.4129 18.6451L19.5691 17.7345L18.9077 17.0902L19.8222 16.957L20.2309 16.1292Z" fill="#EBEDED"/>
<path d="M28.2015 16.1292L28.6103 16.957L29.5242 17.0902L28.8629 17.7345L29.019 18.6451L28.2015 18.2151L27.384 18.6451L27.5396 17.7345L26.8783 17.0902L27.7928 16.957L28.2015 16.1292Z" fill="#EBEDED"/>
<path d="M36.2592 16.1292L36.6679 16.957L37.5819 17.0902L36.9205 17.7345L37.0767 18.6451L36.2592 18.2151L35.4417 18.6451L35.5979 17.7345L34.9365 17.0902L35.8505 16.957L36.2592 16.1292Z" fill="#EBEDED"/>
<path d="M44.2298 16.1292L44.6385 16.957L45.5525 17.0902L44.8911 17.7345L45.0473 18.6451L44.2298 18.2151L43.4123 18.6451L43.5684 17.7345L42.9071 17.0902L43.821 16.957L44.2298 16.1292Z" fill="#EBEDED"/>
<path d="M4.23112 22.9797L4.63986 23.8077L5.55434 23.9408L4.89245 24.5852L5.04861 25.4958L4.23112 25.0657L3.41363 25.4958L3.56978 24.5852L2.90845 23.9408L3.82237 23.8077L4.23112 22.9797Z" fill="#EBEDED"/>
<path d="M12.2017 22.9797L12.6105 23.8077L13.5249 23.9408L12.863 24.5852L13.0192 25.4958L12.2017 25.0657L11.3842 25.4958L11.5404 24.5852L10.879 23.9408L11.793 23.8077L12.2017 22.9797Z" fill="#EBEDED"/>
<path d="M20.2309 22.9797L20.6397 23.8077L21.5536 23.9408L20.8923 24.5852L21.0484 25.4958L20.2309 25.0657L19.4129 25.4958L19.5691 24.5852L18.9077 23.9408L19.8222 23.8077L20.2309 22.9797Z" fill="#EBEDED"/>
<path d="M28.2015 22.9797L28.6103 23.8077L29.5242 23.9408L28.8629 24.5852L29.019 25.4958L28.2015 25.0657L27.384 25.4958L27.5396 24.5852L26.8783 23.9408L27.7928 23.8077L28.2015 22.9797Z" fill="#EBEDED"/>
<path d="M36.2592 22.9797L36.6679 23.8077L37.5819 23.9408L36.9205 24.5852L37.0767 25.4958L36.2592 25.0657L35.4417 25.4958L35.5979 24.5852L34.9365 23.9408L35.8505 23.8077L36.2592 22.9797Z" fill="#EBEDED"/>
<path d="M44.2298 22.9797L44.6385 23.8077L45.5525 23.9408L44.8911 24.5852L45.0473 25.4958L44.2298 25.0657L43.4123 25.4958L43.5684 24.5852L42.9071 23.9408L43.821 23.8077L44.2298 22.9797Z" fill="#EBEDED"/>
<path d="M4.23112 29.8304L4.63986 30.6583L5.55434 30.7915L4.89245 31.4358L5.04861 32.3465L4.23112 31.9169L3.41363 32.3465L3.56978 31.4358L2.90845 30.7915L3.82237 30.6583L4.23112 29.8304Z" fill="#EBEDED"/>
<path d="M12.2017 29.8304L12.6105 30.6583L13.5249 30.7915L12.863 31.4358L13.0192 32.3465L12.2017 31.9169L11.3842 32.3465L11.5404 31.4358L10.879 30.7915L11.793 30.6583L12.2017 29.8304Z" fill="#EBEDED"/>
<path d="M20.2309 29.8304L20.6397 30.6583L21.5536 30.7915L20.8923 31.4358L21.0484 32.3465L20.2309 31.9169L19.4129 32.3465L19.5691 31.4358L18.9077 30.7915L19.8222 30.6583L20.2309 29.8304Z" fill="#EBEDED"/>
<path d="M28.2015 29.8304L28.6103 30.6583L29.5242 30.7915L28.8629 31.4358L29.019 32.3465L28.2015 31.9169L27.384 32.3465L27.5396 31.4358L26.8783 30.7915L27.7928 30.6583L28.2015 29.8304Z" fill="#EBEDED"/>
<path d="M36.2592 29.8304L36.6679 30.6583L37.5819 30.7915L36.9205 31.4358L37.0767 32.3465L36.2592 31.9169L35.4417 32.3465L35.5979 31.4358L34.9365 30.7915L35.8505 30.6583L36.2592 29.8304Z" fill="#EBEDED"/>
<path d="M8.28954 26.3829L8.69829 27.2113L9.61221 27.344L8.95087 27.9889L9.10703 28.8995L8.28954 28.4694L7.47149 28.8995L7.62765 27.9889L6.96631 27.344L7.88024 27.2113L8.28954 26.3829Z" fill="#EBEDED"/>
<path d="M16.2601 26.3829L16.6689 27.2113L17.5828 27.344L16.9215 27.9889L17.0776 28.8995L16.2601 28.4694L15.4421 28.8995L15.5982 27.9889L14.9369 27.344L15.8514 27.2113L16.2601 26.3829Z" fill="#EBEDED"/>
<path d="M24.2887 26.3829L24.6975 27.2113L25.6114 27.344L24.9501 27.9889L25.1062 28.8995L24.2887 28.4694L23.4713 28.8995L23.6274 27.9889L22.9661 27.344L23.88 27.2113L24.2887 26.3829Z" fill="#EBEDED"/>
<path d="M32.2593 26.3829L32.6681 27.2113L33.582 27.344L32.9206 27.9889L33.0768 28.8995L32.2593 28.4694L31.4418 28.8995L31.598 27.9889L30.9366 27.344L31.8506 27.2113L32.2593 26.3829Z" fill="#EBEDED"/>
<path d="M40.3171 26.3829L40.7258 27.2113L41.6403 27.344L40.9784 27.9889L41.1346 28.8995L40.3171 28.4694L39.4996 28.8995L39.6557 27.9889L38.9944 27.344L39.9083 27.2113L40.3171 26.3829Z" fill="#EBEDED"/>
<path d="M8.28954 19.5761L8.69829 20.4045L9.61221 20.5371L8.95087 21.182L9.10703 22.0921L8.28954 21.6626L7.47149 22.0921L7.62765 21.182L6.96631 20.5371L7.88024 20.4045L8.28954 19.5761Z" fill="#EBEDED"/>
<path d="M16.2601 19.5761L16.6689 20.4045L17.5828 20.5371L16.9215 21.182L17.0776 22.0921L16.2601 21.6626L15.4421 22.0921L15.5982 21.182L14.9369 20.5371L15.8514 20.4045L16.2601 19.5761Z" fill="#EBEDED"/>
<path d="M24.2887 19.5761L24.6975 20.4045L25.6114 20.5371L24.9501 21.182L25.1062 22.0921L24.2887 21.6626L23.4713 22.0921L23.6274 21.182L22.9661 20.5371L23.88 20.4045L24.2887 19.5761Z" fill="#EBEDED"/>
<path d="M32.2593 19.5761L32.6681 20.4045L33.582 20.5371L32.9206 21.182L33.0768 22.0921L32.2593 21.6626L31.4418 22.0921L31.598 21.182L30.9366 20.5371L31.8506 20.4045L32.2593 19.5761Z" fill="#EBEDED"/>
<path d="M40.3171 19.5761L40.7258 20.4045L41.6403 20.5371L40.9784 21.182L41.1346 22.0921L40.3171 21.6626L39.4996 22.0921L39.6557 21.182L38.9944 20.5371L39.9083 20.4045L40.3171 19.5761Z" fill="#EBEDED"/>
<path d="M8.28954 12.6384L8.69829 13.4663L9.61221 13.5994L8.95087 14.2437L9.10703 15.1544L8.28954 14.7243L7.47149 15.1544L7.62765 14.2437L6.96631 13.5994L7.88024 13.4663L8.28954 12.6384Z" fill="#EBEDED"/>
<path d="M16.2601 12.6384L16.6689 13.4663L17.5828 13.5994L16.9215 14.2437L17.0776 15.1544L16.2601 14.7243L15.4421 15.1544L15.5982 14.2437L14.9369 13.5994L15.8514 13.4663L16.2601 12.6384Z" fill="#EBEDED"/>
<path d="M24.2887 12.6384L24.6975 13.4663L25.6114 13.5994L24.9501 14.2437L25.1062 15.1544L24.2887 14.7243L23.4713 15.1544L23.6274 14.2437L22.9661 13.5994L23.88 13.4663L24.2887 12.6384Z" fill="#EBEDED"/>
<path d="M32.2593 12.6384L32.6681 13.4663L33.582 13.5994L32.9206 14.2437L33.0768 15.1544L32.2593 14.7243L31.4418 15.1544L31.598 14.2437L30.9366 13.5994L31.8506 13.4663L32.2593 12.6384Z" fill="#EBEDED"/>
<path d="M40.3171 12.6384L40.7258 13.4663L41.6403 13.5994L40.9784 14.2437L41.1346 15.1544L40.3171 14.7243L39.4996 15.1544L39.6557 14.2437L38.9944 13.5994L39.9083 13.4663L40.3171 12.6384Z" fill="#EBEDED"/>
<path d="M8.28954 5.83099L8.69829 6.65943L9.61221 6.79206L8.95087 7.43696L9.10703 8.34759L8.28954 7.91746L7.47149 8.34759L7.62765 7.43696L6.96631 6.79206L7.88024 6.65943L8.28954 5.83099Z" fill="#EBEDED"/>
<path d="M16.2601 5.83099L16.6689 6.65943L17.5828 6.79206L16.9215 7.43696L17.0776 8.34759L16.2601 7.91746L15.4421 8.34759L15.5982 7.43696L14.9369 6.79206L15.8514 6.65943L16.2601 5.83099Z" fill="#EBEDED"/>
<path d="M24.2887 5.83099L24.6975 6.65943L25.6114 6.79206L24.9501 7.43696L25.1062 8.34759L24.2887 7.91746L23.4713 8.34759L23.6274 7.43696L22.9661 6.79206L23.88 6.65943L24.2887 5.83099Z" fill="#EBEDED"/>
<path d="M32.2593 5.83099L32.6681 6.65943L33.582 6.79206L32.9206 7.43696L33.0768 8.34759L32.2593 7.91746L31.4418 8.34759L31.598 7.43696L30.9366 6.79206L31.8506 6.65943L32.2593 5.83099Z" fill="#EBEDED"/>
<path d="M40.3171 5.83099L40.7258 6.65943L41.6403 6.79206L40.9784 7.43696L41.1346 8.34759L40.3171 7.91746L39.4996 8.34759L39.6557 7.43696L38.9944 6.79206L39.9083 6.65943L40.3171 5.83099Z" fill="#EBEDED"/>
<path d="M44.2298 29.8304L44.6385 30.6583L45.5525 30.7915L44.8911 31.4358L45.0473 32.3465L44.2298 31.9169L43.4123 32.3465L43.5684 31.4358L42.9071 30.7915L43.821 30.6583L44.2298 29.8304Z" fill="#EBEDED"/>
</svg>
