<svg width="85" height="64" viewBox="0 0 85 64" fill="none" xmlns="http://www.w3.org/2000/svg">
<path d="M84.2989 0H0V64H84.2989V0Z" fill="#008C4B"/>
<path d="M84.2989 0H0V22.6129H84.2989V0Z" fill="#E43B3A"/>
<path d="M84.2989 21.3489H0V42.6511H84.2989V21.3489Z" fill="#F1B920"/>
<path d="M42.2221 36.8991C44.7282 36.8991 46.7599 35.1407 46.7599 32.9716C46.7599 30.8026 44.7282 29.0442 42.2221 29.0442C39.7159 29.0442 37.6842 30.8026 37.6842 32.9716C37.6842 35.1407 39.7159 36.8991 42.2221 36.8991Z" stroke="#0C9AD0" stroke-width="1.9916" stroke-linecap="round" stroke-linejoin="round"/>
<path d="M43.0947 28.8125C43.0947 28.8125 43.2692 26.8926 44.2001 26.0781C44.8096 26.7757 45.5641 27.3316 46.4108 27.7071L44.811 29.656" stroke="#0C9AD0" stroke-width="1.9916" stroke-linecap="round" stroke-linejoin="round"/>
<path d="M45.9455 30.4996L50.5705 27.678C50.5705 27.678 48.7609 30.1721 49.1161 32.594C49.4361 34.7756 48.8834 36.4918 45.5383 36.3173" stroke="#0C9AD0" stroke-width="1.9916" stroke-linecap="round" stroke-linejoin="round"/>
<path d="M49.3488 31.1398L52.7231 28.9482C52.7231 28.9482 51.0879 31.3066 51.4431 33.7285C51.7631 35.9102 51.0359 37.7621 47.6907 37.5876C47.6907 37.5876 45.8872 37.6555 45.1891 36.1428" stroke="#0C9AD0" stroke-width="1.9916" stroke-linecap="round" stroke-linejoin="round"/>
<path d="M41.2038 28.8125C41.2038 28.8125 41.0293 26.8926 40.0985 26.0781C39.489 26.7757 38.7345 27.3316 37.8877 27.7071L39.4875 29.656" stroke="#0C9AD0" stroke-width="1.9916" stroke-linecap="round" stroke-linejoin="round"/>
<path d="M38.3533 30.4996L33.7283 27.678C33.7283 27.678 35.5379 30.1721 35.1827 32.594C34.8627 34.7756 35.4154 36.4918 38.7604 36.3173" stroke="#0C9AD0" stroke-width="1.9916" stroke-linecap="round" stroke-linejoin="round"/>
<path d="M34.95 31.1398L31.5757 28.9482C31.5757 28.9482 33.2108 31.3066 32.8556 33.7285C32.5356 35.9102 33.2628 37.7621 36.608 37.5876C36.608 37.5876 38.4115 37.6555 39.1097 36.1428" stroke="#0C9AD0" stroke-width="1.9916" stroke-linecap="round" stroke-linejoin="round"/>
</svg>
