<svg width="85" height="64" viewBox="0 0 85 64" fill="none" xmlns="http://www.w3.org/2000/svg">
<path d="M84.2989 0H0V64H84.2989V0Z" fill="#008C4B"/>
<path d="M8.67212 31.1178L42.2423 9.7887L75.6268 31.1178L42.4275 54.1157L8.67212 31.1178Z" fill="#F1B920"/>
<path d="M56.8574 31.9461C56.8573 32.3397 56.8374 32.7331 56.7975 33.1246C56.7178 34.2514 56.5032 35.3646 56.1583 36.4403C55.0886 39.7825 52.8594 42.6323 49.873 44.4752C46.8866 46.3181 43.3398 47.0329 39.8728 46.4904C36.4057 45.9479 33.2467 44.1839 30.966 41.5169C28.6853 38.8498 27.4331 35.4554 27.4354 31.9461C27.43 30.1557 27.762 28.3803 28.4141 26.7129C28.7534 25.7613 29.2096 24.8555 29.7723 24.0164C31.4871 21.3402 34.0229 19.2917 36.9997 18.1777C39.9766 17.0638 43.2342 16.9444 46.2846 17.8375C49.335 18.7306 52.014 20.588 53.92 23.1315C55.8261 25.675 56.8567 28.7677 56.8574 31.9461Z" fill="#0C9AD0"/>
<path d="M56.7976 33.1246C56.7179 34.2514 56.5033 35.3646 56.1584 36.4402L56.0982 36.4802C49.2871 27.332 31.7496 26.7328 28.4139 26.7128C28.7532 25.7612 29.2095 24.8554 29.7722 24.0164C35.026 24.176 49.2673 25.3346 56.7976 33.1246Z" fill="#EBEDED"/>
</svg>
