<svg width="85" height="64" viewBox="0 0 85 64" fill="none" xmlns="http://www.w3.org/2000/svg">
<path d="M84.3146 0H0V64H84.3146V0Z" fill="#EBEDED"/>
<path d="M36.2348 0H0V25.8477H36.2348V0Z" fill="#0C9AD0"/>
<path d="M84.3146 0H47.7603V25.8477H84.3146V0Z" fill="#E43B3A"/>
<path d="M36.2348 37.9526H0V64H36.2348V37.9526Z" fill="#E43B3A"/>
<path d="M84.3146 37.9526H47.7603V64H84.3146V37.9526Z" fill="#0C9AD0"/>
<path d="M41.8368 27.1324H41.8349H37.9469L38.8978 28.2443V32.3495C38.8926 32.7058 39.0241 33.0506 39.2652 33.3131C39.5064 33.5755 39.8389 33.7356 40.1944 33.7606C41.5137 33.929 41.8257 34.5094 41.8349 34.5272V34.5303L41.8359 34.5287L41.8368 34.5303L41.8378 34.5254C41.8519 34.4988 42.1686 33.9276 43.4772 33.7606C43.8327 33.7357 44.1652 33.5755 44.4064 33.3131C44.6475 33.0507 44.779 32.7058 44.7738 32.3495V28.2443L45.7247 27.1324H41.8368Z" fill="#008C4B"/>
<path d="M45.2608 35.1893C44.4856 34.7049 42.778 34.2864 41.8358 35.0529C40.8934 34.2864 39.1859 34.7049 38.4109 35.1893C37.7998 35.5447 37.16 35.8483 36.4983 36.097L37.017 36.3888L37.0818 37.0046C37.6973 36.721 38.2929 36.3961 38.8646 36.0322C39.8066 35.4355 41.7056 35.779 41.8247 35.8013V35.8052L41.8357 35.8033L41.8466 35.8052V35.8013C41.9658 35.779 43.8647 35.4355 44.8068 36.0322C45.3785 36.3961 45.9741 36.721 46.5896 37.0046L46.6545 36.3888L47.1731 36.097C46.5115 35.8483 45.8718 35.5447 45.2608 35.1893Z" fill="#008C4B"/>
<path d="M41.9491 25.3027C41.9491 25.3027 40.069 25.6268 39.4639 26.556H37.8646C38.3982 26.0396 39.0465 25.6568 39.7564 25.4389C40.4663 25.2211 41.2177 25.1744 41.9491 25.3027Z" fill="#008C4B"/>
<path d="M37.2811 27.0747L38.232 28.3929V31.7858C38.232 32.5205 38.1455 33.6442 39.0964 34.1845C38.6508 34.3643 38.2176 34.5737 37.7998 34.8112C37.5714 34.97 37.3332 35.1143 37.0866 35.2434C36.2349 34.1175 35.7383 32.7631 35.6604 31.3535C35.6465 29.7747 36.2248 28.2481 37.2811 27.0747Z" fill="#008C4B"/>
<path d="M41.9922 25.3026C41.9922 25.3026 43.8723 25.6268 44.4773 26.556H46.0765C45.5429 26.0396 44.8947 25.6568 44.1848 25.4389C43.4749 25.2211 42.7236 25.1744 41.9922 25.3026Z" fill="#008C4B"/>
<path d="M46.66 27.0747L45.7091 28.3929V31.7858C45.7091 32.5205 45.7956 33.6442 44.8447 34.1845C45.2904 34.3643 45.7235 34.5737 46.1413 34.8112C46.3698 34.97 46.608 35.1143 46.8545 35.2434C47.7063 34.1175 48.2029 32.7631 48.2808 31.3535C48.2947 29.7747 47.7164 28.2481 46.66 27.0747Z" fill="#008C4B"/>
</svg>
