<svg width="85" height="64" viewBox="0 0 85 64" fill="none" xmlns="http://www.w3.org/2000/svg">
<path d="M84.2989 0H0V64H84.2989V0Z" fill="#E43B3A"/>
<path d="M84.2989 0H0V32.6117H84.2989V0Z" fill="#F1B920"/>
<path d="M84.2989 31.3505H0V47.4483H84.2989V31.3505Z" fill="#0C9AD0"/>
<path d="M50.269 25.9278C52.4461 41.7073 45.1755 39.8698 45.1755 39.8698C45.1755 39.8698 49.3101 37.8924 48.8908 31.0812C48.4912 24.27 43.8772 23.0315 43.8772 23.0315C46.314 22.4124 45.2355 20.9343 47.9919 20.8743C49.5334 20.872 51.0621 20.5947 52.5062 20.0554C50.3055 18.5457 47.6577 17.8274 44.9958 18.018C44.8175 18.4338 44.5551 18.8081 44.2251 19.1175C43.8951 19.4269 43.5046 19.6646 43.0782 19.8157C43.278 19.0767 42.8785 18.4774 41.8399 18.4774C41.555 18.4624 41.2726 18.5373 41.0325 18.6914C40.7924 18.8455 40.6068 19.0711 40.5017 19.3364L40.3019 19.3762C39.8394 19.0303 39.4858 18.5589 39.2833 18.018C36.6275 17.8266 33.9858 18.5452 31.7929 20.0554C33.2304 20.5933 34.7523 20.8706 36.2871 20.8743C39.0635 20.9343 37.9849 22.4124 40.4218 23.0315C40.4218 23.0315 35.8076 24.2698 35.3883 31.0812C34.9888 37.8924 39.1235 39.8698 39.1235 39.8698C39.1235 39.8698 31.8328 41.7074 34.03 25.9278C32.9578 27.1875 32.1504 28.6503 31.6561 30.229C31.1619 31.8077 30.991 33.4698 31.1536 35.1161C31.6329 40.8886 36.0273 42.8861 39.2231 41.4881C39.2231 41.4881 38.5241 43.0262 38.8236 43.6852C39.1233 44.3242 39.5228 44.2044 40.4415 44.2044C41.3603 44.2044 41.2605 42.6264 42.1394 40.8487L42.1594 40.4093V40.8487C43.0183 42.6265 42.9383 44.2044 43.8572 44.2044C44.7761 44.2044 45.1557 44.3242 45.4751 43.6852C45.7747 43.0259 45.0755 41.4881 45.0755 41.4881C48.2515 42.8863 52.6658 40.8889 53.1452 35.1161C53.3078 33.4698 53.137 31.8077 52.6428 30.229C52.1486 28.6504 51.3413 27.1875 50.269 25.9278Z" fill="#231F20"/>
</svg>
