<svg width="85" height="64" viewBox="0 0 85 64" fill="none" xmlns="http://www.w3.org/2000/svg">
<path d="M84.2989 0H0V64H84.2989V0Z" fill="#0C9AD0"/>
<path d="M84.2989 21.6373H0V42.997H84.2989V21.6373Z" fill="#EBEDED"/>
<path d="M42.1495 39.8467C46.2479 39.8467 49.5703 36.5242 49.5703 32.4258C49.5703 28.3274 46.2479 25.005 42.1495 25.005C38.051 25.005 34.7286 28.3274 34.7286 32.4258C34.7286 36.5242 38.051 39.8467 42.1495 39.8467Z" stroke="#F1B920" stroke-width="0.697057" stroke-miterlimit="10"/>
<path d="M42.1497 27.8524L38.201 34.5937H46.0979L42.1497 27.8524Z" fill="#0C9AD0"/>
<path d="M46.7959 30.433L45.5505 30.4423L46.1948 31.5238L46.7959 30.433Z" fill="#0C9AD0"/>
<path d="M43.8619 32.2854L43.6707 31.9342L46.0798 30.6285L46.271 30.9797L43.8619 32.2854Z" fill="#0C9AD0"/>
<path d="M37.5029 30.433L38.7483 30.4423L38.1045 31.5238L37.5029 30.433Z" fill="#0C9AD0"/>
<path d="M40.4364 32.2859L38.0278 30.9802L38.219 30.629L40.6276 31.9347L40.4364 32.2859Z" fill="#0C9AD0"/>
<path d="M45.5521 27.8704L44.4037 28.3531L45.4113 29.1081L45.5521 27.8704Z" fill="#0C9AD0"/>
<path d="M43.5441 30.7008L43.2356 30.4493L44.9659 28.324L45.2743 28.576L43.5441 30.7008Z" fill="#0C9AD0"/>
<path d="M38.7467 27.8704L39.8951 28.3531L38.8875 29.1081L38.7467 27.8704Z" fill="#0C9AD0"/>
<path d="M40.7548 30.7008L39.0245 28.576L39.3325 28.324L41.0627 30.4493L40.7548 30.7008Z" fill="#0C9AD0"/>
<path d="M42.1497 25.9977L41.5197 27.0726H42.7793L42.1497 25.9977Z" fill="#0C9AD0"/>
<path d="M42.3327 26.9061H41.9348V29.8525H42.3327V26.9061Z" fill="#0C9AD0"/>
<path d="M47.952 32.8519C47.8862 34.3466 47.2461 35.7584 46.1652 36.7928C45.0842 37.8273 43.6457 38.4047 42.1495 38.4047C40.6533 38.4047 39.2148 37.8273 38.1338 36.7928C37.0528 35.7584 36.4127 34.3466 36.3469 32.8519C36.3475 32.115 36.4984 31.386 36.7903 30.7094C37.0823 30.0329 37.5091 29.423 38.0448 28.917C37.4759 29.6786 37.1301 30.5835 37.046 31.5304C36.962 32.4774 37.1431 33.429 37.5691 34.2789C37.9951 35.1288 38.6491 35.8434 39.458 36.3428C40.2669 36.8422 41.1988 37.1067 42.1495 37.1067C43.1002 37.1067 44.0321 36.8422 44.841 36.3428C45.6499 35.8434 46.3039 35.1288 46.7299 34.2789C47.1558 33.429 47.3369 32.4774 47.2529 31.5304C47.1689 30.5835 46.8231 29.6786 46.2542 28.917C46.7863 29.4258 47.2107 30.0362 47.5024 30.7122C47.794 31.3881 47.9469 32.1157 47.952 32.8519Z" fill="#0C9AD0"/>
</svg>
