<svg width="85" height="64" viewBox="0 0 85 64" fill="none" xmlns="http://www.w3.org/2000/svg">
<path d="M84.3146 0H0V21.633H84.3146V0Z" fill="#008C4B"/>
<path d="M84.3146 42.9863H0V64H84.3146V42.9863Z" fill="#E43B3A"/>
<path d="M84.3146 21.6331H0V42.9864H84.3146V21.6331Z" fill="#F1B920"/>
<path d="M42.1574 48.9238C51.4914 48.9238 59.0582 41.357 59.0582 32.023C59.0582 22.6889 51.4914 15.1222 42.1574 15.1222C32.8233 15.1222 25.2566 22.6889 25.2566 32.023C25.2566 41.357 32.8233 48.9238 42.1574 48.9238Z" fill="#0C9AD0"/>
<path d="M39.1243 32.2963C39.1243 32.2963 38.2517 32.1217 38.8625 29.8525C39.4734 27.5834 41.4806 21.9983 41.4806 21.9983C41.4806 21.9983 42.2079 22.8421 41.4516 25.2272C40.6953 27.6124 39.1243 32.2963 39.1243 32.2963Z" fill="#F1B920"/>
<path d="M41.762 34.9546C41.762 34.9546 41.3264 35.7307 39.357 34.4489C37.3876 33.167 32.6956 29.5328 32.6956 29.5328C32.6956 29.5328 33.7226 29.1017 35.7576 30.5578C37.7927 32.014 41.762 34.9546 41.762 34.9546Z" fill="#F1B920"/>
<path d="M45.2527 33.151C45.2527 33.151 45.8562 33.8051 44.0283 35.2818C42.2005 36.7585 37.2939 40.0975 37.2939 40.0975C37.2939 40.0975 37.2013 38.9876 39.2153 37.5022C41.2292 36.0168 45.2527 33.151 45.2527 33.151Z" fill="#F1B920"/>
<path d="M44.4382 29.3402C44.4382 29.3402 45.2451 28.9646 46.0949 31.1554C46.9448 33.3461 48.6308 39.0365 48.6308 39.0365C48.6308 39.0365 47.5453 38.7866 46.7439 36.416C45.9426 34.0455 44.4382 29.3402 44.4382 29.3402Z" fill="#F1B920"/>
<path d="M40.8892 28.9911C40.8892 28.9911 40.7792 28.1079 43.125 27.9709C45.4708 27.8338 51.4041 27.9741 51.4041 27.9741C51.4041 27.9741 50.8333 28.9306 48.3312 28.9664C45.8291 29.0023 40.8892 28.9911 40.8892 28.9911Z" fill="#F1B920"/>
<path d="M45.815 27.9327C45.815 27.9327 45.0589 27.9618 44.2441 25.402C43.4294 22.8421 42.2952 19.4094 42.2952 19.4094C42.2952 19.4094 41.4806 20.2532 42.1497 22.3766C42.8188 24.5 44.1277 28.2818 44.1277 28.2818L45.815 27.9327Z" fill="#F1B920"/>
<path d="M39.6861 27.1482C39.6861 27.1482 39.4718 27.8741 36.7858 27.8276C34.0998 27.7811 30.4847 27.7584 30.4847 27.7584C30.4847 27.7584 31.0236 28.7999 33.2497 28.8449C35.4757 28.8899 39.4774 28.8586 39.4774 28.8586L39.6861 27.1482Z" fill="#F1B920"/>
<path d="M37.1834 32.9091C37.1834 32.9091 37.8111 33.332 36.9575 35.8792C36.104 38.4263 34.9937 41.8668 34.9937 41.8668C34.9937 41.8668 36.1491 41.6666 36.8624 39.5575C37.5758 37.4484 38.7513 33.6232 38.7513 33.6232L37.1834 32.9091Z" fill="#F1B920"/>
<path d="M41.6949 37.0006C41.6949 37.0006 42.2948 36.5391 44.4409 38.1549C46.587 39.7707 49.4992 41.9129 49.4992 41.9129C49.4992 41.9129 49.6749 40.7535 47.9001 39.4093C46.1252 38.0651 42.8686 35.7393 42.8686 35.7393L41.6949 37.0006Z" fill="#F1B920"/>
<path d="M47.0189 33.8856C47.0189 33.8856 46.7681 33.1715 48.9737 31.6381C51.1793 30.1046 54.1245 28.0079 54.1245 28.0079C54.1245 28.0079 53.078 27.4785 51.2464 28.7443C49.4149 30.0101 46.1876 32.3765 46.1876 32.3765L47.0189 33.8856Z" fill="#F1B920"/>
<path d="M45.8441 26.7109C46.1467 25.9505 46.5372 25.228 47.0077 24.5583C47.9095 23.191 49.5385 20.9803 49.5385 20.9803C49.5385 20.9803 50.033 21.7365 48.7531 23.5402C47.4731 25.344 46.775 26.4782 45.8441 26.7109Z" fill="#F1B920"/>
<path d="M48.3458 33.6635C49.1626 33.7156 49.9705 33.8631 50.7531 34.103C52.3324 34.5369 54.9391 35.401 54.9391 35.401C54.9391 35.401 54.3732 36.1054 52.2619 35.4471C50.1506 34.7889 48.8554 34.4765 48.3458 33.6635Z" fill="#F1B920"/>
<path d="M42.2592 37.7926C42.4948 38.5764 42.6379 39.3851 42.6856 40.2022C42.8289 41.8337 42.9267 44.5782 42.9267 44.5782C42.9267 44.5782 42.0692 44.2933 41.951 42.0846C41.8327 39.876 41.6746 38.5535 42.2592 37.7926Z" fill="#F1B920"/>
<path d="M35.9782 33.9011C35.306 34.3678 34.5814 34.7544 33.8194 35.0529C32.3126 35.6945 29.7334 36.6378 29.7334 36.6378C29.7334 36.6378 29.7389 35.7342 31.8021 34.9376C33.8653 34.141 35.0737 33.5809 35.9782 33.9011Z" fill="#F1B920"/>
<path d="M38.3468 26.691C37.7057 26.1823 37.1262 25.6003 36.6202 24.957C35.5704 23.6998 33.9221 21.5034 33.9221 21.5034C33.9221 21.5034 34.7887 21.2475 36.1476 22.9924C37.5064 24.7373 38.3919 25.7325 38.3468 26.691Z" fill="#F1B920"/>
</svg>
