<svg width="85" height="64" viewBox="0 0 85 64" fill="none" xmlns="http://www.w3.org/2000/svg">
<path d="M84.3146 0H0V64H84.3146V0Z" fill="#0C9AD0"/>
<path d="M56.1198 0H28.1947V64H56.1198V0Z" fill="#EBEDED"/>
<path d="M36.9647 22.4664C36.9647 22.4664 30.0704 24.9972 30.0704 32.2406C30.0704 39.484 36.0921 43.3238 41.5027 41.8401C41.5027 41.8401 35.8302 38.6984 34.8703 33.2004C33.9103 27.7025 36.9647 22.4664 36.9647 22.4664Z" fill="#008C4B"/>
<path d="M47.3497 22.4664C47.3497 22.4664 54.244 24.9972 54.244 32.2406C54.244 39.484 48.2224 43.3238 42.8118 41.8401C42.8118 41.8401 48.4843 38.6984 49.4442 33.2004C50.4042 27.7025 47.3497 22.4664 47.3497 22.4664Z" fill="#008C4B"/>
<path d="M46.7389 40.5311L32.9504 23.7754C32.8802 23.7308 32.8198 23.6724 32.7728 23.6038C32.7258 23.5353 32.6932 23.4579 32.6769 23.3763C32.6606 23.2948 32.6609 23.2108 32.6779 23.1294C32.6949 23.048 32.7282 22.9709 32.7758 22.9027C33.1249 22.3791 50.8407 37.3897 50.8407 37.3897L46.7389 40.5311Z" fill="#008C4B"/>
<path d="M37.5429 40.5311L51.3315 23.7754C51.4016 23.7308 51.462 23.6724 51.509 23.6038C51.556 23.5353 51.5887 23.4579 51.605 23.3763C51.6213 23.2948 51.6209 23.2108 51.6039 23.1294C51.5869 23.048 51.5536 22.9709 51.5061 22.9027C51.157 22.3791 33.4412 37.3897 33.4412 37.3897L37.5429 40.5311Z" fill="#008C4B"/>
<path d="M37.6628 27.3535C37.7538 26.878 38.0189 26.4534 38.4062 26.1629C38.7936 25.8724 39.2753 25.7368 39.7573 25.7827C40.5784 25.8477 41.3946 25.9643 42.201 26.1317C41.6734 25.7013 41.2771 25.1314 41.0573 24.4869C40.8929 23.6492 41.3367 23.6492 41.2052 22.8771C41.0737 22.105 41.271 21.6943 41.8459 21.6779C42.4209 21.6615 42.7166 22.105 42.6837 22.9757C42.6837 22.9757 48.0264 26.2845 48.3755 30.9095C48.7246 35.5346 46.7174 37.2148 46.7174 37.2148C46.7174 37.2148 43.2484 42.4728 42.943 43.8909C42.6376 45.309 42.7902 42.1019 43.8593 40.1819C43.027 40.9875 41.9828 41.5399 40.8485 41.7746C40.8485 41.7746 40.4339 41.7746 40.5212 41.7527C42.7671 40.2881 44.69 38.3801 46.1719 36.1456C48.3537 32.7203 46.7828 27.9641 44.7975 26.568C44.8354 26.6653 44.8537 26.7693 44.8511 26.8737C44.8486 26.9782 44.8253 27.0811 44.7827 27.1765C44.7401 27.2719 44.679 27.3579 44.6028 27.4294C44.5267 27.501 44.4371 27.5567 44.3393 27.5934C44.3393 27.5934 47.3937 31.1713 46.0846 33.8332L38.4922 33.3532C38.4922 33.3532 38.3613 32.9823 38.8195 32.5896C38.972 32.4783 39.1514 32.4096 39.3393 32.3904C39.5271 32.3712 39.7167 32.4023 39.8885 32.4805L40.7176 31.9787L37.6628 27.3535Z" fill="#008C4B"/>
</svg>
