<svg width="85" height="64" viewBox="0 0 85 64" fill="none" xmlns="http://www.w3.org/2000/svg">
<path d="M84.3145 0H0V64H84.3145V0Z" fill="#0C9AD0"/>
<path d="M84.3145 31.9999H0V64H84.3145V31.9999Z" fill="#E43B3A"/>
<path d="M53.0621 23.205H31.2524V40.795H53.0621V23.205Z" fill="#EBEDED"/>
<path d="M41.9325 35.2965C41.9325 35.2965 41.519 28.5623 42.1689 26.2289C42.1689 26.2289 42.9663 29.3893 42.4347 35.326L41.9325 35.2965Z" fill="#008C4B"/>
<path d="M36.9993 27.5733L37.6573 29.1519L38.3587 29.2834L38.4463 28.6258L36.9993 27.5733Z" fill="#008C4B"/>
<path d="M41.9886 34.2135L37.7844 28.8647L38.1033 28.6132L42.308 33.962L41.9886 34.2135Z" fill="#008C4B"/>
<path d="M35.1857 28.9447L36.1336 30.3682L36.8475 30.3627L36.8075 29.7003L35.1857 28.9447Z" fill="#008C4B"/>
<path d="M41.9843 35.0858L36.2037 30.0603L36.47 29.7546L42.2511 34.7801L41.9843 35.0858Z" fill="#008C4B"/>
<path d="M34.0839 30.7326L35.1907 32.0372L35.8991 31.9495L35.7824 31.2959L34.0839 30.7326Z" fill="#008C4B"/>
<path d="M41.2193 35.7833L35.224 31.7243L35.4514 31.3879L41.4467 35.4469L41.2193 35.7833Z" fill="#008C4B"/>
<path d="M37.605 30.7526L37.2027 30.7219C37.1972 30.3751 37.3088 30.0366 37.5195 29.761C37.7301 29.4855 38.0276 29.289 38.3637 29.2034L38.4294 29.6034L38.3966 29.4033L38.4315 29.6034C38.1836 29.6724 37.9666 29.8238 37.8163 30.0327C37.6661 30.2417 37.5915 30.4956 37.605 30.7526Z" fill="#008C4B"/>
<path d="M38.0161 31.5539C37.9632 31.2227 37.9828 30.884 38.0733 30.5611C38.1639 30.2382 38.3234 29.9387 38.5408 29.6833L38.8163 29.9829L38.6785 29.8332L38.8163 29.9807C38.6452 30.1953 38.5217 30.4438 38.4538 30.7097C38.386 30.9756 38.3754 31.2529 38.4227 31.5233L38.0161 31.5539Z" fill="#008C4B"/>
<path d="M36.1204 32.2448C36.0775 31.8915 36.1159 31.5332 36.2326 31.197C36.3493 30.8609 36.5413 30.5558 36.7939 30.3052L37.065 30.6058C36.8604 30.8128 36.7053 31.0635 36.6114 31.3389C36.5175 31.6144 36.4871 31.9076 36.5226 32.1965L36.1204 32.2448Z" fill="#008C4B"/>
<path d="M40.1154 34.9943L35.9106 34.3872L35.9676 33.985L40.1718 34.5921L40.1154 34.9943Z" fill="#008C4B"/>
<path d="M39.7674 35.683L35.847 35.1658L35.8997 34.7636L39.82 35.2808L39.7674 35.683Z" fill="#008C4B"/>
<path d="M32.8668 37.9984C32.8153 37.9985 32.7656 37.9788 32.7279 37.9435C32.6903 37.9083 32.6675 37.86 32.6641 37.8085C32.6608 37.757 32.6772 37.7062 32.7099 37.6663C32.7427 37.6265 32.7894 37.6006 32.8406 37.5939C33.4584 37.483 34.0497 37.2559 34.583 36.9248C34.6442 36.8888 34.7098 36.8427 34.7863 36.7904C35.1977 36.4711 35.6681 36.2362 36.1705 36.0992C36.6729 35.9623 37.1975 35.9259 37.714 35.9923C38.9274 36.1891 40.1289 36.4534 41.3129 36.7839C41.3637 36.7993 41.4064 36.8339 41.4319 36.8804C41.4574 36.927 41.4636 36.9816 41.4493 37.0327C41.435 37.0838 41.4012 37.1272 41.3552 37.1536C41.3092 37.1801 41.2547 37.1875 41.2033 37.1742C40.0365 36.8489 38.8526 36.5886 37.6569 36.3947C37.1898 36.3353 36.7156 36.3693 36.2617 36.4949C35.8079 36.6204 35.3836 36.835 35.0135 37.1261C34.9326 37.1818 34.8605 37.2321 34.7949 37.2703C34.2143 37.6342 33.5681 37.8809 32.8927 37.9963C32.8841 37.9975 32.8755 37.9982 32.8668 37.9984Z" fill="#008C4B"/>
<path d="M39.376 35.493C39.3513 35.4931 39.3268 35.4882 39.3039 35.4788C39.2536 35.4595 39.2129 35.421 39.1908 35.3719C39.1687 35.3228 39.1669 35.2669 39.1859 35.2164C39.2277 35.0608 39.2504 34.9008 39.2536 34.7397C39.2559 34.6874 39.2784 34.6381 39.3163 34.602C39.3542 34.5659 39.4046 34.5459 39.457 34.5462H39.4657C39.4923 34.5473 39.5185 34.5535 39.5427 34.5647C39.5669 34.5759 39.5887 34.5917 39.6068 34.6113C39.6249 34.6309 39.6389 34.6539 39.6481 34.6789C39.6573 34.704 39.6614 34.7306 39.6603 34.7572C39.6535 34.9622 39.6219 35.1655 39.5663 35.3629C39.551 35.4009 39.5247 35.4336 39.4909 35.4567C39.457 35.4799 39.4171 35.4925 39.376 35.493Z" fill="#008C4B"/>
<path d="M37.0432 32.8767C36.6955 31.473 37.2684 30.7831 37.2946 30.7537L37.6029 31.016C37.5832 31.039 37.1438 31.5921 37.4368 32.7803L37.0432 32.8767Z" fill="#008C4B"/>
<path d="M36.3675 34.3753C35.8865 32.9486 36.3041 32.3517 36.3544 32.2883L36.6736 32.5376L36.514 32.4129L36.6758 32.5343C36.6736 32.5387 36.3391 33.0274 36.7525 34.2463L36.3675 34.3753Z" fill="#008C4B"/>
<path d="M38.0267 37.2689C38.8581 37.2689 39.532 36.595 39.532 35.7637C39.532 34.9323 38.8581 34.2584 38.0267 34.2584C37.1954 34.2584 36.5215 34.9323 36.5215 35.7637C36.5215 36.595 37.1954 37.2689 38.0267 37.2689Z" fill="#008C4B"/>
<path d="M38.027 37.1381C37.7551 37.138 37.4894 37.0572 37.2633 36.9061C37.0373 36.7549 36.8612 36.5402 36.7573 36.2889C36.6533 36.0377 36.6262 35.7613 36.6794 35.4946C36.7325 35.228 36.8635 34.983 37.0559 34.7909C37.2482 34.5987 37.4932 34.4679 37.7599 34.4149C38.0266 34.362 38.303 34.3893 38.5541 34.4935C38.8053 34.5976 39.0199 34.7739 39.1709 35C39.3219 35.2262 39.4024 35.492 39.4023 35.7639C39.4018 36.1284 39.2567 36.4778 38.9988 36.7354C38.741 36.993 38.3915 37.1378 38.027 37.1381ZM38.027 34.7953C37.8356 34.7954 37.6485 34.8522 37.4894 34.9586C37.3303 35.0651 37.2063 35.2163 37.1331 35.3931C37.0599 35.57 37.0407 35.7646 37.0781 35.9523C37.1155 36.1401 37.2077 36.3125 37.343 36.4479C37.4784 36.5832 37.6508 36.6754 37.8386 36.7128C38.0263 36.7501 38.2209 36.731 38.3978 36.6578C38.5746 36.5846 38.7258 36.4606 38.8322 36.3015C38.9387 36.1424 38.9955 35.9553 38.9956 35.7639C38.9953 35.5071 38.8932 35.2609 38.7116 35.0793C38.53 34.8977 38.2838 34.7956 38.027 34.7953Z" fill="#008C4B"/>
<path d="M38.027 36.2974C37.9215 36.2974 37.8184 36.2661 37.7306 36.2075C37.6429 36.1488 37.5745 36.0655 37.5341 35.968C37.4938 35.8705 37.4832 35.7633 37.5038 35.6598C37.5244 35.5563 37.5752 35.4612 37.6498 35.3866C37.7244 35.312 37.8195 35.2612 37.9229 35.2406C38.0264 35.22 38.1337 35.2306 38.2312 35.2709C38.3287 35.3113 38.412 35.3797 38.4706 35.4675C38.5293 35.5552 38.5605 35.6583 38.5605 35.7639C38.5602 35.9052 38.5038 36.0407 38.4039 36.1407C38.3039 36.2407 38.1684 36.297 38.027 36.2974ZM38.027 35.6371C37.9934 35.6371 37.9612 35.6504 37.9374 35.6742C37.9136 35.698 37.9003 35.7302 37.9002 35.7639C37.9002 35.9016 38.1539 35.9016 38.1539 35.7639C38.1539 35.7302 38.1405 35.698 38.1167 35.6742C38.0929 35.6504 38.0607 35.6371 38.027 35.6371Z" fill="#008C4B"/>
<path d="M38.2457 34.7264H37.839V35.3878H38.2457V34.7264Z" fill="#008C4B"/>
<path d="M38.2391 36.1487H37.8324V36.8057H38.2391V36.1487Z" fill="#008C4B"/>
<path d="M39.0787 35.5648H38.4163V35.9715H39.0787V35.5648Z" fill="#008C4B"/>
<path d="M37.6553 35.5594H36.9994V35.9661H37.6553V35.5594Z" fill="#008C4B"/>
<path d="M38.4534 35.6436L38.1647 35.357L38.6304 34.8891L38.9192 35.1757L38.4534 35.6436Z" fill="#008C4B"/>
<path d="M37.4453 36.6419L37.1565 36.3553L37.62 35.8918L37.9088 36.1784L37.4453 36.6419Z" fill="#008C4B"/>
<path d="M38.6283 36.6463L38.1604 36.1784L38.4492 35.8918L38.9171 36.3597L38.6283 36.6463Z" fill="#008C4B"/>
<path d="M37.6244 35.6359L37.1609 35.1713L37.4496 34.8847L37.9132 35.3493L37.6244 35.6359Z" fill="#008C4B"/>
<path d="M35.8297 35.3791C35.7793 35.3791 35.7307 35.3602 35.6935 35.3263C35.6563 35.2923 35.6331 35.2456 35.6285 35.1954C35.5737 34.7472 35.6394 34.2924 35.8187 33.878C35.8439 33.8307 35.8864 33.7949 35.9374 33.7784C35.9885 33.7619 36.0439 33.7659 36.092 33.7895C36.1397 33.8137 36.1759 33.8558 36.1927 33.9066C36.2095 33.9574 36.2056 34.0127 36.1817 34.0606C36.0392 34.407 35.9872 34.784 36.0308 35.1561C36.0362 35.2095 36.0201 35.263 35.986 35.3046C35.952 35.3462 35.9028 35.3726 35.8494 35.378C35.8428 35.378 35.8363 35.3791 35.8297 35.3791Z" fill="#008C4B"/>
<path d="M36.3631 35.4632C36.313 35.4629 36.2648 35.4442 36.2276 35.4105C36.1905 35.3768 36.1671 35.3305 36.162 35.2807C36.1229 34.9268 36.1541 34.5686 36.2538 34.2268C36.2703 34.1758 36.306 34.1332 36.3533 34.1079C36.4006 34.0826 36.4558 34.0767 36.5074 34.0912C36.559 34.107 36.6022 34.1425 36.6276 34.1901C36.653 34.2376 36.6585 34.2933 36.643 34.3449C36.5577 34.6348 36.531 34.9388 36.5643 35.2391C36.5671 35.2657 36.5646 35.2926 36.557 35.3182C36.5494 35.3438 36.5368 35.3676 36.5199 35.3884C36.5031 35.4091 36.4823 35.4263 36.4587 35.4389C36.4352 35.4516 36.4094 35.4595 36.3828 35.4621C36.3763 35.4621 36.3697 35.4632 36.3631 35.4632Z" fill="#008C4B"/>
<path d="M39.7542 35.8776C39.7161 35.8774 39.679 35.8664 39.647 35.8459C39.6021 35.8177 39.5699 35.7733 39.5573 35.7218C39.5446 35.6704 39.5525 35.6161 39.5792 35.5704C39.6773 35.3306 39.7278 35.074 39.7279 34.8149C39.7342 34.7623 39.7598 34.7139 39.7998 34.6792C39.8398 34.6444 39.8914 34.6258 39.9443 34.6269C39.9982 34.6305 40.0486 34.6552 40.0842 34.6958C40.1199 34.7364 40.138 34.7895 40.1346 34.8434C40.1356 35.1676 40.0647 35.4879 39.9269 35.7814C39.9086 35.8108 39.8832 35.835 39.853 35.8519C39.8228 35.8687 39.7887 35.8775 39.7542 35.8776Z" fill="#008C4B"/>
<path d="M40.3842 35.671C40.3739 35.6711 40.3637 35.67 40.3536 35.6677L39.8792 35.5933C39.8523 35.59 39.8264 35.5813 39.803 35.5677C39.7795 35.5542 39.7591 35.5361 39.7427 35.5145C39.7264 35.4929 39.7146 35.4683 39.708 35.4421C39.7013 35.4159 39.7 35.3886 39.7041 35.3618C39.7082 35.3351 39.7176 35.3094 39.7318 35.2864C39.746 35.2633 39.7647 35.2434 39.7867 35.2277C39.8087 35.212 39.8337 35.2008 39.8601 35.1949C39.8865 35.189 39.9138 35.1885 39.9404 35.1933L40.3012 35.2491C40.3206 35.2158 40.3346 35.1796 40.3427 35.1419C40.3572 35.0901 40.3914 35.046 40.4379 35.019C40.4845 34.992 40.5398 34.9844 40.5919 34.9976C40.6438 35.0113 40.6881 35.045 40.7151 35.0914C40.7422 35.1377 40.7498 35.1928 40.7363 35.2447C40.7045 35.3966 40.622 35.5331 40.5023 35.6317C40.468 35.6568 40.4267 35.6705 40.3842 35.671Z" fill="#008C4B"/>
<path d="M35.4913 36.5716C35.4987 36.5346 35.3875 35.9193 35.3875 35.9193L35.2615 35.8822L35.217 35.6895L35.306 35.6154L35.5061 35.6821L35.5136 35.8081L36.2697 36.2084L35.4913 36.5716Z" fill="#008C4B"/>
<path d="M35.329 35.7944C35.3189 35.7944 35.309 35.7921 35.2999 35.7878C35.2908 35.7834 35.2828 35.7771 35.2765 35.7693L34.3801 34.6717C34.3686 34.6579 34.3631 34.6401 34.3648 34.6223C34.3664 34.6045 34.3751 34.588 34.3888 34.5766C34.4032 34.5658 34.421 34.5608 34.4389 34.5626C34.4567 34.5644 34.4732 34.5729 34.485 34.5864L35.3815 35.684C35.3929 35.6978 35.3984 35.7155 35.3968 35.7333C35.3951 35.7512 35.3865 35.7676 35.3727 35.7791C35.3602 35.7888 35.3449 35.7942 35.329 35.7944Z" fill="#008C4B"/>
<path d="M34.4039 34.8179L34.8292 35.3732C34.6888 35.4677 34.5256 35.5228 34.3567 35.5327C34.246 35.5531 34.1431 35.6036 34.0592 35.6786C33.9753 35.7537 33.9137 35.8503 33.8811 35.958C33.8454 35.8405 33.8362 35.7165 33.8541 35.595C33.8719 35.4734 33.9165 35.3574 33.9845 35.2551C34.2178 34.9892 34.2975 35.0512 34.4039 34.8179Z" fill="#008C4B"/>
<path d="M47.3698 27.5733L46.7117 29.1519L46.0104 29.2834L45.9227 28.6258L47.3698 27.5733Z" fill="#008C4B"/>
<path d="M42.3804 34.2135L42.0609 33.962L46.2656 28.6132L46.5845 28.8647L42.3804 34.2135Z" fill="#008C4B"/>
<path d="M49.1833 28.9447L48.2354 30.3682L47.5215 30.3627L47.5615 29.7003L49.1833 28.9447Z" fill="#008C4B"/>
<path d="M42.3848 35.0858L42.1179 34.7801L47.899 29.7546L48.1653 30.0603L42.3848 35.0858Z" fill="#008C4B"/>
<path d="M50.2852 30.7326L49.179 32.0372L48.47 31.9495L48.5867 31.2959L50.2852 30.7326Z" fill="#008C4B"/>
<path d="M43.1497 35.7833L42.9224 35.4469L48.9177 31.3879L49.1451 31.7243L43.1497 35.7833Z" fill="#008C4B"/>
<path d="M46.7641 30.7525C46.7768 30.496 46.7023 30.2428 46.5526 30.0341C46.4029 29.8254 46.1869 29.6737 45.9398 29.6035L46.0056 29.2036C46.3417 29.2891 46.6391 29.4856 46.8498 29.7612C47.0605 30.0367 47.1721 30.3753 47.1665 30.7221L46.7641 30.7525Z" fill="#008C4B"/>
<path d="M46.353 31.5539L45.9485 31.5233C45.9952 31.2528 45.984 30.9755 45.9158 30.7096C45.8476 30.4437 45.7239 30.1953 45.5527 29.9807L45.8282 29.6833C46.0456 29.9387 46.2051 30.2382 46.2957 30.5611C46.3863 30.884 46.4058 31.2227 46.353 31.5539Z" fill="#008C4B"/>
<path d="M48.2487 32.2448L47.8464 32.1967C47.8819 31.9078 47.8515 31.6147 47.7575 31.3392C47.6636 31.0637 47.5085 30.8131 47.304 30.606L47.5751 30.3054C47.8277 30.556 48.0197 30.861 48.1364 31.1971C48.2531 31.5333 48.2915 31.8916 48.2487 32.2448Z" fill="#008C4B"/>
<path d="M44.2543 34.9943L44.1973 34.5921L48.4015 33.985L48.4584 34.3872L44.2543 34.9943Z" fill="#008C4B"/>
<path d="M44.6017 35.683L44.5491 35.2808L48.4694 34.7636L48.522 35.1658L44.6017 35.683Z" fill="#008C4B"/>
<path d="M51.502 37.9984C51.4932 37.9982 51.4845 37.9975 51.4758 37.9962C50.7998 37.8803 50.153 37.6337 49.5714 37.2703C49.508 37.2319 49.4358 37.1817 49.3549 37.126C48.985 36.8346 48.5607 36.6199 48.1068 36.4943C47.653 36.3688 47.1786 36.3349 46.7115 36.3947C45.5159 36.5886 44.3319 36.8488 43.1651 37.1741C43.1396 37.1817 43.1129 37.1841 43.0865 37.1812C43.0601 37.1783 43.0345 37.1701 43.0113 37.1572C42.988 37.1443 42.9676 37.1268 42.9512 37.1059C42.9349 37.0849 42.9228 37.0609 42.9159 37.0353C42.9084 37.0096 42.9061 36.9827 42.9091 36.9561C42.9121 36.9295 42.9204 36.9037 42.9334 36.8804C42.9464 36.857 42.9639 36.8364 42.9849 36.8198C43.0059 36.8033 43.03 36.791 43.0558 36.7838C44.2398 36.4534 45.4413 36.1891 46.6547 35.9923C47.1712 35.9259 47.6957 35.9622 48.1982 36.0991C48.7006 36.2361 49.171 36.471 49.5823 36.7904C49.659 36.8428 49.7245 36.889 49.7835 36.9248C50.3179 37.2554 50.9098 37.4824 51.5283 37.5939C51.5794 37.6005 51.6261 37.6264 51.6589 37.6663C51.6917 37.7061 51.7081 37.757 51.7048 37.8084C51.7014 37.8599 51.6786 37.9082 51.6409 37.9435C51.6033 37.9788 51.5536 37.9984 51.502 37.9984Z" fill="#008C4B"/>
<path d="M44.993 35.493C44.952 35.4925 44.912 35.4799 44.8782 35.4568C44.8443 35.4336 44.8181 35.401 44.8028 35.3629C44.7472 35.1656 44.7156 34.9622 44.7088 34.7573C44.7077 34.7306 44.7119 34.704 44.721 34.679C44.7302 34.654 44.7442 34.631 44.7623 34.6114C44.7804 34.5918 44.8022 34.576 44.8264 34.5648C44.8506 34.5536 44.8767 34.5473 44.9034 34.5463H44.9121C44.9645 34.5461 45.0148 34.5661 45.0527 34.6021C45.0906 34.6382 45.1131 34.6875 45.1155 34.7398C45.1187 34.9008 45.1414 35.0609 45.1832 35.2165C45.2022 35.2669 45.2004 35.3228 45.1782 35.372C45.1561 35.4211 45.1155 35.4595 45.0652 35.4788C45.0423 35.4883 45.0178 35.4931 44.993 35.493Z" fill="#008C4B"/>
<path d="M47.3259 32.8766L46.9324 32.7804C47.2254 31.5921 46.7859 31.0389 46.7662 31.0161L47.0745 30.7538C47.1008 30.7831 47.6736 31.4729 47.3259 32.8766Z" fill="#008C4B"/>
<path d="M48.0016 34.3753L47.6168 34.2463C48.0301 33.0273 47.6955 32.5387 47.6935 32.5343L48.0149 32.2883C48.065 32.3519 48.4825 32.9488 48.0016 34.3753Z" fill="#008C4B"/>
<path d="M46.3424 37.2689C47.1737 37.2689 47.8477 36.595 47.8477 35.7637C47.8477 34.9323 47.1737 34.2584 46.3424 34.2584C45.5111 34.2584 44.8372 34.9323 44.8372 35.7637C44.8372 36.595 45.5111 37.2689 46.3424 37.2689Z" fill="#008C4B"/>
<path d="M46.3421 37.1381C46.0702 37.138 45.8044 37.0572 45.5784 36.9061C45.3524 36.7549 45.1763 36.5402 45.0723 36.2889C44.9684 36.0377 44.9413 35.7613 44.9944 35.4946C45.0476 35.228 45.1786 34.983 45.3709 34.7909C45.5633 34.5987 45.8083 34.4679 46.075 34.4149C46.3417 34.362 46.6181 34.3893 46.8692 34.4935C47.1204 34.5976 47.335 34.7739 47.486 35C47.637 35.2262 47.7175 35.492 47.7174 35.7639C47.7168 36.1284 47.5718 36.4778 47.3139 36.7354C47.0561 36.993 46.7066 37.1378 46.3421 37.1381ZM46.3421 34.7953C46.1507 34.7954 45.9636 34.8522 45.8045 34.9586C45.6453 35.0651 45.5213 35.2163 45.4481 35.3931C45.3749 35.57 45.3558 35.7646 45.3932 35.9523C45.4306 36.1401 45.5228 36.3125 45.6581 36.4479C45.7935 36.5832 45.9659 36.6754 46.1536 36.7128C46.3414 36.7501 46.536 36.731 46.7128 36.6578C46.8897 36.5846 47.0409 36.4606 47.1473 36.3015C47.2537 36.1424 47.3106 35.9553 47.3107 35.7639C47.3104 35.5071 47.2082 35.2609 47.0266 35.0793C46.8451 34.8977 46.5989 34.7956 46.3421 34.7953Z" fill="#008C4B"/>
<path d="M46.3421 36.2974C46.2366 36.2974 46.1334 36.2661 46.0457 36.2075C45.958 36.1488 45.8896 36.0655 45.8492 35.968C45.8088 35.8705 45.7983 35.7633 45.8188 35.6598C45.8394 35.5563 45.8902 35.4612 45.9649 35.3866C46.0395 35.312 46.1345 35.2612 46.238 35.2406C46.3415 35.22 46.4488 35.2306 46.5463 35.2709C46.6438 35.3113 46.7271 35.3797 46.7857 35.4675C46.8443 35.5552 46.8756 35.6583 46.8756 35.7639C46.8752 35.9052 46.8189 36.0407 46.7189 36.1407C46.619 36.2407 46.4835 36.297 46.3421 36.2974ZM46.3421 35.6371C46.3085 35.6371 46.2762 35.6504 46.2525 35.6742C46.2287 35.698 46.2153 35.7302 46.2153 35.7639C46.2153 35.9016 46.4689 35.9016 46.4689 35.7639C46.4689 35.7302 46.4555 35.698 46.4318 35.6742C46.408 35.6504 46.3757 35.6371 46.3421 35.6371Z" fill="#008C4B"/>
<path d="M46.5301 34.7264H46.1234V35.3878H46.5301V34.7264Z" fill="#008C4B"/>
<path d="M46.5367 36.1487H46.13V36.8057H46.5367V36.1487Z" fill="#008C4B"/>
<path d="M45.9529 35.5648H45.2904V35.9715H45.9529V35.5648Z" fill="#008C4B"/>
<path d="M47.3696 35.5594H46.7137V35.9661H47.3696V35.5594Z" fill="#008C4B"/>
<path d="M45.9156 35.6436L45.4498 35.1757L45.7386 34.8891L46.2043 35.357L45.9156 35.6436Z" fill="#008C4B"/>
<path d="M46.9237 36.6419L46.4602 36.1784L46.7489 35.8918L47.2125 36.3553L46.9237 36.6419Z" fill="#008C4B"/>
<path d="M45.7408 36.6463L45.452 36.3597L45.9199 35.8918L46.2087 36.1784L45.7408 36.6463Z" fill="#008C4B"/>
<path d="M46.7446 35.6359L46.4558 35.3493L46.9194 34.8847L47.2081 35.1713L46.7446 35.6359Z" fill="#008C4B"/>
<path d="M48.5395 35.3791C48.5329 35.3791 48.5263 35.378 48.5198 35.378C48.4663 35.3726 48.4171 35.3462 48.3831 35.3046C48.349 35.263 48.3329 35.2095 48.3383 35.156C48.3819 34.784 48.33 34.407 48.1874 34.0606C48.1632 34.0125 48.1591 33.9567 48.176 33.9055C48.193 33.8544 48.2295 33.812 48.2776 33.7878C48.3258 33.7636 48.3815 33.7595 48.4327 33.7764C48.4838 33.7934 48.5262 33.8299 48.5504 33.878C48.7298 34.2924 48.7955 34.7472 48.7406 35.1954C48.7361 35.2456 48.7129 35.2923 48.6757 35.3262C48.6384 35.3602 48.5899 35.3791 48.5395 35.3791Z" fill="#008C4B"/>
<path d="M48.0058 35.4632C47.9992 35.4632 47.9927 35.4621 47.9861 35.4621C47.9596 35.4595 47.9338 35.4516 47.9102 35.4389C47.8867 35.4263 47.8659 35.4091 47.849 35.3884C47.8322 35.3676 47.8196 35.3438 47.812 35.3182C47.8043 35.2926 47.8019 35.2657 47.8047 35.2391C47.838 34.9388 47.8112 34.6348 47.7259 34.3449C47.7174 34.3191 47.7142 34.2919 47.7163 34.2649C47.7185 34.2379 47.726 34.2116 47.7385 34.1875C47.751 34.1634 47.7682 34.1421 47.7891 34.1248C47.8099 34.1074 47.834 34.0945 47.86 34.0866C47.8859 34.0787 47.9132 34.0761 47.9401 34.0789C47.9671 34.0817 47.9932 34.0899 48.017 34.103C48.0408 34.116 48.0617 34.1337 48.0785 34.155C48.0953 34.1763 48.1077 34.2007 48.115 34.2268C48.2147 34.5686 48.2459 34.9268 48.2068 35.2807C48.2017 35.3305 48.1783 35.3767 48.1412 35.4104C48.1041 35.4441 48.0559 35.4629 48.0058 35.4632Z" fill="#008C4B"/>
<path d="M44.6126 35.8753C44.5785 35.8755 44.545 35.8669 44.5151 35.8505C44.4853 35.834 44.4601 35.8102 44.442 35.7813C44.3042 35.4879 44.2333 35.1675 44.2343 34.8433C44.2309 34.7894 44.249 34.7364 44.2847 34.6958C44.3203 34.6552 44.3706 34.6304 44.4245 34.6269C44.4774 34.6264 44.5286 34.6452 44.5685 34.6798C44.6083 34.7145 44.6342 34.7625 44.641 34.8149C44.641 35.0743 44.6915 35.3313 44.7897 35.5714C44.8075 35.6023 44.8168 35.6374 44.8167 35.6731C44.8167 35.7088 44.8071 35.7438 44.7892 35.7747C44.7712 35.8055 44.7454 35.8311 44.7144 35.8487C44.6834 35.8664 44.6483 35.8756 44.6126 35.8753Z" fill="#008C4B"/>
<path d="M43.9851 35.6709C43.9426 35.6704 43.9014 35.6567 43.8671 35.6316C43.7474 35.5329 43.6649 35.3964 43.6331 35.2446C43.6196 35.1927 43.6272 35.1376 43.6542 35.0912C43.6813 35.0449 43.7256 35.0112 43.7774 34.9975C43.8033 34.9899 43.8304 34.9877 43.8571 34.9909C43.8838 34.9942 43.9096 35.0028 43.9329 35.0163C43.9562 35.0298 43.9765 35.0479 43.9926 35.0694C44.0088 35.091 44.0203 35.1156 44.0267 35.1418C44.035 35.1794 44.049 35.2156 44.0682 35.249L44.429 35.1932C44.4554 35.1882 44.4825 35.1886 44.5087 35.1944C44.5349 35.2003 44.5596 35.2115 44.5813 35.2272C44.603 35.243 44.6213 35.2631 44.635 35.2862C44.6486 35.3093 44.6574 35.3349 44.6608 35.3616C44.6649 35.388 44.6637 35.415 44.6574 35.4409C44.651 35.4669 44.6396 35.4914 44.6237 35.5129C44.6079 35.5345 44.5879 35.5526 44.565 35.5664C44.5421 35.5802 44.5167 35.5894 44.4902 35.5933L44.0158 35.6676C44.0057 35.6699 43.9954 35.671 43.9851 35.6709Z" fill="#008C4B"/>
<path d="M48.8776 36.5716C48.8702 36.5346 48.9814 35.9193 48.9814 35.9193L49.1074 35.8822L49.1518 35.6895L49.0629 35.6154L48.8628 35.6821L48.8554 35.8081L48.0992 36.2084L48.8776 36.5716Z" fill="#008C4B"/>
<path d="M49.0402 35.7944C49.0243 35.7942 49.0089 35.7888 48.9964 35.7791C48.9826 35.7676 48.974 35.7512 48.9723 35.7333C48.9707 35.7155 48.9762 35.6978 48.9876 35.684L49.8841 34.5864C49.8959 34.5729 49.9124 34.5644 49.9303 34.5626C49.9481 34.5608 49.966 34.5658 49.9803 34.5766C49.994 34.588 50.0026 34.6045 50.0043 34.6223C50.0059 34.6401 50.0004 34.6579 49.989 34.6717L49.0925 35.7693C49.0862 35.7771 49.0783 35.7834 49.0692 35.7878C49.0602 35.7921 49.0503 35.7944 49.0402 35.7944Z" fill="#008C4B"/>
<path d="M49.9652 34.8179L49.5399 35.3732C49.6803 35.4677 49.8435 35.5228 50.0125 35.5327C50.1232 35.5531 50.226 35.6036 50.3099 35.6786C50.3938 35.7537 50.4554 35.8503 50.488 35.958C50.5237 35.8405 50.5329 35.7165 50.515 35.595C50.4972 35.4734 50.4526 35.3574 50.3847 35.2551C50.1513 34.9892 50.0715 35.0512 49.9652 34.8179Z" fill="#008C4B"/>
<path d="M41.1543 35.5333C41.1543 35.5333 41.2136 35.17 42.1699 35.17C43.1262 35.17 43.2077 35.4888 43.2077 35.4888L43.23 37.3791C43.098 37.5008 42.9423 37.594 42.7726 37.6526C42.603 37.7113 42.423 37.7343 42.244 37.7201C41.8506 37.7298 41.4633 37.6214 41.1321 37.4087L41.1543 35.5333Z" fill="#008C4B"/>
<path d="M42.1704 35.1706C43.1267 35.1706 43.2083 35.4894 43.2083 35.4894L43.2305 37.3797C43.0985 37.5015 42.9428 37.5946 42.7732 37.6533C42.6035 37.7119 42.4235 37.7349 42.2446 37.7207C41.8511 37.7305 41.4638 37.622 41.1326 37.4094L41.1549 35.5339C41.1549 35.5339 41.2142 35.1707 42.1704 35.1707V35.1706ZM42.1704 35.0355C41.1294 35.0355 41.0295 35.4633 41.0215 35.5121L40.9974 37.408L40.9966 37.4766L41.0514 37.5177C41.4057 37.7484 41.8217 37.8664 42.2444 37.8561C42.443 37.8707 42.6424 37.8437 42.83 37.7767C43.0175 37.7098 43.189 37.6044 43.3335 37.4674L43.3663 37.429L43.3657 37.3785L43.3435 35.4882C43.3216 35.386 43.1806 35.0357 42.1704 35.0357V35.0355Z" fill="#008C4B"/>
<path d="M42.1961 35.9689C41.6954 35.9689 41.1575 35.8444 41.1575 35.571C41.1575 35.2966 41.6954 35.172 42.1961 35.172C42.6967 35.172 43.2346 35.2966 43.2346 35.571C43.2346 35.8444 42.6967 35.9689 42.1961 35.9689ZM42.1961 35.3753C41.6473 35.3753 41.3718 35.5175 41.3587 35.5721C41.3718 35.6235 41.6495 35.7656 42.1961 35.7656C42.7385 35.7656 43.016 35.6257 43.0335 35.571C43.0182 35.5164 42.7405 35.3753 42.1961 35.3753Z" fill="#008C4B"/>
<path d="M42.1856 37.7207C41.8324 37.7415 41.4821 37.6458 41.1884 37.4485C41.1767 37.4388 41.1673 37.4266 41.1609 37.4128C41.1544 37.399 41.1512 37.3839 41.1513 37.3687V35.5671C41.151 35.5534 41.1534 35.5398 41.1584 35.527C41.1634 35.5143 41.1709 35.5027 41.1805 35.4929C41.1901 35.4831 41.2015 35.4753 41.2142 35.47C41.2268 35.4646 41.2403 35.4619 41.254 35.4619C41.2677 35.4619 41.2813 35.4646 41.2939 35.47C41.3065 35.4753 41.318 35.4831 41.3276 35.4929C41.3371 35.5027 41.3446 35.5143 41.3497 35.527C41.3547 35.5398 41.3571 35.5534 41.3568 35.5671V37.314C41.6096 37.4548 41.8963 37.5237 42.1855 37.513C42.4798 37.5222 42.7715 37.4543 43.0316 37.3162V35.578C43.0313 35.5643 43.0337 35.5507 43.0388 35.5379C43.0438 35.5252 43.0513 35.5136 43.0609 35.5038C43.0704 35.494 43.0819 35.4862 43.0945 35.4809C43.1071 35.4755 43.1207 35.4728 43.1344 35.4728C43.1481 35.4728 43.1616 35.4755 43.1743 35.4809C43.1869 35.4862 43.1983 35.494 43.2079 35.5038C43.2175 35.5136 43.225 35.5252 43.23 35.5379C43.235 35.5507 43.2375 35.5643 43.2371 35.578V37.372C43.2375 37.3878 43.2341 37.4035 43.2273 37.4178C43.2204 37.432 43.2103 37.4445 43.1978 37.4542C42.896 37.6453 42.5425 37.7384 42.1856 37.7207Z" fill="#008C4B"/>
<path d="M42.2009 36.2831C41.853 36.3006 41.5068 36.2255 41.1973 36.0656C41.1741 36.0511 41.1577 36.0279 41.1515 36.0012C41.1454 35.9746 41.1501 35.9465 41.1647 35.9234C41.1792 35.9002 41.2024 35.8837 41.229 35.8776C41.2557 35.8714 41.2837 35.8762 41.3069 35.8907C41.5849 36.0258 41.8923 36.0893 42.2012 36.0754C42.4989 36.094 42.796 36.0309 43.0605 35.8928C43.0833 35.8777 43.1112 35.872 43.1382 35.8771C43.1651 35.8823 43.189 35.8977 43.2047 35.9202C43.2201 35.9427 43.226 35.9704 43.2211 35.9972C43.2161 36.024 43.2009 36.0479 43.1785 36.0635C42.88 36.2278 42.541 36.304 42.2009 36.2831Z" fill="#008C4B"/>
<path d="M42.2009 37.3949C41.8532 37.4123 41.507 37.3377 41.1973 37.1784C41.1858 37.1713 41.1759 37.1619 41.168 37.1509C41.1601 37.1399 41.1545 37.1274 41.1515 37.1142C41.1484 37.101 41.148 37.0873 41.1502 37.074C41.1524 37.0606 41.1573 37.0479 41.1645 37.0364C41.1714 37.0247 41.1807 37.0145 41.1917 37.0065C41.2027 36.9985 41.2153 36.9927 41.2285 36.9897C41.2418 36.9866 41.2556 36.9862 41.269 36.9886C41.2824 36.991 41.2952 36.9961 41.3066 37.0035C41.5847 37.1384 41.8921 37.2015 42.2009 37.1871C42.4984 37.2051 42.7953 37.1424 43.0602 37.0057C43.0831 36.9907 43.1109 36.9852 43.1378 36.9903C43.1647 36.9955 43.1886 37.0108 43.2044 37.0331C43.2198 37.0556 43.2257 37.0833 43.2208 37.1101C43.2159 37.1369 43.2006 37.1607 43.1782 37.1762C42.8796 37.3399 42.5408 37.4157 42.2009 37.3949Z" fill="#008C4B"/>
<path d="M41.7177 37.3286C41.6966 37.327 41.6763 37.3198 41.6589 37.3077C41.6416 37.2956 41.6278 37.279 41.6191 37.2597L41.2037 36.0954C41.1948 36.0695 41.1964 36.041 41.2083 36.0163C41.2201 35.9915 41.2413 35.9724 41.2671 35.9631C41.28 35.9581 41.2936 35.9557 41.3074 35.9562C41.3212 35.9566 41.3347 35.9598 41.3472 35.9657C41.3596 35.9715 41.3708 35.9798 41.38 35.9901C41.3891 36.0004 41.3961 36.0124 41.4005 36.0254L41.7306 36.9514L42.1067 36.1359C42.115 36.118 42.1283 36.1028 42.1449 36.0921C42.1616 36.0814 42.1809 36.0757 42.2007 36.0756C42.2203 36.0758 42.2395 36.0813 42.2562 36.0918C42.2728 36.1022 42.2861 36.1171 42.2947 36.1347L42.6665 36.9218L42.931 36.0527C42.9394 36.0267 42.9575 36.0049 42.9815 35.9919C43.0055 35.9789 43.0337 35.9756 43.06 35.9828C43.073 35.9867 43.0851 35.9931 43.0956 36.0017C43.1061 36.0104 43.1147 36.021 43.121 36.033C43.1273 36.045 43.1312 36.0582 43.1323 36.0717C43.1335 36.0852 43.132 36.0988 43.1278 36.1117L42.7867 37.2389C42.7813 37.2589 42.7698 37.2768 42.7537 37.29C42.7376 37.3031 42.7178 37.3109 42.697 37.3121L42.6883 37.3132C42.6687 37.3131 42.6495 37.3075 42.6329 37.2971C42.6163 37.2866 42.6029 37.2718 42.5943 37.2542L42.2029 36.4244L41.8115 37.2682C41.803 37.286 41.7897 37.301 41.7732 37.3117C41.7566 37.3223 41.7374 37.3282 41.7177 37.3286Z" fill="#008C4B"/>
<path d="M41.9778 28.2989C41.9778 28.2989 40.9325 29.6109 40.5767 29.9223C40.5767 29.9223 40.2209 28.8103 41.3328 27.4982C40.8877 27.7966 40.5337 28.2122 40.3099 28.6992C40.0644 28.9534 39.7456 29.1245 39.3981 29.1884C39.3981 29.1884 39.3091 28.0542 41.1327 27.0312C40.2856 27.2602 39.4044 27.3355 38.5308 27.2536C38.5308 27.2536 38.7087 26.3419 40.1097 26.3641C40.1097 26.3641 38.9755 25.8304 38.5752 25.5635C38.5752 25.5635 39.6649 24.585 41.6219 26.075C41.6219 26.075 41.3551 25.141 42.5115 24.3626C42.7186 24.6039 42.8551 24.8976 42.9061 25.2115C42.9571 25.5254 42.9206 25.8472 42.8006 26.1417C42.8006 26.1417 44.8021 25.3411 45.7139 26.7422C45.022 26.7319 44.3304 26.7765 43.6456 26.8756C43.6456 26.8756 45.7805 27.4982 45.3803 28.966C44.5022 28.4346 43.6692 27.8321 42.8895 27.1647C42.8895 27.1647 44.2461 28.3878 44.3128 29.5442C43.5129 29.0794 42.8346 28.4316 42.3336 27.6539L41.9778 28.2989Z" fill="#008C4B"/>
<path d="M38.8125 38.462C38.8125 38.462 39.109 37.8393 38.5753 37.8096C38.0415 37.78 37.9526 38.0913 36.9593 38.0764C36.3585 38.0199 35.7565 38.1717 35.2544 38.5064C35.0055 38.7144 34.7165 38.8692 34.4053 38.961C34.0942 39.0528 33.7675 39.0797 33.4456 39.0401C33.7029 39.1889 33.9935 39.2705 34.2907 39.2774C34.0233 39.3409 33.7499 39.3757 33.4752 39.3811C33.748 39.4644 34.035 39.4902 34.3182 39.4571C34.6014 39.4239 34.8747 39.3324 35.1209 39.1884C35.9956 38.6991 36.2921 38.5364 36.9889 38.6102C37.6007 38.678 38.2198 38.6277 38.8125 38.462Z" fill="#008C4B"/>
<path d="M45.5958 38.462C45.5958 38.462 45.2993 37.8393 45.833 37.8096C46.3667 37.78 46.4557 38.0913 47.449 38.0764C48.0499 38.0199 48.6518 38.1717 49.154 38.5064C49.4029 38.7144 49.6919 38.8692 50.003 38.961C50.3141 39.0528 50.6408 39.0797 50.9628 39.0401C50.7055 39.1889 50.4148 39.2705 50.1177 39.2774C50.385 39.3409 50.6584 39.3757 50.9331 39.3811C50.6604 39.4644 50.3733 39.4902 50.0901 39.4571C49.8069 39.4239 49.5336 39.3324 49.2875 39.1884C48.4127 38.6991 48.1162 38.5364 47.4194 38.6102C46.8077 38.678 46.1886 38.6277 45.5958 38.462Z" fill="#008C4B"/>
<path d="M38.2632 38.1945V38.8172C38.2632 38.8172 39.0935 39.2619 42.1328 39.2619C45.1721 39.2619 46.106 38.832 46.106 38.832V38.1945C44.8038 38.4964 43.4692 38.6358 42.1328 38.6096C40.8302 38.6427 39.5291 38.5031 38.2632 38.1945Z" fill="#008C4B"/>
<path d="M46.1068 38.1951V38.8326C46.1068 38.8326 45.1727 39.2626 42.1334 39.2626C39.0941 39.2626 38.2639 38.8178 38.2639 38.8178V38.1951C39.5297 38.5037 40.8309 38.6433 42.1334 38.6102C43.4699 38.6365 44.8045 38.497 46.1068 38.1951ZM46.1068 38.0599C46.0945 38.0599 46.0823 38.0615 46.0704 38.0649C44.7797 38.3615 43.4576 38.4992 42.1335 38.475C40.8443 38.5058 39.5565 38.3682 38.3029 38.0656C38.2827 38.0596 38.2613 38.0583 38.2406 38.0619C38.2198 38.0656 38.2002 38.074 38.1833 38.0866C38.1664 38.0992 38.1526 38.1156 38.1432 38.1344C38.1337 38.1532 38.1288 38.174 38.1288 38.1951V38.8178C38.1288 38.8423 38.1354 38.8663 38.1479 38.8872C38.1605 38.9082 38.1785 38.9254 38.2 38.937C38.2351 38.9558 39.0952 39.3978 42.1334 39.3978C45.1675 39.3978 46.124 38.9735 46.1632 38.9555C46.1867 38.9447 46.2066 38.9273 46.2206 38.9056C46.2345 38.8838 46.2419 38.8585 46.2419 38.8326V38.1951C46.2419 38.1592 46.2276 38.1248 46.2023 38.0995C46.1769 38.0741 46.1425 38.0599 46.1066 38.0599H46.1068Z" fill="#008C4B"/>
</svg>
