<svg width="85" height="64" viewBox="0 0 85 64" fill="none" xmlns="http://www.w3.org/2000/svg">
<path d="M29.3105 22.7056L30.505 25.1252L33.1755 25.5131L31.243 27.3969L31.6995 30.0565L29.3105 28.8006L26.9222 30.0565L27.3785 27.3969L25.446 25.5131L28.1166 25.1252L29.3105 22.7056Z" fill="#0C9AD0"/>
<path d="M29.3105 32.4794L30.505 34.8995L33.1755 35.2875L31.243 37.1706L31.6995 39.8302L29.3105 38.575L26.9222 39.8302L27.3785 37.1706L25.446 35.2875L28.1166 34.8995L29.3105 32.4794Z" fill="#0C9AD0"/>
<path d="M50.5171 22.7056L51.7115 25.1252L54.3815 25.5131L52.4496 27.3969L52.9055 30.0565L50.5171 28.8006L48.1287 30.0565L48.5846 27.3969L46.6526 25.5131L49.3232 25.1252L50.5171 22.7056Z" fill="#0C9AD0"/>
<path d="M39.8705 27.6796L41.0644 30.0997L43.735 30.4876L41.8025 32.3709L42.2589 35.0305L39.8705 33.7752L37.4816 35.0305L37.938 32.3709L36.0055 30.4876L38.676 30.0997L39.8705 27.6796Z" fill="#0C9AD0"/>
<path d="M50.5171 32.4794L51.7115 34.8995L54.3815 35.2875L52.4496 37.1706L52.9055 39.8302L50.5171 38.575L48.1287 39.8302L48.5846 37.1706L46.6526 35.2875L49.3232 34.8995L50.5171 32.4794Z" fill="#0C9AD0"/>
<path d="M84.3146 42.367H0V64H84.3146V42.367Z" fill="#0C9AD0"/>
<path d="M84.3146 0H0V21.0137H84.3146V0Z" fill="#0C9AD0"/>
<path d="M84.3146 21.0137H0V42.367H84.3146V21.0137Z" fill="#EBEDED"/>
<path d="M31.5542 22.7056L32.7482 25.1252L35.4187 25.5131L33.4862 27.3969L33.9426 30.0565L31.5542 28.8006L29.1659 30.0565L29.6217 27.3969L27.6892 25.5131L30.3598 25.1252L31.5542 22.7056Z" fill="#0C9AD0"/>
<path d="M31.5542 32.4794L32.7482 34.8995L35.4187 35.2875L33.4862 37.1706L33.9426 39.8302L31.5542 38.575L29.1659 39.8302L29.6217 37.1706L27.6892 35.2875L30.3598 34.8995L31.5542 32.4794Z" fill="#0C9AD0"/>
<path d="M52.7603 22.7056L53.9548 25.1252L56.6254 25.5131L54.6928 27.3969L55.1493 30.0565L52.7603 28.8006L50.372 30.0565L50.8284 27.3969L48.8959 25.5131L51.5664 25.1252L52.7603 22.7056Z" fill="#0C9AD0"/>
<path d="M42.1137 27.6796L43.3077 30.0997L45.9782 30.4876L44.0463 32.3709L44.5021 35.0305L42.1137 33.7752L39.7253 35.0305L40.1812 32.3709L38.2493 30.4876L40.9193 30.0997L42.1137 27.6796Z" fill="#0C9AD0"/>
<path d="M52.7603 32.4794L53.9548 34.8995L56.6254 35.2875L54.6928 37.1706L55.1493 39.8302L52.7603 38.575L50.372 39.8302L50.8284 37.1706L48.8959 35.2875L51.5664 34.8995L52.7603 32.4794Z" fill="#0C9AD0"/>
</svg>
