<svg width="85" height="64" viewBox="0 0 85 64" fill="none" xmlns="http://www.w3.org/2000/svg">
<path d="M84.3146 42.367H0V64H84.3146V42.367Z" fill="#008C4B"/>
<path d="M84.3146 0H0V21.0137H84.3146V0Z" fill="black"/>
<path d="M84.3146 21.2173H0V43.6121H84.3146V21.2173Z" fill="#E43B3A"/>
<path d="M84.3146 17.6636H0V21.3626H84.3146V17.6636Z" fill="#EBEDED"/>
<path d="M84.3146 42.5353H0V46.2344H84.3146V42.5353Z" fill="#EBEDED"/>
<path d="M55.6548 6.28992C55.6548 6.28992 49.0224 9.78071 48.906 17.6931C48.906 17.6931 55.6548 15.3659 55.6548 6.28992Z" fill="#EBEDED"/>
<path d="M48.941 18.7121C48.7684 18.713 48.5987 18.6678 48.4494 18.5814C48.3352 18.517 48.2348 18.4308 48.1541 18.3275C48.0733 18.2243 48.0137 18.1061 47.9788 17.9798C47.9438 17.8535 47.9341 17.7215 47.9502 17.5914C47.9664 17.4613 48.0081 17.3357 48.0729 17.2218L49.6666 14.4089C49.7307 14.294 49.8169 14.193 49.9202 14.1115C50.0235 14.0301 50.1419 13.9699 50.2686 13.9344C50.3952 13.8989 50.5276 13.8888 50.6582 13.9047C50.7887 13.9206 50.9149 13.9621 51.0294 14.0269C51.1438 14.0918 51.2444 14.1786 51.3251 14.2824C51.4059 14.3862 51.4653 14.505 51.5 14.6318C51.5347 14.7587 51.544 14.8912 51.5273 15.0217C51.5106 15.1522 51.4683 15.278 51.4027 15.3921L49.809 18.2049C49.7225 18.359 49.5965 18.4872 49.4439 18.5764C49.2913 18.6656 49.1177 18.7124 48.941 18.7121Z" fill="#EBEDED"/>
<path d="M28.8917 54.0645C28.7186 54.0651 28.5484 54.02 28.3982 53.9338C28.2841 53.8691 28.1838 53.7825 28.1032 53.679C28.0226 53.5756 27.9632 53.4572 27.9284 53.3307C27.8936 53.2042 27.8841 53.0721 27.9005 52.942C27.9168 52.8118 27.9587 52.6861 28.0237 52.5722L33.4992 42.9182C33.6311 42.6899 33.8479 42.523 34.1023 42.4539C34.3568 42.3848 34.6283 42.4192 34.8575 42.5495C35.0868 42.6798 35.2551 42.8955 35.3259 43.1495C35.3967 43.4035 35.3642 43.6752 35.2354 43.9053L29.7598 53.5593C29.6728 53.7128 29.5466 53.8405 29.3941 53.9293C29.2415 54.0181 29.0682 54.0647 28.8917 54.0645Z" fill="#EBEDED"/>
<path d="M28.6598 6.28992C28.6598 6.28992 35.2923 9.78071 35.4087 17.6931C35.4084 17.6931 28.6598 15.3659 28.6598 6.28992Z" fill="#EBEDED"/>
<path d="M35.5903 19.0945C35.4136 19.0948 35.24 19.0479 35.0874 18.9588C34.9349 18.8696 34.8088 18.7414 34.7223 18.5873L32.912 15.3921C32.8475 15.2781 32.806 15.1525 32.79 15.0225C32.7739 14.8925 32.7837 14.7605 32.8186 14.6343C32.8536 14.508 32.9131 14.3899 32.9938 14.2866C33.0744 14.1834 33.1745 14.097 33.2885 14.0324C33.4025 13.9679 33.5281 13.9264 33.6581 13.9104C33.7881 13.8944 33.9201 13.9041 34.0463 13.9391C34.1726 13.974 34.2907 14.0335 34.394 14.1141C34.4972 14.1947 34.5836 14.2949 34.6481 14.4089L36.4584 17.6041C36.5232 17.7181 36.5649 17.8437 36.581 17.9738C36.5972 18.1038 36.5875 18.2358 36.5525 18.3622C36.5175 18.4885 36.4579 18.6066 36.3772 18.7099C36.2964 18.8131 36.1961 18.8994 36.0819 18.9638C35.9325 19.0502 35.7628 19.0953 35.5903 19.0945Z" fill="#EBEDED"/>
<path d="M55.4231 54.0645C55.2466 54.0647 55.0732 54.0181 54.9207 53.9293C54.7682 53.8405 54.642 53.7128 54.555 53.5593L49.1613 44.0496C49.0965 43.9356 49.0548 43.81 49.0386 43.6799C49.0223 43.5497 49.0318 43.4177 49.0666 43.2913C49.1014 43.1648 49.1607 43.0465 49.2413 42.943C49.3218 42.8395 49.4219 42.7528 49.5359 42.688C49.6499 42.6232 49.7756 42.5815 49.9057 42.5653C50.0358 42.549 50.1678 42.5585 50.2943 42.5933C50.4207 42.6281 50.5391 42.6874 50.6426 42.768C50.7461 42.8485 50.8327 42.9486 50.8975 43.0626L56.2911 52.5722C56.3561 52.6861 56.3979 52.8118 56.4143 52.9419C56.4306 53.0721 56.4211 53.2042 56.3863 53.3307C56.3515 53.4572 56.2922 53.5755 56.2116 53.679C56.131 53.7825 56.0307 53.8691 55.9166 53.9338C55.7665 54.02 55.5962 54.0651 55.4231 54.0645Z" fill="#EBEDED"/>
<path d="M42.2957 55.1784C46.2267 50.7922 52.4938 42.2654 52.4938 33.2453C52.4938 21.8726 46.1245 12.9978 42.2957 8.65838V8.61694C42.2902 8.62292 42.2843 8.63163 42.2786 8.63766C42.2731 8.63163 42.2667 8.62292 42.261 8.61694V8.65838C38.4322 12.9979 32.0629 21.8726 32.0629 33.2453C32.0629 42.2653 38.33 50.7921 42.261 55.1784V55.2189C42.2665 55.213 42.273 55.2049 42.2786 55.1988C42.2841 55.2049 42.29 55.213 42.2957 55.2189V55.1784Z" fill="#E43B3A"/>
<path d="M42.2662 33.4016C43.1016 33.4016 43.7788 32.7243 43.7788 31.8889C43.7788 31.0534 43.1016 30.3762 42.2662 30.3762C41.4307 30.3762 40.7534 31.0534 40.7534 31.8889C40.7534 32.7243 41.4307 33.4016 42.2662 33.4016Z" fill="#EBEDED"/>
<path d="M44.7292 21.125C44.6491 24.2006 43.9777 27.232 42.7516 30.0538V11.1177C44.0587 14.2921 44.7306 17.6921 44.7292 21.125Z" fill="#EBEDED"/>
<path d="M44.7292 43.8166C44.6491 46.8922 43.9777 49.9236 42.7516 52.7454V33.8093C44.0587 36.9837 44.7306 40.3837 44.7292 43.8166Z" fill="#EBEDED"/>
<path d="M39.8428 21.125C39.9229 24.2006 40.5943 27.232 41.8203 30.0538V11.1177C40.5132 14.2921 39.8413 17.6921 39.8428 21.125Z" fill="#EBEDED"/>
<path d="M34.5412 42.4883C35.4933 40.495 37.0111 36.6201 37.0111 32.5212C37.0056 28.6621 36.163 24.85 34.5412 21.3481V21.3293L34.5371 21.3386L34.5328 21.3293V21.3481C32.911 24.85 32.0683 28.662 32.0629 32.5212C32.0629 36.6202 33.5806 40.495 34.5328 42.4883V42.5067L34.5371 42.4975L34.5412 42.5067V42.4883Z" fill="#231F20"/>
<path d="M49.9589 42.4883C50.911 40.495 52.4288 36.6201 52.4288 32.5212C52.4234 28.6621 51.5807 24.85 49.9589 21.3481V21.3293L49.9547 21.3386L49.9505 21.3293V21.3481C48.3288 24.85 47.4861 28.662 47.4806 32.5212C47.4806 36.6202 48.9983 40.495 49.9505 42.4883V42.5067L49.9547 42.4975L49.9589 42.5067V42.4883Z" fill="#231F20"/>
<path d="M39.8428 43.8166C39.9228 46.8922 40.5942 49.9236 41.8203 52.7454V33.8093C40.5132 36.9837 39.8413 40.3837 39.8428 43.8166Z" fill="#EBEDED"/>
</svg>
