<svg width="85" height="64" viewBox="0 0 85 64" fill="none" xmlns="http://www.w3.org/2000/svg">
<path d="M84.3148 6.10352e-05H56.11V64.0001H84.3148V6.10352e-05Z" fill="#E43B3A"/>
<path d="M28.1848 0H0V64H28.1848V0Z" fill="#008C4B"/>
<path d="M56.11 6.10352e-05H28.1848V64.0001H56.11V6.10352e-05Z" fill="#EBEDED"/>
<path d="M30.9671 31.4142C30.9671 31.4142 31.4648 42.3628 41.8328 42.3628C52.2008 42.3628 53.3623 31.1654 53.3623 31.1654C53.3623 31.1654 53.777 44.3538 41.916 44.3538C30.055 44.3538 30.9671 31.4142 30.9671 31.4142Z" fill="#EE9929"/>
<path d="M36.9391 27.4329C36.9391 27.4329 36.4415 26.5206 37.7685 25.1935C39.0956 23.8664 40.008 23.2857 42.4964 25.4423C42.4964 25.4423 43.9064 24.7787 40.6718 23.5346C40.6718 23.5346 42.4964 21.5439 46.4779 23.3687C50.4594 25.1934 51.3716 32.0778 50.6251 34.6491C50.6251 34.6491 46.8097 32.4096 44.9849 29.9213C44.8435 30.2639 44.7996 30.6389 44.8582 31.0049C44.9167 31.3708 45.0754 31.7135 45.3167 31.9949C46.1461 33.1561 49.215 35.3956 49.215 35.3956C49.215 35.3956 46.5608 36.4739 45.3167 35.1468C44.0725 33.8196 44.5702 35.8932 44.5702 35.8932C44.5702 35.8932 45.8143 36.0592 46.0631 37.0544C46.7976 37.1035 47.5339 36.9903 48.2197 36.7227C48.9662 36.3079 49.298 37.0544 48.8833 37.6351C48.4686 38.2157 47.1414 38.7963 45.4826 38.4645C43.8237 38.1327 43.409 39.2939 43.409 39.2939H41.8328L42.0816 38.2986C42.0816 38.2986 40.091 38.5475 39.4274 38.1328C38.7638 37.718 35.7779 37.6351 34.202 35.7274C32.626 33.8197 34.2849 33.322 34.7828 33.7367C35.2806 34.1515 35.6122 35.3127 36.6904 35.3956C37.7687 35.4786 38.847 36.225 39.5935 35.9764C40.34 35.7278 41.9159 36.3911 41.9159 36.3911C42.3599 36.1044 42.8807 35.9598 43.4089 35.9764C43.104 35.0969 42.5219 34.3402 41.75 33.8199C40.34 32.7416 38.5152 29.9215 39.0958 28.3455C39.6764 26.7696 39.8423 26.521 39.3447 26.521C38.8471 26.521 38.2664 27.5992 38.2664 27.5992L36.9391 27.4329Z" fill="#EE9929"/>
<path d="M36.6488 24.364C36.6086 24.7603 36.4811 25.1427 36.2756 25.4838C35.9023 26.1888 36.8147 26.5206 37.5612 26.6865C38.3077 26.8523 38.7639 28.055 38.3906 28.511C38.0174 28.967 36.2341 30.1284 36.6073 30.6676C36.9806 31.2067 38.7639 30.7919 38.9713 31.5799C38.9713 31.5799 38.9713 34.6074 36.8147 34.483C34.6582 34.3585 35.8194 32.99 34.907 32.368C34.6509 32.1865 34.4629 31.9247 34.3727 31.6242C34.2826 31.3236 34.2954 31.0015 34.4093 30.7091C34.4093 30.7091 34.2434 29.382 33.5799 28.8429C32.9163 28.3037 35.2388 29.1747 35.1558 29.9626C35.0729 30.7506 35.0314 31.1653 35.4462 31.6215C35.8335 31.9292 36.0863 32.3753 36.1512 32.8657C36.2342 33.4878 37.1051 33.5707 37.5613 33.156C38.0175 32.7414 37.8517 32.368 37.2709 31.9948C36.6901 31.6216 35.7779 31.8289 35.7364 30.253C35.6949 28.6771 36.7732 28.8015 37.0635 28.3453C37.3538 27.8891 37.022 27.1011 36.1097 26.8938C35.1973 26.6864 34.9899 25.3593 35.2802 24.9031C35.4241 24.6822 35.6332 24.5117 35.8785 24.4151C36.1237 24.3185 36.393 24.3006 36.6488 24.364Z" fill="#EE9929"/>
<path d="M37.2294 33.8196C37.2294 33.8196 36.4829 33.1975 37.1879 32.7828C37.8929 32.3681 39.0542 32.534 39.4274 32.534C39.8006 32.534 39.8007 30.6263 39.8007 30.6263L42.1231 33.5293C42.1231 33.5293 41.9987 34.732 40.4227 34.5661C38.8468 34.4002 38.9713 32.9902 37.2294 33.8196Z" fill="#EE9929"/>
<path d="M38.4469 38.5569C38.2521 38.5724 38.0601 38.6126 37.8754 38.6763C37.0893 38.8346 36.3989 38.1025 35.6033 38.0018C35.4738 37.9854 35.3121 38.0043 35.2602 38.1241C35.2382 38.186 35.2412 38.2541 35.2683 38.3139C35.4492 38.7807 36.2755 38.8428 36.281 39.3435C36.2835 39.5777 36.0782 39.8038 36.1604 40.023C36.1969 40.0966 36.2553 40.1573 36.3275 40.1965C36.3998 40.2357 36.4824 40.2517 36.5641 40.2421C36.7267 40.2198 36.8849 40.1722 37.0329 40.1011C37.268 39.9932 37.5315 39.9639 37.7846 40.0175C37.9095 40.048 38.0203 40.1204 38.0982 40.2228C38.1762 40.3251 38.2166 40.4511 38.2128 40.5797C38.1739 40.6966 38.1539 40.8189 38.1535 40.9421C38.1803 41.0185 38.231 41.0842 38.2982 41.1295C38.3653 41.1748 38.4452 41.1972 38.5261 41.1934C38.6876 41.2 38.8474 41.152 39.009 41.1554C39.3122 41.2003 39.601 41.3146 39.8528 41.4894C40.6406 41.8734 41.5256 42.0121 42.3931 41.8875C43.2552 41.7615 44.0984 41.5295 44.9037 41.1968C45.0411 41.1589 45.1645 41.0816 45.2587 40.9745C45.3253 40.8403 45.3734 40.6978 45.4016 40.5507C45.6248 39.934 46.528 39.9725 47.0353 39.5568C47.108 39.4973 47.1768 39.395 47.1248 39.3167C47.1036 39.2934 47.0772 39.2754 47.0478 39.2642C47.0183 39.2529 46.9867 39.2487 46.9553 39.252C46.3133 39.2359 45.7174 39.6492 45.0756 39.6262C44.7426 39.5896 44.4163 39.5072 44.1058 39.3815C42.8684 39.0523 41.5876 38.9164 40.3087 38.9785C39.7937 38.9773 39.8018 39.4154 39.3353 39.139C39.0259 38.9556 38.8467 38.5795 38.4469 38.5569Z" fill="#EE9929"/>
</svg>
