<svg width="85" height="64" viewBox="0 0 85 64" fill="none" xmlns="http://www.w3.org/2000/svg">
<path d="M84.299 0H0V64H84.299V0Z" fill="#0099CE"/>
<path d="M84.299 21.0975H0V42.9024H84.299V21.0975Z" fill="#E7E7E8"/>
<path d="M50.7244 32.484C50.6758 32.4841 50.6277 32.4746 50.5828 32.4561C50.5379 32.4376 50.497 32.4104 50.4627 32.3762C50.4283 32.3419 50.401 32.3011 50.3823 32.2563C50.3637 32.2114 50.354 32.1633 50.354 32.1147C50.3568 31.0355 50.1466 29.9664 49.7356 28.9685C49.3245 27.9707 48.7206 27.0637 47.9585 26.2996C47.1963 25.5355 46.2909 24.9292 45.2941 24.5156C44.2973 24.1019 43.2287 23.889 42.1495 23.889C41.0703 23.889 40.0016 24.1019 39.0048 24.5156C38.008 24.9292 37.1027 25.5355 36.3405 26.2996C35.5784 27.0637 34.9745 27.9707 34.5634 28.9685C34.1523 29.9664 33.9422 31.0355 33.945 32.1147C33.945 32.213 33.906 32.3072 33.8365 32.3767C33.767 32.4461 33.6728 32.4851 33.5746 32.4851C33.4764 32.4851 33.3822 32.4461 33.3127 32.3767C33.2432 32.3072 33.2042 32.213 33.2042 32.1147C33.2101 29.7462 34.1551 27.4766 35.832 25.8038C37.509 24.131 39.7809 23.1916 42.1495 23.1916C44.5181 23.1916 46.79 24.131 48.4669 25.8038C50.1439 27.4766 51.0889 29.7462 51.0948 32.1147C51.0947 32.1633 51.0851 32.2114 51.0665 32.2563C51.0478 32.3011 51.0205 32.3419 50.9861 32.3762C50.9517 32.4104 50.9109 32.4376 50.866 32.4561C50.8211 32.4746 50.7729 32.4841 50.7244 32.484Z" fill="#008C4C"/>
<path d="M42.154 41.0586C40.4482 41.0544 38.7788 40.5646 37.3412 39.6465C35.9035 38.7284 34.757 37.42 34.0357 35.8742C33.9942 35.7853 33.9899 35.6835 34.0235 35.5913C34.0571 35.4991 34.126 35.4241 34.215 35.3827C34.3039 35.3412 34.4057 35.3369 34.4979 35.3705C34.5901 35.4041 34.6652 35.473 34.7066 35.562C35.364 36.9809 36.413 38.1826 37.7302 39.0255C39.0474 39.8684 40.578 40.3175 42.1419 40.3199C43.7057 40.3224 45.2377 39.8781 46.5576 39.0393C47.8774 38.2005 48.9302 37.0021 49.5921 35.5852C49.6335 35.4963 49.7085 35.4274 49.8007 35.3938C49.8929 35.3601 49.9947 35.3645 50.0836 35.4059C50.1726 35.4473 50.2415 35.5224 50.2751 35.6146C50.3087 35.7068 50.3044 35.8086 50.2629 35.8975C49.5385 37.4372 48.3919 38.7396 46.9564 39.6532C45.5209 40.5668 43.8555 41.0542 42.154 41.0586Z" fill="#008C4C"/>
<path d="M42.1751 34.5675C42.0876 34.5676 42.0029 34.5364 41.9363 34.4796C41.8697 34.4228 41.8255 34.3441 41.8117 34.2577L41.7605 33.9454C41.7523 33.8976 41.7537 33.8487 41.7646 33.8015C41.7754 33.7543 41.7955 33.7097 41.8236 33.6703C41.8518 33.6309 41.8874 33.5975 41.9286 33.5719C41.9697 33.5464 42.0155 33.5292 42.0633 33.5214C42.1113 33.5122 42.1607 33.5129 42.2085 33.5234C42.2562 33.5339 42.3013 33.5541 42.341 33.5827C42.3807 33.6112 42.4141 33.6476 42.4393 33.6895C42.4644 33.7314 42.4808 33.778 42.4873 33.8265L42.5385 34.1388C42.5466 34.1865 42.5452 34.2354 42.5344 34.2826C42.5235 34.3298 42.5034 34.3744 42.4753 34.4138C42.4471 34.4532 42.4115 34.4866 42.3704 34.5122C42.3293 34.5377 42.2835 34.5549 42.2357 34.5628C42.2157 34.566 42.1954 34.5675 42.1751 34.5675Z" fill="#008C4C"/>
<path d="M42.1238 34.5675C42.1035 34.5676 42.0833 34.566 42.0632 34.5628C42.0155 34.555 41.9697 34.5378 41.9286 34.5122C41.8875 34.4867 41.8518 34.4532 41.8237 34.4138C41.7955 34.3744 41.7755 34.3298 41.7646 34.2827C41.7537 34.2355 41.7523 34.1866 41.7604 34.1389L41.8117 33.8266C41.8179 33.778 41.834 33.7312 41.8591 33.6891C41.8841 33.647 41.9176 33.6105 41.9574 33.5818C41.9971 33.5532 42.0424 33.5331 42.0902 33.5227C42.1381 33.5123 42.1876 33.5119 42.2357 33.5214C42.2835 33.5292 42.3293 33.5464 42.3704 33.572C42.4115 33.5975 42.4472 33.631 42.4753 33.6704C42.5035 33.7098 42.5236 33.7544 42.5344 33.8016C42.5452 33.8488 42.5466 33.8977 42.5385 33.9454L42.4873 34.2577C42.4735 34.3441 42.4293 34.4228 42.3627 34.4796C42.2961 34.5364 42.2114 34.5676 42.1238 34.5675Z" fill="#008C4C"/>
<path d="M47.7636 36.1806H36.5354C36.4836 36.1804 36.4327 36.1668 36.3878 36.141C36.3428 36.1152 36.3054 36.0782 36.2791 36.0336C36.2527 35.9889 36.2385 35.9382 36.2377 35.8864C36.2369 35.8346 36.2496 35.7834 36.2746 35.738L41.8887 25.6268C41.9166 25.5829 41.9551 25.5468 42.0007 25.5217C42.0463 25.4967 42.0975 25.4836 42.1495 25.4836C42.2016 25.4836 42.2527 25.4967 42.2983 25.5217C42.3439 25.5468 42.3825 25.5829 42.4104 25.6268L48.0245 35.738C48.0495 35.7835 48.0622 35.8346 48.0614 35.8864C48.0606 35.9382 48.0463 35.9889 48.02 36.0335C47.9937 36.0782 47.9562 36.1152 47.9113 36.141C47.8663 36.1668 47.8155 36.1804 47.7636 36.1806ZM37.041 35.5842H47.2581L42.1496 26.3851L37.041 35.5842Z" fill="#008C4C"/>
<path d="M42.1877 31.4017C42.1404 31.4015 42.0939 31.3903 42.0518 31.3688C42.0097 31.3474 41.9733 31.3163 41.9454 31.2782L40.2985 29.0023C40.2533 28.938 40.2354 28.8585 40.2484 28.781C40.2615 28.7036 40.3045 28.6344 40.3682 28.5884C40.432 28.5425 40.5112 28.5235 40.5888 28.5355C40.6665 28.5476 40.7362 28.5898 40.783 28.6529L42.19 30.5968L43.5179 28.788C43.565 28.7252 43.635 28.6836 43.7126 28.6721C43.7903 28.6607 43.8693 28.6803 43.9325 28.7268C43.9957 28.7733 44.0381 28.8429 44.0503 28.9205C44.0625 28.998 44.0436 29.0772 43.9977 29.1409L42.4277 31.2805C42.3999 31.3181 42.3638 31.3486 42.3221 31.3697C42.2804 31.3907 42.2344 31.4017 42.1877 31.4017Z" fill="#008C4C"/>
<path d="M42.1495 31.3224C42.1104 31.3225 42.0716 31.3148 42.0354 31.2998C41.9992 31.2849 41.9663 31.2629 41.9386 31.2352C41.9109 31.2075 41.889 31.1746 41.874 31.1384C41.859 31.1022 41.8513 31.0634 41.8513 31.0243V26.1405C41.8524 26.0621 41.8843 25.9873 41.9401 25.9323C41.9959 25.8772 42.0711 25.8463 42.1495 25.8463C42.2279 25.8463 42.3031 25.8772 42.3589 25.9323C42.4148 25.9873 42.4466 26.0621 42.4477 26.1405V31.0243C42.4477 31.0634 42.44 31.1022 42.425 31.1384C42.4101 31.1746 42.3881 31.2075 42.3604 31.2352C42.3327 31.2629 42.2998 31.2848 42.2637 31.2998C42.2275 31.3148 42.1887 31.3225 42.1495 31.3224Z" fill="#008C4C"/>
<path d="M42.6105 31.3224C42.5454 31.3227 42.4821 31.3015 42.4303 31.2621C42.3785 31.2227 42.3411 31.1674 42.3239 31.1046L41.4015 27.7899C41.3802 27.7136 41.3901 27.6319 41.429 27.5629C41.4678 27.4939 41.5325 27.4431 41.6088 27.4218C41.6464 27.4111 41.6858 27.408 41.7247 27.4127C41.7635 27.4173 41.801 27.4297 41.8351 27.449C41.8691 27.4683 41.8989 27.4941 41.9229 27.525C41.9468 27.556 41.9644 27.5914 41.9745 27.6292L42.897 30.9439C42.9183 31.0202 42.9084 31.1019 42.8695 31.1709C42.8306 31.2399 42.7659 31.2907 42.6897 31.312C42.6638 31.3189 42.6372 31.3224 42.6105 31.3224Z" fill="#008C4C"/>
<path d="M41.6297 31.3224C41.5989 31.3223 41.5683 31.3176 41.5389 31.3085C41.4639 31.2842 41.4015 31.2313 41.3653 31.1613C41.3291 31.0913 41.322 31.0098 41.3455 30.9346L42.3845 27.6593C42.4093 27.5844 42.4624 27.5221 42.5325 27.4858C42.6025 27.4494 42.684 27.4419 42.7596 27.4648C42.8345 27.4891 42.8969 27.542 42.9331 27.612C42.9693 27.682 42.9764 27.7634 42.9529 27.8387L41.9139 31.1139C41.8948 31.1743 41.8569 31.2271 41.8059 31.2646C41.7548 31.302 41.6931 31.3223 41.6297 31.3224Z" fill="#008C4C"/>
<path d="M38.9756 30.8378C38.9513 30.8377 38.927 30.8346 38.9034 30.8285L37.1586 30.3858C37.082 30.3667 37.0162 30.3179 36.9755 30.2502C36.9349 30.1824 36.9228 30.1014 36.942 30.0248C36.9611 29.9482 37.01 29.8823 37.0777 29.8417C37.1454 29.8011 37.2265 29.789 37.3031 29.8081L39.0036 30.2391L46.9005 29.6963C46.9399 29.6921 46.9797 29.6959 47.0175 29.7077C47.0553 29.7196 47.0902 29.739 47.1202 29.7649C47.1501 29.7908 47.1744 29.8226 47.1915 29.8583C47.2086 29.894 47.2182 29.9328 47.2197 29.9724C47.225 30.0513 47.1987 30.129 47.1468 30.1886C47.0948 30.2482 47.0213 30.2847 46.9424 30.2902L38.9966 30.8364C38.9896 30.8375 38.9826 30.8379 38.9756 30.8378Z" fill="#008C4C"/>
<path d="M43.7 34.8877C43.6724 34.8879 43.6449 34.8839 43.6185 34.8761C43.3178 34.8082 43.034 34.6801 42.7842 34.4995C42.5343 34.319 42.3237 34.0897 42.1649 33.8255C42.0538 33.6246 41.9789 33.4058 41.9436 33.179L40.8277 34.5195C40.8028 34.5499 40.772 34.575 40.7373 34.5934C40.7026 34.6118 40.6646 34.6232 40.6254 34.6268C40.5863 34.6305 40.5468 34.6263 40.5093 34.6147C40.4718 34.603 40.4369 34.584 40.4068 34.5587C40.3767 34.5335 40.3518 34.5026 40.3337 34.4677C40.3156 34.4328 40.3045 34.3947 40.3012 34.3556C40.2979 34.3164 40.3024 34.2769 40.3144 34.2395C40.3264 34.2021 40.3457 34.1674 40.3712 34.1375L42.0391 32.1318C42.082 32.079 42.1421 32.0428 42.2089 32.0296C42.2757 32.0164 42.345 32.027 42.4048 32.0596C42.4655 32.0912 42.5134 32.1427 42.5406 32.2055C42.5677 32.2683 42.5724 32.3386 42.5539 32.4044C42.5143 32.5511 42.2021 33.8533 43.7816 34.3029C43.8507 34.3226 43.9104 34.3666 43.9497 34.4269C43.9889 34.4871 44.0051 34.5595 43.9951 34.6307C43.9852 34.702 43.9498 34.7672 43.8956 34.8144C43.8414 34.8616 43.7719 34.8876 43.7 34.8876V34.8877Z" fill="#008C4C"/>
<path d="M43.5833 34.7049C43.5638 34.7047 43.5443 34.7027 43.5251 34.6991C43.1125 34.608 42.7313 34.4099 42.4197 34.1246C42.108 33.8394 41.877 33.4771 41.7499 33.0742L40.9579 34.1645C40.9348 34.1964 40.9058 34.2233 40.8723 34.2439C40.8389 34.2645 40.8017 34.2783 40.7629 34.2845C40.7241 34.2907 40.6845 34.2892 40.6463 34.2801C40.6081 34.2711 40.5721 34.2545 40.5402 34.2315C40.5084 34.2085 40.4815 34.1794 40.4609 34.1459C40.4403 34.1125 40.4265 34.0753 40.4203 34.0366C40.4141 33.9978 40.4155 33.9582 40.4246 33.92C40.4337 33.8817 40.4503 33.8457 40.4733 33.8139L41.6474 32.1984C41.683 32.1494 41.7328 32.1124 41.79 32.0923C41.8472 32.0723 41.9092 32.0702 41.9676 32.0862C42.0261 32.1023 42.0782 32.1358 42.1171 32.1823C42.1561 32.2288 42.1799 32.286 42.1855 32.3464C42.1925 32.4081 42.3462 33.8512 43.6414 34.1144C43.7139 34.1291 43.7783 34.17 43.8222 34.2295C43.8661 34.2889 43.8864 34.3625 43.8791 34.436C43.8719 34.5095 43.8376 34.5777 43.7829 34.6274C43.7282 34.6771 43.6571 34.7047 43.5832 34.7049L43.5833 34.7049Z" fill="#008C4C"/>
<path d="M43.4265 34.5222C43.403 34.5223 43.3795 34.5196 43.3566 34.514C42.9801 34.437 42.6241 34.2813 42.3118 34.0574C41.9995 33.8334 41.738 33.5461 41.5443 33.2141L41.1273 33.8862C41.0852 33.9528 41.0186 34 40.9418 34.0177C40.8651 34.0354 40.7845 34.022 40.7176 33.9805C40.6506 33.9391 40.6028 33.8729 40.5844 33.7964C40.566 33.7198 40.5786 33.6391 40.6195 33.5718L41.3486 32.4C41.3796 32.3479 41.4262 32.3068 41.4817 32.2825C41.5373 32.2583 41.5991 32.2521 41.6584 32.2649C41.7175 32.2761 41.7718 32.3049 41.8142 32.3475C41.8566 32.3901 41.8851 32.4446 41.896 32.5037C42.0007 32.8688 42.2065 33.1968 42.4897 33.4499C42.7729 33.703 43.1219 33.8708 43.4964 33.934C43.5671 33.9513 43.6291 33.9939 43.6707 34.0538C43.7122 34.1137 43.7304 34.1867 43.7218 34.259C43.7132 34.3314 43.6784 34.3981 43.624 34.4465C43.5696 34.495 43.4994 34.5219 43.4265 34.5222Z" fill="#008C4C"/>
<path d="M43.1919 34.3927C43.1519 34.3929 43.1123 34.385 43.0755 34.3695C42.4953 34.0826 42.029 33.6081 41.7523 33.023L41.3679 33.7172C41.3294 33.7859 41.2652 33.8365 41.1894 33.858C41.1136 33.8795 41.0324 33.8702 40.9635 33.8321C40.8946 33.7939 40.8435 33.73 40.8216 33.6544C40.7996 33.5787 40.8084 33.4975 40.8461 33.4283L41.524 32.2042C41.5525 32.1532 41.5952 32.1116 41.6469 32.0845C41.6986 32.0574 41.7571 32.0459 41.8152 32.0516C41.8732 32.0574 41.9282 32.0802 41.9734 32.117C42.0185 32.1539 42.0518 32.2032 42.0691 32.2589C42.0738 32.2706 42.4605 33.4621 43.3084 33.8197C43.3717 33.8466 43.4237 33.8946 43.4557 33.9554C43.4877 34.0163 43.4977 34.0863 43.484 34.1537C43.4703 34.2211 43.4338 34.2817 43.3806 34.3253C43.3273 34.3688 43.2607 34.3926 43.1919 34.3927Z" fill="#008C4C"/>
<path d="M43.2175 33.8975C43.174 33.8972 43.131 33.8877 43.0915 33.8696C42.5793 33.6361 42.1125 33.314 41.7124 32.918L41.3304 33.5015C41.2871 33.5676 41.2194 33.6139 41.1421 33.63C41.0647 33.6462 40.9841 33.631 40.918 33.5878C40.8519 33.5445 40.8057 33.4768 40.7895 33.3995C40.7733 33.3221 40.7886 33.2415 40.8318 33.1754L41.4305 32.2634C41.455 32.2196 41.4915 32.1837 41.5356 32.1598C41.5797 32.1359 41.6296 32.125 41.6797 32.1283C41.7277 32.1283 41.7749 32.1398 41.8175 32.1619C41.8601 32.184 41.8967 32.2161 41.9243 32.2553C42.3054 32.7207 42.7917 33.0888 43.343 33.3291C43.4046 33.3578 43.4545 33.4066 43.4846 33.4675C43.5146 33.5284 43.523 33.5977 43.5083 33.6639C43.4936 33.7302 43.4567 33.7895 43.4037 33.832C43.3508 33.8745 43.2849 33.8976 43.217 33.8975H43.2175Z" fill="#008C4C"/>
<path d="M39.4019 30.1339C39.326 30.1523 41.1476 28.3883 44.0396 30.0818L44.8994 31.6711C44.8994 31.6711 43.0756 29.2481 39.4019 30.1339Z" fill="#008C4C"/>
</svg>
