<svg width="85" height="64" viewBox="0 0 85 64" fill="none" xmlns="http://www.w3.org/2000/svg">
<path d="M84.3146 0H0V64H84.3146V0Z" fill="#E43B3A"/>
<path d="M56.1199 6.10352e-05H28.1948V64.0001H56.1199V6.10352e-05Z" fill="#EBEDED"/>
<path d="M36.821 46.2229C36.6832 46.2229 36.5493 46.1777 36.4397 46.0943C36.3301 46.0108 36.251 45.8938 36.2143 45.761C36.1777 45.6282 36.1856 45.4871 36.2369 45.3592C36.2882 45.2314 36.38 45.124 36.4983 45.0534C36.6916 44.9387 41.2386 42.2425 43.5956 41.9863C43.8774 41.9551 44.1722 41.9289 44.4768 41.9027C46.5308 41.7209 48.8602 41.5161 50.0246 39.6398C51.6331 37.0426 52.1589 32.4139 48.8076 27.2093C48.7629 27.1398 48.7323 27.0622 48.7175 26.9809C48.7028 26.8996 48.7042 26.8162 48.7217 26.7354C48.7392 26.6546 48.7724 26.5781 48.8195 26.5102C48.8665 26.4423 48.9265 26.3843 48.996 26.3395C49.0655 26.2948 49.143 26.2642 49.2244 26.2494C49.3057 26.2347 49.3891 26.2361 49.4699 26.2536C49.5506 26.2711 49.6271 26.3043 49.6951 26.3513C49.763 26.3984 49.821 26.4584 49.8657 26.5279C53.5348 32.2255 52.9058 37.3794 51.0926 40.3032C49.5971 42.7134 46.8191 42.9583 44.5866 43.1557C44.2917 43.1819 44.0051 43.2065 43.7316 43.2368C41.9986 43.4251 38.3885 45.3923 37.1437 46.1344C37.0459 46.1922 36.9345 46.2227 36.821 46.2229Z" fill="#008C4C"/>
<path d="M49.9715 28.3846C49.9715 28.3846 49.1893 28.7268 47.8693 26.7223C47.8693 26.7223 47.8693 24.7667 49.776 25.3045C49.776 25.3045 51.2916 27.3579 49.9715 28.3846Z" fill="#008C4C"/>
<path d="M51.7805 33.518C51.7805 33.518 50.0204 33.2735 49.6293 30.5357C49.6293 30.5357 51.1449 31.2202 51.3404 31.8558C51.3657 31.1496 51.4474 30.4466 51.5849 29.7535C51.5849 29.7535 52.4649 31.0735 52.416 31.7091C52.7342 31.2238 53.112 30.7803 53.5405 30.389C53.5405 30.389 53.9805 32.8824 51.7805 33.518Z" fill="#008C4C"/>
<path d="M51.5361 37.967C51.5361 37.967 49.8226 37.4963 49.7899 34.7309C49.7899 34.7309 51.2039 35.6061 51.3154 36.2617C51.432 35.5648 51.6042 34.8783 51.8304 34.2089C51.8304 34.2089 52.5318 35.6319 52.4009 36.2558C52.7793 35.8159 53.2114 35.4252 53.687 35.0928C53.687 35.0928 53.7997 37.6221 51.5361 37.967Z" fill="#008C4C"/>
<path d="M48.016 41.8782C47.8661 41.3015 47.9037 40.6921 48.1235 40.1383C48.3433 39.5845 48.7337 39.1151 49.2382 38.7981C49.8487 39.1302 50.3685 39.6069 50.752 40.1865C51.1355 40.7661 51.3712 41.4309 51.4382 42.1226C51.4382 42.1226 49.6293 43.736 48.016 41.8782Z" fill="#008C4C"/>
<path d="M47.363 46.2229C47.2499 46.223 47.139 46.1925 47.0419 46.1345C45.7955 45.3924 42.1819 43.4253 40.4491 43.236C40.1772 43.2065 39.8906 43.182 39.5958 43.1558C37.3632 42.9585 34.5852 42.7135 33.0914 40.3033C31.8645 38.3253 30.2118 33.934 32.9063 26.7458C32.9657 26.5905 33.0842 26.465 33.2358 26.3967C33.3874 26.3284 33.5599 26.3228 33.7156 26.3812C33.8713 26.4396 33.9975 26.5572 34.0669 26.7083C34.1362 26.8595 34.1429 27.0319 34.0856 27.188C31.5779 33.8717 33.0555 37.8585 34.1593 39.6398C35.3223 41.5161 37.6515 41.7209 39.7055 41.9027C40.0102 41.929 40.305 41.9552 40.5851 41.9855C42.9438 42.2427 47.4924 44.9388 47.6857 45.0534C47.8039 45.124 47.8957 45.2315 47.947 45.3593C47.9983 45.4871 48.0062 45.6282 47.9696 45.761C47.933 45.8938 47.8538 46.0109 47.7442 46.0943C47.6347 46.1777 47.5007 46.2229 47.363 46.2229Z" fill="#008C4C"/>
<path d="M38.9714 42.7093C38.9714 42.7093 36.992 43.7996 33.7891 42.3182C31.0385 41.0459 27.7267 28.0912 34.5224 25.1089C34.6089 26.7351 34.4607 28.3652 34.0823 29.9491C33.4468 32.8335 34.2779 39.7759 38.9714 42.7093Z" fill="#008C4C"/>
<path d="M42.1985 42.4581C42.0865 42.4582 41.9766 42.4283 41.8801 42.3715C41.7836 42.3148 41.704 42.2332 41.6497 42.1354C41.3041 41.5162 40.4443 41.1084 38.9405 40.8504C37.1125 40.5368 35.9905 39.4819 35.7006 37.7989C35.6288 36.9801 35.8046 36.1587 36.2051 35.441C36.5734 34.7242 36.7829 33.9365 36.8194 33.1315C36.8051 32.0746 36.3893 31.0627 35.6564 30.3011C35.5802 30.2302 35.5228 30.1414 35.4893 30.0428C35.4559 29.9442 35.4475 29.8388 35.4649 29.7362C35.4823 29.6335 35.5249 29.5368 35.5889 29.4547C35.653 29.3726 35.7364 29.3077 35.8317 29.2659C37.3993 28.5722 37.4304 27.5861 37.4304 27.5443C37.4321 27.4234 37.4679 27.3053 37.5337 27.2038C37.5995 27.1022 37.6925 27.0213 37.8022 26.9702C37.9113 26.9209 38.032 26.9034 38.1505 26.9198C38.2691 26.9362 38.3806 26.9857 38.4721 27.0628C38.6745 27.2639 38.9164 27.4209 39.1826 27.5238C39.4487 27.6268 39.7333 27.6733 40.0184 27.6607C40.6753 27.552 41.2738 27.2175 41.7104 26.7147C41.7711 26.647 41.8454 26.5927 41.9283 26.5553C42.0113 26.5179 42.1012 26.4983 42.1922 26.4977C42.2832 26.4971 42.3733 26.5155 42.4567 26.5517C42.5402 26.588 42.6151 26.6412 42.6768 26.7081C43.1197 27.2181 43.728 27.5559 44.395 27.6623C44.6775 27.6745 44.9594 27.6275 45.2226 27.5242C45.4858 27.421 45.7245 27.2638 45.9233 27.0628C46.0156 26.9822 46.1295 26.9304 46.251 26.9137C46.3724 26.897 46.496 26.9161 46.6067 26.9688C46.7174 27.0214 46.8103 27.1053 46.8739 27.21C46.9376 27.3147 46.9693 27.4358 46.965 27.5583C46.965 27.5861 46.9961 28.5722 48.5637 29.2659C48.6585 29.3076 48.7416 29.3723 48.8053 29.4541C48.8691 29.5358 48.9116 29.6321 48.929 29.7343C48.9463 29.8367 48.9382 29.9419 48.9053 30.0404C48.8725 30.139 48.8159 30.2279 48.7406 30.2995C48.0122 31.0648 47.5967 32.0751 47.576 33.1315C47.6125 33.9365 47.822 34.7242 48.1902 35.441C48.5906 36.1584 48.7664 36.9796 48.6947 37.7981C48.4048 39.4819 47.2828 40.5377 45.4548 40.8504C43.9512 41.1084 43.0912 41.5162 42.7489 42.1346C42.6943 42.2327 42.6145 42.3144 42.5178 42.3712C42.421 42.4281 42.3108 42.458 42.1986 42.4579L42.1985 42.4581ZM37.0634 30.0316C37.7138 30.9352 38.068 32.0182 38.0773 33.1315C38.0431 34.1093 37.7978 35.0682 37.3582 35.9423C37.068 36.4401 36.9227 37.0091 36.9389 37.5852C37.1404 38.7424 37.843 39.3861 39.1534 39.6105C40.5835 39.8562 41.5613 40.2428 42.1968 40.8275C42.834 40.2428 43.8118 39.8562 45.2418 39.6105C46.5522 39.3861 47.2549 38.7424 47.4563 37.5844C47.4724 37.0086 47.3271 36.4399 47.037 35.9423C46.5974 35.0682 46.3521 34.1093 46.3179 33.1315C46.3271 32.0182 46.6813 30.9352 47.3316 30.0316C46.7452 29.6799 46.2713 29.1682 45.9655 28.5566C45.4478 28.8365 44.8602 28.9608 44.2735 28.9145C43.5037 28.8257 42.7796 28.5036 42.1982 27.9915C41.6103 28.512 40.8743 28.8356 40.0934 28.917C39.5155 28.9582 38.938 28.8328 38.4292 28.5558C38.1243 29.1681 37.6503 29.6803 37.0634 30.0316Z" fill="#008C4C"/>
<path d="M46.8913 34.2444H37.6515C37.4857 34.2429 37.3272 34.1759 37.2105 34.0581C37.0938 33.9403 37.0283 33.7813 37.0283 33.6155C37.0283 33.4497 37.0938 33.2905 37.2105 33.1728C37.3272 33.055 37.4857 32.988 37.6515 32.9865H46.8913C46.9744 32.9857 47.0568 33.0014 47.1338 33.0327C47.2107 33.0639 47.2808 33.1101 47.3398 33.1686C47.3989 33.2271 47.4457 33.2967 47.4777 33.3734C47.5097 33.4501 47.5261 33.5324 47.5261 33.6155C47.5261 33.6986 47.5097 33.7808 47.4777 33.8575C47.4457 33.9342 47.3989 34.0038 47.3398 34.0623C47.2808 34.1208 47.2107 34.167 47.1338 34.1983C47.0568 34.2295 46.9744 34.2452 46.8913 34.2444Z" fill="#008C4C"/>
<path d="M42.1985 34.147C42.0317 34.1469 41.8717 34.0807 41.7537 33.9627C41.6358 33.8448 41.5695 33.6848 41.5695 33.518V27.3576C41.571 27.1918 41.6379 27.0333 41.7557 26.9166C41.8735 26.7999 42.0326 26.7344 42.1984 26.7344C42.3642 26.7344 42.5233 26.7999 42.6411 26.9166C42.7589 27.0333 42.8259 27.1918 42.8274 27.3576V33.518C42.8274 33.6848 42.7611 33.8447 42.6432 33.9627C42.5252 34.0806 42.3653 34.1469 42.1985 34.147Z" fill="#008C4C"/>
<path d="M42.2959 25.8912C42.2959 25.8912 43.6648 25.5489 43.6648 24.62C43.6648 23.6911 42.4426 23.9844 42.4426 23.1044C42.4426 22.2244 43.2737 22.4199 43.8604 22.7622C44.2239 22.9623 44.531 23.2509 44.7532 23.6013C44.9754 23.9517 45.1055 24.3526 45.1316 24.7667C45.1316 25.6956 44.1537 26.9178 42.247 26.7711C40.3403 26.6245 42.2959 25.8912 42.2959 25.8912Z" fill="#008C4C"/>
<path d="M42.0476 25.8912C42.0476 25.8912 40.6786 25.5489 40.6786 24.62C40.6786 23.6911 41.9009 23.9844 41.9009 23.1044C41.9009 22.2244 41.0697 22.4199 40.4831 22.7622C40.1196 22.9623 39.8125 23.2509 39.5903 23.6013C39.3681 23.9517 39.2379 24.3526 39.2119 24.7667C39.2119 25.6956 40.1897 26.9178 42.0964 26.7711C44.0031 26.6245 42.0476 25.8912 42.0476 25.8912Z" fill="#008C4C"/>
</svg>
