<svg width="85" height="64" viewBox="0 0 85 64" fill="none" xmlns="http://www.w3.org/2000/svg">
<path d="M84.3145 0.00012207H0V64.0001H84.3145V0.00012207Z" fill="#E43B3A"/>
<path d="M84.3145 0.00012207H0V31.7805H84.3145V0.00012207Z" fill="#0099CE"/>
<path d="M39.77 31.8603L38.8314 32.6191L0.339706 64H0V0H0.0197309L39.77 31.8603Z" fill="#E7E7E8"/>
<path d="M4.3667 16.7635L5.68937 16.0874L5.90909 14.5598L6.9589 15.6441L8.39117 15.3598L7.76817 16.7323L8.47718 18.0703L6.98904 17.81L5.9858 18.9393L5.7398 17.3859L4.3667 16.7635Z" fill="#F1B924"/>
<path d="M4.36084 47.6518L5.70324 47.0162L5.96897 45.4963L6.98592 46.6124L8.42584 46.3713L7.76178 47.7247L8.42915 49.0835L6.94977 48.7783L5.91256 49.8763L5.71364 48.3164L4.36084 47.6518Z" fill="#F1B924"/>
<path d="M28.3037 31.7446L29.7727 31.5227L30.4647 30.1436L31.1167 31.5052L32.5654 31.6893L31.5397 32.7933L31.7874 34.287L30.4587 33.5687L29.1492 34.3215L29.4083 32.7703L28.3037 31.7446Z" fill="#F1B924"/>
<path d="M15.6482 36.835C18.216 36.835 20.2977 34.7533 20.2977 32.1855C20.2977 29.6176 18.216 27.5359 15.6482 27.5359C13.0803 27.5359 10.9987 29.6176 10.9987 32.1855C10.9987 34.7533 13.0803 36.835 15.6482 36.835Z" fill="#F1B924"/>
<path d="M14.5993 27.8676L13.7007 23.7615L14.2645 23.1271L14.9516 27.8501L15.1987 27.832L14.6699 22.6514L15.6392 21.417L16.7317 22.669L16.1855 27.8676L16.4145 27.8851L17.1367 23.1271L17.6654 23.7615L16.7493 27.9378L15.648 32.1852L14.5993 27.8676Z" fill="#F1B924"/>
<path d="M17.9645 28.393L20.2362 24.8573L21.0838 24.8086L18.2259 28.6303L18.4127 28.7925L21.7068 24.7593L23.2651 24.5735L23.1506 26.2315L19.0845 29.5163L19.2335 29.6905L23.1122 26.8419L23.0366 27.6643L19.4329 29.965L15.6479 32.1852L17.9645 28.393Z" fill="#F1B924"/>
<path d="M19.9672 31.142L24.0743 30.2477L24.7077 30.8126L19.9847 31.4943L20.0022 31.7408L25.1834 31.2187L26.4167 32.189L25.1631 33.2805L19.9655 32.7276L19.9474 32.9567L24.7045 33.6848L24.0694 34.213L19.8943 33.2914L15.6479 32.1852L19.9672 31.142Z" fill="#F1B924"/>
<path d="M19.4374 34.5062L22.9709 36.7822L23.0185 37.6298L19.2001 34.7675L19.0379 34.9538L23.0667 38.2528L23.2508 39.8116L21.5934 39.6949L18.3136 35.625L18.1388 35.774L20.983 39.656L20.1606 39.5793L17.8643 35.9729L15.6479 32.1852L19.4374 34.5062Z" fill="#F1B924"/>
<path d="M16.7553 36.4891L17.7092 40.582L17.1541 41.2242L16.4029 36.5115L16.1564 36.5324L16.7553 41.7052L15.803 42.9528L14.6934 41.7156L15.1696 36.5104L14.94 36.4956L14.2819 41.2631L13.745 40.6357L14.6047 36.4474L15.6479 32.1852L16.7553 36.4891Z" fill="#F1B924"/>
<path d="M13.3835 36.0086L11.1594 39.5749L10.3129 39.6352L13.1188 35.7751L12.9298 35.6151L9.6905 39.6928L8.1344 39.8993L8.227 38.2402L12.2482 34.9012L12.0969 34.7286L8.25713 37.6293L8.32178 36.8063L11.8942 34.4568L15.648 32.1852L13.3835 36.0086Z" fill="#F1B924"/>
<path d="M11.3435 33.2876L7.24893 34.2366L6.60788 33.6804L11.3216 32.9353L11.3008 32.6887L6.12682 33.281L4.88086 32.3271L6.11916 31.2192L11.3238 31.7014L11.3386 31.4723L6.57227 30.8083L7.20018 30.2719L11.3874 31.137L15.648 32.1852L11.3435 33.2876Z" fill="#F1B924"/>
<path d="M11.8279 29.9163L8.26419 27.6879L8.20503 26.8414L12.0618 29.6516L12.2212 29.4631L8.14805 26.2189L7.94312 24.6628L9.60222 24.7571L12.9368 28.7821L13.1094 28.6309L10.2131 24.7878L11.0361 24.8535L13.3812 28.4287L15.6479 32.1852L11.8279 29.9163Z" fill="#F1B924"/>
</svg>
