<svg width="85" height="64" viewBox="0 0 85 64" fill="none" xmlns="http://www.w3.org/2000/svg">
<path d="M84.2946 44.7476H0V64H84.2946V44.7476Z" fill="#008C4C"/>
<path d="M84.2946 0H0V32.3553H84.2946V0Z" fill="#0099CE"/>
<path d="M84.2946 32.3553H0V48.4128H84.2946V32.3553Z" fill="#F1B924"/>
<path d="M74.5686 16.06L79.6623 15.3009L74.6085 14.6419L79.2228 12.6043L74.309 13.2436L78.5037 9.98763L73.6098 12.0251L76.5262 7.91023L72.4512 11.0662L74.4487 6.23236L71.2528 10.3072L72.0119 5.13378L69.9145 10.0477L69.2553 4.69452C69.2553 4.69452 68.5562 9.78825 68.5162 9.94797L66.4388 4.83434L67.098 10.2276L64.0218 6.25263L65.9593 10.9667L61.6848 7.83064L64.8808 11.9854L60.0069 9.92797L64.2215 13.2439L59.048 12.5645L63.842 14.602L58.6686 15.2814L63.8021 16.0404L59.048 18.038L64.2215 17.3987L59.9669 20.6946L64.8808 18.6572L61.6248 22.9917L65.8995 19.5759L64.0817 24.29L67.098 20.4548L66.4788 25.5286L68.4563 20.7146L69.2554 25.948L69.9146 20.7146L72.012 25.6085L71.2528 20.315L74.4089 24.2702L72.5312 19.6159L76.7059 22.7321L73.5898 18.717L78.5037 20.6347L74.2491 17.4987L79.083 17.8781L74.5686 16.06ZM69.1551 20.2149C68.2149 20.2149 67.2957 19.936 66.5139 19.4136C65.7321 18.8913 65.1228 18.1488 64.763 17.2801C64.4031 16.4114 64.309 15.4555 64.4924 14.5333C64.6759 13.6111 65.1287 12.764 65.7935 12.0991C66.4584 11.4343 67.3055 10.9815 68.2277 10.7981C69.1499 10.6146 70.1058 10.7088 70.9745 11.0686C71.8432 11.4284 72.5856 12.0378 73.108 12.8196C73.6304 13.6014 73.9092 14.5205 73.9092 15.4608C73.91 16.0853 73.7876 16.7038 73.5489 17.2809C73.3103 17.858 72.9601 18.3824 72.5186 18.824C72.077 19.2656 71.5526 19.6158 70.9755 19.8544C70.3984 20.0931 69.7799 20.2156 69.1554 20.2149H69.1551Z" fill="#F1B924"/>
<path d="M73.1304 15.4608C73.1324 16.245 72.9018 17.0121 72.4677 17.6653C72.0337 18.3184 71.4157 18.8282 70.692 19.1301C69.9682 19.432 69.1712 19.5126 68.4017 19.3615C67.6322 19.2105 66.9247 18.8346 66.3688 18.2815C65.8129 17.7284 65.4335 17.0228 65.2786 16.254C65.1237 15.4853 65.2002 14.6879 65.4984 13.9626C65.7967 13.2374 66.3034 12.6168 66.9543 12.1795C67.6053 11.7422 68.3712 11.5077 69.1554 11.5057C70.2067 11.504 71.2158 11.9194 71.9611 12.661C72.7064 13.4025 73.1269 14.4095 73.1304 15.4608Z" fill="#F1B924"/>
</svg>
