<svg width="85" height="64" viewBox="0 0 85 64" fill="none" xmlns="http://www.w3.org/2000/svg">
<path d="M0 0V32.355V44.7473V48.4128V64H84.2943V48.4128V44.7473V32.355V0H0Z" fill="#F1B924"/>
<path d="M3.27551 3.32367V32.3183V43.4235V46.7083V60.6764H14.3878V46.7083V43.4235V32.3183V3.32367H3.27551Z" fill="#008C4C"/>
<path d="M14.3877 3.32367V32.3183V43.4235V46.7083V60.6764H25.5V46.7083V43.4235V32.3183V3.32367H14.3877Z" fill="#EC9828"/>
<path d="M28.2347 3.32367V32.3183V43.4235V46.7083V60.6764H80.8868V46.7083V43.4235V32.3183V3.32367H28.2347Z" fill="#E43B3A"/>
<path d="M74.7784 11.683C75.0479 11.683 75.3149 11.6319 75.5653 11.5325C78.0181 10.5592 79.3366 9.32362 79.4845 7.85986C79.5277 7.34492 79.4263 6.82814 79.1915 6.36777C78.9568 5.9074 78.5982 5.52174 78.1561 5.25424C77.6503 4.91194 77.0545 4.72703 76.4438 4.72278H76.4432C73.7191 4.72365 72.8744 8.11762 72.6804 9.15778C72.6229 9.46589 72.634 9.78287 72.7128 10.0862C72.7917 10.3895 72.9365 10.6718 73.1367 10.9129C73.337 11.1539 73.588 11.3479 73.8717 11.4811C74.1554 11.6142 74.465 11.6832 74.7784 11.6832V11.683Z" fill="#F1B924"/>
<path d="M33.3438 4.72253C32.7331 4.72681 32.1373 4.91176 31.6314 5.25403C31.1893 5.52156 30.8307 5.90724 30.596 6.36762C30.3612 6.82801 30.2597 7.34479 30.3029 7.85975C30.4509 9.32351 31.7695 10.5591 34.2222 11.5324C34.5769 11.6731 34.9628 11.7161 35.3398 11.657C35.7167 11.598 36.0709 11.4389 36.3655 11.1964C36.6601 10.9539 36.8843 10.6368 37.0147 10.2783C37.1452 9.91968 37.1771 9.5327 37.1071 9.15761C36.9132 8.11722 36.0683 4.72253 33.3438 4.72253Z" fill="#F1B924"/>
<path d="M35.0089 51.7897C34.7395 51.7897 34.4725 51.8407 34.2221 51.9401C31.7694 52.9135 30.4508 54.1492 30.3029 55.613C30.2597 56.1279 30.3612 56.6447 30.596 57.105C30.8307 57.5653 31.1893 57.951 31.6315 58.2184C32.1372 58.5608 32.7331 58.7457 33.3438 58.7499C36.0683 58.7499 36.9132 55.3552 37.1071 54.3148C37.1646 54.0067 37.1535 53.6897 37.0746 53.3864C36.9957 53.083 36.8509 52.8008 36.6506 52.5598C36.4503 52.3187 36.1994 52.1247 35.9157 51.9916C35.6319 51.8585 35.3223 51.7894 35.0089 51.7895V51.7897Z" fill="#F1B924"/>
<path d="M75.5653 51.9402C75.2106 51.7994 74.8246 51.7564 74.4477 51.8155C74.0707 51.8746 73.7165 52.0336 73.4219 52.2762C73.1273 52.5187 72.9031 52.8357 72.7726 53.1943C72.6422 53.5529 72.6103 53.9399 72.6802 54.315C72.8743 55.3555 73.719 58.7501 76.4436 58.7501C77.0543 58.7459 77.6502 58.561 78.156 58.2186C78.5981 57.9512 78.9567 57.5656 79.1915 57.1052C79.4262 56.6449 79.5277 56.1282 79.4844 55.6133C79.3367 54.1492 78.018 52.9135 75.5653 51.9402Z" fill="#F1B924"/>
<path d="M45.2159 47.6683L45.5768 47.4601L45.7313 47.6689C45.8929 47.8048 46.0976 47.8788 46.3088 47.8776C46.5199 47.8764 46.7238 47.8002 46.8839 47.6625L47.1727 47.4473L47.4146 47.6625C47.6014 47.8005 47.8276 47.875 48.0598 47.8752C48.2921 47.8754 48.5184 47.8012 48.7054 47.6635C48.9709 47.4658 49.008 47.4618 49.1834 47.6122C49.3912 47.7374 49.6241 47.8149 49.8654 47.8391C50.3525 47.9023 50.3599 47.8988 50.6449 47.4713C50.7467 47.3574 50.8198 47.2208 50.8579 47.0729C50.8961 46.9249 50.8982 46.77 50.864 46.621C50.8263 46.3909 50.7856 46.0202 50.7737 45.7976C50.7518 45.3944 50.7543 45.3921 51.3416 45.1874C51.6259 45.0911 51.9044 44.9787 52.1759 44.8508C52.5406 44.5729 52.8411 44.2197 53.0571 43.8152C52.8832 43.7268 52.6909 43.6805 52.4957 43.6801C51.2676 43.5424 51.0596 42.8829 51.858 41.658C53.16 39.6602 53.9456 37.7148 53.951 36.4754C53.9534 35.9214 53.985 35.7355 54.0561 35.8559C54.347 36.3482 53.826 38.4125 53.0364 39.8948L52.7186 40.4917L53.0219 40.4218C53.1888 40.3835 54.1696 39.9696 55.2016 39.5022C58.0263 38.2229 58.9965 37.9722 60.8245 38.0492C61.4487 38.021 62.0705 38.1422 62.6384 38.4027C63.2063 38.6632 63.7038 39.0555 64.0896 39.547C64.7219 40.1958 65.44 40.7552 66.2237 41.2096C68.3744 42.5558 68.4641 42.6725 68.5663 44.2556C68.67 45.8596 68.6184 45.9467 67.4052 46.2147C66.3682 46.4437 65.7182 46.9269 65.5438 47.5988C65.4506 47.9575 65.6466 47.9678 66.1694 47.6317L66.5525 47.3854L66.7229 47.6317C66.9469 47.9554 67.423 47.9567 67.8183 47.6346L68.117 47.3914L68.4223 47.6346C68.5099 47.7263 68.6183 47.7958 68.7382 47.8371C68.8582 47.8784 68.9863 47.8905 69.1118 47.8723C69.2374 47.854 69.3568 47.806 69.46 47.7323C69.5633 47.6586 69.6474 47.5612 69.7054 47.4483C69.7396 47.3574 69.8309 47.3866 70.0159 47.5473C70.3624 47.8487 71.2507 47.9776 71.3466 47.7408C71.3581 47.5621 71.3031 47.3855 71.192 47.245C70.6752 46.47 70.5135 46.1005 70.5068 45.6786C70.4975 45.0919 70.6725 44.8088 71.3396 44.3317C72.1506 43.752 72.4007 43.0041 71.7843 43.0041C71.4036 43.0041 71.0199 42.6677 70.7752 42.1194C70.2778 41.0048 70.3752 39.7553 71.1219 37.6767C71.8802 35.5653 71.9643 35.176 71.9673 33.7639C72.0441 33.0952 71.9455 32.4179 71.6813 31.7988C71.4869 31.3531 71.2469 30.9288 70.9651 30.5325L70.5378 29.962L71.0864 29.5072C72.7618 28.1193 72.4191 25.8477 70.4023 24.9724C69.8237 24.7057 69.1818 24.6073 68.5499 24.6883C67.8137 24.7002 67.0793 24.7636 66.3519 24.878C65.6237 24.9932 64.888 25.0555 64.1507 25.0643C63.0972 25.0686 62.9183 25.0424 62.5125 24.8265C62.0892 24.6011 62.0166 24.4941 61.9337 23.9732C61.9273 23.9231 61.9089 23.8753 61.8799 23.834C61.8509 23.7926 61.8123 23.7589 61.7673 23.7359C61.6233 23.6905 60.9583 24.2676 60.86 24.5233C60.8115 24.6493 60.772 24.6407 60.6299 24.4725C60.5033 24.2987 60.4044 24.1063 60.3368 23.9022C60.169 23.3942 60.3752 23.0133 60.9724 22.728L61.4356 22.5066L61.1625 22.3371C60.8466 22.1785 60.4844 22.1384 60.1415 22.2241C59.7987 22.3097 59.4978 22.5153 59.2936 22.8037C59.2375 22.9193 59.1563 23.0209 59.0559 23.1011C58.903 23.0047 58.7637 22.8883 58.6417 22.7551C58.4733 22.6111 58.348 22.4235 58.2794 22.2128C58.2108 22.0022 58.2016 21.7768 58.2529 21.5613C58.3042 21.3458 58.4139 21.1486 58.57 20.9914C58.7261 20.8343 58.9225 20.7232 59.1377 20.6705C59.6568 20.4991 60.1162 20.6298 60.2116 20.976C60.3575 21.5045 60.8111 20.8098 60.7298 20.1824C60.6757 19.7654 60.6838 19.7509 60.9724 19.7509C61.5738 19.8738 62.1123 20.2057 62.4923 20.6878C62.642 20.9638 62.716 21.2746 62.7067 21.5884C62.6973 21.9023 62.605 22.208 62.4391 22.4746L62.1739 22.9139L62.5208 22.8444C63.0245 22.7457 63.472 22.4595 63.773 22.0437C63.9052 21.796 63.9791 21.5215 63.9892 21.2409C63.9993 20.9604 63.9453 20.6812 63.8314 20.4246C63.6043 20.0122 63.6303 19.9467 63.966 20.0861C64.445 20.2433 64.8423 20.5835 65.0714 21.0326C65.1653 21.1652 65.2243 21.3194 65.2428 21.4808C65.2614 21.6423 65.2389 21.8058 65.1775 21.9563C65.1044 22.2251 64.9895 22.4807 64.8369 22.7137C64.6525 22.959 64.6462 23.0001 64.7931 23.0001C65.1815 22.9481 65.546 22.7829 65.8411 22.5251C65.9833 22.3452 66.0955 22.1436 66.1733 21.9279L66.3191 21.5291L66.4866 21.833C66.7811 22.3121 67.2227 22.6831 67.7455 22.8905C68.3493 23.1494 68.6008 23.164 68.285 22.9218C67.9847 22.5049 67.8154 22.0081 67.7986 21.4945C67.8685 21.4282 68.6884 22.0589 69.6245 22.8994C70.51 23.6944 71.0664 23.9548 71.8798 23.9548C72.9187 23.9548 73.5235 23.0504 73.0566 22.1953C73.0042 22.0822 72.9236 21.9845 72.8225 21.9115C72.7215 21.8386 72.6033 21.7928 72.4795 21.7787C72.3557 21.7645 72.2303 21.7825 72.1153 21.8307C72.0004 21.879 71.8999 21.956 71.8233 22.0544C71.7502 22.1255 71.697 22.2144 71.669 22.3123C71.6409 22.4103 71.6389 22.5139 71.6632 22.6129C71.7217 22.8649 71.6989 22.8988 71.4691 22.8988C71.167 22.8988 70.5718 22.5124 69.5145 21.6302C68.0449 20.365 66.3548 19.3813 64.5289 18.7282C63.2935 18.4432 62.0181 18.3746 60.7592 18.5254C59.7159 18.7294 58.7432 19.2001 57.9357 19.8915C56.7954 20.9757 56.7773 22.4183 57.8876 23.7321L58.2054 24.1084L57.9901 24.4427C57.8373 24.6889 57.762 24.9752 57.7738 25.2647C57.7857 25.5542 57.8842 25.8334 58.0566 26.0663C58.1492 26.2144 58.2672 26.3451 58.4051 26.4524C58.4413 26.4524 58.4809 26.3154 58.4933 26.1489C58.4867 25.9757 58.5334 25.8046 58.6269 25.6587C58.7204 25.5127 58.8563 25.3989 59.0164 25.3325C59.2964 25.2317 59.4774 25.2793 60.7594 25.791C62.1081 26.3293 64.3264 26.3663 66.6845 25.8896C67.7119 25.6504 68.7816 25.6612 69.8039 25.9211C70.0522 26.0091 70.2737 26.1593 70.4473 26.3574C70.621 26.5555 70.7409 26.7949 70.7957 27.0525C70.8505 27.3102 70.8383 27.5776 70.7602 27.8292C70.6822 28.0808 70.5409 28.3082 70.3499 28.4896C70.0001 28.8834 69.6627 29.0437 68.5298 29.3547C67.6677 29.5913 67.4635 29.607 65.5041 29.5874C64.515 29.5272 63.5223 29.5802 62.5453 29.7455C61.8035 29.9004 61.3472 29.916 59.168 29.8611L56.6483 29.7976L56.9278 30.029C57.0805 30.1557 57.2416 30.272 57.4099 30.3769C57.6 30.486 57.5937 30.5007 57.3113 30.6054C57.045 30.681 56.7694 30.7187 56.4926 30.7173H55.9761L55.9066 31.1566C55.8669 31.3639 55.869 31.577 55.913 31.7835C55.9746 31.9356 55.9517 31.9575 55.7913 31.8992C55.6826 31.8597 55.3798 31.782 55.1184 31.7265C54.8502 31.669 54.5883 31.5849 54.3367 31.4755C54.0531 31.3366 54.0216 31.3403 53.9171 31.5252C53.5998 31.8572 53.2288 32.1333 52.8197 32.3419C52.799 32.3419 52.7722 32.2163 52.7603 32.0625C52.7012 31.7565 52.607 31.4584 52.4795 31.174C52.337 30.8389 52.1884 30.4734 52.1491 30.3616C52.0897 30.1932 52.0629 30.1845 51.9913 30.3109C51.9195 30.4733 51.8678 30.6437 51.8373 30.8186C51.7778 31.0679 51.6788 31.3061 51.5442 31.5242L51.3186 31.8744L51.1747 31.575C51.0203 31.2535 50.7638 30.9201 50.6711 30.9201C50.6398 30.9201 50.5864 31.0229 50.5525 31.1486C50.3698 31.5463 50.0842 31.8881 49.7252 32.1386C49.6704 32.1386 49.6257 31.933 49.6257 31.6817C49.6257 31.4304 49.5775 31.2247 49.5185 31.2247C49.4595 31.2247 49.4113 31.2898 49.4113 31.3693C49.4113 31.5625 48.8921 32.1386 48.718 32.1386C48.6121 32.155 48.5156 32.2091 48.4463 32.2909C48.2549 32.5093 48.0984 32.4787 48.1788 32.2385C48.2096 32.0424 48.1909 31.8417 48.1243 31.6547C48.0566 31.4462 47.9846 31.2242 47.9643 31.1615C47.9387 31.0825 47.7527 31.1035 47.3589 31.2298C46.7226 31.4338 46.5093 31.3976 46.8366 31.1413C47.0221 30.9331 47.1601 30.687 47.2409 30.4201C47.2953 30.1934 47.412 29.9866 47.5779 29.8229C47.6936 29.7871 47.6875 29.8313 47.5511 30.0156C47.4605 30.1306 47.3995 30.266 47.3735 30.4101C47.3476 30.5686 47.2924 30.721 47.2108 30.8594C47.1216 31.0213 47.0656 31.1697 47.0862 31.1893C47.2751 31.1496 47.4566 31.0806 47.6242 30.9849L48.1247 30.745L48.1267 30.9596C48.1498 31.194 48.1947 31.4257 48.2608 31.6518L48.3927 32.1292L48.7334 31.9726C48.9325 31.8463 49.0982 31.6737 49.2162 31.4695C49.3342 31.2654 49.4012 31.0357 49.4113 30.8001C49.4113 30.5814 49.5365 30.615 49.5878 30.8474C49.6029 30.9155 49.6815 31.1715 49.7625 31.4161L49.9098 31.8609L50.1431 31.58C50.2976 31.3763 50.4183 31.149 50.5005 30.9068C50.619 30.5322 50.8051 30.3711 50.8051 30.6432C50.8051 30.8392 51.3402 31.5424 51.4434 31.482C51.5538 31.3025 51.6287 31.1034 51.6641 30.8957C51.8129 30.2856 52.0529 29.8706 52.2054 29.9599C52.2184 29.9659 52.23 29.9745 52.2396 29.9851C52.2491 29.9957 52.2565 30.0081 52.2611 30.0217C52.2657 30.0352 52.2676 30.0495 52.2666 30.0638C52.2655 30.078 52.2616 30.0919 52.255 30.1046C52.2995 30.411 52.3919 30.7085 52.529 30.9861C52.7098 31.4249 52.891 31.8665 52.9321 31.9677C52.9979 32.1303 53.0578 32.1067 53.445 31.7647C53.6327 31.6135 53.7965 31.435 53.9312 31.2351C53.971 31.1167 54.0247 31.121 54.2501 31.2609C54.7025 31.4995 55.1975 31.6468 55.7068 31.6941C55.7604 31.4925 55.7839 31.2841 55.7766 31.0756L55.7908 30.51L56.0955 30.5731C56.3555 30.6077 56.619 30.6061 56.8786 30.5684L57.357 30.5004L56.9307 30.2079C56.7329 30.081 56.5552 29.9251 56.4038 29.7453C56.3375 29.6796 56.2588 29.6277 56.1722 29.5926C56.0857 29.5575 55.9931 29.5399 55.8997 29.5409C55.261 29.4866 54.1288 28.8516 54.1288 28.5476C54.1288 28.4905 54.2857 28.5876 54.4773 28.7633C54.896 29.1505 55.4391 29.3754 56.009 29.3976H56.395L56.1562 29.0798C55.9968 28.8354 55.8978 28.5567 55.8671 28.2665C55.8211 27.8127 55.7732 27.7405 55.2993 27.4112C55.0181 27.2165 54.7557 26.9958 54.5158 26.7521L54.2499 26.4528L54.1142 26.8081C54.0395 27.0036 53.9484 27.1635 53.9115 27.1635C53.7904 27.0994 53.6823 27.0133 53.5927 26.9097C53.5042 26.8073 53.398 26.7217 53.2792 26.6569C53.1623 26.7774 53.0697 26.9193 53.0065 27.0748L52.7956 27.4916L52.6326 27.2514C52.4927 27.0636 52.3352 26.8897 52.1621 26.732C51.993 26.5785 51.904 26.4525 51.9644 26.4525C52.1418 26.538 52.2997 26.659 52.4283 26.8081L52.7824 27.1636L52.9265 26.9032C53.0157 26.7223 53.0433 26.5172 53.0053 26.3191C52.9489 26.0393 52.9568 26.0233 53.0641 26.1986C53.196 26.3768 53.3507 26.5367 53.5244 26.6745L53.8607 26.9473L54.0927 26.5222C54.3237 26.0992 54.3253 26.0983 54.4304 26.351C54.9847 27.036 55.6732 27.6005 56.4538 28.0096C56.5872 28.0847 56.5308 27.8258 56.2845 27.2329C56.2107 27.0307 56.1706 26.8179 56.1658 26.6028C56.1658 26.3221 56.0849 26.1973 55.7259 25.924C55.5017 25.7821 55.314 25.5895 55.178 25.3618C55.0419 25.134 54.9612 24.8775 54.9423 24.6129C54.915 24.39 54.8466 24.174 54.7408 23.9759C54.635 23.8385 54.6175 23.9156 54.6459 24.3937C54.6681 24.6938 54.6365 24.9955 54.5527 25.2845L54.4248 25.5892L54.3262 25.3353C54.1939 25.1153 54.0106 24.9302 53.7919 24.7957C53.5524 24.6386 53.3842 24.4834 53.4183 24.4514C53.4524 24.4194 53.6988 24.5624 53.9659 24.7697C54.3728 25.0855 54.4625 25.1197 54.5188 24.9806C54.5603 24.5195 54.517 24.0546 54.3908 23.6092C54.3269 23.361 54.3325 23.3626 54.6386 23.6684C54.885 23.9351 55.0415 24.2724 55.0859 24.6327C55.1117 24.8723 55.1913 25.103 55.3189 25.3074C55.4465 25.5119 55.6186 25.6848 55.8225 25.8133C56.0144 26.004 56.2297 26.1696 56.4633 26.306C56.4844 26.286 56.5262 25.5334 56.5564 24.6335C56.614 22.9079 56.5489 22.4973 56.1333 21.9642L55.9197 21.6902L56.2553 21.3281C56.6376 20.9618 56.8921 20.4825 56.9815 19.9607L57.0527 19.5405L56.6739 19.8993C56.5762 20.0201 56.451 20.1157 56.3088 20.1782C56.1665 20.2406 56.0113 20.268 55.8563 20.258C55.7171 20.2733 55.5764 20.2523 55.4477 20.1971C55.3191 20.1419 55.2069 20.0544 55.1221 19.943C54.7602 19.5931 54.3181 19.3372 53.8345 19.1978C53.6534 19.1447 53.5934 19.1679 53.5934 19.2903C53.5514 19.4931 53.4763 19.6876 53.3712 19.8661L53.1489 20.2787L52.6832 19.8184C52.4399 19.5625 52.1395 19.3677 51.8065 19.25C51.1623 19.0806 51.1271 19.0975 51.1271 19.5774C51.1271 20.3055 50.8163 20.4411 50.2569 19.9572C49.8304 19.5883 49.4766 19.5079 48.6679 19.597L48.0433 19.6657L48.1557 19.9476C48.2495 20.1832 48.2284 20.2823 48.0273 20.5498C47.8656 20.7643 47.6518 20.9339 47.4063 21.0427C47.1607 21.1515 46.8915 21.1958 46.624 21.1716C46.3393 21.1683 46.0562 21.2151 45.7877 21.3099C45.5047 21.414 45.209 21.4795 44.9085 21.5046C44.6494 21.5242 44.3925 21.5654 44.1403 21.6277C43.9869 21.6851 43.9699 21.6378 44.0193 21.2884C44.0394 21.1661 44.0309 21.0409 43.9946 20.9224C43.9582 20.804 43.895 20.6956 43.8098 20.6056C43.7246 20.5157 43.6198 20.4466 43.5035 20.4039C43.3872 20.3612 43.2626 20.3459 43.1394 20.3592C42.3842 20.3592 42.0358 21.0348 42.3316 21.926C42.3885 22.0975 42.4631 22.368 42.4971 22.527C42.6973 22.9122 42.9657 23.2577 43.2894 23.5469C43.592 23.8366 43.874 24.1471 44.1332 24.4762C44.2559 24.6375 44.4121 24.7704 44.591 24.8657L44.9355 25.0565L44.8901 24.688C44.8401 24.2828 44.9284 24.2193 45.1439 24.5052C45.2696 24.6487 45.4163 24.7725 45.5789 24.8723C45.8344 25.0293 45.8737 25.0326 45.8737 24.8962C45.8905 24.7436 45.9295 24.5943 45.9894 24.453L46.1052 24.1671L46.306 24.5561C46.54 24.9388 46.8071 25.3003 47.104 25.6365C47.7415 26.3743 48.1299 27.199 47.9294 27.3888C47.8481 27.4655 47.6281 27.46 47.1729 27.3682C46.8542 27.2994 46.528 27.2714 46.2023 27.2849C45.8333 27.3361 45.8042 27.2885 46.0311 27.0043C46.2707 26.7044 46.2326 26.6549 45.762 26.6549C44.9406 26.6015 44.1292 26.4448 43.3469 26.1886C42.8424 25.9889 42.726 26.0387 42.5775 26.5174C42.5106 26.7327 42.3883 27.123 42.3056 27.3846L42.1552 27.8602L42.701 27.8076C42.9903 27.7808 43.2772 27.732 43.5591 27.6616C43.6694 27.618 43.7874 27.5974 43.906 27.6009C43.8763 27.7481 43.8186 27.8883 43.7361 28.0138L43.5314 28.3941L43.8717 28.3246C44.0869 28.2772 44.2966 28.2077 44.4975 28.1172C44.7707 27.985 44.7927 27.9946 45.0082 28.3405C45.2732 28.7659 45.4852 28.7484 45.5322 28.2973C45.5809 27.831 45.7343 27.8999 46.0229 28.5179C46.3004 29.1122 46.5891 29.322 46.6446 28.9697C46.7062 28.7962 46.8229 28.6477 46.9768 28.5466C47.3091 28.3125 47.5595 28.3827 47.7031 28.7503C47.8517 29.1308 47.5202 29.5229 46.5561 30.1075C45.6633 30.5986 44.895 31.2878 44.31 32.1221C43.725 32.9564 43.339 33.9137 43.1815 34.9204C42.8924 36.7614 43.7951 38.6634 45.6066 40.0297C46.4734 40.6835 47.8505 41.3736 47.7629 41.1102C47.3913 39.9921 47.4036 37.8585 47.7837 37.4985C47.8407 37.4445 47.8211 37.6671 47.7399 37.9933C47.4381 39.2081 47.5692 40.176 48.3426 42.4448C49.0423 44.4966 48.9453 45.3735 47.9551 45.9532C47.6371 46.1395 47.4323 46.17 46.5771 46.1597C45.6492 46.1484 45.5481 46.1671 45.2502 46.4044C44.8942 46.77 44.6622 47.2383 44.5869 47.7429C44.5869 47.934 44.799 47.9086 45.2159 47.6679L45.2159 47.6683Z" fill="#F1B924"/>
<path d="M48.0393 48.1272C47.7509 48.1339 47.47 48.035 47.2493 47.8492L47.1595 47.7693L47.0347 47.8629C46.8052 48.0308 46.529 48.1229 46.2446 48.1263C46.1104 48.1301 45.977 48.1046 45.8537 48.0515C45.7304 47.9985 45.6202 47.9191 45.5307 47.819L45.5092 47.7888L45.3415 47.8854C44.9318 48.1214 44.6939 48.1711 44.5125 48.0707C44.4566 48.0369 44.4109 47.9888 44.3801 47.9313C44.3492 47.8738 44.3344 47.8091 44.3371 47.7439C44.4133 47.1633 44.6794 46.6242 45.094 46.2107C45.4588 45.9191 45.648 45.8957 46.5804 45.9113C47.4172 45.9229 47.5733 45.8888 47.8308 45.7396C48.5876 45.2958 48.8393 44.6766 48.1078 42.5258C47.9674 42.1133 47.8464 41.7436 47.7469 41.4062H47.7293C47.0954 41.4062 45.4744 40.2436 45.4568 40.2299C43.5763 38.8117 42.6322 36.8133 42.9364 34.8831C43.1012 33.841 43.5013 32.8502 44.1063 31.9859C44.7113 31.1217 45.5054 30.4066 46.4281 29.8952C47.2181 29.4153 47.5595 29.071 47.4717 28.8428C47.4249 28.7267 47.3761 28.675 47.3449 28.6653C47.3098 28.6536 47.2337 28.6731 47.1205 28.753C47.0226 28.8197 46.9434 28.9103 46.8904 29.0163C46.8884 29.1058 46.8555 29.1919 46.7971 29.2598C46.7388 29.3277 46.6587 29.3734 46.5705 29.3889C46.3462 29.4279 46.0536 29.1714 45.7961 28.6252C45.7785 28.5872 45.761 28.552 45.7454 28.5211C45.7334 28.6069 45.6968 28.6874 45.6401 28.7528C45.5833 28.8182 45.5088 28.8658 45.4255 28.8898C45.1036 28.9668 44.8734 28.5972 44.7954 28.4752C44.77 28.4314 44.7213 28.3543 44.6862 28.3065C44.6569 28.3192 44.6237 28.3358 44.6062 28.3435C44.3866 28.4432 44.157 28.5195 43.9213 28.5709L43.5799 28.6401C43.5334 28.6492 43.4853 28.6449 43.4411 28.6278C43.3969 28.6107 43.3585 28.5815 43.3302 28.5435C43.3024 28.5052 43.2858 28.4599 43.2824 28.4127C43.279 28.3655 43.2888 28.3182 43.3107 28.2763L43.4941 27.9366C43.2405 27.9918 42.9839 28.0322 42.7255 28.0575L42.1793 28.1102C42.1384 28.1138 42.0971 28.1073 42.0593 28.0912C42.0215 28.0751 41.9882 28.0499 41.9623 28.018C41.9365 27.986 41.919 27.9481 41.9112 27.9077C41.9035 27.8673 41.9058 27.8257 41.918 27.7864L42.3393 26.4453C42.3585 26.3302 42.4016 26.2205 42.4658 26.123C42.5299 26.0256 42.6138 25.9427 42.7119 25.8796C42.832 25.8419 42.9586 25.8293 43.0838 25.8427C43.209 25.8562 43.3301 25.8953 43.4395 25.9576C44.1926 26.2022 44.9728 26.3532 45.7627 26.4073C46.0221 26.4073 46.2913 26.4073 46.3947 26.6218C46.4218 26.6895 46.4297 26.7633 46.4177 26.8352C46.4056 26.9071 46.3741 26.9743 46.3264 27.0295C46.627 27.0375 46.9264 27.0695 47.2218 27.1251C47.3893 27.1657 47.5606 27.1889 47.7328 27.1944C47.5748 26.6715 47.2946 26.1938 46.9155 25.8006C46.6348 25.4792 46.3773 25.1383 46.145 24.7804C46.1344 24.819 46.1272 24.8585 46.1236 24.8984C46.1288 24.9594 46.1172 25.0207 46.09 25.0755C46.0628 25.1304 46.0211 25.1767 45.9694 25.2095C45.7996 25.3032 45.6359 25.2018 45.4486 25.0866C45.3491 25.0252 45.2545 24.9561 45.1657 24.8798L45.1833 25.0281C45.1889 25.0737 45.1818 25.1198 45.1629 25.1617C45.144 25.2035 45.1139 25.2393 45.076 25.2652C45.0375 25.2903 44.9929 25.3047 44.9469 25.3068C44.901 25.3088 44.8553 25.2985 44.8146 25.2768L44.4694 25.0856C44.2502 24.9697 44.0611 24.804 43.9174 24.6019C43.6671 24.2934 43.3982 24.0006 43.1119 23.7252C42.761 23.3967 42.4704 23.0091 42.2536 22.5801C42.2205 22.4279 42.1483 22.1695 42.0937 22.0056C41.9979 21.7718 41.9582 21.5189 41.9778 21.267C41.9975 21.0151 42.0759 20.7713 42.2068 20.5553C42.3148 20.4114 42.456 20.2959 42.6184 20.2186C42.7808 20.1413 42.9595 20.1045 43.1392 20.1114C43.3068 20.1054 43.4737 20.1355 43.6285 20.1998C43.7834 20.2641 43.9225 20.3611 44.0365 20.484C44.1333 20.5991 44.2041 20.7337 44.2442 20.8786C44.2843 21.0235 44.2926 21.1753 44.2687 21.3238C44.2667 21.3306 44.2667 21.3374 44.2647 21.3433C44.4637 21.3052 44.7154 21.274 44.8851 21.2575C45.1573 21.2345 45.4254 21.1768 45.6829 21.0858C45.9846 20.9749 46.304 20.9201 46.6253 20.9239C46.854 20.9481 47.0851 20.9127 47.296 20.8211C47.5069 20.7294 47.6905 20.5848 47.8289 20.4011C47.9849 20.1933 47.9811 20.1816 47.9245 20.0422L47.8113 19.7603C47.7972 19.7245 47.7915 19.6859 47.7945 19.6476C47.7976 19.6092 47.8093 19.572 47.8289 19.5389C47.8488 19.506 47.8761 19.4781 47.9086 19.4575C47.9411 19.4368 47.9779 19.424 48.0162 19.4199L48.6423 19.3507C49.524 19.2551 49.9376 19.3526 50.4214 19.7701C50.6847 19.9983 50.8037 19.9905 50.8037 19.9944C50.8037 19.9934 50.8778 19.9222 50.8778 19.5789C50.8778 19.3439 50.8778 19.1215 51.0514 18.9878C51.2387 18.8444 51.4923 18.9118 51.8707 19.0103C52.2461 19.1386 52.5852 19.355 52.8597 19.6413L53.0879 19.8686L53.1523 19.7496C53.2354 19.6029 53.2997 19.4462 53.3435 19.2834C53.3404 19.2273 53.3511 19.1714 53.3746 19.1204C53.398 19.0694 53.4335 19.0249 53.4781 18.9908C53.5417 18.9521 53.6137 18.929 53.688 18.9236C53.7623 18.9181 53.8369 18.9305 53.9055 18.9596C54.4317 19.1115 54.9122 19.3913 55.3041 19.774C55.3658 19.8605 55.4502 19.9283 55.5479 19.9699C55.6457 20.0116 55.753 20.0254 55.8581 20.01C55.9815 20.0199 56.1054 19.9985 56.2183 19.9476C56.3312 19.8968 56.4294 19.8183 56.5038 19.7193L56.8822 19.3604C56.9202 19.3244 56.9685 19.3014 57.0203 19.2943C57.0721 19.2873 57.1249 19.2968 57.171 19.3214C57.2171 19.346 57.2544 19.3844 57.2775 19.4313C57.3006 19.4782 57.3084 19.5312 57.2997 19.5828L57.2295 20.0032C57.133 20.5736 56.8561 21.098 56.4394 21.4993L56.2482 21.7051L56.3321 21.8114C56.814 22.4306 56.8647 22.9409 56.8081 24.6429C56.7478 26.3829 56.7242 26.4053 56.6364 26.4882C56.6102 26.5191 56.5758 26.5421 56.5372 26.5545C56.4986 26.5669 56.4573 26.5683 56.418 26.5584V26.6042C56.4232 26.7863 56.456 26.9666 56.5155 27.1388C56.8081 27.8381 56.8413 28.0575 56.6774 28.2029C56.6275 28.2369 56.5695 28.2573 56.5093 28.2619C56.449 28.2665 56.3886 28.2552 56.3341 28.2292C56.2561 28.1854 56.178 28.1395 56.0981 28.0907C56.1058 28.1375 56.1117 28.1882 56.1156 28.2428C56.1421 28.4873 56.2249 28.7224 56.3575 28.9295L56.5955 29.2473C56.6232 29.2844 56.6402 29.3284 56.6447 29.3744C56.6492 29.4205 56.6409 29.4669 56.6208 29.5086C56.6118 29.5254 56.6014 29.5415 56.5896 29.5565C56.6112 29.5506 56.6336 29.548 56.6559 29.5486L59.1764 29.612C61.3416 29.6657 61.7767 29.653 62.4967 29.5018C63.4907 29.3289 64.5017 29.2739 65.5086 29.338C67.43 29.3585 67.6309 29.3438 68.4658 29.1147C69.6128 28.7996 69.8723 28.6562 70.1648 28.3246C70.3239 28.1616 70.4416 27.9628 70.5082 27.7449C70.5747 27.527 70.5881 27.2964 70.5472 27.0723C70.4926 26.8623 70.3876 26.6688 70.2415 26.5084C70.0954 26.348 69.9124 26.2256 69.7084 26.1518C68.7323 25.9143 67.7142 25.9087 66.7355 26.1354C64.3323 26.6211 62.0637 26.5811 60.6709 26.0242C59.4361 25.5316 59.2937 25.4974 59.1026 25.5687C58.989 25.6204 58.894 25.7055 58.8302 25.8127C58.7664 25.9199 58.7369 26.0441 58.7455 26.1685C58.7202 26.5226 58.6071 26.703 58.4081 26.703C58.3184 26.703 58.215 26.703 57.858 26.2143C57.6554 25.9411 57.5398 25.6131 57.5262 25.2732C57.5126 24.9333 57.6017 24.5971 57.7819 24.3085L57.897 24.13L57.698 23.894C56.5081 22.4846 56.5334 20.8822 57.7662 19.7108C58.6072 18.9841 59.6243 18.491 60.7157 18.2807C62.0131 18.1197 63.3288 18.1903 64.6015 18.4894C66.4602 19.1523 68.1809 20.1521 69.6771 21.4389C70.7578 22.3401 71.2201 22.6005 71.4152 22.6434C71.388 22.5107 71.3934 22.3733 71.4312 22.2431C71.4689 22.1129 71.5377 21.9939 71.6317 21.8963C71.7322 21.7686 71.863 21.6681 72.0122 21.6039C72.1614 21.5397 72.3243 21.5138 72.4861 21.5286C72.6529 21.5471 72.8125 21.6069 72.9505 21.7026C73.0884 21.7983 73.2003 21.9268 73.2761 22.0765C73.4016 22.2875 73.4683 22.5282 73.4693 22.7736C73.4703 23.019 73.4056 23.2602 73.282 23.4723C73.1328 23.706 72.925 23.8966 72.6793 24.0251C72.4336 24.1536 72.1585 24.2155 71.8814 24.2047C71.0036 24.2047 70.3911 23.9219 69.4586 23.086C68.8696 22.5554 68.4012 22.176 68.1049 21.9555C68.1764 22.2288 68.2903 22.4891 68.4424 22.7271C68.5282 22.7934 68.7701 22.9787 68.6354 23.207C68.5067 23.4371 68.2122 23.364 67.6484 23.1202C67.1373 22.9103 66.6943 22.5629 66.3688 22.1165C66.2558 22.4451 66.0438 22.7306 65.7619 22.9337C65.48 23.1368 65.142 23.2475 64.7946 23.2507C64.7308 23.257 64.6665 23.2449 64.6094 23.2156C64.5523 23.1864 64.5048 23.1414 64.4727 23.0859C64.381 22.9044 64.5078 22.7386 64.6405 22.563C64.7728 22.356 64.8727 22.1301 64.9369 21.893C64.9914 21.7725 65.0122 21.6394 64.9971 21.5081C64.982 21.3767 64.9315 21.2519 64.8511 21.1468C64.696 20.827 64.4337 20.5717 64.1099 20.4251C64.215 20.7099 64.2581 21.0138 64.2363 21.3166C64.2144 21.6194 64.1281 21.914 63.9831 22.1807C63.6457 22.6529 63.1403 22.9782 62.5708 23.0897L62.2236 23.159C62.176 23.1678 62.1269 23.163 62.0821 23.145C62.0372 23.1271 61.9983 23.0967 61.97 23.0575C61.9423 23.018 61.9266 22.9712 61.9249 22.9229C61.9232 22.8747 61.9354 22.8269 61.9602 22.7854L62.2255 22.3465C62.3668 22.1196 62.4463 21.8598 62.4562 21.5928C62.4661 21.3257 62.4061 21.0607 62.2821 20.824C61.9494 20.4117 61.4889 20.1221 60.9732 20.0008H60.9615C60.9654 20.0516 60.9732 20.1081 60.979 20.151C61.0454 20.6563 60.8171 21.3291 60.4366 21.4063C60.3839 21.4141 60.0855 21.456 59.9723 21.0425C59.9629 21.0122 59.9473 20.9841 59.9264 20.9601C59.9056 20.9361 59.8801 20.9167 59.8514 20.903C59.6474 20.8228 59.4202 20.8245 59.2174 20.9079C59.0442 20.9548 58.8863 21.0462 58.7594 21.173C58.6324 21.2997 58.5409 21.4575 58.4937 21.6307C58.4604 21.8027 58.4726 21.9805 58.529 22.1464C58.5855 22.3123 58.6842 22.4606 58.8156 22.5767C58.8956 22.6538 58.9657 22.7182 59.0224 22.7669C59.0399 22.7395 59.0614 22.7084 59.0826 22.6743C59.3157 22.3166 59.6812 22.0661 60.0989 21.9779C60.2985 21.9225 60.507 21.9071 60.7125 21.9326C60.9181 21.958 61.1166 22.0238 61.2966 22.1261L61.5678 22.2938C61.6061 22.3173 61.6375 22.3506 61.6584 22.3904C61.6794 22.4302 61.6892 22.4749 61.6868 22.5198C61.6844 22.5647 61.6699 22.6081 61.6448 22.6454C61.6197 22.6827 61.585 22.7126 61.5444 22.7318L61.0801 22.9532C60.4754 23.2428 60.4851 23.5559 60.5749 23.8244C60.6227 23.9637 60.6848 24.0978 60.7602 24.2244C61.0255 23.8801 61.5639 23.4109 61.8451 23.4987C61.934 23.5357 62.0118 23.5953 62.0706 23.6716C62.1295 23.7479 62.1674 23.8383 62.1805 23.9337C62.2547 24.394 62.2898 24.4243 62.6311 24.6067C62.9803 24.793 63.0661 24.8174 64.1527 24.8154C64.8753 24.8063 65.5963 24.7453 66.3101 24.6331C67.0511 24.5157 67.7994 24.4508 68.5495 24.4389C69.2168 24.3512 69.8951 24.4568 70.5041 24.7433C70.9892 24.9287 71.4174 25.2375 71.7465 25.6392C72.0756 26.0409 72.2942 26.5215 72.3807 27.0335C72.4398 27.5382 72.3664 28.0495 72.1677 28.5171C71.9689 28.9848 71.6517 29.3925 71.2473 29.7001L70.8806 30.0034L71.1655 30.3839C71.4607 30.796 71.7111 31.2383 71.9126 31.7034C72.1894 32.3529 72.2949 33.0625 72.2189 33.7644C72.215 35.2118 72.1272 35.6224 71.3567 37.7622C70.6349 39.7753 70.5374 40.9682 71.0056 42.0187C71.2045 42.4663 71.5107 42.755 71.7858 42.755C71.9067 42.7405 72.029 42.7678 72.1323 42.8324C72.2355 42.897 72.3136 42.995 72.3534 43.1101C72.4802 43.5022 72.1311 44.0744 71.4854 44.5351C70.8495 44.9905 70.75 45.209 70.7578 45.6752C70.8267 46.2051 71.0499 46.703 71.3996 47.107C71.4784 47.2087 71.5352 47.3256 71.5664 47.4503C71.5976 47.5751 71.6026 47.705 71.581 47.8317C71.5513 47.899 71.5052 47.9577 71.4469 48.0025C71.3887 48.0473 71.3201 48.0768 71.2474 48.0882C70.7545 48.156 70.2544 48.0298 69.8527 47.7361L69.841 47.7263C69.7208 47.9008 69.5423 48.0267 69.3377 48.0814C69.152 48.1265 68.9583 48.1272 68.7722 48.0834C68.5862 48.0397 68.413 47.9528 68.2668 47.8298L68.1205 47.7127L67.9781 47.8287C67.8556 47.9353 67.7127 48.0158 67.558 48.0653C67.4034 48.1148 67.2403 48.1322 67.0788 48.1165C66.9668 48.1014 66.8592 48.0632 66.7628 48.0043C66.6664 47.9453 66.5834 47.867 66.5189 47.7742L66.486 47.7263L66.3046 47.8425C65.9301 48.0843 65.6336 48.214 65.419 48.0589C65.3465 47.9955 65.2962 47.9105 65.2755 47.8165C65.2548 47.7224 65.2648 47.6242 65.3039 47.5362C65.4424 46.9978 65.9125 46.2887 67.3541 45.9717C68.4133 45.7376 68.4133 45.7376 68.3177 44.2717C68.2241 42.8107 68.2202 42.7531 66.092 41.4218C65.291 40.9554 64.5568 40.3829 63.9092 39.7198C63.5469 39.2504 63.0762 38.8759 62.5373 38.6285C61.9984 38.3812 61.4075 38.2683 60.8154 38.2997C59.0073 38.2226 58.1 38.4645 55.3066 39.7298C54.3879 40.1462 53.2955 40.6163 53.081 40.6661L52.7766 40.7354C52.7549 40.7405 52.7326 40.7428 52.7103 40.7421C52.5131 41.0894 52.2987 41.4415 52.0686 41.7955C51.696 42.37 51.5594 42.804 51.6765 43.0518C51.7935 43.3015 52.2031 43.397 52.525 43.4331C53.118 43.4984 53.3092 43.5912 53.3092 43.8155C53.3092 44.1227 52.5231 44.9488 52.2968 45.0717C52.0132 45.2059 51.7221 45.3234 51.4248 45.4238C51.2825 45.4653 51.1446 45.5209 51.0132 45.5896C51.0152 45.6003 51.021 45.7027 51.025 45.7847C51.0347 45.9924 51.0756 46.3572 51.1108 46.5815C51.1498 46.7612 51.1471 46.9474 51.1028 47.1258C51.0585 47.3042 50.9738 47.47 50.8552 47.6105C50.5177 48.1128 50.4163 48.1626 49.835 48.0872C49.5467 48.0579 49.2693 47.961 49.0255 47.8043C49.0079 47.7907 48.9962 47.7799 48.9865 47.7722C48.9436 47.7996 48.8811 47.8453 48.8577 47.8638C48.6199 48.0365 48.3332 48.1288 48.0393 48.1272ZM45.0918 47.4533L45.2166 47.6698L45.0918 47.4523L45.4527 47.2446C45.5058 47.2137 45.5685 47.2036 45.6287 47.2162C45.6888 47.2288 45.7422 47.2632 45.7784 47.3128L45.9325 47.5215C45.9732 47.5598 46.0216 47.5889 46.0744 47.6071C46.1271 47.6253 46.1832 47.632 46.2388 47.6269H46.2427C46.4201 47.624 46.5924 47.5668 46.7362 47.463L47.023 47.2475C47.069 47.2125 47.1257 47.1947 47.1834 47.1972C47.2412 47.1997 47.2962 47.2223 47.339 47.2611L47.5809 47.4767C47.7248 47.5757 47.8958 47.6277 48.0705 47.6254C48.2452 47.6231 48.4149 47.5667 48.5561 47.464C48.8624 47.2377 49.038 47.1587 49.3482 47.424C49.519 47.5149 49.7058 47.5719 49.8982 47.5918C50.2357 47.6356 50.2357 47.6347 50.4366 47.3333C50.6531 47.0095 50.6629 46.9295 50.618 46.6632C50.579 46.4174 50.5361 46.0361 50.5244 45.8108C50.4952 45.2412 50.6395 45.1681 51.2598 44.9515C51.5323 44.8599 51.7994 44.7527 52.0597 44.6306C52.2996 44.4361 52.5128 44.2108 52.6937 43.9606C52.6294 43.9488 52.5552 43.9382 52.4694 43.9284C51.8062 43.8543 51.3985 43.6377 51.2229 43.2642C51.024 42.8399 51.1626 42.2703 51.6503 41.5222C52.9299 39.5569 53.6965 37.6696 53.7024 36.4748C53.7043 35.9013 53.716 35.6448 53.9501 35.5804C54.0122 35.5738 54.0748 35.5841 54.1315 35.6102C54.1882 35.6363 54.2368 35.6772 54.272 35.7287C54.6485 36.3656 54.034 38.5543 53.2577 40.0124L53.2167 40.0885C53.5756 39.947 54.2642 39.6544 55.0991 39.2751C57.9529 37.9827 58.9674 37.7299 60.8341 37.8003C61.4906 37.7727 62.1443 37.9009 62.7417 38.1745C63.3392 38.4481 63.8633 38.8593 64.2712 39.3745C64.8894 40.0079 65.591 40.5542 66.3565 40.9985C68.5043 42.3415 68.7051 42.5151 68.8163 44.2405C68.9216 45.8947 68.8455 46.1531 67.4605 46.4596C66.8364 46.5971 66.0639 46.8965 65.822 47.5481C65.8768 47.5188 65.9468 47.4778 66.0346 47.422L66.4189 47.1755C66.4734 47.1408 66.5393 47.1286 66.6026 47.1415C66.6659 47.1544 66.7217 47.1914 66.7583 47.2447L66.9281 47.4905C66.9536 47.5266 66.9864 47.557 67.0244 47.5797C67.0623 47.6023 67.1047 47.6167 67.1486 47.622C67.3365 47.6304 67.5203 47.5657 67.6616 47.4415L67.96 47.1977C68.0043 47.1615 68.0597 47.1417 68.1169 47.1415C68.1741 47.1414 68.2296 47.1608 68.2741 47.1967L68.5784 47.4396C68.663 47.5127 68.7634 47.5653 68.8717 47.5932C68.98 47.6212 69.0932 47.6237 69.2027 47.6005C69.2638 47.5857 69.3203 47.5561 69.3673 47.5142C69.4142 47.4724 69.4502 47.4196 69.4718 47.3606C69.4895 47.311 69.5189 47.2666 69.5577 47.231C69.5964 47.1955 69.6433 47.17 69.6942 47.1567C69.7857 47.1481 69.8779 47.1621 69.9626 47.1977C70.0474 47.2333 70.122 47.2892 70.1799 47.3606C70.4528 47.5373 70.7739 47.6245 71.0987 47.6102C71.0703 47.5308 71.0323 47.4552 70.9856 47.3849C70.4335 46.5588 70.2638 46.1609 70.2579 45.683C70.2462 45.0139 70.4666 44.6501 71.1962 44.1293C71.7387 43.7411 71.9043 43.3519 71.8789 43.2641C71.8484 43.256 71.8168 43.2527 71.7853 43.2544C71.5018 43.219 71.2345 43.1028 71.0152 42.9196C70.7959 42.7365 70.6339 42.4942 70.5486 42.2215C70.0219 41.0403 70.1158 39.7421 70.888 37.5935C71.6371 35.5053 71.7153 35.1473 71.719 33.7636C71.7935 33.128 71.7014 32.484 71.4517 31.8948C71.2659 31.4684 71.0364 31.0624 70.7668 30.6834L70.3395 30.1119C70.301 30.0608 70.2837 29.9969 70.2909 29.9334C70.2982 29.8699 70.3295 29.8116 70.3785 29.7705L70.9264 29.316C71.2648 29.0626 71.5312 28.7252 71.6991 28.3372C71.8671 27.9492 71.9309 27.5241 71.8842 27.1039C71.8088 26.6769 71.6235 26.2769 71.3464 25.9434C71.0693 25.6099 70.7101 25.3544 70.3042 25.202C69.7575 24.9484 69.1495 24.857 68.5524 24.9386C67.8305 24.9503 67.1102 25.0126 66.3969 25.1249C65.6547 25.2419 64.905 25.3054 64.1536 25.3152C63.1042 25.3239 62.8642 25.2987 62.3961 25.0479C62.1896 24.9684 62.0118 24.8285 61.8858 24.6466C61.7599 24.4646 61.6916 24.2489 61.6899 24.0277C61.456 24.1828 61.254 24.3815 61.095 24.6129C61.0774 24.6725 61.0443 24.7264 60.9991 24.7691C60.9538 24.8118 60.8981 24.8417 60.8375 24.8558C60.7576 24.8567 60.6789 24.8368 60.6091 24.798C60.5393 24.7591 60.4808 24.7027 60.4395 24.6344C60.2925 24.4366 60.1779 24.2167 60.1002 23.9828C59.9539 23.5439 59.9694 22.9314 60.8648 22.5035L60.8999 22.487C60.6787 22.4125 60.4405 22.4047 60.215 22.4646C59.9278 22.5232 59.6746 22.691 59.5088 22.9328C59.2728 23.32 59.1597 23.3522 59.0563 23.3522C58.9841 23.3522 58.8924 23.3521 58.4652 22.9347C58.2714 22.7596 58.127 22.5366 58.0465 22.288C57.9661 22.0394 57.9524 21.774 58.0068 21.5185C58.072 21.2614 58.2036 21.0259 58.3885 20.8357C58.5734 20.6455 58.805 20.5073 59.0602 20.4349C59.2245 20.371 59.4 20.3406 59.5762 20.3456C59.7524 20.3506 59.9259 20.391 60.0862 20.4642C60.2208 20.5335 60.3305 20.6429 60.4003 20.7773C60.4767 20.6009 60.505 20.4074 60.4825 20.2165C60.4474 19.9472 60.424 19.7698 60.5449 19.6312C60.602 19.5792 60.67 19.5406 60.744 19.5183C60.8179 19.496 60.8959 19.4906 60.9723 19.5025C61.6595 19.6263 62.2762 20.0011 62.7025 20.5542C62.8736 20.858 62.9623 21.2012 62.9599 21.5499C62.9575 21.8985 62.8641 22.2405 62.6889 22.542C63.041 22.4295 63.3479 22.2073 63.5647 21.908C63.6726 21.6984 63.7329 21.4677 63.7414 21.2321C63.7498 20.9966 63.7061 20.7621 63.6135 20.5454C63.4809 20.3043 63.3443 20.0548 63.5102 19.8695C63.672 19.6929 63.9156 19.7963 64.0622 19.8568C64.5967 20.0352 65.0395 20.4167 65.295 20.9189C65.4031 21.0792 65.4709 21.2632 65.4926 21.4552C65.5144 21.6473 65.4894 21.8417 65.4199 22.0221C65.3591 22.2381 65.276 22.4473 65.1721 22.6463C65.3513 22.5788 65.5171 22.4801 65.6617 22.3546C65.7792 22.1985 65.8732 22.026 65.9407 21.8426L66.087 21.4437C66.1032 21.3983 66.1323 21.3587 66.1708 21.3298C66.2093 21.3008 66.2554 21.2838 66.3035 21.2808C66.3514 21.2754 66.3999 21.285 66.4421 21.3082C66.4844 21.3314 66.5184 21.3672 66.5396 21.4105L66.7054 21.7148C66.9717 22.1403 67.3666 22.4699 67.8329 22.656C67.6811 22.3286 67.5786 21.9805 67.5285 21.6231C67.5223 21.5675 67.5279 21.5112 67.5451 21.4579C67.5622 21.4046 67.5905 21.3555 67.628 21.314C67.7821 21.1648 67.9304 21.0448 69.7913 22.7136C70.6282 23.4646 71.1354 23.7053 71.8805 23.7053C72.0709 23.7155 72.2605 23.6758 72.4309 23.5903C72.6012 23.5048 72.7463 23.3764 72.8519 23.2177C72.9298 23.0796 72.9696 22.9233 72.9672 22.7647C72.9648 22.6062 72.9203 22.4512 72.8383 22.3155C72.8006 22.2377 72.7441 22.1705 72.674 22.1199C72.6038 22.0693 72.5222 22.037 72.4365 22.0258C72.3562 22.0209 72.2759 22.0355 72.2025 22.0685C72.1291 22.1014 72.0648 22.1517 72.0151 22.215C71.9677 22.2568 71.9326 22.3108 71.9137 22.3712C71.8947 22.4315 71.8927 22.4959 71.9078 22.5573C71.9361 22.631 71.9472 22.7102 71.9401 22.7889C71.933 22.8675 71.9079 22.9435 71.8669 23.0109C71.816 23.0629 71.7538 23.1025 71.6851 23.1265C71.6164 23.1506 71.5431 23.1584 71.4709 23.1494C71.1568 23.1494 70.6769 22.9241 69.3563 21.8229C67.9132 20.5793 66.2535 19.6119 64.4602 18.9691C63.2618 18.6952 62.0254 18.6284 60.8046 18.7718C59.809 18.9663 58.8805 19.4145 58.1088 20.073C57.0732 21.058 57.0613 22.3659 58.0795 23.5715L58.3973 23.9479C58.4315 23.9888 58.4519 24.0394 58.4554 24.0925C58.4589 24.1457 58.4454 24.1985 58.4168 24.2435L58.2023 24.5781C58.0759 24.7814 58.0138 25.0181 58.0239 25.2573C58.034 25.4965 58.1159 25.7272 58.2589 25.9192L58.2706 25.9348C58.2951 25.7486 58.3695 25.5726 58.4859 25.4253C58.6024 25.278 58.7564 25.1648 58.9318 25.0979C59.3083 24.9643 59.5443 25.0377 60.8533 25.5593C62.1602 26.083 64.3216 26.1142 66.637 25.6451C67.7123 25.3938 68.8327 25.4096 69.9005 25.6909C70.1775 25.796 70.4251 25.9664 70.622 26.1876C70.819 26.4089 70.9597 26.6745 71.0319 26.9618C71.0914 27.263 71.0776 27.5742 70.9917 27.869C70.9058 28.1639 70.7504 28.4337 70.5384 28.6559C70.1268 29.1202 69.7133 29.2899 68.5975 29.5962C67.708 29.841 67.4739 29.8586 65.5037 29.8372C64.5322 29.7748 63.5567 29.8266 62.5972 29.9914C61.8345 30.1474 61.3526 30.164 59.164 30.1113L57.3908 30.0664C57.4373 30.1001 57.4855 30.1313 57.5351 30.1601C57.6444 30.2235 57.8063 30.3171 57.7907 30.5064C57.7732 30.7014 57.5995 30.7658 57.3986 30.8399C57.1046 30.9257 56.7998 30.9687 56.4935 30.9677H56.1911L56.1541 31.1949C56.1234 31.3585 56.1208 31.526 56.1463 31.6904C56.1895 31.7512 56.2099 31.8253 56.2039 31.8997C56.1979 31.974 56.1658 32.0439 56.1134 32.097C56.061 32.1501 55.9916 32.183 55.9173 32.19C55.8431 32.1969 55.7687 32.1775 55.7073 32.1352C55.6215 32.104 55.3465 32.0308 55.0675 31.9713C54.7786 31.9101 54.4968 31.8189 54.2268 31.6992C54.2092 31.6904 54.1683 31.6718 54.1312 31.6553C53.7691 32.061 53.3213 32.3811 52.8204 32.5926C52.5512 32.5926 52.5278 32.2854 52.5122 32.0815C52.454 31.8032 52.3663 31.5318 52.2507 31.272C52.1942 31.1365 52.1337 30.996 52.0809 30.8683C52.0161 31.1485 51.9054 31.4161 51.7532 31.6602L51.5308 32.0104C51.5045 32.0457 51.4704 32.0745 51.4311 32.0945C51.3919 32.1144 51.3485 32.125 51.3045 32.1255C51.2603 32.1226 51.2176 32.108 51.1809 32.0831C51.1442 32.0583 51.1148 32.024 51.0958 31.984L50.9514 31.6846C50.8923 31.563 50.8231 31.4465 50.7447 31.3364C50.5672 31.6905 50.0209 32.3888 49.7264 32.3888C49.5333 32.3888 49.4202 32.2318 49.387 31.9089C49.1822 32.1616 48.9071 32.3888 48.7179 32.3888C48.6886 32.4102 48.6605 32.4333 48.634 32.458C48.3629 32.7662 48.1502 32.6921 48.0683 32.6473C48.0117 32.6141 47.8343 32.4834 47.9435 32.1606C47.9531 32.0158 47.9339 31.8705 47.8869 31.7332L47.7719 31.3762C47.6583 31.4 47.5463 31.4306 47.4364 31.4679C46.9058 31.6395 46.5956 31.6874 46.4688 31.4504C46.342 31.2123 46.5995 31.0115 46.6834 30.9451C46.8275 30.7657 46.9366 30.561 47.0053 30.3414C47.0345 30.2546 47.0755 30.1473 47.1243 30.04C46.9858 30.1366 46.8375 30.2302 46.6853 30.3219C45.8222 30.7925 45.0793 31.4559 44.5143 32.2604C43.9493 33.065 43.5775 33.989 43.4277 34.9606C43.1546 36.7045 44.0246 38.5255 45.7568 39.8316C46.2772 40.2178 46.8361 40.5492 47.4246 40.8206C47.1613 39.6668 47.1397 37.7658 47.6119 37.3181C47.6541 37.2798 47.707 37.2554 47.7635 37.248C47.82 37.2407 47.8774 37.2509 47.928 37.2771C48.0957 37.3737 48.1074 37.5483 47.9827 38.0535C47.6941 39.2181 47.8228 40.1447 48.58 42.3646C49.212 44.2206 49.3329 45.4378 48.0825 46.1703C47.6983 46.3936 47.4369 46.419 46.5747 46.4103C45.6481 46.3966 45.6305 46.422 45.4062 46.6004C45.151 46.8763 44.965 47.209 44.8638 47.5709C44.9418 47.5358 45.018 47.4965 45.0918 47.4533ZM48.1251 30.496C48.191 30.4959 48.2543 30.5219 48.301 30.5684C48.3478 30.6148 48.3743 30.6778 48.3748 30.7437L48.3768 30.9583C48.4008 31.1708 48.4426 31.3809 48.5016 31.5864L48.5564 31.7805L48.6306 31.7464C48.7857 31.6399 48.9144 31.4992 49.0067 31.3352C49.0991 31.1712 49.1526 30.9882 49.1631 30.8003C49.1631 30.4531 49.3952 30.4113 49.4421 30.4053C49.5805 30.3867 49.7658 30.4843 49.8322 30.7943C49.8458 30.8577 49.9219 31.1025 50 31.3376L50.0058 31.3502C50.1137 31.1895 50.2003 31.0154 50.2633 30.8323C50.351 30.5485 50.5091 30.2003 50.7939 30.2618C50.8542 30.2715 51.0552 30.3271 51.0552 30.6441C51.1334 30.8061 51.2331 30.9567 51.3518 31.0918C51.3732 31.0205 51.3986 30.9337 51.4239 30.8362C51.4922 30.5495 51.6912 29.8677 52.0228 29.7273C52.0722 29.7054 52.1261 29.6956 52.18 29.6987C52.2339 29.7017 52.2863 29.7175 52.3329 29.7448C52.3761 29.7697 52.4138 29.803 52.4439 29.8427C52.474 29.8824 52.4959 29.9277 52.5083 29.976C52.5232 30.0346 52.5226 30.0962 52.5063 30.1545C52.5715 30.4061 52.6563 30.6524 52.7599 30.8908C52.8945 31.2147 53.0271 31.5394 53.1051 31.7286C53.1714 31.6738 53.2435 31.6106 53.2804 31.5775C53.4362 31.4454 53.578 31.2977 53.7037 31.1366C53.7177 31.0873 53.7432 31.0419 53.7782 31.0043C53.8131 30.9666 53.8564 30.9378 53.9046 30.9201C53.9889 30.9036 54.0758 30.9067 54.1587 30.9292C54.2416 30.9517 54.3182 30.993 54.3825 31.0498C54.7404 31.2228 55.1175 31.3524 55.5061 31.436C55.5158 31.3453 55.5237 31.2205 55.5276 31.0703L55.5412 30.5046C55.5418 30.4679 55.5506 30.4318 55.5668 30.3989C55.583 30.366 55.6063 30.3371 55.6351 30.3143C55.6638 30.2914 55.6972 30.2752 55.7329 30.2668C55.7686 30.2584 55.8057 30.258 55.8416 30.2657L56.1459 30.329C56.3246 30.3514 56.505 30.3547 56.6843 30.3388C56.4958 30.2111 56.3286 30.0544 56.1889 29.8746C56.0928 29.8242 55.987 29.7953 55.8787 29.7897C55.2506 29.737 53.8793 29.0825 53.8793 28.548C53.8806 28.4968 53.896 28.4469 53.9239 28.4038C53.9517 28.3608 53.991 28.3263 54.0372 28.3042C54.164 28.2477 54.3123 28.275 54.6478 28.5793C54.9937 28.8961 55.4318 29.0939 55.8982 29.144C55.7466 28.8828 55.6516 28.5928 55.6192 28.2925C55.5822 27.9258 55.5802 27.9121 55.157 27.6166C54.8624 27.4132 54.5881 27.182 54.3377 26.9263C54.1623 27.3759 54.0253 27.4139 53.9124 27.4139C53.8558 27.4139 53.7408 27.4139 53.415 27.0862C53.3838 27.0559 53.3564 27.0277 53.3292 27.0043C53.2999 27.054 53.2668 27.1155 53.2297 27.1876L53.019 27.6051C52.9996 27.6439 52.9702 27.6769 52.9339 27.7008C52.8976 27.7246 52.8556 27.7383 52.8122 27.7406C52.769 27.7432 52.7258 27.7346 52.6868 27.7156C52.6479 27.6967 52.6145 27.668 52.5899 27.6324L52.426 27.3924C52.2978 27.221 52.1534 27.0623 51.9949 26.9184C51.7335 26.6805 51.6555 26.5273 51.714 26.3723C51.7358 26.3233 51.771 26.2815 51.8155 26.2517C51.86 26.2218 51.912 26.2051 51.9656 26.2035C52.1081 26.2035 52.3226 26.3479 52.6074 26.6327L52.7244 26.7516C52.7712 26.6302 52.784 26.4984 52.7615 26.3703C52.7147 26.147 52.6739 25.9363 52.8844 25.8534C53.099 25.7705 53.214 25.9656 53.2765 26.0699C53.395 26.2228 53.5311 26.3613 53.682 26.4825L53.7854 26.5663L53.8751 26.4034C54.0545 26.0738 54.1326 25.9304 54.3198 25.9304H54.3394C54.5305 25.9402 54.6007 26.108 54.6612 26.2552C55.0741 26.7596 55.5719 27.188 56.132 27.5212C56.1086 27.4647 56.0833 27.4012 56.054 27.33C55.969 27.0972 55.9229 26.8521 55.9174 26.6043C55.9174 26.4444 55.9174 26.3852 55.5741 26.1245C55.2425 25.9043 54.9848 25.5892 54.8348 25.2204C54.8227 25.2758 54.8057 25.33 54.7841 25.3823L54.6553 25.6876C54.6361 25.7327 54.6041 25.7712 54.5632 25.7983C54.5222 25.8253 54.4743 25.8398 54.4252 25.8398H54.4213C54.3719 25.8391 54.3238 25.8237 54.2831 25.7955C54.2425 25.7674 54.2111 25.7278 54.1931 25.6818L54.0936 25.4272C53.9785 25.2575 53.8289 25.114 53.6547 25.0059C53.1826 24.6936 53.1709 24.5582 53.1651 24.486C53.1627 24.4457 53.1692 24.4053 53.184 24.3678C53.1988 24.3302 53.2217 24.2963 53.2509 24.2685C53.3855 24.1378 53.5687 24.1456 54.119 24.5738C54.1873 24.6264 54.2458 24.6713 54.2943 24.7064C54.2813 24.3577 54.2322 24.0112 54.148 23.6726C54.109 23.5146 54.0604 23.3195 54.2436 23.2161C54.4289 23.1088 54.5538 23.2297 54.8171 23.4931C55.0979 23.7939 55.2774 24.1753 55.3301 24.5834C55.4394 25.1131 55.4608 25.1637 55.9876 25.627C56.0851 25.7138 56.1768 25.7909 56.2529 25.8543C56.2704 25.5812 56.288 25.1694 56.3077 24.6263C56.3662 22.8688 56.2843 22.5645 55.937 22.1187L55.7225 21.8457C55.6857 21.799 55.6668 21.7406 55.6693 21.6812C55.6718 21.6218 55.6955 21.5653 55.7361 21.5218L56.0717 21.1602C56.3326 20.9039 56.5326 20.5922 56.6569 20.2483C56.4342 20.4359 56.1474 20.5296 55.8569 20.5097C55.6834 20.5249 55.5089 20.4969 55.3489 20.4281C55.1889 20.3593 55.0484 20.252 54.9401 20.1156C54.6214 19.8107 54.236 19.5843 53.8146 19.4543C53.7571 19.638 53.6826 19.8159 53.5922 19.9858L53.3698 20.3983C53.3514 20.4325 53.3252 20.462 53.2933 20.4844C53.2615 20.5067 53.2249 20.5214 53.1864 20.5271C53.1481 20.5323 53.109 20.5287 53.0722 20.5167C53.0354 20.5047 53.0017 20.4846 52.9738 20.4578L52.5076 19.9976C52.2946 19.7735 52.033 19.6014 51.7429 19.4943C51.6434 19.4679 51.4796 19.4241 51.3801 19.4095C51.3762 19.467 51.3762 19.5431 51.3762 19.5793C51.3762 19.7529 51.3762 20.2815 51.0094 20.4493C50.6349 20.6229 50.2272 20.265 50.0927 20.1489C49.7513 19.8504 49.49 19.7616 48.696 19.8465L48.3955 19.8797C48.4547 20.0176 48.4701 20.1704 48.4397 20.3174C48.4094 20.4645 48.3347 20.5986 48.2257 20.7019C48.0416 20.9479 47.7981 21.1431 47.518 21.2693C47.2379 21.3956 46.9304 21.4487 46.6242 21.4236C46.3764 21.4214 46.1299 21.46 45.8946 21.5378C45.585 21.6545 45.2607 21.7277 44.931 21.7552C44.6939 21.7737 44.4585 21.81 44.2268 21.8635C44.169 21.8907 44.1051 21.9023 44.0415 21.8972C43.9778 21.892 43.9166 21.8703 43.8639 21.8343C43.7079 21.7075 43.7372 21.4968 43.7723 21.254C43.7867 21.1765 43.7841 21.0968 43.7645 21.0205C43.745 20.9442 43.709 20.8731 43.6591 20.8121C43.5141 20.68 43.3231 20.6099 43.1271 20.6166C42.931 20.6233 42.7453 20.7064 42.6097 20.8482C42.5267 21.0009 42.4798 21.1706 42.4727 21.3443C42.4656 21.5179 42.4985 21.6909 42.5687 21.8499C42.6272 22.0293 42.7072 22.3112 42.7403 22.478C42.9368 22.8103 43.1813 23.1117 43.466 23.3724C43.7838 23.6781 44.0791 24.0063 44.3497 24.3546C44.4284 24.4513 44.5227 24.5344 44.6286 24.6003C44.615 24.4228 44.6286 24.1848 44.8313 24.1029C45.0849 23.9995 45.2702 24.2599 45.3424 24.3575C45.4383 24.463 45.5471 24.5561 45.6662 24.6345C45.691 24.5422 45.7209 24.4513 45.756 24.3623L45.875 24.0746C45.8928 24.0306 45.9229 23.9927 45.9616 23.9652C46.0003 23.9377 46.046 23.9219 46.0934 23.9195C46.1415 23.9161 46.1895 23.9272 46.2313 23.9514C46.273 23.9756 46.3065 24.0117 46.3275 24.0551L46.5284 24.4441C46.7526 24.8093 47.0084 25.154 47.2931 25.4742C47.7632 26.0195 48.5376 27.1586 48.1007 27.5722C47.9212 27.738 47.613 27.7126 47.1234 27.6151C46.8314 27.5513 46.5326 27.5242 46.2339 27.5342C46.0505 27.5605 45.7891 27.5985 45.674 27.3947C45.5745 27.2194 45.6838 27.0446 45.7911 26.907H45.7618C44.909 26.8535 44.0665 26.6906 43.2552 26.4223C43.1518 26.3701 43.0391 26.3389 42.9236 26.3306C42.872 26.4109 42.835 26.4998 42.8143 26.593L42.5061 27.5771L42.6778 27.5606C42.95 27.5356 43.22 27.49 43.4853 27.4241C43.8755 27.3071 43.9906 27.3353 44.0826 27.4261C44.2132 27.5509 44.1742 27.7148 44.0084 28.0337C44.1379 27.9969 44.2644 27.9502 44.3868 27.8942C44.8335 27.6805 44.9759 27.8172 45.2197 28.2112C45.2411 28.2473 45.2626 28.2766 45.2799 28.3009C45.2819 28.2922 45.2819 28.2834 45.2838 28.2735C45.2975 28.1302 45.3326 27.7956 45.6057 27.7498C45.8827 27.7098 46.0719 28.0365 46.2474 28.414C46.3045 28.5409 46.3737 28.662 46.4542 28.7756C46.544 28.6042 46.673 28.4565 46.8307 28.3445C46.9202 28.2685 47.0264 28.2147 47.1407 28.1874C47.2549 28.1601 47.374 28.1601 47.4882 28.1875C47.5945 28.2258 47.6904 28.2885 47.768 28.3707C47.8456 28.4529 47.9028 28.5522 47.9349 28.6605C47.9888 28.819 47.9942 28.99 47.9504 29.1515C47.9066 29.3131 47.8157 29.458 47.6891 29.5676C47.7232 29.5734 47.7558 29.586 47.785 29.6045C47.8141 29.6231 47.8393 29.6474 47.859 29.6758C47.9838 29.8504 47.8492 30.032 47.7516 30.1645C47.6929 30.2407 47.6493 30.3275 47.6229 30.42C47.6141 30.5339 47.5857 30.6454 47.539 30.7497L48.0169 30.5205C48.0506 30.504 48.0877 30.4956 48.1253 30.496H48.1251Z" fill="#F1B924"/>
<path d="M60.2778 47.6269L60.6668 47.3767L60.9309 47.6269C60.9992 47.7041 61.0835 47.7656 61.1778 47.8072C61.2722 47.8487 61.3745 47.8692 61.4776 47.8674C61.5806 47.8655 61.6821 47.8413 61.7749 47.7964C61.8677 47.7515 61.9497 47.687 62.0151 47.6073C62.1603 47.4589 62.2906 47.3561 62.3048 47.3788C62.319 47.4016 62.3837 47.5115 62.4487 47.6232C62.5309 47.7646 62.7001 47.8357 63.0053 47.8572C63.3731 47.8831 63.4718 47.8476 63.6179 47.6364L63.7921 47.3846L64.1753 47.6308C65.2243 48.3048 65.7832 47.5977 65.3144 46.1892C65.076 45.4731 65.2071 45.0705 65.9754 44.159C66.2277 43.895 66.4278 43.5856 66.5651 43.2472C66.5651 43.0606 66.5051 43.0356 66.074 43.0442C65.6613 43.0524 65.5406 43.0081 65.3233 42.769C65.2389 42.6783 65.1734 42.5717 65.1308 42.4554C65.0882 42.339 65.0692 42.2154 65.0751 42.0916C65.0809 41.9679 65.1114 41.8465 65.1648 41.7347C65.2182 41.6229 65.2934 41.5229 65.3859 41.4406L65.7014 41.0461L65.1417 40.6663C64.6988 40.3374 64.2859 39.9699 63.9081 39.568C63.5681 39.1654 63.1519 38.8341 62.6833 38.5932C62.2147 38.3522 61.703 38.2064 61.1778 38.1641L60.4541 38.1001L60.4552 38.648C60.4566 39.3532 60.7875 40.0316 61.6909 41.1806C62.718 42.4871 62.7897 42.6893 62.8313 44.3969L62.8665 45.8411L62.5693 46.123C62.3008 46.3778 62.1796 46.4103 61.313 46.4603C60.488 46.5079 60.3146 46.5505 60.0725 46.765C59.8017 46.9679 59.6172 47.2653 59.5556 47.5981C59.4977 47.8274 59.5212 47.8776 59.6866 47.8776C59.8987 47.8361 60.0999 47.7509 60.2773 47.6274L60.2778 47.6269Z" fill="#F1B924"/>
<path d="M64.8853 48.1389C64.581 48.1233 64.2876 48.02 64.0407 47.8414L63.8612 47.7264L63.8241 47.7791C63.7384 47.9159 63.611 48.0215 63.4607 48.0805C63.3104 48.1395 63.1452 48.1487 62.9893 48.1068C62.844 48.1141 62.6991 48.0856 62.5674 48.0237C62.4358 47.9617 62.3214 47.8683 62.2344 47.7517L62.2305 47.7459C62.2187 47.7576 62.2071 47.7693 62.1953 47.783C62.1069 47.8856 61.9977 47.9685 61.8751 48.0261C61.7524 48.0837 61.619 48.1147 61.4835 48.1172C61.348 48.1197 61.2135 48.0935 61.0888 48.0405C60.9641 47.9874 60.852 47.9087 60.7598 47.8093L60.6389 47.6932L60.4126 47.8376C60.1957 47.9877 59.9476 48.0867 59.6869 48.1272C59.6244 48.1321 59.5616 48.1225 59.5035 48.0992C59.4453 48.0758 59.3933 48.0394 59.3514 47.9927C59.3107 47.9251 59.2861 47.849 59.2797 47.7703C59.2732 47.6916 59.2851 47.6125 59.3143 47.5392C59.387 47.1568 59.5981 46.8148 59.9074 46.5785C60.2197 46.3014 60.4652 46.2595 61.3002 46.2107C62.1682 46.161 62.2033 46.1278 62.3984 45.9435L62.6169 45.7367L62.5837 44.4034C62.5427 42.7463 62.492 42.6029 61.4952 41.3351C60.5569 40.1413 60.2076 39.4137 60.2058 38.65V38.1009C60.2058 38.0661 60.2131 38.0317 60.2273 37.9999C60.2414 37.9682 60.2621 37.9398 60.288 37.9165C60.3125 37.892 60.3423 37.8734 60.3751 37.8623C60.4079 37.8511 60.4429 37.8476 60.4772 37.8522L61.2009 37.9156C61.7568 37.9595 62.2985 38.1132 62.7947 38.3676C63.2909 38.6221 63.7318 38.9723 64.0919 39.3981C64.4572 39.7864 64.8561 40.1418 65.2837 40.4602L65.8435 40.8396C65.8719 40.8593 65.8959 40.8845 65.9144 40.9137C65.9328 40.9429 65.9452 40.9754 65.9508 41.0095C65.9555 41.0435 65.9532 41.0782 65.9442 41.1114C65.9351 41.1446 65.9195 41.1756 65.8982 41.2026L65.5822 41.5976C65.1745 42.1096 65.3286 42.403 65.51 42.6021C65.6621 42.7709 65.709 42.8002 66.0698 42.7953C66.3761 42.7924 66.5692 42.7914 66.7019 42.9231C66.7422 42.9664 66.7733 43.0177 66.7931 43.0735C66.8129 43.1294 66.821 43.1888 66.8169 43.2479C66.813 43.5405 66.2745 44.193 66.1673 44.3207C65.4124 45.2161 65.3558 45.5223 65.5509 46.1114C65.8435 46.9854 65.781 47.6662 65.3792 47.9782C65.2375 48.0861 65.0634 48.1427 64.8853 48.1389ZM63.793 47.1353C63.8408 47.135 63.8876 47.1489 63.9275 47.1753L64.3099 47.4218C64.6434 47.6345 64.9244 47.693 65.0726 47.5838C65.248 47.4472 65.3184 46.9879 65.0784 46.2691C64.8092 45.4636 64.9614 44.9748 65.7846 43.9984C65.9735 43.78 66.1414 43.5443 66.2859 43.2942C66.2333 43.2932 66.165 43.2932 66.0811 43.2942C65.9065 43.3231 65.7274 43.3052 65.5619 43.2425C65.3964 43.1798 65.2504 43.0745 65.1387 42.9373C65.0335 42.8254 64.9514 42.6939 64.8971 42.5502C64.8428 42.4066 64.8174 42.2537 64.8223 42.1002C64.8271 41.9467 64.8623 41.7957 64.9256 41.6558C64.9889 41.5159 65.0792 41.39 65.1914 41.285L65.3376 41.1007L65.0022 40.8734C64.5447 40.534 64.1184 40.1544 63.7284 39.7392C63.4084 39.3595 63.0166 39.0469 62.5753 38.8192C62.1341 38.5916 61.6522 38.4534 61.1574 38.4128L60.7048 38.3728V38.6488C60.7068 39.2867 61.0266 39.9314 61.8888 41.0267C62.9481 42.3776 63.0378 42.6292 63.0827 44.3916L63.1178 45.8361C63.1185 45.8711 63.1119 45.9057 63.0985 45.938C63.0851 45.9702 63.0651 45.9993 63.0398 46.0234L62.7413 46.3053C62.4097 46.6213 62.2069 46.6593 61.3271 46.7101C60.4922 46.7578 60.4066 46.8027 60.2386 46.9529C60.0269 47.1058 59.8774 47.3298 59.8172 47.5839C59.9308 47.5404 60.0393 47.4848 60.141 47.4181H60.143L60.5331 47.1674C60.5797 47.1362 60.6357 47.122 60.6915 47.1274C60.7473 47.1327 60.7996 47.1572 60.8394 47.1967L61.1027 47.4474C61.1474 47.5022 61.2039 47.5461 61.268 47.5758C61.3321 47.6056 61.4021 47.6204 61.4728 47.619C61.5434 47.6177 61.6129 47.6004 61.6758 47.5683C61.7388 47.5362 61.7936 47.4902 61.8362 47.4337C62.1485 47.1138 62.2517 47.1197 62.3199 47.1275C62.3578 47.1307 62.3946 47.1422 62.4276 47.161C62.4606 47.1799 62.4891 47.2057 62.5111 47.2367L62.6652 47.4991C62.6984 47.5567 62.8213 47.5947 63.0242 47.6093C63.3187 47.6298 63.3285 47.6181 63.4143 47.4952L63.5879 47.2436C63.6105 47.21 63.6411 47.1825 63.6768 47.1636C63.7126 47.1447 63.7525 47.135 63.793 47.1353Z" fill="#F1B924"/>
<path d="M38.2012 43.8946C38.2957 43.7637 38.3533 43.6099 38.3681 43.4492C38.3681 43.2666 38.4497 43.2179 38.851 43.1609L39.3338 43.0924L39.0118 42.8357C38.6292 42.5309 38.5939 42.2927 38.931 42.2922C39.131 42.2714 39.3238 42.206 39.4953 42.1011C39.6667 41.9961 39.8125 41.8541 39.922 41.6854C39.9416 41.6248 39.9467 41.5604 39.9368 41.4974C39.9268 41.4344 39.9022 41.3747 39.8649 41.323C39.6766 41.1082 39.3224 41.1406 39.2567 41.3787C39.186 41.6346 39.0677 41.6353 38.7995 41.3812C38.6035 41.1552 38.494 40.8669 38.4906 40.5678C38.4871 40.2686 38.59 39.9779 38.7808 39.7474C38.9664 39.5303 38.9648 39.5161 38.7281 39.292C38.4735 39.0509 38.2917 38.5737 38.4113 38.4605C38.5633 38.4365 38.719 38.4588 38.8582 38.5243C39.1535 38.6254 39.27 38.6269 39.3916 38.5313C39.7601 38.2418 39.3609 37.8694 38.7701 37.9515C38.5323 37.9844 38.4341 37.9515 38.4 37.8282C38.3741 37.7347 38.1661 37.6125 37.9318 37.5533C37.5131 37.4475 37.5099 37.4487 37.5099 37.7372C37.5099 38.0533 37.3295 38.1129 36.9866 37.9101C36.708 37.7453 36.4378 37.8733 36.4378 38.17C36.4378 38.4468 36.7162 38.5833 37.2151 38.5512C37.5978 38.5265 37.612 38.8111 37.2486 39.2202L36.9872 39.5143L37.1943 39.8118C37.3435 40.0425 37.4183 40.3135 37.4086 40.5882C37.3989 40.8628 37.3052 41.1278 37.1401 41.3474L36.8774 41.6324L36.7051 41.4039C36.4657 41.0864 36.1382 41.1077 36.0484 41.4466C35.9895 41.6685 36.0382 41.7699 36.316 42.0051C36.4867 42.1564 36.6968 42.256 36.922 42.2924C37.2845 42.2924 37.2703 42.5773 36.8935 42.8654L36.5986 43.0908L37.0543 43.1615C37.3049 43.2004 37.5099 43.2735 37.5099 43.324C37.5099 43.5177 37.8257 44.1201 37.9273 44.1201C37.9859 44.1201 38.109 44.0185 38.2008 43.8944L38.2012 43.8946Z" fill="#F1B924"/>
<path d="M37.9288 44.3701C37.6362 44.3701 37.369 43.7811 37.2871 43.4719C37.1988 43.4425 37.108 43.4213 37.0159 43.4085L36.5614 43.3383C36.5133 43.3304 36.4685 43.3087 36.4324 43.2758C36.3964 43.2429 36.3708 43.2002 36.3587 43.153C36.3462 43.1057 36.3481 43.0558 36.3641 43.0096C36.3801 42.9634 36.4094 42.923 36.4484 42.8935L36.743 42.6682C36.7938 42.6309 36.8402 42.588 36.8815 42.5404C36.6128 42.4943 36.3619 42.3756 36.1558 42.1971C35.8435 41.9318 35.7111 41.7416 35.8086 41.3818C35.8303 41.274 35.8828 41.1749 35.9596 41.0964C36.0364 41.0178 36.1343 40.9631 36.2415 40.9389C36.3682 40.9245 36.4964 40.9452 36.612 40.9989C36.7277 41.0526 36.8263 41.1371 36.8969 41.2432L36.9572 41.1789C37.0828 41.0008 37.153 40.7896 37.1589 40.5718C37.1648 40.3541 37.1061 40.1394 36.9904 39.9548L36.7836 39.6573C36.7515 39.6114 36.7358 39.5561 36.739 39.5002C36.7422 39.4443 36.7641 39.3911 36.8012 39.3491L37.0626 39.0546C37.1341 38.9786 37.1945 38.8929 37.242 38.8H37.2326C37.0815 38.8252 36.9268 38.8195 36.778 38.7833C36.6291 38.7471 36.4892 38.6811 36.3665 38.5894C36.3026 38.5263 36.2538 38.4497 36.2236 38.3651C36.1935 38.2806 36.1828 38.1903 36.1923 38.1011C36.2019 38.0118 36.2315 37.9259 36.2789 37.8497C36.3262 37.7734 36.3902 37.7089 36.466 37.6608C36.5676 37.6084 36.6814 37.584 36.7956 37.5901C36.9097 37.5963 37.0202 37.6328 37.1156 37.6959C37.1617 37.7245 37.2107 37.748 37.2619 37.7661V37.7378C37.2482 37.6609 37.2533 37.5818 37.2767 37.5073C37.3001 37.4327 37.3412 37.3649 37.3965 37.3097C37.5428 37.1956 37.7047 37.2375 37.9934 37.3116C38.0831 37.3341 38.5103 37.455 38.6254 37.7144C38.6633 37.7138 38.7011 37.7105 38.7386 37.7047C38.9273 37.659 39.1255 37.6731 39.3059 37.7451C39.4862 37.8171 39.6397 37.9434 39.7451 38.1065C39.7893 38.2171 39.7936 38.3396 39.7573 38.453C39.721 38.5663 39.6463 38.6635 39.5461 38.7278C39.4332 38.803 39.302 38.8458 39.1665 38.8516C39.031 38.8575 38.8965 38.8262 38.7776 38.761C38.7346 38.7464 38.6937 38.7347 38.6586 38.7249C38.7107 38.8695 38.7932 39.0011 38.9005 39.1111C39.2087 39.4008 39.2652 39.5659 38.9706 39.9099C38.8217 40.0921 38.7405 40.3202 38.7409 40.5555C38.7412 40.7908 38.8231 41.0186 38.9726 41.2003C38.996 41.2237 39.0175 41.2422 39.035 41.2569C39.0678 41.1783 39.1192 41.109 39.1848 41.0548C39.2504 41.0005 39.3282 40.9631 39.4115 40.9458C39.5277 40.9209 39.6485 40.9275 39.7613 40.9649C39.8741 41.0022 39.9749 41.069 40.0533 41.1584C40.1197 41.2432 40.1641 41.3432 40.1825 41.4494C40.2009 41.5556 40.1927 41.6647 40.1586 41.767C40.0414 41.9689 39.8809 42.1424 39.6886 42.2749C39.4964 42.4075 39.2772 42.4958 39.0468 42.5336C39.0779 42.5638 39.1189 42.6 39.1677 42.6399L39.4915 42.8975C39.5298 42.9277 39.5584 42.9686 39.5736 43.015C39.5888 43.0614 39.5901 43.1113 39.5772 43.1584C39.5643 43.2055 39.5378 43.2478 39.5011 43.2799C39.4644 43.3121 39.419 43.3327 39.3706 43.3393L38.8868 43.4086C38.7846 43.4151 38.6841 43.4368 38.5883 43.4729C38.5954 43.679 38.5298 43.8809 38.403 44.0435C38.3463 44.1205 38.1434 44.3701 37.9288 44.3701ZM37.1973 42.9335C37.6948 43.0281 37.7611 43.191 37.7611 43.3246C37.806 43.4893 37.875 43.6464 37.9659 43.7908C37.9776 43.7772 37.9893 43.7625 38.001 43.747C38.0633 43.6585 38.1041 43.5566 38.12 43.4495C38.12 43.0486 38.4323 42.9716 38.7344 42.9267C38.4945 42.7034 38.4048 42.4946 38.4711 42.3064C38.504 42.2078 38.6096 42.0431 38.9314 42.0431C39.2295 41.9998 39.4997 41.8437 39.6863 41.6071C39.697 41.5665 39.6936 41.5235 39.6765 41.4852C39.657 41.4645 39.6328 41.4489 39.606 41.4398C39.5792 41.4306 39.5505 41.4281 39.5225 41.4325C39.4776 41.5193 39.4151 41.7476 39.1986 41.808C38.9762 41.8675 38.7987 41.7232 38.6288 41.5632C38.3859 41.2932 38.2484 40.9447 38.2416 40.5816C38.2348 40.2185 38.3591 39.8651 38.5918 39.5862C38.6015 39.5744 38.6152 39.5579 38.6288 39.5423C38.6034 39.5179 38.5761 39.4926 38.5566 39.4741C38.3108 39.2373 38.158 38.9204 38.1257 38.5806C38.1232 38.5255 38.1319 38.4704 38.1514 38.4188C38.1708 38.3671 38.2006 38.32 38.2388 38.2802C38.2696 38.2509 38.3061 38.2282 38.3461 38.2136C38.386 38.199 38.4285 38.1928 38.4709 38.1953C38.3962 38.1802 38.3274 38.1441 38.2724 38.0913C38.2175 38.0384 38.1788 37.971 38.1608 37.8969C38.1511 37.9057 38.036 37.8374 37.8702 37.7955L37.7609 37.7681C37.7674 37.8576 37.7494 37.9472 37.7089 38.0272C37.6683 38.1073 37.6068 38.1748 37.5308 38.2226C37.4199 38.2629 37.3007 38.2751 37.184 38.2581C37.0672 38.241 36.9565 38.1953 36.8617 38.1251C36.841 38.1088 36.8169 38.0976 36.7912 38.0922C36.7655 38.0868 36.7389 38.0874 36.7134 38.0939C36.6901 38.1075 36.6881 38.1563 36.6881 38.1709C36.7602 38.2753 36.9241 38.3143 37.2011 38.3024C37.2206 38.3005 37.2401 38.3005 37.2597 38.3005C37.3519 38.2907 37.445 38.3087 37.527 38.3521C37.609 38.3956 37.6762 38.4625 37.7199 38.5443C37.796 38.6974 37.8076 38.9686 37.437 39.386L37.3063 39.5333L37.4 39.6698C37.5813 39.9473 37.6714 40.2745 37.6577 40.6057C37.6441 40.9369 37.5274 41.2555 37.3239 41.5172L37.0625 41.801C37.0381 41.8282 37.0079 41.8496 36.9742 41.8636C36.9404 41.8776 36.904 41.8838 36.8675 41.8819C36.831 41.88 36.7953 41.8702 36.763 41.8532C36.7306 41.8362 36.7024 41.8123 36.6802 41.7833L36.5066 41.555C36.4285 41.4497 36.3505 41.4254 36.3367 41.429C36.3289 41.43 36.3074 41.4515 36.2918 41.511C36.2644 41.6115 36.259 41.629 36.4791 41.8153C36.6059 41.9261 36.7579 42.0041 36.9219 42.0425C37.0244 42.0286 37.1287 42.0496 37.2179 42.1021C37.3071 42.1546 37.376 42.2357 37.4135 42.3322C37.4383 42.4426 37.4311 42.5578 37.3928 42.6643C37.3545 42.7708 37.2867 42.8641 37.1973 42.9335ZM38.6604 38.2126C38.755 38.2314 38.8482 38.2568 38.9393 38.2887C39.1792 38.3706 39.2143 38.3541 39.2378 38.3355C39.2572 38.3222 39.2733 38.3045 39.2845 38.2838C39.2147 38.2383 39.1363 38.2074 39.0542 38.193C38.9721 38.1786 38.8878 38.1809 38.8067 38.2C38.7715 38.2041 38.7208 38.2109 38.6604 38.2128V38.2126Z" fill="#F1B924"/>
<path d="M44.1345 41.3227C44.6581 41.0699 45.1089 40.6882 45.4444 40.2134C45.2954 39.9833 45.1098 39.7791 44.8949 39.6089C44.2481 39.0203 43.7342 38.3005 43.3876 37.4975C43.2941 37.202 42.8424 36.6962 41.5701 35.4623L39.8771 33.8202L39.3891 33.9438C39.1507 34.007 38.9072 34.0496 38.6615 34.071C38.4342 34.0745 38.4383 34.0875 38.7404 34.3213L39.0591 34.5679L39.5058 34.3199C39.9387 34.0796 39.9544 34.0781 40.0077 34.2715C40.0147 34.3538 40.0044 34.4367 39.9776 34.5148C39.9507 34.5929 39.9079 34.6645 39.8519 34.7251C39.7358 34.8649 39.6697 35.0234 39.7049 35.0774C39.7401 35.1315 39.6286 35.2443 39.4571 35.3283C39.1393 35.4841 38.9185 35.9968 39.1694 35.9968C39.3951 35.9968 39.8927 35.3827 39.8355 35.1749C39.8061 35.0686 39.8203 34.9592 39.867 34.9318C40.0609 34.8183 40.0488 35.3005 39.8519 35.5376C39.7358 35.6774 39.6697 35.8359 39.7049 35.8899C39.7401 35.9439 39.6286 36.0568 39.4571 36.1408C39.1413 36.2955 38.9184 36.8093 39.1671 36.8093C39.4108 36.8093 39.9004 36.2225 39.8398 36.0029C39.808 35.8879 39.8203 35.7717 39.8671 35.7444C39.9977 35.668 40.0682 36.0486 39.9579 36.2351C39.9289 36.2879 39.9138 36.3472 39.914 36.4074C39.9143 36.4677 39.9298 36.5269 39.9593 36.5795C40.0046 36.7007 40.0094 36.8333 39.9731 36.9575C39.9369 37.0817 39.8614 37.1908 39.758 37.2686C39.6724 37.3188 39.7306 37.4172 39.9381 37.574C40.2387 37.8011 40.2446 37.8249 40.2446 38.8268C40.2446 39.664 40.2784 39.8801 40.4322 40.0259C40.6048 40.1894 40.6198 40.1902 40.6198 40.0332C40.6198 39.8619 40.9205 39.6524 41.1665 39.6524C41.5356 39.8952 41.8739 40.1819 42.1739 40.5063C42.5033 40.8633 42.8862 41.1669 43.3088 41.4063C43.4513 41.4318 43.606 41.4588 43.6521 41.4665C43.8186 41.4403 43.9808 41.3922 44.1346 41.3233L44.1345 41.3227Z" fill="#F1B924"/>
<path d="M43.6561 41.7163C43.6411 41.7163 43.6261 41.7153 43.6112 41.7134L43.266 41.6532C42.796 41.3997 42.3693 41.0732 42.0019 40.6856C41.7254 40.4072 41.4309 40.1473 41.1202 39.9076C41.0199 39.926 40.9297 39.9805 40.8667 40.0607C40.8757 40.1246 40.8643 40.1897 40.8342 40.2467C40.8041 40.3038 40.7567 40.3499 40.6989 40.3785C40.5097 40.4565 40.3866 40.3278 40.262 40.2068C40.0298 39.9884 39.9947 39.7016 39.9947 38.8277C39.9947 37.9304 39.9947 37.9304 39.7879 37.7733C39.6163 37.6446 39.4602 37.4994 39.4719 37.3091C39.4752 37.2567 39.4916 37.2059 39.5195 37.1615C39.5475 37.117 39.5861 37.0802 39.6319 37.0545C39.676 37.0114 39.7095 36.9587 39.7299 36.9005C39.7502 36.8423 39.7567 36.7802 39.7489 36.719C39.6058 36.9026 39.3978 37.0244 39.1676 37.0594C39.0878 37.0622 39.0095 37.0368 38.9464 36.9877C38.8833 36.9387 38.8394 36.869 38.8224 36.7909C38.8115 36.6868 38.8221 36.5815 38.8537 36.4816C38.8852 36.3818 38.937 36.2895 39.0058 36.2106C38.9596 36.1879 38.9191 36.1551 38.8873 36.1145C38.8556 36.074 38.8334 36.0268 38.8224 35.9765C38.8173 35.7959 38.8641 35.6177 38.9575 35.4631C39.0509 35.3084 39.1869 35.184 39.3491 35.1045C39.3833 35.0881 39.416 35.0685 39.4466 35.046C39.4662 34.8682 39.5405 34.7009 39.6593 34.5672C39.6796 34.5442 39.6973 34.519 39.7119 34.492C39.6827 34.5085 39.6553 34.5242 39.628 34.5389L39.1813 34.7876C39.1385 34.8103 39.0902 34.8205 39.0418 34.8169C38.9935 34.8132 38.9472 34.796 38.9082 34.7671L38.5883 34.5205C38.3465 34.3313 38.2002 34.2172 38.2665 34.0192C38.3308 33.8281 38.5279 33.8241 38.6586 33.822C38.8851 33.8005 39.1095 33.7607 39.3296 33.703L39.8153 33.5791C39.8567 33.5687 39.9001 33.569 39.9414 33.5799C39.9827 33.5909 40.0205 33.612 40.0514 33.6415L41.7444 35.284C43.0943 36.5929 43.5156 37.0728 43.6269 37.4229C43.9602 38.1831 44.4492 38.8649 45.0624 39.4243C45.6944 39.9959 45.6944 40.1383 45.6944 40.2144C45.6944 40.6172 44.5649 41.4218 44.2275 41.5554C44.0473 41.6406 43.8542 41.695 43.6561 41.7163ZM41.167 39.4028C41.243 39.4028 41.401 39.4028 42.3491 40.3284C42.654 40.6469 42.9958 40.9278 43.3674 41.1653L43.6385 41.2111H43.6424C43.781 41.1887 43.9161 41.1484 44.0442 41.0911C44.4625 40.8698 44.8394 40.5778 45.1581 40.2279C45.0235 40.0748 44.8796 39.9302 44.727 39.7951C44.0464 39.1778 43.5085 38.4196 43.1508 37.5733C43.0632 37.2982 42.4154 36.6302 41.3972 35.6431L40.2384 34.5195C40.2156 34.6018 40.1815 34.6806 40.137 34.7536C40.1447 34.7609 40.1519 34.7687 40.1585 34.777C40.2263 34.9014 40.259 35.0419 40.2531 35.1834C40.2473 35.325 40.2031 35.4623 40.1253 35.5807C40.2061 35.6931 40.2536 35.8259 40.2626 35.964C40.2715 36.1021 40.2415 36.24 40.176 36.3619C40.168 36.3774 40.1642 36.3947 40.1649 36.4122C40.1655 36.4296 40.1707 36.4466 40.1799 36.4614C40.2414 36.6063 40.2615 36.7653 40.2381 36.921C40.2147 37.0766 40.1486 37.2227 40.0473 37.3431C40.059 37.3529 40.0726 37.3636 40.0882 37.3753C40.4937 37.6815 40.4937 37.8122 40.4937 38.8276C40.4839 39.115 40.4976 39.4027 40.5347 39.6878C40.6162 39.6011 40.7139 39.5313 40.8224 39.4824C40.9309 39.4335 41.048 39.4064 41.167 39.4028ZM39.0778 34.2676L39.0817 34.2706L39.0934 34.2647L39.0778 34.2676Z" fill="#F1B924"/>
<path d="M38.9578 37.2722C38.9578 37.0023 38.4011 36.7141 37.7352 36.6394C37.1975 36.5792 37.1887 36.5826 37.1887 36.8511C37.1887 37.0734 37.2733 37.1609 37.6444 37.3223C38.2407 37.582 38.9578 37.5545 38.9578 37.272L38.9578 37.2722Z" fill="#F1B924"/>
<path d="M38.4731 37.7525C38.1542 37.7468 37.8394 37.6788 37.5465 37.5525C37.1915 37.3985 36.9399 37.2571 36.9399 36.8523C36.9296 36.781 36.9354 36.7083 36.957 36.6396C36.9787 36.5708 37.0154 36.5079 37.0647 36.4553C37.2012 36.3305 37.377 36.348 37.7631 36.3929C38.4808 36.4719 39.2085 36.8006 39.2085 37.2726C39.2079 37.3437 39.1892 37.4135 39.154 37.4753C39.1188 37.5371 39.0684 37.5889 39.0076 37.6257C38.845 37.7177 38.6597 37.7617 38.4731 37.7525ZM37.4392 36.861C37.4392 36.9361 37.4509 36.9664 37.7455 37.0941C38.0339 37.2308 38.3563 37.279 38.6721 37.2327C38.3909 37.0272 38.0562 36.9077 37.7084 36.8884C37.6148 36.8786 37.5134 36.8669 37.4392 36.861Z" fill="#F1B924"/>
<path d="M39.5683 37.2474C39.8399 37.0008 39.9686 36.7079 39.8052 36.7079C39.6172 36.7079 39.1185 37.1554 39.1185 37.3241C39.1185 37.5871 39.2111 37.5715 39.5683 37.2474Z" fill="#F1B924"/>
<path d="M39.1949 37.7583C39.1518 37.7582 39.1092 37.7488 39.07 37.731C39.0002 37.6906 38.9438 37.6304 38.908 37.558C38.8723 37.4856 38.8587 37.4043 38.8691 37.3242C38.8691 36.9936 39.4992 36.4591 39.8055 36.4591C39.8698 36.457 39.9333 36.4749 39.9871 36.5104C40.0409 36.5458 40.0823 36.5971 40.1058 36.6571C40.2248 36.9673 39.8191 37.3574 39.7372 37.4325V37.4335C39.5304 37.6199 39.3626 37.7583 39.1949 37.7583ZM39.3626 37.3624V37.3643V37.3624Z" fill="#F1B924"/>
<path d="M38.9895 36.4492C39.0125 36.2969 38.9183 36.1953 38.636 36.0678C38.0269 35.7927 37.2991 35.6653 37.1234 35.8031C36.8004 36.057 37.0156 36.3978 37.5376 36.4591C37.753 36.4849 37.9652 36.5326 38.1709 36.6016C38.5721 36.7574 38.9537 36.6864 38.9895 36.4492Z" fill="#F1B924"/>
<path d="M38.5823 36.9361C38.4105 36.9335 38.2406 36.8995 38.081 36.8357C37.8953 36.7738 37.7038 36.7309 37.5095 36.7079C37.3453 36.7084 37.1846 36.6602 37.0478 36.5694C36.911 36.4786 36.8042 36.3493 36.7408 36.1978C36.7135 36.0879 36.7208 35.9723 36.7617 35.8667C36.8025 35.7611 36.875 35.6706 36.9691 35.6077C37.2988 35.3492 38.2312 35.6107 38.7403 35.8409C38.9217 35.9228 39.2982 36.0925 39.2378 36.4874C39.2256 36.5604 39.1972 36.6298 39.1546 36.6904C39.1121 36.751 39.0565 36.8013 38.992 36.8375C38.8664 36.9057 38.7252 36.9397 38.5823 36.9361ZM38.7442 36.4114L38.99 36.4494L38.7462 36.4065L38.7442 36.4114ZM37.3768 35.9959C37.3379 35.9939 37.2989 35.9989 37.2617 36.0105C37.2437 36.0251 37.2296 36.0439 37.2208 36.0653C37.2286 36.0907 37.3261 36.1843 37.568 36.2126C37.8046 36.2398 38.0374 36.2928 38.2625 36.3706C38.4106 36.4431 38.5808 36.4563 38.7384 36.4077C38.6742 36.3633 38.6055 36.3257 38.5336 36.2955C38.1698 36.125 37.7776 36.0234 37.3768 35.9959Z" fill="#F1B924"/>
<path d="M38.9894 35.6336C39.0223 35.4164 38.8833 35.3386 37.7493 34.9395C36.9027 34.6415 36.5278 34.7821 36.7984 35.296C36.8927 35.4751 37.0509 35.5569 37.4057 35.61C37.6761 35.6508 37.9437 35.7082 38.2071 35.7817C38.6797 35.9284 38.9528 35.8767 38.9894 35.6337V35.6336Z" fill="#F1B924"/>
<path d="M38.6506 36.1139C38.4746 36.1087 38.3003 36.0771 38.1337 36.0203C37.882 35.9516 37.6267 35.8972 37.369 35.8574C37.2102 35.8567 37.0542 35.8154 36.9159 35.7374C36.7776 35.6594 36.6616 35.5472 36.5789 35.4116C36.3878 35.05 36.4678 34.8323 36.5712 34.7143C36.7701 34.4793 37.1798 34.4732 37.8332 34.7055C38.9335 35.0927 39.306 35.2224 39.2378 35.6721C39.2284 35.7437 39.2033 35.8124 39.1641 35.8731C39.125 35.9338 39.0729 35.9851 39.0115 36.0232C38.9022 36.0869 38.7771 36.1184 38.6506 36.1139ZM38.7423 35.596L38.99 35.634L38.7442 35.5843C38.6799 35.5326 38.0693 35.318 37.6674 35.1766C37.4459 35.0726 37.2015 35.0269 36.9574 35.0439C36.9671 35.0586 36.9808 35.1054 37.0198 35.1805C37.051 35.2391 37.0881 35.3112 37.4431 35.3639C37.726 35.4074 38.006 35.4673 38.2819 35.5433C38.6525 35.6584 38.7462 35.6009 38.7462 35.5999L38.7423 35.596Z" fill="#F1B924"/>
<path d="M39.5575 34.8694C39.6975 34.7461 39.8044 34.5897 39.8686 34.4146C39.8686 34.1657 39.1929 34.606 39.1067 34.911C39.0034 35.2769 39.1709 35.2617 39.5575 34.8694L39.5575 34.8694Z" fill="#F1B924"/>
<path d="M39.1403 35.4263C39.0853 35.4266 39.0313 35.4118 38.9842 35.3834C38.7521 35.2488 38.8379 34.9435 38.8671 34.843C38.95 34.6433 39.0842 34.469 39.2562 34.3378C39.4281 34.2066 39.6316 34.1232 39.8462 34.0959C39.9231 34.1059 39.9937 34.144 40.0441 34.2029C40.0946 34.2618 40.1214 34.3373 40.1193 34.4149C40.1193 34.6392 39.8267 34.9543 39.735 35.0459C39.5499 35.2351 39.3412 35.4263 39.1403 35.4263Z" fill="#F1B924"/>
<path d="M38.9895 34.818C39.0268 34.5706 38.6153 34.3471 37.806 34.1753C37.2123 34.0493 36.9504 34.1205 36.9951 34.3967C37.0194 34.5473 37.2171 34.6574 37.7781 34.8324C38.6759 35.1126 38.9459 35.1094 38.9898 34.818H38.9895Z" fill="#F1B924"/>
<path d="M38.7013 35.2898C38.3605 35.2634 38.0251 35.1898 37.7045 35.0713C37.1778 34.9074 36.8013 34.765 36.7506 34.4354C36.7343 34.3605 36.7373 34.2827 36.7591 34.2092C36.7809 34.1357 36.8209 34.0689 36.8754 34.015C37.0508 33.8443 37.3436 33.8229 37.8586 33.9321C38.4887 34.0657 39.3196 34.3066 39.2377 34.8558C39.2299 34.9267 39.2066 34.9951 39.1696 35.0561C39.1325 35.1171 39.0825 35.1692 39.0232 35.2088C38.926 35.2664 38.8141 35.2945 38.7013 35.2898ZM37.2246 34.3808C37.2773 34.3808 37.408 34.4559 37.8527 34.5954C38.1349 34.7073 38.4333 34.7731 38.7364 34.7904C38.6993 34.7446 38.5179 34.5827 37.7533 34.4198C37.3163 34.3261 37.2149 34.3788 37.2129 34.3818C37.2168 34.3809 37.2207 34.3806 37.2246 34.3808ZM38.7424 34.7816C38.7424 34.7926 38.754 34.7855 38.7599 34.7836L38.7424 34.7816Z" fill="#F1B924"/>
<path d="M39.7811 33.6663C40.8181 33.2047 40.9077 32.0406 39.9299 31.7349C39.5239 31.608 39.2647 31.6764 39.1093 31.9515C38.9903 32.162 39.0698 32.5449 39.2326 32.5449C39.2874 32.5449 39.3326 32.6157 39.3326 32.7024C39.3326 33.1066 37.7491 33.2897 37.0999 32.9606C36.8718 32.845 36.7725 32.5449 36.9624 32.5449C37.1042 32.5449 37.2023 32.2391 37.1299 32.0228C37.0312 31.7281 36.734 31.626 36.3033 31.7386C35.3312 31.9928 35.3586 33.135 36.3482 33.6198C37.4546 34.0212 38.6641 34.0376 39.781 33.6663L39.7811 33.6663Z" fill="#F1B924"/>
<path d="M38.1434 34.1809C37.4925 34.2017 36.8442 34.0875 36.2396 33.8453C35.9674 33.7335 35.7359 33.541 35.5762 33.2938C35.4165 33.0465 35.3362 32.7564 35.3462 32.4623C35.3747 32.2277 35.4766 32.0081 35.6374 31.8349C35.7982 31.6617 36.0097 31.5437 36.2415 31.4979C36.8092 31.3467 37.2247 31.5184 37.3671 31.9437C37.4028 32.0565 37.4133 32.1758 37.3978 32.2931C37.3823 32.4104 37.3412 32.5229 37.2774 32.6225C37.2507 32.6591 37.2192 32.692 37.1837 32.7201C37.1927 32.7277 37.2025 32.7342 37.213 32.7396C37.7982 32.9359 38.4326 32.929 39.0135 32.7201C38.9665 32.6833 38.9274 32.6375 38.8984 32.5854C38.836 32.4694 38.8028 32.3399 38.8018 32.2081C38.8008 32.0763 38.8319 31.9463 38.8926 31.8293C39.0009 31.6429 39.1762 31.5049 39.3828 31.4432C39.5894 31.3816 39.8117 31.4011 40.0044 31.4977C40.236 31.5548 40.4436 31.6835 40.5977 31.8655C40.7518 32.0475 40.8446 32.2735 40.8628 32.5113C40.8593 32.8141 40.7637 33.1087 40.5888 33.3559C40.4139 33.6031 40.1679 33.7912 39.8835 33.8953C39.3273 34.1019 38.7365 34.1988 38.1434 34.1809ZM36.62 31.9425C36.5341 31.9445 36.4489 31.9576 36.3664 31.9815C36.234 32.0025 36.1119 32.0654 36.0179 32.1609C35.9238 32.2563 35.8627 32.3794 35.8436 32.512C35.845 32.7042 35.9043 32.8915 36.014 33.0494C36.1236 33.2073 36.2784 33.3283 36.4581 33.3967C37.4987 33.763 38.6308 33.7777 39.6806 33.4386C39.8716 33.3747 40.0389 33.2547 40.1607 33.0943C40.2825 32.9339 40.3531 32.7405 40.3633 32.5393C40.3493 32.4036 40.2927 32.2757 40.2016 32.1741C40.1105 32.0725 39.9896 32.0023 39.8561 31.9736C39.4543 31.8497 39.3782 31.9863 39.3256 32.075C39.2958 32.1494 39.293 32.2319 39.3177 32.3082C39.399 32.336 39.469 32.3897 39.5169 32.461C39.5648 32.5323 39.588 32.6174 39.583 32.7032C39.5797 32.7901 39.5529 32.8745 39.5055 32.9475C39.4581 33.0205 39.3919 33.0793 39.3138 33.1177C38.5767 33.4436 37.7412 33.4674 36.9867 33.184C36.868 33.13 36.7693 33.0402 36.7042 32.9272C36.6391 32.8142 36.611 32.6837 36.6239 32.5539C36.6381 32.4913 36.6706 32.4342 36.717 32.3898C36.7635 32.3454 36.822 32.3157 36.8853 32.3042C36.9084 32.2394 36.9118 32.1691 36.895 32.1023C36.874 32.0485 36.8353 32.0034 36.7854 31.9744C36.7354 31.9454 36.6771 31.9341 36.62 31.9425Z" fill="#F1B924"/>
<path d="M39.1361 32.7713C39.1963 32.7144 39.17 32.627 39.0693 32.5478C38.8489 32.3745 38.8606 32.1168 39.1022 31.8218C39.2838 31.6002 39.3065 31.2683 39.369 27.9241C39.4767 22.1605 39.9054 17.8253 40.4704 16.7853C40.695 16.3712 40.6637 16.3696 40.0825 16.765C39.3052 17.3071 38.6777 18.0372 38.2588 18.8872C37.3054 20.6799 36.974 23.0917 36.974 28.2402C36.974 31.1634 36.9939 31.5458 37.1603 31.8207C37.234 31.908 37.2789 32.016 37.2888 32.1299C37.2987 32.2438 37.2732 32.358 37.2157 32.4568C37.1437 32.6376 37.111 32.8102 37.1431 32.8406C37.7982 33.027 38.4952 33.0029 39.1359 32.7719L39.1361 32.7713Z" fill="#F1B924"/>
<path d="M37.9833 33.2153C37.6351 33.2482 37.2846 33.1815 36.9728 33.0231C36.924 32.9763 36.7894 32.8514 36.9845 32.3647C37.0665 32.1599 37.0645 32.1443 36.9474 31.9522C36.7465 31.6176 36.7251 31.2714 36.7251 28.241C36.7251 23.0736 37.0684 20.5953 38.0401 18.7714C38.4789 17.8864 39.1329 17.1258 39.942 16.5593C40.4004 16.2443 40.5741 16.1204 40.7613 16.293C40.9367 16.4519 40.8237 16.6627 40.6891 16.9067C40.1467 17.9094 39.7255 22.236 39.6202 27.93C39.5558 31.4266 39.5343 31.6909 39.2964 31.9806C39.1656 32.1405 39.1598 32.2313 39.1637 32.2625C39.1637 32.2752 39.1676 32.3083 39.224 32.3532C39.2789 32.3903 39.3248 32.4393 39.3582 32.4965C39.3916 32.5537 39.4118 32.6178 39.4171 32.6838C39.42 32.734 39.4117 32.7842 39.3928 32.8307C39.374 32.8773 39.3449 32.9191 39.3079 32.953V32.954C38.8985 33.1603 38.4404 33.2507 37.9833 33.2153ZM37.4019 32.6875C37.8705 32.7395 38.3442 32.7241 38.8084 32.6417C38.7301 32.5498 38.6805 32.4368 38.6659 32.3169C38.661 32.1974 38.68 32.0781 38.7219 31.966C38.7637 31.8539 38.8277 31.7514 38.9098 31.6644C39.0425 31.5035 39.0659 30.8578 39.1205 27.9201C39.2199 22.6279 39.5828 18.5978 40.086 17.0694C39.4063 17.5798 38.8563 18.243 38.4806 19.0055C37.554 20.7484 37.2244 23.1653 37.2244 28.241C37.2244 31.0256 37.2439 31.4772 37.3746 31.6929C37.4687 31.8132 37.5258 31.9583 37.5389 32.1105C37.5521 32.2627 37.5208 32.4155 37.4487 32.5502C37.43 32.5948 37.4145 32.6407 37.4022 32.6875H37.4019Z" fill="#F1B924"/>
<path d="M47.8488 27.2752C47.8443 27.0785 47.7894 26.8862 47.6893 26.7167C47.5019 26.3154 47.4263 26.2487 47.1594 26.2487C45.9194 26.1411 44.7101 25.8049 43.5925 25.257C42.792 24.9003 42.5155 24.8183 42.4196 24.9092C42.1746 25.1411 42.5817 25.6917 43.2121 25.9811C44.1243 26.3091 45.0797 26.5019 46.0478 26.5533C46.4614 26.5533 46.4712 26.572 46.2358 26.9122L46.0627 27.1625L46.5306 27.1745C46.7959 27.1819 47.0601 27.2119 47.3203 27.264C47.7798 27.3748 47.784 27.3749 47.8492 27.275L47.8488 27.2752Z" fill="#F1B924"/>
<path d="M47.7505 27.5982C47.5853 27.5847 47.4219 27.5543 47.2629 27.5076C47.0198 27.4595 46.7732 27.4318 46.5256 27.4247L46.0574 27.4129C46.0123 27.4118 45.9684 27.3985 45.9303 27.3745C45.8921 27.3504 45.8612 27.3165 45.8408 27.2763C45.8204 27.2361 45.8113 27.1911 45.8144 27.1461C45.8175 27.1012 45.8327 27.0579 45.8584 27.0209L46.0086 26.8034C45.0186 26.7481 44.0421 26.5479 43.1101 26.2094C42.8777 26.122 42.6673 25.9845 42.4941 25.8067C42.3208 25.6288 42.1888 25.415 42.1074 25.1804C42.0904 25.0995 42.0944 25.0157 42.119 24.9368C42.1435 24.8579 42.1879 24.7867 42.2479 24.7298C42.478 24.5171 42.8252 24.644 43.6953 25.0292C44.7812 25.5613 45.9553 25.8902 47.1597 25.9997C47.5849 25.9997 47.7234 26.1958 47.9165 26.6122C48.1916 27.1994 48.0941 27.3564 48.0609 27.408L48.059 27.4129C48.0304 27.4699 47.9862 27.5175 47.9316 27.5503C47.877 27.5832 47.8142 27.5998 47.7505 27.5982ZM47.8481 27.2754L47.85 27.2764L47.8481 27.2754ZM46.5294 26.9253H46.5372C46.8197 26.9337 47.1009 26.9659 47.3779 27.0218C47.4442 27.0374 47.5067 27.0531 47.5633 27.0657C47.5346 26.9833 47.5013 26.9025 47.4637 26.8238C47.3136 26.499 47.3018 26.499 47.1594 26.499C46.9675 26.4977 46.7759 26.483 46.586 26.4552C46.5936 26.4662 46.6002 26.478 46.6055 26.4903C46.6348 26.5627 46.6431 26.6418 46.6297 26.7187C46.6162 26.7956 46.5815 26.8672 46.5294 26.9253ZM42.5967 25.1347C42.7605 25.4162 43.014 25.6346 43.3165 25.7551C44.1043 26.0351 44.9242 26.215 45.7568 26.2905C44.9806 26.0864 44.223 25.8173 43.4921 25.4859C43.2016 25.3495 42.9025 25.2322 42.5967 25.1347Z" fill="#F1B924"/>
<path d="M52.7349 29.8725C52.7349 29.7236 52.2973 29.3198 51.854 29.0597C51.5059 28.8554 51.4486 28.8492 51.4476 29.0159C51.4464 29.2689 51.2214 29.9044 51.1331 29.9044C51.0833 29.9044 51.0097 29.7801 50.9695 29.6284C50.8801 29.3885 50.7535 29.1642 50.5944 28.9636L50.2925 28.5746L50.0575 28.9348C49.8383 29.2706 49.4587 29.5995 49.2904 29.5995C49.2502 29.5995 49.2423 29.4227 49.2729 29.2065C49.3061 28.9717 49.2805 28.7854 49.2091 28.7436C49.1433 28.7052 49.0896 28.7186 49.0896 28.7734C48.9431 29.0662 48.723 29.3159 48.4509 29.498C48.4049 29.498 48.3406 29.3267 48.3079 29.1172C48.2752 28.9078 48.2196 28.5765 48.1845 28.381C48.1493 28.1856 48.2243 28.3181 48.3513 28.6756L48.5822 29.3256L48.8353 28.9295C48.9493 28.7688 49.0351 28.5899 49.0891 28.4004C49.0891 28.3274 49.1365 28.2949 49.1937 28.3284C49.2989 28.5053 49.3597 28.705 49.3708 28.9104L49.4438 29.4314L49.7223 29.1259C49.867 28.969 50.0004 28.802 50.1213 28.6262C50.2395 28.4354 50.2462 28.4356 50.4812 28.6349C50.6604 28.8089 50.8121 29.0091 50.9312 29.2286C51.047 29.4434 51.1572 29.6033 51.1761 29.584C51.2242 29.4235 51.2558 29.2586 51.2704 29.0918C51.3033 28.8405 51.3327 28.6256 51.3357 28.6142C51.7502 28.8065 52.1353 29.0568 52.4793 29.3576C52.675 29.5316 52.8608 29.6497 52.8923 29.6198C52.9427 29.4341 52.9621 29.2413 52.9495 29.0492C52.9762 28.8998 52.9608 28.746 52.905 28.6049C52.8492 28.4638 52.7552 28.341 52.6335 28.2503C52.324 27.9736 52.3153 27.9721 52.2007 28.1745C52.0522 28.4375 51.8771 28.441 51.8771 28.1815C51.7295 27.8083 51.4725 27.4885 51.1398 27.2641C51.1004 27.2641 50.9772 27.424 50.8658 27.6195C50.8038 27.7555 50.7132 27.8766 50.6002 27.9745C50.1969 27.6912 49.8636 27.3196 49.6257 26.888C49.6257 26.756 49.6814 26.7897 49.826 27.0102C49.967 27.2133 50.1306 27.3998 50.3136 27.566C50.6343 27.8458 50.7509 27.7777 50.8746 27.2387C50.9098 27.0853 50.9712 26.9593 51.0108 26.9593C51.3989 27.2248 51.7251 27.5713 51.9668 27.9747L52.0682 28.2286L52.1449 27.9491C52.2388 27.6077 52.3422 27.595 52.4923 27.9066C52.6805 28.1495 52.9138 28.3537 53.1796 28.5079L53.7531 28.8726L53.8682 28.5058C53.9315 28.304 54.0153 28.188 54.0545 28.2482C54.0643 28.5377 53.994 28.8243 53.8514 29.0764C53.6998 29.023 53.5597 28.9414 53.4384 28.8359L53.0561 28.5597L53.0546 29.0541C53.0569 29.2967 53.0347 29.5388 52.9885 29.7769C52.919 30.0226 52.7344 30.0917 52.7344 29.8721L52.7349 29.8725Z" fill="#F1B924"/>
<path d="M52.8107 30.256C52.7956 30.2556 52.7807 30.2543 52.7658 30.2522C52.6854 30.2382 52.6128 30.1955 52.5615 30.132C52.5102 30.0685 52.4836 29.9885 52.4868 29.907C52.2756 29.651 52.0182 29.437 51.728 29.2759C51.7046 29.2613 51.6812 29.2485 51.6617 29.2369C51.5974 29.5764 51.4393 30.1547 51.1331 30.1547C50.8892 30.1547 50.7742 29.866 50.7276 29.6945C50.6477 29.4867 50.5365 29.2922 50.3979 29.118L50.3102 29.0058L50.2673 29.0722C50.0646 29.3853 49.6119 29.8505 49.2921 29.8505C49.2541 29.8494 49.2167 29.8406 49.1821 29.8247C49.1476 29.8087 49.1167 29.786 49.0911 29.7579C49.0583 29.7198 48.9877 29.6398 49.0089 29.3423C48.8178 29.5608 48.5896 29.7491 48.4511 29.7491C48.2501 29.7491 48.1253 29.5608 48.0629 29.157C48.0297 28.9502 47.9752 28.6206 47.94 28.4265C47.8912 28.1534 48.0316 28.0734 48.1175 28.051C48.3691 27.9807 48.4549 28.2246 48.5876 28.5943L48.6461 28.762C48.7259 28.6416 48.7913 28.5123 48.8412 28.3768C48.8417 28.3215 48.8568 28.2674 48.8849 28.2198C48.9129 28.1722 48.953 28.1328 49.0012 28.1056C49.0506 28.0775 49.1068 28.0635 49.1636 28.0655C49.2205 28.0674 49.2756 28.0851 49.323 28.1166C49.4576 28.1946 49.5571 28.4492 49.6176 28.8695C49.7237 28.7516 49.8215 28.6265 49.9102 28.495C49.9371 28.4324 49.978 28.3769 50.0298 28.3326C50.0815 28.2884 50.1427 28.2565 50.2086 28.2395C50.3803 28.2092 50.4876 28.3126 50.6436 28.4462C50.7967 28.5888 50.9305 28.7508 51.0416 28.928C51.0689 28.732 51.0883 28.5798 51.0903 28.5711C51.0997 28.5246 51.1215 28.4815 51.1535 28.4465C51.1854 28.4114 51.2263 28.3857 51.2717 28.3721C51.4524 28.3766 51.627 28.4377 51.7711 28.5467C51.7213 28.5009 51.6825 28.4443 51.6578 28.3812C51.6332 28.3182 51.6232 28.2504 51.6286 28.1829C51.507 27.9656 51.356 27.766 51.18 27.5899C51.1508 27.6328 51.1197 27.6835 51.0864 27.743C50.8113 28.2258 50.6884 28.2258 50.6006 28.2258C50.2847 28.2239 49.3776 27.1675 49.3776 26.8896C49.3689 26.8217 49.3842 26.753 49.4209 26.6953C49.4576 26.6376 49.5134 26.5945 49.5785 26.5736C49.7892 26.5053 49.9276 26.712 50.035 26.8749C50.1638 27.0586 50.3123 27.2276 50.4777 27.379C50.5109 27.4083 50.538 27.4288 50.5577 27.4434C50.5896 27.3592 50.6144 27.2724 50.6319 27.184C50.704 26.8699 50.8328 26.711 51.0122 26.711C51.2561 26.711 51.7496 27.2405 52.0207 27.6024C52.0477 27.5564 52.085 27.5174 52.1297 27.4885C52.1744 27.4595 52.2253 27.4414 52.2783 27.4356C52.5201 27.4259 52.6625 27.6853 52.7191 27.8004C52.8894 27.9982 53.091 28.1666 53.316 28.299L53.6145 28.4892L53.632 28.4326C53.7197 28.1508 53.8329 28.0093 53.9929 27.9869C54.0451 27.9862 54.0968 27.9974 54.1441 28.0196C54.1913 28.0417 54.233 28.0742 54.266 28.1147C54.4162 28.3448 54.1743 29.0871 54.0417 29.2422C53.8718 29.4294 53.6496 29.2987 53.3063 29.05V29.0559C53.3078 29.3211 53.2823 29.5858 53.2302 29.8459C53.1579 30.097 52.994 30.256 52.8107 30.256ZM52.7365 29.8737L52.9862 29.8825C52.9865 29.8794 52.9858 29.8763 52.9842 29.8737H52.924C52.898 29.8761 52.8719 29.8761 52.846 29.8737H52.7365ZM51.8607 28.6009C52.133 28.776 52.3948 28.9668 52.6449 29.1724C52.6624 29.188 52.68 29.2027 52.6955 29.2162C52.6975 29.1655 52.6995 29.1099 52.6995 29.0504C52.6995 28.6661 52.6741 28.6203 52.4694 28.4368C52.442 28.4124 52.4108 28.3851 52.3817 28.3597C52.1886 28.6523 51.9799 28.6348 51.8979 28.6133C51.888 28.6106 51.8763 28.6067 51.8607 28.6009Z" fill="#F1B924"/>
<path d="M49.8759 25.9313C49.1943 25.3623 49.0909 25.2321 49.106 24.9624L49.122 24.6754L49.1665 24.9526C49.246 25.1885 49.3989 25.3928 49.6027 25.5357L49.9945 25.8416L50.2353 25.5631C50.3465 25.4483 50.4302 25.3096 50.4799 25.1576C50.4853 24.9756 50.5182 24.9909 50.9795 25.3913C51.3895 25.747 51.396 25.7487 51.4568 25.5182C51.4885 25.3392 51.4793 25.1555 51.43 24.9806C51.2961 24.521 51.3223 24.4518 51.5253 24.7289C51.6376 24.8802 51.7583 25.025 51.887 25.1627C52.0568 25.3376 52.0673 25.3354 52.1305 25.1119C52.1724 24.9408 52.195 24.7656 52.198 24.5895L52.1995 24.3007L52.5692 24.7197C52.9144 25.1111 52.9462 25.1256 53.0517 24.9389C53.129 24.7529 53.168 24.5532 53.1661 24.3518C53.1673 24.0765 53.1963 24.0071 53.2663 24.1119C53.3112 24.2911 53.3184 24.4776 53.2874 24.6597C53.2563 24.8418 53.1878 25.0154 53.0861 25.1696L52.9312 25.461L52.7278 25.1442C52.4676 24.7391 52.381 24.7456 52.2141 25.1826C52.0564 25.5957 51.9538 25.6272 51.8001 25.3096C51.7006 25.104 51.6817 25.1291 51.6111 25.5611L51.5326 26.041L51.0624 25.6761L50.5923 25.3113L50.3809 25.5515C50.2802 25.6544 50.2064 25.7805 50.1659 25.9186C50.1617 26.0699 50.0486 26.0746 49.8762 25.9307L49.8759 25.9313Z" fill="#F1B924"/>
<path d="M51.533 26.2922C51.4777 26.2927 51.424 26.2741 51.3808 26.2396L50.6259 25.6533L50.5693 25.7177C50.5044 25.7878 50.4511 25.8679 50.4113 25.9547C50.412 26.0187 50.3939 26.0815 50.3592 26.1352C50.3245 26.189 50.2748 26.2314 50.2162 26.2571C50.129 26.2862 50.0352 26.289 49.9464 26.2653C49.8577 26.2415 49.7778 26.1922 49.7168 26.1234C49.0593 25.5755 48.8332 25.3646 48.8566 24.9481L48.8722 24.6624C48.8759 24.601 48.9019 24.5431 48.9454 24.4996C48.9889 24.4561 49.0469 24.43 49.1083 24.4264H49.1219C49.1811 24.4266 49.2382 24.4478 49.2832 24.4862C49.3282 24.5246 49.3582 24.5777 49.3677 24.636L49.4126 24.9131C49.4867 25.0839 49.606 25.2313 49.7578 25.3393L49.9626 25.4993L50.0465 25.4006C50.1225 25.3171 50.1856 25.2228 50.2337 25.1207C50.23 25.0589 50.2447 24.9974 50.2759 24.9439C50.3071 24.8905 50.3535 24.8474 50.4091 24.8202C50.6002 24.7315 50.7407 24.8544 51.1445 25.2026C51.1719 25.226 51.1993 25.2504 51.2267 25.2738C51.2234 25.1986 51.2116 25.124 51.1916 25.0514C51.0979 24.7336 51.018 24.4584 51.2501 24.3434C51.4802 24.2331 51.6324 24.4526 51.726 24.5823C51.7826 24.6584 51.8587 24.753 51.9288 24.8369C51.9407 24.7552 51.9472 24.6728 51.9483 24.5903L51.9502 24.2999C51.9505 24.2493 51.9662 24.2 51.9951 24.1585C52.0241 24.117 52.065 24.0853 52.1125 24.0676C52.1599 24.05 52.2116 24.0471 52.2606 24.0595C52.3097 24.0719 52.3538 24.0989 52.3872 24.137L52.7559 24.5564C52.7851 24.5905 52.83 24.6403 52.8729 24.6879C52.9004 24.5785 52.9148 24.4662 52.9158 24.3533C52.9178 24.1475 52.9197 23.8939 53.1382 23.8273C53.2028 23.8104 53.2712 23.8157 53.3325 23.8425C53.3937 23.8692 53.4441 23.9157 53.4757 23.9746C53.5486 24.1922 53.5712 24.4235 53.5418 24.651C53.5124 24.8786 53.4317 25.0965 53.3058 25.2884L53.1517 25.5788C53.1312 25.6174 53.101 25.65 53.0641 25.6733C53.0271 25.6966 52.9847 25.7097 52.941 25.7114H52.9312C52.8893 25.7115 52.848 25.701 52.8112 25.6809C52.7744 25.6608 52.7432 25.6317 52.7206 25.5964L52.5178 25.2794L52.471 25.2092C52.4632 25.2287 52.4554 25.2492 52.4476 25.2736C52.3579 25.5086 52.2408 25.7622 51.9989 25.7729C51.942 25.778 51.8849 25.7658 51.8351 25.7378L51.7785 26.0821C51.7691 26.1406 51.7393 26.1938 51.6942 26.2322C51.6492 26.2706 51.5919 26.2918 51.5327 26.2918L51.533 26.2922Z" fill="#F1B924"/>
<path d="M55.9382 23.8117C55.6901 23.5882 55.5192 23.375 55.5585 23.3379C55.5977 23.3008 55.6418 23.2901 55.6565 23.3143C55.6713 23.3384 55.8741 23.5516 56.1072 23.7881C56.6438 24.3326 56.5335 24.348 55.9382 23.8117Z" fill="#F1B924"/>
<path d="M56.4545 24.4616C56.2867 24.4616 56.0799 24.2743 55.7717 23.9973C55.3075 23.5779 55.3055 23.418 55.3036 23.3585C55.3051 23.2833 55.3351 23.2115 55.3875 23.1575C55.4233 23.1189 55.4678 23.0893 55.5174 23.0715C55.567 23.0537 55.6202 23.0481 55.6724 23.0551C55.7133 23.0625 55.7522 23.0781 55.7867 23.1011C55.8213 23.1241 55.8508 23.1539 55.8733 23.1888C55.8928 23.2083 56.076 23.4013 56.2849 23.614C56.6145 23.9476 56.8311 24.1689 56.6321 24.3767C56.6104 24.4028 56.5832 24.4239 56.5526 24.4385C56.5219 24.4532 56.4885 24.461 56.4545 24.4616Z" fill="#F1B924"/>
<path d="M47.863 22.9771C47.6373 22.672 47.6529 22.4698 47.9276 22.1391C48.1261 21.9001 48.2168 21.8677 48.5631 21.9117C48.938 22.0015 49.2966 22.1488 49.6264 22.3483C49.9896 22.5727 50.3925 22.7252 50.8133 22.7976C50.9872 22.8303 51.1647 22.8402 51.3412 22.8271C51.2617 22.6757 51.1722 22.5298 51.0732 22.3904C50.7231 21.8652 50.735 21.8088 51.1299 22.1235C51.5354 22.4468 52.0201 22.541 53.1035 22.508L53.6329 22.4919L53.3257 22.1884C52.8963 21.7639 53.0284 21.7258 53.5027 22.1374C53.9475 22.5235 53.9197 22.5507 52.9835 22.6441C52.588 22.684 52.1887 22.6571 51.8022 22.5646C51.2701 22.4292 51.2495 22.4313 51.3503 22.6097C51.4084 22.7125 51.5024 22.7966 51.5593 22.7966C51.5883 22.7984 51.6154 22.8115 51.6348 22.8332C51.6542 22.8548 51.6642 22.8833 51.6628 22.9123C51.6628 23.108 50.5136 22.9359 49.9645 22.6579C48.7098 22.0227 48.5521 21.9675 48.2536 22.0618C48.1673 22.0915 48.0881 22.1387 48.021 22.2006C47.9539 22.2624 47.9004 22.3375 47.8638 22.421C47.8254 22.529 47.8266 22.6472 47.8674 22.7543C47.9082 22.8615 47.9858 22.9506 48.0863 23.0057C48.1868 23.0608 48.3037 23.0783 48.4159 23.055C48.5282 23.0317 48.6285 22.9692 48.6988 22.8786C48.7857 22.7471 48.7654 22.6576 48.6127 22.4979C48.4037 22.2791 48.4233 22.2479 48.7055 22.3505C48.9059 22.4233 48.9328 22.9044 48.7465 23.0809C48.612 23.1748 48.4477 23.216 48.2848 23.1968C48.1219 23.1776 47.9717 23.0994 47.8627 22.9768L47.863 22.9771Z" fill="#F1B924"/>
<path d="M48.3845 23.454C48.3552 23.454 48.326 23.4521 48.2948 23.4501C48.1727 23.4429 48.0535 23.4103 47.9447 23.3546C47.8359 23.2988 47.7399 23.2211 47.6628 23.1263C47.5917 23.0465 47.5373 22.9533 47.5025 22.8523C47.4678 22.7513 47.4534 22.6444 47.4603 22.5378C47.4672 22.4311 47.4952 22.327 47.5427 22.2313C47.5902 22.1356 47.6562 22.0502 47.7369 21.9802C47.8272 21.8426 47.9594 21.7376 48.1139 21.6807C48.2684 21.6239 48.4371 21.6181 48.5951 21.6643C49.0034 21.7576 49.394 21.916 49.7519 22.1334C50.0869 22.3407 50.4583 22.4824 50.8463 22.5509C50.8579 22.5528 50.8716 22.5537 50.8833 22.5557L50.8658 22.5283C50.6082 22.1421 50.4639 21.9285 50.657 21.751C50.8543 21.5764 51.0628 21.75 51.2871 21.9295C51.6343 22.2065 52.0791 22.2912 53.0466 22.2611C52.875 22.0817 52.717 21.8671 52.8866 21.6847C53.0857 21.475 53.3548 21.6788 53.6669 21.9499C53.8951 22.1472 54.0903 22.3176 54.018 22.5498C53.9381 22.8015 53.665 22.8278 53.0095 22.8932C52.6417 22.929 52.2706 22.9125 51.9074 22.8444C51.9113 22.8669 51.9133 22.8898 51.9133 22.9127C51.9079 22.964 51.8917 23.0137 51.8658 23.0584C51.8399 23.1031 51.8049 23.1418 51.7631 23.1721C51.4354 23.3769 50.2962 23.1067 49.8514 22.8817C49.5315 22.7198 49.2877 22.5989 49.1004 22.5091C49.1023 22.5169 49.1024 22.5237 49.1043 22.5316C49.135 22.6594 49.1342 22.7927 49.1019 22.9202C49.0696 23.0476 49.0069 23.1653 48.919 23.263C48.7714 23.392 48.5804 23.4602 48.3845 23.454ZM48.2245 22.3567C48.1706 22.3956 48.1277 22.4477 48.0997 22.508C48.081 22.5634 48.0837 22.6237 48.1071 22.6773C48.1306 22.7308 48.1731 22.7737 48.2265 22.7976C48.2476 22.8116 48.2712 22.8212 48.296 22.8259C48.3208 22.8307 48.3463 22.8304 48.3711 22.8251C48.3958 22.8199 48.4192 22.8097 48.4399 22.7953C48.4607 22.7808 48.4783 22.7624 48.4918 22.741C48.4957 22.7449 48.4957 22.7469 48.4957 22.7469C48.4781 22.7197 48.4571 22.6947 48.4332 22.6728C48.3359 22.5887 48.2637 22.4793 48.2245 22.3568V22.3567Z" fill="#F1B924"/>
<path d="M52.8044 21.7119C52.6475 21.5633 52.7705 21.5269 53.4738 21.5139C54.1887 21.5407 54.8945 21.347 55.4956 20.959C55.9952 20.6437 56.1306 20.7057 55.6565 21.0327C55.1243 21.3653 54.5223 21.5699 53.8976 21.6305C53.5823 21.6644 53.2228 21.7114 53.0989 21.7349C53.0009 21.7619 52.8966 21.7538 52.8041 21.7119H52.8044Z" fill="#F1B924"/>
<path d="M52.9628 21.9978C52.8448 22.0051 52.7283 21.969 52.6351 21.8963L52.6331 21.8934C52.5757 21.8516 52.5332 21.7924 52.5118 21.7247C52.4904 21.657 52.4912 21.5842 52.5141 21.517C52.6039 21.2907 52.8711 21.2759 53.47 21.2653C54.1396 21.2931 54.8014 21.1125 55.3641 20.7484C55.6764 20.5533 55.9922 20.3777 56.1561 20.6224C56.3238 20.876 56.0078 21.0945 55.7991 21.2388C55.2327 21.5941 54.5917 21.8135 53.9264 21.8796C53.6182 21.9128 53.2671 21.9577 53.1461 21.981C53.0856 21.9917 53.0243 21.9973 52.9628 21.9978Z" fill="#F1B924"/>
</svg>
