<svg width="85" height="64" viewBox="0 0 85 64" fill="none" xmlns="http://www.w3.org/2000/svg">
<path d="M84.4029 0H0V10.6842H84.4029V0Z" fill="#231F20"/>
<path d="M84.4088 10.6775H0.00598145V21.3617H84.4088V10.6775Z" fill="#F1B924"/>
<path d="M84.4029 21.3192H0V32.0034H84.4029V21.3192Z" fill="#E43B3A"/>
<path d="M84.4088 31.9966H0.00598145V42.6808H84.4088V31.9966Z" fill="#231F20"/>
<path d="M84.4029 42.6383H0V53.3225H84.4029V42.6383Z" fill="#F1B924"/>
<path d="M84.4088 53.3157H0.00598145V64H84.4088V53.3157Z" fill="#E43B3A"/>
<path d="M41.1627 42.5591C47.0373 42.5591 51.7996 37.7968 51.7996 31.9222C51.7996 26.0476 47.0373 21.2853 41.1627 21.2853C35.288 21.2853 30.5258 26.0476 30.5258 31.9222C30.5258 37.7968 35.288 42.5591 41.1627 42.5591Z" fill="#EBEDED"/>
<path d="M39.2602 26.1234H38.0064C38.1762 25.8984 38.3926 25.7126 38.6409 25.579C38.8891 25.4453 39.1633 25.3668 39.4446 25.3489C39.4511 25.1068 39.5105 24.869 39.6189 24.6524C39.7272 24.4357 39.8817 24.2455 40.0716 24.0951L38.9283 23.2468C38.9283 23.2468 41.6205 21.4029 43.3907 24.4639C43.0373 24.7634 42.5986 24.944 42.1368 24.9802C42.1368 24.9802 42.5056 25.5333 41.8049 26.234C41.4165 26.6563 41.1284 27.1609 40.9624 27.7101C40.7963 28.2593 40.7566 28.8389 40.8461 29.4057C41.9951 29.5378 43.0891 29.9703 44.0179 30.6595C45.6775 31.8397 47.3002 31.3971 47.8533 33.3517C48.4065 35.3063 47.4477 37.0397 46.0831 37.5928C44.7186 38.146 44.608 36.8922 44.608 36.8922C44.8968 36.6103 45.1067 36.2577 45.2167 35.8694C45.3267 35.4811 45.333 35.0708 45.235 34.6793C44.5963 34.8004 43.9377 34.7624 43.3172 34.5687C43.3333 34.9598 43.4757 35.3351 43.7231 35.6384C43.8199 35.7029 43.8967 35.7932 43.9446 35.8992C43.9926 36.0051 44.0099 36.1224 43.9945 36.2376C43.9792 36.3529 43.9318 36.4616 43.8577 36.5512C43.7837 36.6409 43.686 36.708 43.5757 36.7449C43.1416 36.8672 42.6822 36.8672 42.2481 36.7449L42.2112 39.5477C42.2112 39.5477 43.1701 39.2157 43.5388 39.6952C43.5388 39.6952 43.3175 40.2484 42.1742 40.0271C41.031 39.8058 41.3998 40.7278 40.1459 40.9122C40.1459 40.9122 40.3303 40.2115 40.6622 40.1377C40.2243 40.0533 39.7803 40.004 39.3346 39.9902C39.6467 39.715 40.027 39.5287 40.4358 39.4509C40.8445 39.373 41.2667 39.4064 41.6581 39.5477L41.5105 36.5973L39.3716 36.5604C39.1721 36.9365 39.0587 37.3522 39.0396 37.7774C38.8842 37.7027 38.7572 37.5797 38.6774 37.4269C38.5977 37.274 38.5694 37.0994 38.5971 36.9292L38.2283 38.2568C38.2283 38.2568 37.7488 37.5192 37.8963 37.1135L37.6751 37.9986C37.5739 37.7581 37.5377 37.4953 37.5701 37.2364C37.6025 36.9775 37.7022 36.7316 37.8594 36.5234C38.4127 35.9334 41.3261 36.0809 41.3261 36.0809L41.363 34.4213C40.7589 33.9587 40.1311 33.5279 39.4822 33.1306C39.0888 33.005 38.678 32.9428 38.2651 32.9461C38.2191 32.4091 38.1203 31.878 37.9701 31.3603C37.7119 30.4383 37.9701 28.3363 39.2609 27.3777C39.2609 27.3777 38.7077 27.2671 38.7814 26.8983C38.8778 26.6059 39.0419 26.3404 39.2602 26.1234Z" fill="#231F20"/>
</svg>
