<svg width="32" height="32" viewBox="0 0 32 32" fill="none" xmlns="http://www.w3.org/2000/svg">
<path fill-rule="evenodd" clip-rule="evenodd" d="M23.2929 17.2929C23.6834 16.9024 24.3166 16.9024 24.7071 17.2929L28.7071 21.2929C29.0976 21.6834 29.0976 22.3166 28.7071 22.7071L24.7071 26.7071C24.3166 27.0976 23.6834 27.0976 23.2929 26.7071C22.9024 26.3166 22.9024 25.6834 23.2929 25.2929L26.5858 22L23.2929 18.7071C22.9024 18.3166 22.9024 17.6834 23.2929 17.2929Z" fill="black"/>
<path fill-rule="evenodd" clip-rule="evenodd" d="M3 22C3 21.4477 3.44772 21 4 21H28C28.5523 21 29 21.4477 29 22C29 22.5523 28.5523 23 28 23H4C3.44772 23 3 22.5523 3 22Z" fill="black"/>
<path fill-rule="evenodd" clip-rule="evenodd" d="M8.70711 5.29289C9.09763 5.68342 9.09763 6.31658 8.70711 6.70711L5.41421 10L8.70711 13.2929C9.09763 13.6834 9.09763 14.3166 8.70711 14.7071C8.31658 15.0976 7.68342 15.0976 7.29289 14.7071L3.29289 10.7071C2.90237 10.3166 2.90237 9.68342 3.29289 9.29289L7.29289 5.29289C7.68342 4.90237 8.31658 4.90237 8.70711 5.29289Z" fill="black"/>
<path fill-rule="evenodd" clip-rule="evenodd" d="M3 10C3 9.44772 3.44772 9 4 9H28C28.5523 9 29 9.44772 29 10C29 10.5523 28.5523 11 28 11H4C3.44772 11 3 10.5523 3 10Z" fill="black"/>
</svg>
