<svg width="32" height="32" viewBox="0 0 32 32" fill="none" xmlns="http://www.w3.org/2000/svg">
<path fill-rule="evenodd" clip-rule="evenodd" d="M3.58579 4.58579C3.96086 4.21071 4.46957 4 5 4H27C27.5304 4 28.0391 4.21071 28.4142 4.58579C28.7893 4.96086 29 5.46957 29 6V22C29 22.5304 28.7893 23.0391 28.4142 23.4142C28.0391 23.7893 27.5304 24 27 24H10.3854L10.2564 24.047L6.28696 27.3839C5.99542 27.629 5.63996 27.7857 5.26239 27.8357C4.88482 27.8856 4.50083 27.8268 4.15558 27.666C3.81033 27.5052 3.51817 27.2491 3.31346 26.9279C3.10875 26.6068 3 26.2338 3 25.853V6C3 5.46957 3.21071 4.96086 3.58579 4.58579ZM27 6L5 6L5 25.853L9.1046 22.4025C9.19401 22.3273 9.29589 22.2684 9.40563 22.2284L9.86642 22.0605C9.97616 22.0205 10.0921 22 10.2089 22H27V6Z" fill="black"/>
<path fill-rule="evenodd" clip-rule="evenodd" d="M11 11.9999C11 11.4477 11.4477 10.9999 12 10.9999H20C20.5523 10.9999 21 11.4477 21 11.9999C21 12.5522 20.5523 12.9999 20 12.9999H12C11.4477 12.9999 11 12.5522 11 11.9999Z" fill="black"/>
<path fill-rule="evenodd" clip-rule="evenodd" d="M11 15.9999C11 15.4477 11.4477 14.9999 12 14.9999H20C20.5523 14.9999 21 15.4477 21 15.9999C21 16.5522 20.5523 16.9999 20 16.9999H12C11.4477 16.9999 11 16.5522 11 15.9999Z" fill="black"/>
</svg>
