<svg width="32" height="32" viewBox="0 0 32 32" fill="none" xmlns="http://www.w3.org/2000/svg">
<path fill-rule="evenodd" clip-rule="evenodd" d="M16 5C9.92487 5 5 9.92487 5 16C5 22.0751 9.92487 27 16 27C22.0751 27 27 22.0751 27 16C27 9.92487 22.0751 5 16 5ZM3 16C3 8.8203 8.8203 3 16 3C23.1797 3 29 8.8203 29 16C29 23.1797 23.1797 29 16 29C8.8203 29 3 23.1797 3 16Z" fill="black"/>
<path fill-rule="evenodd" clip-rule="evenodd" d="M22.3386 9.64567C22.6334 9.93986 22.715 10.386 22.5434 10.7655L19.0317 18.5333C18.9287 18.7611 18.7441 18.9421 18.5144 19.0405L11.0897 22.2224C10.7139 22.3835 10.2779 22.2995 9.98872 22.0104C9.69958 21.7212 9.61561 21.2852 9.77669 20.9093L12.9587 13.4847C13.0569 13.2556 13.2371 13.0714 13.464 12.9683L21.2184 9.44317C21.5975 9.27081 22.0438 9.35148 22.3386 9.64567ZM14.6444 14.6287L12.5998 19.3994L17.3693 17.3553L19.6258 12.3641L14.6444 14.6287Z" fill="black"/>
</svg>
