<svg width="32" height="32" viewBox="0 0 32 32" fill="none" xmlns="http://www.w3.org/2000/svg">
<path fill-rule="evenodd" clip-rule="evenodd" d="M19.255 2.57587C19.568 2.52022 19.8898 2.54001 20.1937 2.63358L20.2037 2.63666C20.9784 2.88414 21.7495 3.20573 22.477 3.58016L22.4906 3.58729C22.7705 3.73686 23.0108 3.9509 23.1917 4.21173C23.3714 4.47088 23.4872 4.76882 23.5298 5.08122L23.8984 7.64374C24.0547 7.79171 24.2069 7.94395 24.3549 8.10028L26.917 8.46881L26.9197 8.46919C27.2353 8.51349 27.5357 8.63254 27.7959 8.81644C28.0564 9.0005 28.269 9.24418 28.4161 9.52714C28.7901 10.2431 29.1146 11.0089 29.3548 11.8042C29.4489 12.104 29.471 12.4218 29.4194 12.7318C29.3672 13.0448 29.2413 13.3409 29.0521 13.5956L29.0493 13.5993L27.4939 15.6732C27.5 15.8905 27.5 16.108 27.4939 16.3254L29.045 18.3936L29.0475 18.3968C29.2387 18.6491 29.3673 18.9432 29.4228 19.2549C29.4784 19.568 29.4586 19.8897 29.365 20.1936L29.362 20.2036C29.1145 20.9783 28.7929 21.7495 28.4185 22.4769L28.4113 22.4905C28.2618 22.7705 28.0477 23.0108 27.7869 23.1916C27.5278 23.3713 27.2298 23.4871 26.9174 23.5297L24.3549 23.8983C24.207 24.0546 24.0547 24.2069 23.8983 24.3549L23.5298 26.917L23.5295 26.9194C23.4852 27.235 23.3661 27.5355 23.1822 27.7958C22.9982 28.0563 22.7545 28.2689 22.4716 28.416C21.7533 28.7912 20.9894 29.1143 20.1998 29.3631L20.1937 29.365C19.8898 29.4586 19.568 29.4784 19.255 29.4227C18.9432 29.3673 18.6491 29.2387 18.3969 29.0474L18.3937 29.045L16.3255 27.4939C16.1081 27.4999 15.8906 27.4999 15.6732 27.4939L13.605 29.045L13.6018 29.0474C13.3495 29.2387 13.0555 29.3673 12.7437 29.4227C12.4307 29.4784 12.1089 29.4586 11.805 29.365L11.795 29.3619C11.0203 29.1144 10.2491 28.7928 9.5217 28.4184L9.50809 28.4113C9.22815 28.2617 8.98784 28.0477 8.807 27.7868C8.62732 27.5277 8.51149 27.2298 8.46891 26.9174L8.10035 24.355C7.94394 24.207 7.79164 24.0547 7.64364 23.8983L5.08127 23.5297C4.76887 23.4871 4.47093 23.3713 4.21178 23.1916C3.95096 23.0108 3.73691 22.7705 3.58734 22.4905L3.58021 22.4769C3.20724 21.7523 2.88447 20.9898 2.63556 20.1998L2.63362 20.1936C2.54004 19.8897 2.52027 19.5679 2.57593 19.2549C2.63133 18.9432 2.75992 18.6492 2.9511 18.3969L4.50473 16.3254C4.49867 16.108 4.49867 15.8905 4.50473 15.6731L2.9511 13.6016C2.75992 13.3494 2.63133 13.0553 2.57593 12.7437C2.52027 12.4306 2.54006 12.1088 2.63364 11.805L2.63671 11.795C2.88419 11.0203 3.20579 10.2491 3.58021 9.52165L3.58734 9.50804C3.73691 9.22811 3.95096 8.98779 4.21178 8.80695C4.47093 8.62727 4.76886 8.51144 5.08126 8.46886L7.64368 8.10029C7.79168 7.94391 7.94396 7.79163 8.10035 7.64363L8.46891 5.08121C8.51149 4.76881 8.62732 4.47088 8.807 4.21173C8.98784 3.9509 9.22816 3.73686 9.50809 3.58729L9.5217 3.58016C10.244 3.2084 11.0085 2.88412 11.8043 2.64378C12.1041 2.54972 12.4219 2.5276 12.7318 2.57927C13.0448 2.63143 13.3409 2.75732 13.5956 2.94653L13.5993 2.94928L15.6732 4.50468C15.8906 4.49862 16.1081 4.49862 16.3255 4.50468L18.397 2.95105C18.6493 2.75987 18.9433 2.63128 19.255 2.57587ZM19.605 4.54504L19.5994 4.54931L17.2393 6.31929C17.0498 6.46143 16.816 6.53167 16.5795 6.5175C16.1931 6.49434 15.8056 6.49434 15.4192 6.5175C15.1827 6.53167 14.9489 6.46143 14.7593 6.31929L12.403 4.55206L12.3879 4.55676C11.7307 4.7548 11.0821 5.02728 10.4506 5.35144L10.4492 5.36167L10.0292 8.28166C9.9955 8.51567 9.88002 8.73018 9.70323 8.88713C9.41529 9.14274 9.14279 9.41524 8.88718 9.70317C8.73023 9.87997 8.51572 9.99545 8.28171 10.0291L5.35147 10.4506C5.03052 11.076 4.75568 11.7364 4.54509 12.3937L4.54936 12.3993L6.31934 14.7593C6.46148 14.9488 6.53172 15.1826 6.51755 15.4191C6.4944 15.8055 6.4944 16.193 6.51755 16.5795C6.53172 16.816 6.46148 17.0498 6.31934 17.2393L4.54507 19.605C4.75441 20.2681 5.02851 20.9189 5.3515 21.5481L5.36172 21.5494L8.28171 21.9695C8.51576 22.0031 8.7303 22.1186 8.88725 22.2955C9.14279 22.5834 9.41523 22.8558 9.70314 23.1114C9.87999 23.2683 9.99549 23.4829 10.0292 23.7169L10.4506 26.6472C11.076 26.9681 11.7365 27.243 12.3937 27.4535L12.3993 27.4493L14.7593 25.6793C14.9488 25.5372 15.1826 25.4669 15.419 25.4811C15.8056 25.5042 16.1931 25.5042 16.5796 25.4811C16.8161 25.4669 17.0499 25.5372 17.2393 25.6793L19.605 27.4536C20.2731 27.2427 20.9267 26.9666 21.5463 26.6429L21.5489 26.6416L21.5495 26.6369L21.9695 23.7169C22.0032 23.483 22.1186 23.2685 22.2953 23.1116C22.5833 22.8558 22.8559 22.5833 23.1116 22.2953C23.2686 22.1186 23.483 22.0031 23.717 21.9695L26.6472 21.548C26.9682 20.9226 27.243 20.2622 27.4536 19.6049L27.4493 19.5993L25.6793 17.2393C25.5372 17.0498 25.467 16.816 25.4811 16.5796C25.5042 16.1931 25.5042 15.8055 25.4811 15.419C25.467 15.1826 25.5372 14.9488 25.6793 14.7593L27.4466 12.403L27.4419 12.3878C27.2424 11.7258 26.9678 11.0742 26.643 10.4523L26.6417 10.4498L26.637 10.4491L23.717 10.0291C23.4831 9.99546 23.2686 9.88006 23.1117 9.70338C22.8559 9.41538 22.5833 9.14276 22.2953 8.88694C22.1186 8.73001 22.0032 8.51557 21.9695 8.28166L21.5481 5.35141C20.9227 5.03046 20.2622 4.75563 19.605 4.54504ZM11.0496 11.0495C12.3624 9.73679 14.1428 8.99929 15.9993 8.99929C16.9186 8.99929 17.8288 9.18035 18.6781 9.53213C19.5274 9.88392 20.2991 10.3995 20.9491 11.0495C21.5991 11.6996 22.1147 12.4712 22.4665 13.3205C22.8183 14.1698 22.9993 15.08 22.9993 15.9993C22.9993 16.9185 22.8183 17.8288 22.4665 18.6781C22.1147 19.5274 21.5991 20.299 20.9491 20.949C20.2991 21.599 19.5274 22.1147 18.6781 22.4664C17.8288 22.8182 16.9186 22.9993 15.9993 22.9993C14.1428 22.9993 12.3624 22.2618 11.0496 20.949C9.73684 19.6363 8.99934 17.8558 8.99934 15.9993C8.99934 14.1428 9.73684 12.3623 11.0496 11.0495ZM15.9993 10.9993C14.6733 10.9993 13.4015 11.5261 12.4638 12.4638C11.5261 13.4014 10.9993 14.6732 10.9993 15.9993C10.9993 17.3254 11.5261 18.5971 12.4638 19.5348C13.4015 20.4725 14.6733 20.9993 15.9993 20.9993C16.656 20.9993 17.3061 20.87 17.9128 20.6187C18.5194 20.3674 19.0706 19.9991 19.5349 19.5348C19.9992 19.0705 20.3675 18.5193 20.6187 17.9127C20.87 17.3061 20.9993 16.6559 20.9993 15.9993C20.9993 15.3427 20.87 14.6925 20.6187 14.0859C20.3675 13.4792 19.9992 12.9281 19.5349 12.4638C19.0706 11.9995 18.5194 11.6312 17.9128 11.3799C17.3061 11.1286 16.656 10.9993 15.9993 10.9993Z" fill="black"/>
</svg>
