<svg width="32" height="32" viewBox="0 0 32 32" fill="none" xmlns="http://www.w3.org/2000/svg">
<path d="M16 22C19.3137 22 22 19.3137 22 16C22 12.6863 19.3137 10 16 10C12.6863 10 10 12.6863 10 16C10 19.3137 12.6863 22 16 22Z" stroke="black" stroke-width="2" stroke-linecap="round" stroke-linejoin="round"/>
<path d="M15.3589 5.51926L13.0002 3.75077C12.8737 3.65557 12.7263 3.5918 12.5703 3.56473C12.4142 3.53766 12.254 3.54806 12.1028 3.59507C11.3723 3.82382 10.6636 4.11705 9.98496 4.4713C9.84449 4.54498 9.72355 4.65101 9.63214 4.78065C9.54072 4.91028 9.48144 5.05979 9.45919 5.21685L9.04223 8.13571C8.88329 8.2766 8.72769 8.42313 8.57542 8.57531C8.4232 8.72753 8.27664 8.88317 8.13572 9.04224L8.13565 9.04229L5.2173 9.45962C5.0605 9.48179 4.91121 9.54091 4.78174 9.6321C4.65226 9.72329 4.54631 9.84394 4.47262 9.98411C4.11783 10.6624 3.82403 11.3709 3.59468 12.1012C3.54745 12.2527 3.53692 12.4132 3.56394 12.5695C3.59096 12.7258 3.65476 12.8734 3.75009 13.0002L5.5192 15.359C5.50643 15.571 5.50002 15.7846 5.49996 15.9999C5.49996 16.2152 5.50637 16.4289 5.51921 16.641L5.5192 16.6411L3.75071 18.9997C3.65551 19.1263 3.59174 19.2737 3.56467 19.4297C3.5376 19.5857 3.548 19.746 3.595 19.8972C3.82376 20.6277 4.11699 21.3364 4.47124 22.015C4.54492 22.1555 4.65095 22.2764 4.78058 22.3678C4.91022 22.4593 5.05973 22.5185 5.21679 22.5408L8.13565 22.9577C8.27653 23.1167 8.42307 23.2723 8.57524 23.4246C8.72746 23.5768 8.88311 23.7233 9.04217 23.8643L9.04222 23.8643L9.45956 26.7827C9.48173 26.9395 9.54084 27.0888 9.63203 27.2182C9.72322 27.3477 9.84387 27.4537 9.98405 27.5274C10.6623 27.8821 11.3708 28.1759 12.1012 28.4053C12.2526 28.4525 12.4131 28.4631 12.5694 28.436C12.7257 28.409 12.8733 28.3452 13.0001 28.2499L15.3589 26.4808C15.5709 26.4935 15.7846 26.5 15.9998 26.5C16.2151 26.5 16.4288 26.4936 16.6409 26.4808L16.641 26.4808L18.9997 28.2493C19.1262 28.3445 19.2736 28.4082 19.4296 28.4353C19.5857 28.4624 19.7459 28.452 19.8971 28.405C20.6276 28.1762 21.3364 27.883 22.0149 27.5287C22.1554 27.4551 22.2764 27.349 22.3678 27.2194C22.4592 27.0898 22.5185 26.9402 22.5407 26.7832L22.9577 23.8643C23.1166 23.7234 23.2722 23.5769 23.4245 23.4247C23.5767 23.2725 23.7233 23.1169 23.8642 22.9578L23.8643 22.9578L26.7826 22.5404C26.9394 22.5182 27.0887 22.4591 27.2182 22.3679C27.3477 22.2768 27.4536 22.1561 27.5273 22.0159C27.8821 21.3376 28.1759 20.6291 28.4052 19.8988C28.4525 19.7474 28.463 19.5869 28.436 19.4306C28.409 19.2743 28.3451 19.1266 28.2498 18.9999L26.4807 16.6411C26.4935 16.4291 26.4999 16.2154 26.5 16.0001C26.5 15.7849 26.4935 15.5712 26.4807 15.3591L26.4807 15.359L28.2492 13.0003C28.3444 12.8737 28.4082 12.7264 28.4352 12.5703C28.4623 12.4143 28.4519 12.2541 28.4049 12.1028C28.1762 11.3723 27.8829 10.6636 27.5287 9.98502C27.455 9.84455 27.349 9.72362 27.2193 9.6322C27.0897 9.54078 26.9402 9.4815 26.7831 9.45925L23.8643 9.04229C23.7234 8.88335 23.5768 8.72775 23.4247 8.57548C23.2725 8.42326 23.1168 8.2767 22.9577 8.13578L22.9577 8.13571L22.5404 5.21737C22.5182 5.06056 22.4591 4.91127 22.3679 4.7818C22.2767 4.65232 22.156 4.54637 22.0159 4.47268C21.3376 4.11789 20.6291 3.82409 19.8988 3.59474C19.7473 3.54751 19.5868 3.53698 19.4305 3.564C19.2742 3.59102 19.1266 3.65483 18.9998 3.75015L16.641 5.51926C16.429 5.50649 16.2154 5.50008 16.0001 5.50002C15.7848 5.50002 15.5711 5.50643 15.359 5.51927L15.3589 5.51926Z" stroke="black" stroke-width="2" stroke-linecap="round" stroke-linejoin="round"/>
</svg>
