<svg width="32" height="32" viewBox="0 0 32 32" fill="none" xmlns="http://www.w3.org/2000/svg">
<path fill-rule="evenodd" clip-rule="evenodd" d="M9.2309 3.63049C9.61115 4.01073 9.61115 4.62724 9.23091 5.00749C7.1285 7.1099 5.94738 9.96138 5.94738 12.9346C5.94738 15.9079 7.1285 18.7594 9.23091 20.8618C11.3333 22.9642 14.1848 24.1453 17.158 24.1453C20.1313 24.1453 22.9828 22.9642 25.0852 20.8618C25.4654 20.4815 26.0819 20.4815 26.4622 20.8618C26.8424 21.242 26.8424 21.8585 26.4622 22.2388C23.9946 24.7064 20.6478 26.0927 17.158 26.0927C13.6683 26.0927 10.3215 24.7064 7.8539 22.2388C5.38629 19.7712 4 16.4244 4 12.9346C4 9.4449 5.38629 6.0981 7.8539 3.63049C8.23415 3.25024 8.85066 3.25024 9.2309 3.63049Z" fill="black"/>
<path fill-rule="evenodd" clip-rule="evenodd" d="M12.4355 28.8679C12.4355 28.3302 12.8715 27.8942 13.4092 27.8942H20.9073C21.4451 27.8942 21.881 28.3302 21.881 28.8679C21.881 29.4057 21.4451 29.8416 20.9073 29.8416H13.4092C12.8715 29.8416 12.4355 29.4057 12.4355 28.8679Z" fill="black"/>
<path fill-rule="evenodd" clip-rule="evenodd" d="M17.1583 24.1452C17.696 24.1452 18.1319 24.5811 18.1319 25.1189V28.8679C18.1319 29.4057 17.696 29.8416 17.1583 29.8416C16.6205 29.8416 16.1846 29.4057 16.1846 28.8679V25.1189C16.1846 24.5811 16.6205 24.1452 17.1583 24.1452Z" fill="black"/>
<path fill-rule="evenodd" clip-rule="evenodd" d="M17.1581 5.54199C13.0749 5.54199 9.76482 8.85207 9.76482 12.9353C9.76482 17.0185 13.0749 20.3285 17.1581 20.3285C21.2413 20.3285 24.5514 17.0185 24.5514 12.9353C24.5514 8.85207 21.2413 5.54199 17.1581 5.54199ZM7.78552 12.9353C7.78552 7.75893 11.9818 3.56268 17.1581 3.56268C22.3344 3.56268 26.5307 7.75893 26.5307 12.9353C26.5307 18.1116 22.3344 22.3078 17.1581 22.3078C11.9818 22.3078 7.78552 18.1116 7.78552 12.9353Z" fill="black"/>
<path fill-rule="evenodd" clip-rule="evenodd" d="M10.2938 19.3257C9.9073 18.9392 9.9073 18.3126 10.2938 17.9261L22.149 6.07085C22.5355 5.68437 23.1621 5.68437 23.5486 6.07085C23.9351 6.45733 23.9351 7.08394 23.5486 7.47043L11.6934 19.3257C11.3069 19.7122 10.6803 19.7122 10.2938 19.3257Z" fill="black"/>
<path fill-rule="evenodd" clip-rule="evenodd" d="M12.0447 10.2295C12.5849 11.6186 13.6864 13.2805 15.2496 14.8437C16.8129 16.407 18.4748 17.5085 19.8639 18.0487C20.5599 18.3194 21.1425 18.4317 21.5851 18.4229C22.0209 18.4143 22.2559 18.2932 22.3858 18.1632C22.5158 18.0332 22.637 17.7982 22.6456 17.3624C22.6543 16.9198 22.542 16.3373 22.2714 15.6413C21.7311 14.2521 20.6296 12.5902 19.0664 11.027C17.5032 9.46377 15.8413 8.36225 14.4521 7.82202C13.7561 7.55135 13.1735 7.43907 12.731 7.44781C12.2952 7.45641 12.0601 7.57756 11.9302 7.70753C11.8002 7.8375 11.6791 8.07251 11.6705 8.50831C11.6617 8.95089 11.774 9.53345 12.0447 10.2295ZM9.69154 8.46924C9.7071 7.68107 9.94035 6.89821 10.5306 6.30795C11.1209 5.7177 11.9037 5.48445 12.6919 5.46889C13.4733 5.45347 14.3208 5.64726 15.1695 5.9773C16.8697 6.63848 18.7554 7.91691 20.466 9.62742C22.1765 11.3379 23.4549 13.2237 24.1161 14.9239C24.4461 15.7726 24.6399 16.6201 24.6245 17.4015C24.6089 18.1897 24.3757 18.9725 23.7854 19.5628C23.1952 20.153 22.4123 20.3863 21.6241 20.4018C20.8427 20.4173 19.9952 20.2235 19.1465 19.8934C17.4464 19.2323 15.5606 17.9538 13.8501 16.2433C12.1396 14.5328 10.8611 12.647 10.1999 10.9468C9.86991 10.0982 9.67612 9.25064 9.69154 8.46924Z" fill="black"/>
</svg>
