<svg width="32" height="32" viewBox="0 0 32 32" fill="none" xmlns="http://www.w3.org/2000/svg">
<path fill-rule="evenodd" clip-rule="evenodd" d="M5.32733 4.26021C5.73599 3.88871 6.36844 3.91882 6.73995 4.32748L26.7399 26.3275C27.1115 26.7361 27.0813 27.3686 26.6727 27.7401C26.264 28.1116 25.6316 28.0815 25.2601 27.6728L5.26007 5.67282C4.88856 5.26417 4.91868 4.63172 5.32733 4.26021Z" fill="black"/>
<path fill-rule="evenodd" clip-rule="evenodd" d="M13.3764 11.6277C13.748 12.0363 13.7179 12.6688 13.3093 13.0403C12.5244 13.7539 12.0552 14.7501 12.0048 15.8098C11.9544 16.8694 12.3269 17.9056 13.0405 18.6906C13.7541 19.4755 14.7502 19.9448 15.8098 19.9953C16.8695 20.0458 17.9057 19.6734 18.6907 18.9599C19.0994 18.5884 19.7319 18.6186 20.1033 19.0273C20.4748 19.436 20.4446 20.0684 20.0359 20.4399C18.8584 21.5101 17.304 22.0688 15.7146 21.9931C14.1252 21.9173 12.631 21.2133 11.5606 20.0359C10.4903 18.8585 9.93141 17.3041 10.007 15.7147C10.0826 14.1253 10.7865 12.631 11.9638 11.5605C12.3725 11.189 13.0049 11.2191 13.3764 11.6277Z" fill="black"/>
<path fill-rule="evenodd" clip-rule="evenodd" d="M10.1414 8.12257C10.3909 8.61528 10.1938 9.21697 9.70108 9.46647C7.32544 10.6695 5.62198 12.4086 4.50736 13.8632C3.95172 14.5884 3.54797 15.2357 3.28514 15.6974C3.22103 15.8101 3.16541 15.9115 3.11811 16.0001C3.23576 16.2204 3.40469 16.5196 3.62746 16.8734C4.1285 17.6691 4.8961 18.7317 5.95707 19.7925C8.07323 21.9084 11.3325 23.9992 16 23.9992H16.008L16.008 23.9992C18.1921 24.0166 20.3491 23.5135 22.3001 22.5316C22.7935 22.2833 23.3947 22.482 23.643 22.9753C23.8912 23.4686 23.6926 24.0698 23.1992 24.3181C20.9656 25.4422 18.4965 26.0184 15.9961 25.9992C10.6656 25.998 6.92619 23.5898 4.54293 21.2068C3.3539 20.0179 2.4965 18.8307 1.93504 17.9391C1.65382 17.4925 1.44542 17.1178 1.3056 16.8509C1.23565 16.7173 1.18275 16.6106 1.14638 16.5351C1.12819 16.4973 1.11413 16.4673 1.10412 16.4457L1.09215 16.4195L1.08843 16.4113L1.08713 16.4084L1.08662 16.4073C1.0864 16.4068 1.0862 16.4063 2 16.0001C1.08617 15.594 1.08632 15.5937 1.08647 15.5934L1.08681 15.5926L1.08765 15.5907L1.08994 15.5856L1.09696 15.5702C1.10272 15.5576 1.11065 15.5404 1.12078 15.5189C1.14105 15.4759 1.17012 15.4155 1.20822 15.3394C1.28438 15.1872 1.39675 14.972 1.54697 14.7081C1.84711 14.1808 2.30016 13.4555 2.91982 12.6468C4.15582 11.0337 6.07702 9.05988 8.79753 7.68221C9.29024 7.4327 9.89193 7.62986 10.1414 8.12257ZM2 16.0001L1.08617 15.594C0.971265 15.8526 0.971276 16.1478 1.0862 16.4063L2 16.0001Z" fill="black"/>
<path fill-rule="evenodd" clip-rule="evenodd" d="M13.2514 6.22314C14.1602 6.07263 15.0798 5.99772 16.0009 5.99918C21.3331 5.99943 25.0736 8.40865 27.4572 10.7926C28.6463 11.9818 29.5037 13.1692 30.0651 14.061C30.3463 14.5077 30.5547 14.8825 30.6946 15.1494C30.7645 15.283 30.8174 15.3898 30.8538 15.4653C30.8719 15.5031 30.886 15.5331 30.896 15.5547L30.908 15.5808L30.9117 15.5891L30.9135 15.5931C30.9137 15.5936 30.9139 15.5941 30.0001 16.0002C29.0863 15.594 29.0864 15.5938 29.0865 15.5936L29.0789 15.61C29.0718 15.6253 29.0601 15.6503 29.0436 15.6842C29.0107 15.7521 28.9589 15.8558 28.8876 15.9896C28.8858 15.9931 28.8839 15.9966 28.882 16.0001C28.7643 15.7797 28.5954 15.4804 28.3726 15.1265C27.8715 14.3307 27.1039 13.2678 26.043 12.2067C23.9268 10.0903 20.6675 7.99918 16.0001 7.99918L15.9985 7.99918C15.1877 7.99785 14.3781 8.06377 13.5782 8.19626C13.0334 8.2865 12.5185 7.91796 12.4283 7.3731C12.338 6.82824 12.7066 6.31338 13.2514 6.22314ZM30.0001 16.0002L30.9139 16.4063C31.0288 16.1478 31.0288 15.8526 30.9139 15.5941L30.0001 16.0002ZM28.882 16.0001C28.7392 16.2675 28.5211 16.6506 28.2232 17.1063C27.6181 18.0317 26.6916 19.244 25.4091 20.3927C24.9977 20.7612 24.9629 21.3934 25.3314 21.8048C25.6999 22.2162 26.3321 22.2509 26.7435 21.8825C28.1862 20.5903 29.2217 19.2338 29.8971 18.2008C30.2355 17.6832 30.4856 17.2438 30.6529 16.9297C30.7366 16.7726 30.7997 16.6465 30.8429 16.5574C30.8646 16.5128 30.8812 16.4775 30.893 16.4521L30.9071 16.4215L30.9114 16.4119L30.9129 16.4086L30.9139 16.4063C30.914 16.4061 30.9139 16.4063 30.0001 16.0002C29.0863 16.4063 29.0864 16.4066 29.0866 16.407L29.0806 16.394C29.0749 16.3816 29.0653 16.361 29.0517 16.3329C29.0246 16.2765 28.9818 16.1899 28.9228 16.0774C28.91 16.0528 28.8964 16.0271 28.882 16.0001Z" fill="black"/>
<path fill-rule="evenodd" clip-rule="evenodd" d="M15.9588 10.9C16.0629 10.3577 16.5871 10.0024 17.1294 10.1066C18.4046 10.3514 19.5659 11.0031 20.4393 11.9639C21.3127 12.9247 21.8511 14.1427 21.9736 15.4353C22.0257 15.9852 21.6223 16.4731 21.0725 16.5253C20.5226 16.5774 20.0347 16.1739 19.9826 15.6241C19.9008 14.7621 19.5419 13.9499 18.9594 13.3092C18.377 12.6685 17.6026 12.234 16.7523 12.0707C16.2099 11.9665 15.8547 11.4424 15.9588 10.9Z" fill="black"/>
</svg>
