<svg width="32" height="32" viewBox="0 0 32 32" fill="none" xmlns="http://www.w3.org/2000/svg">
<path fill-rule="evenodd" clip-rule="evenodd" d="M14.6538 3.8707C15.022 3.53597 15.5017 3.35048 15.9992 3.35046C16.4968 3.35045 16.9765 3.5359 17.3447 3.87061L27.3454 12.9625C27.5516 13.15 27.7163 13.3784 27.829 13.6333C27.9418 13.8881 28 14.1637 28 14.4424V27C28 27.5523 27.5523 28 27 28C26.4477 28 26 27.5523 26 27V14.4424L15.9993 5.35046L6 14.4423V27C6 27.5523 5.55228 28 5 28C4.44772 28 4 27.5523 4 27V14.4423C4 14.1637 4.05822 13.8881 4.17094 13.6333C4.28365 13.3785 4.44837 13.15 4.65453 12.9625L14.6538 3.8707Z" fill="black"/>
<path fill-rule="evenodd" clip-rule="evenodd" d="M1 27C1 26.4477 1.44772 26 2 26H30C30.5523 26 31 26.4477 31 27C31 27.5523 30.5523 28 30 28H2C1.44772 28 1 27.5523 1 27Z" fill="black"/>
<path fill-rule="evenodd" clip-rule="evenodd" d="M11.9993 18.999C11.9993 18.4467 12.447 17.999 12.9993 17.999H18.9993C19.5516 17.999 19.9993 18.4467 19.9993 18.999V26.999C19.9993 27.5513 19.5516 27.999 18.9993 27.999C18.447 27.999 17.9993 27.5513 17.9993 26.999V19.999H13.9993V26.999C13.9993 27.5513 13.5516 27.999 12.9993 27.999C12.447 27.999 11.9993 27.5513 11.9993 26.999V18.999Z" fill="black"/>
</svg>
