<svg width="32" height="32" viewBox="0 0 32 32" fill="none" xmlns="http://www.w3.org/2000/svg">
<path fill-rule="evenodd" clip-rule="evenodd" d="M23.3802 6.18365C22.8341 5.9575 22.2487 5.84117 21.6576 5.84131C21.0665 5.84145 20.4812 5.95805 19.9351 6.18445C19.3891 6.41086 18.893 6.74263 18.4752 7.16081L16 9.63601C15.6094 10.0265 14.9763 10.0265 14.5858 9.63601C14.1952 9.24549 14.1952 8.61232 14.5858 8.2218L17.0603 5.74725C17.6637 5.14337 18.3805 4.66393 19.1691 4.33696C19.9578 4.00993 20.8033 3.84151 21.6571 3.84131C22.511 3.84111 23.3565 4.00914 24.1454 4.3358C24.9343 4.66246 25.6511 5.14135 26.2548 5.74511C26.8586 6.34888 27.3375 7.06568 27.6641 7.85457C27.9908 8.64346 28.1588 9.48898 28.1586 10.3428C28.1584 11.1967 27.99 12.0421 27.663 12.8308C27.336 13.6194 26.8569 14.3359 26.253 14.9393C26.2531 14.9392 26.2529 14.9394 26.253 14.9393L22.7175 18.4748C22.1139 19.0784 21.3974 19.5572 20.6087 19.8839C19.8201 20.2105 18.9749 20.3787 18.1213 20.3787C17.2677 20.3787 16.4225 20.2105 15.6339 19.8839C14.8452 19.5572 14.1287 19.0784 13.5251 18.4748C13.1346 18.0843 13.1346 17.4512 13.5251 17.0606C13.9156 16.6701 14.5488 16.6701 14.9393 17.0606C15.3572 17.4785 15.8533 17.81 16.3992 18.0361C16.9452 18.2623 17.5303 18.3787 18.1213 18.3787C18.7122 18.3787 19.2974 18.2623 19.8434 18.0361C20.3893 17.81 20.8854 17.4785 21.3033 17.0606L24.8388 13.5251C25.257 13.1073 25.5891 12.6109 25.8155 12.0648C26.0419 11.5188 26.1585 10.9335 26.1586 10.3424C26.1588 9.75123 26.0424 9.16587 25.8163 8.61972C25.5901 8.07356 25.2586 7.57732 24.8406 7.15933C24.4226 6.74134 23.9264 6.4098 23.3802 6.18365Z" fill="black"/>
<path fill-rule="evenodd" clip-rule="evenodd" d="M13.8787 13.6213C13.2877 13.6213 12.7025 13.7377 12.1566 13.9639C11.6106 14.19 11.1145 14.5215 10.6967 14.9394L7.16114 18.4749C6.74296 18.8927 6.41086 19.3891 6.18445 19.9352C5.95805 20.4812 5.84145 21.0665 5.84131 21.6576C5.84117 22.2488 5.9575 22.8341 6.18365 23.3803C6.4098 23.9264 6.74134 24.4227 7.15933 24.8407C7.57732 25.2587 8.07356 25.5902 8.61972 25.8163C9.16587 26.0425 9.75123 26.1588 10.3424 26.1587C10.9335 26.1585 11.5188 26.0419 12.0648 25.8155C12.6109 25.5891 13.107 25.2574 13.5248 24.8392L16 22.364C16.3905 21.9735 17.0237 21.9735 17.4142 22.364C17.8047 22.7545 17.8047 23.3877 17.4142 23.7782L14.9396 26.2527C14.9398 26.2526 14.9395 26.2528 14.9396 26.2527C14.3362 26.8566 13.6194 27.3361 12.8308 27.663C12.0421 27.9901 11.1967 28.1585 10.3428 28.1587C9.48898 28.1589 8.64346 27.9909 7.85457 27.6642C7.06568 27.3375 6.34888 26.8586 5.74511 26.2549C5.14135 25.6511 4.66246 24.9343 4.3358 24.1454C4.00914 23.3565 3.84111 22.511 3.84131 21.6572C3.84151 20.8033 4.00993 19.9579 4.33696 19.1691C4.66399 18.3804 5.14321 17.6638 5.74725 17.0603L9.28246 13.5251C9.88604 12.9216 10.6026 12.4428 11.3912 12.1161C12.1798 11.7895 13.0251 11.6213 13.8787 11.6213C14.7322 11.6213 15.5775 11.7895 16.3661 12.1161C17.1547 12.4428 17.8713 12.9216 18.4748 13.5251C18.8654 13.9157 18.8654 14.5488 18.4748 14.9394C18.0843 15.3299 17.4512 15.3299 17.0606 14.9394C16.6428 14.5215 16.1467 14.19 15.6007 13.9639C15.0548 13.7377 14.4696 13.6213 13.8787 13.6213Z" fill="black"/>
</svg>
