<svg width="32" height="32" viewBox="0 0 32 32" fill="none" xmlns="http://www.w3.org/2000/svg">
<path fill-rule="evenodd" clip-rule="evenodd" d="M15.9993 16C15.1708 16 14.4993 16.6716 14.4993 17.5C14.4993 18.3284 15.1708 19 15.9993 19C16.8277 19 17.4993 18.3284 17.4993 17.5C17.4993 16.6716 16.8277 16 15.9993 16ZM12.4993 17.5C12.4993 15.567 14.0663 14 15.9993 14C17.9323 14 19.4993 15.567 19.4993 17.5C19.4993 19.433 17.9323 21 15.9993 21C14.0663 21 12.4993 19.433 12.4993 17.5Z" fill="black"/>
<path fill-rule="evenodd" clip-rule="evenodd" d="M15.9993 19C16.5516 19 16.9993 19.4477 16.9993 20V23C16.9993 23.5523 16.5516 24 15.9993 24C15.447 24 14.9993 23.5523 14.9993 23V20C14.9993 19.4477 15.447 19 15.9993 19Z" fill="black"/>
<path fill-rule="evenodd" clip-rule="evenodd" d="M3.99927 12C3.99927 10.8954 4.8947 10 5.99927 10H25.9993C27.1038 10 27.9993 10.8954 27.9993 12V26C27.9993 27.1046 27.1038 28 25.9993 28H5.99927C4.8947 28 3.99927 27.1046 3.99927 26V12ZM25.9993 12H5.99927V26H25.9993V12Z" fill="black"/>
<path fill-rule="evenodd" clip-rule="evenodd" d="M15.9993 3C15.071 3 14.1808 3.36875 13.5244 4.02513C12.868 4.6815 12.4993 5.57174 12.4993 6.5V11C12.4993 11.5523 12.0516 12 11.4993 12C10.947 12 10.4993 11.5523 10.4993 11V6.5C10.4993 5.04131 11.0787 3.64236 12.1102 2.61091C13.1416 1.57946 14.5406 1 15.9993 1C17.458 1 18.8569 1.57946 19.8884 2.61091C20.9198 3.64236 21.4993 5.04131 21.4993 6.5V11C21.4993 11.5523 21.0516 12 20.4993 12C19.947 12 19.4993 11.5523 19.4993 11V6.5C19.4993 5.57174 19.1305 4.6815 18.4741 4.02513C17.8178 3.36875 16.9275 3 15.9993 3Z" fill="black"/>
</svg>
