<svg width="32" height="32" viewBox="0 0 32 32" fill="currentColor" xmlns="http://www.w3.org/2000/svg">
<path fill-rule="evenodd" clip-rule="evenodd" d="M7.65011 5C6.67809 5 5.89011 5.78798 5.89011 6.76V19.08V22.6C5.89011 23.572 6.67809 24.36 7.65011 24.36H27.0101C27.9821 24.36 28.7701 23.572 28.7701 22.6V6.76C28.7701 5.78798 27.9821 5 27.0101 5H7.65011ZM7.65011 19.4445V22.6H27.0101V21.2045L22.6101 16.8045L20.3346 19.08C20.1712 19.2434 19.9771 19.373 19.7636 19.4615C19.5501 19.5499 19.3212 19.5955 19.0901 19.5955C18.859 19.5955 18.6301 19.5499 18.4166 19.4615C18.203 19.373 18.009 19.2434 17.8456 19.08L12.9301 14.1645L7.65011 19.4445ZM27.0101 18.7155L23.8546 15.56C23.6912 15.3965 23.4971 15.2669 23.2836 15.1785C23.0701 15.09 22.8412 15.0445 22.6101 15.0445C22.379 15.0445 22.1501 15.09 21.9366 15.1785C21.723 15.2669 21.529 15.3965 21.3656 15.56L19.0901 17.8355L14.1746 12.92C14.0112 12.7565 13.8172 12.6269 13.6036 12.5385C13.3901 12.45 13.1612 12.4045 12.9301 12.4045C12.699 12.4045 12.4701 12.45 12.2566 12.5385C12.043 12.6269 11.849 12.7565 11.6856 12.92L7.65011 16.9555V6.76H27.0101V18.7155ZM20.4101 12.92C21.1391 12.92 21.7301 12.329 21.7301 11.6C21.7301 10.871 21.1391 10.28 20.4101 10.28C19.6811 10.28 19.0901 10.871 19.0901 11.6C19.0901 12.329 19.6811 12.92 20.4101 12.92ZM3.25 9.4C3.25 8.42798 4.03798 7.64 5.01 7.64V25.24H26.13C26.13 26.212 25.342 27 24.37 27H5.01C4.03798 27 3.25 26.212 3.25 25.24V9.4Z"/>
</svg>
