<svg width="32" height="32" viewBox="0 0 32 32" fill="none" xmlns="http://www.w3.org/2000/svg">
<path fill-rule="evenodd" clip-rule="evenodd" d="M16 5C12.134 5 9 8.13401 9 12C9 15.866 12.134 19 16 19C19.866 19 23 15.866 23 12C23 8.13401 19.866 5 16 5ZM7 12C7 7.02944 11.0294 3 16 3C20.9706 3 25 7.02944 25 12C25 16.9706 20.9706 21 16 21C11.0294 21 7 16.9706 7 12Z" fill="black"/>
<path fill-rule="evenodd" clip-rule="evenodd" d="M16.0001 21C13.7179 21 11.4759 21.6005 9.4993 22.7413C7.52271 23.8821 5.88112 25.523 4.73946 27.4991C4.46318 27.9773 3.85154 28.141 3.37333 27.8647C2.89512 27.5884 2.73142 26.9768 3.0077 26.4986C4.32494 24.2186 6.21898 22.3254 8.49956 21.0091C10.7801 19.6929 13.3669 19 16.0001 19C18.6333 19 21.2201 19.693 23.5006 21.0093C25.7812 22.3256 27.6752 24.2188 28.9924 26.4988C29.2686 26.9771 29.1049 27.5887 28.6267 27.865C28.1485 28.1412 27.5368 27.9775 27.2606 27.4993C26.119 25.5232 24.4774 23.8823 22.5008 22.7415C20.5243 21.6006 18.2823 21 16.0001 21Z" fill="black"/>
</svg>
