<svg width="32" height="32" viewBox="0 0 32 32" fill="none" xmlns="http://www.w3.org/2000/svg">
<path fill-rule="evenodd" clip-rule="evenodd" d="M4.54285 10.7924C6.92667 8.40837 10.6674 5.99902 16 5.99902C21.3326 5.99902 25.0733 8.40837 27.4571 10.7924C28.6462 11.9816 29.5036 13.169 30.065 14.0608C30.3462 14.5075 30.5546 14.8823 30.6944 15.1493C30.7644 15.2828 30.8173 15.3896 30.8537 15.4651C30.8718 15.5029 30.8859 15.5329 30.8959 15.5545L30.9079 15.5807L30.9116 15.5889L30.9134 15.593C30.9136 15.5934 30.9138 15.5939 30 16C30.9138 16.4062 30.9136 16.4066 30.9134 16.4071L30.9129 16.4082L30.9116 16.4111L30.9079 16.4194L30.8959 16.4455C30.8859 16.4672 30.8718 16.4971 30.8536 16.5349C30.8173 16.6104 30.7644 16.7172 30.6944 16.8507C30.5546 17.1176 30.3462 17.4924 30.065 17.939C29.5035 18.8306 28.6461 20.0178 27.4571 21.2067C25.0732 23.5902 21.3325 25.999 16 25.999C10.6675 25.999 6.92677 23.5902 4.54293 21.2067C3.3539 20.0178 2.4965 18.8306 1.93504 17.939C1.65382 17.4924 1.44542 17.1176 1.3056 16.8507C1.23565 16.7172 1.18275 16.6104 1.14638 16.5349C1.12819 16.4971 1.11413 16.4672 1.10412 16.4455L1.09215 16.4194L1.08843 16.4111L1.08713 16.4082L1.08662 16.4071C1.0864 16.4066 1.0862 16.4062 2 16C1.08617 15.5939 1.08637 15.5934 1.08659 15.593L1.0871 15.5918L1.08839 15.5889L1.09211 15.5807L1.10409 15.5545C1.11409 15.5329 1.12816 15.5029 1.14634 15.4651C1.18271 15.3896 1.23561 15.2828 1.30555 15.1493C1.44537 14.8823 1.65377 14.5075 1.93499 14.0608C2.49644 13.169 3.35383 11.9816 4.54285 10.7924ZM2 16L1.08617 15.5939C0.971265 15.8525 0.971276 16.1476 1.0862 16.4062L2 16ZM3.11811 15.9999C3.23576 15.7796 3.40472 15.4803 3.62751 15.1264C4.12856 14.3305 4.89617 13.2677 5.95715 12.2066C8.07333 10.0902 11.3326 7.99902 16 7.99902C20.6674 7.99902 23.9267 10.0902 26.0429 12.2066C27.1038 13.2677 27.8714 14.3305 28.3725 15.1264C28.5953 15.4803 28.7642 15.7796 28.8819 15.9999C28.7642 16.2203 28.5953 16.5195 28.3725 16.8732C27.8715 17.6689 27.1039 18.7315 26.0429 19.7924C23.9268 21.9083 20.6675 23.999 16 23.999C11.3325 23.999 8.07323 21.9083 5.95707 19.7924C4.8961 18.7315 4.1285 17.6689 3.62746 16.8732C3.40469 16.5195 3.23576 16.2203 3.11811 15.9999ZM30 16L30.9138 16.4062C31.0287 16.1476 31.0287 15.8525 30.9138 15.5939L30 16Z" fill="black"/>
<path fill-rule="evenodd" clip-rule="evenodd" d="M16 12.0001C13.7909 12.0001 12 13.7909 12 16.0001C12 18.2092 13.7909 20.0001 16 20.0001C18.2091 20.0001 20 18.2092 20 16.0001C20 13.7909 18.2091 12.0001 16 12.0001ZM10 16.0001C10 12.6864 12.6863 10.0001 16 10.0001C19.3137 10.0001 22 12.6864 22 16.0001C22 19.3138 19.3137 22.0001 16 22.0001C12.6863 22.0001 10 19.3138 10 16.0001Z" fill="black"/>
</svg>
