<svg width="32" height="32" viewBox="0 0 32 32" fill="none" xmlns="http://www.w3.org/2000/svg">
<path fill-rule="evenodd" clip-rule="evenodd" d="M11.9858 3.5C11.1574 3.5 10.4858 4.17157 10.4858 5C10.4858 5.82843 11.1574 6.5 11.9858 6.5C12.8143 6.5 13.4858 5.82843 13.4858 5C13.4858 4.17157 12.8143 3.5 11.9858 3.5ZM8.48584 5C8.48584 3.067 10.0528 1.5 11.9858 1.5C13.9188 1.5 15.4858 3.067 15.4858 5C15.4858 6.933 13.9188 8.5 11.9858 8.5C10.0528 8.5 8.48584 6.933 8.48584 5Z" fill="black"/>
<path fill-rule="evenodd" clip-rule="evenodd" d="M11.9858 6.5C12.5381 6.5 12.9858 6.94772 12.9858 7.5V15.5H22.9858C23.3646 15.5 23.7109 15.714 23.8803 16.0528L27.4924 23.2771L29.6696 22.5513C30.1936 22.3767 30.7599 22.6598 30.9345 23.1838C31.1092 23.7077 30.826 24.274 30.3021 24.4487L27.3021 25.4487C26.83 25.6061 26.314 25.3923 26.0914 24.9472L22.3678 17.5H11.9858C11.4336 17.5 10.9858 17.0523 10.9858 16.5V7.5C10.9858 6.94772 11.4336 6.5 11.9858 6.5Z" fill="black"/>
<path fill-rule="evenodd" clip-rule="evenodd" d="M12.9858 13C11.62 13 10.284 13.3996 9.14243 14.1496C8.00088 14.8995 7.10366 15.967 6.56132 17.2206C6.01899 18.4742 5.85523 19.859 6.09023 21.2045C6.32523 22.55 6.94872 23.7973 7.88387 24.7929C8.81902 25.7884 10.025 26.4886 11.3532 26.8072C12.6813 27.1257 14.0737 27.0488 15.3587 26.5859C16.6437 26.1229 17.7652 25.2941 18.585 24.2016C19.4048 23.1092 19.8871 21.8007 19.9724 20.4375C20.0069 19.8863 20.4817 19.4675 21.0329 19.502C21.5842 19.5365 22.003 20.0113 21.9685 20.5625C21.8588 22.3152 21.2387 23.9974 20.1847 25.402C19.1307 26.8066 17.6888 27.8722 16.0366 28.4675C14.3845 29.0627 12.5943 29.1616 10.8867 28.752C9.17901 28.3424 7.62849 27.4421 6.42615 26.1622C5.22382 24.8822 4.4222 23.2785 4.12006 21.5486C3.81792 19.8187 4.02846 18.0382 4.72574 16.4265C5.42303 14.8148 6.57659 13.4422 8.0443 12.478C9.512 11.5138 11.2297 11 12.9858 11H19.9858C20.5381 11 20.9858 11.4477 20.9858 12C20.9858 12.5523 20.5381 13 19.9858 13H12.9858C12.9858 13 12.9858 13 12.9858 13Z" fill="black"/>
</svg>
