<svg viewBox="0 0 512 195" fill="none"
  xmlns="http://www.w3.org/2000/svg">
  <g>
    <path d="M253.26 164.86C253.26 164.13 252.56 163.53 251.72 163.53H251.71C250.87 163.53 250.21 164.12 250.21 164.86C250.21 165.59 250.87 166.19 251.72 166.19C252.56 166.19 253.26 165.59 253.26 164.86Z" fill="#005EB8"/>
    <path d="M255.68 185.19C253.82 185.19 253.15 184.42 253.15 183.19V171.42H252.63L248.07 173V173.55L249.71 173.87C250.63 174.04 250.81 174.22 250.81 175.59V182.63C250.81 184.49 250.03 185.19 247.89 185.19V185.86H255.68V185.19Z" fill="#005EB8"/>
    <path d="M264.33 185.2C262.43 185.2 261.98 184.74 261.98 182.8V175.2C263.8 173.94 265.52 172.96 266.64 172.96C268.04 172.96 269.41 173.83 269.41 176.63C269.41 181.3 269.34 183.86 268.68 184.53C268.28 184.91 267.69 185.16 266.68 185.19V185.86H274.21V185.19H273.44C272.01 185.19 271.44 184.74 271.48 183.79C271.492 183.375 271.523 183.002 271.559 182.554C271.643 181.524 271.76 180.098 271.76 176.85C271.76 173.34 270.39 171.59 268.01 171.59C266.395 171.59 264.568 172.736 262.406 174.093C262.265 174.181 262.123 174.27 261.98 174.36V171.63H261.42L257.38 173.1V173.66L258.58 173.9C259.49 174.08 259.63 174.32 259.63 175.62V182.99C259.63 184.35 258.82 185.19 257.28 185.19V185.86H264.33V185.2Z" fill="#005EB8"/>
    <path d="M279.17 194.03C283.55 194.03 286.43 189.29 286.43 182.25V167.27C286.43 165.41 286.92 164.78 289.17 164.71V164.04H280.29V164.71H280.68C283.2 164.71 283.52 165.41 283.52 168.5V187.23C283.52 191.12 282.33 192.38 280.65 192.38C279.871 192.38 279.242 191.923 278.646 191.49C278.109 191.1 277.599 190.73 277.03 190.73C276.33 190.73 275.77 191.4 275.77 192.13C275.77 193.23 277.25 194.03 279.17 194.03Z" fill="#005EB8"/>
    <path fill-rule="evenodd" clip-rule="evenodd" d="M292.537 177.235C292.548 177.141 292.559 177.046 292.57 176.95H302.81V176.15C302.503 175.842 302.284 175.378 302.041 174.86C301.368 173.426 300.506 171.59 297.03 171.59C292.76 171.59 290.26 175.38 290.26 179.09C290.26 183.16 292.93 186.27 296.36 186.27C298.92 186.27 301.13 184.53 302.6 182.67L302.22 182.25C300.88 183.83 299.52 184.53 297.76 184.53C294.99 184.53 292.44 182.07 292.44 178.43C292.44 178.053 292.487 177.657 292.537 177.235ZM296.4 172.26C298.08 172.26 299.48 173.76 299.87 176.04H292.68C293.49 172.78 295.24 172.26 296.4 172.26Z" fill="#005EB8"/>
    <path d="M309.27 185.62C307.69 185.62 306.36 184.42 305.93 182.32H305.37L305.76 186.24H306.28C306.46 185.96 306.68 185.83 306.88 185.83C307.095 185.83 307.31 185.889 307.575 185.962C307.655 185.984 307.74 186.007 307.83 186.03C308.21 186.18 308.7 186.28 309.37 186.28C311.82 186.28 313.72 184.56 313.72 182.29C313.72 179.976 311.814 178.758 310.063 177.639C308.576 176.689 307.2 175.809 307.2 174.39C307.2 173.23 308.18 172.43 309.34 172.43C310.74 172.43 311.89 173.55 312.14 175.35H312.74L312.67 172.15C311.79 171.8 310.81 171.59 309.87 171.59C307.2 171.59 305.37 173.2 305.37 175.52C305.37 177.407 306.535 178.171 308.032 179.154C308.844 179.687 309.754 180.284 310.63 181.16C311.58 182.1 311.75 182.56 311.75 183.3C311.75 184.56 310.67 185.62 309.27 185.62Z" fill="#005EB8"/>
    <path d="M326.92 186.28L331.62 184.84V184.21L330.88 184.35C329.62 184.6 329.27 184.42 329.27 183.44V171.63L323.87 172.46V172.96L325.62 173.27C326.74 173.48 326.92 173.76 326.92 175.13V182.67C325.48 183.86 323.94 184.6 322.75 184.6C321.17 184.6 319.59 183.62 319.59 181.44V171.63L315.07 172.61V173.13L316.3 173.48C317.04 173.69 317.24 174.08 317.24 174.92V182.7C317.24 185.08 319.21 186.28 320.96 186.28C322.36 186.28 324.29 185.37 326.92 183.48V186.28Z" fill="#005EB8"/>
    <path d="M337.79 185.62C336.21 185.62 334.88 184.42 334.46 182.32H333.9L334.28 186.24H334.81C334.98 185.96 335.19 185.83 335.41 185.83C335.629 185.83 335.848 185.891 336.115 185.966C336.189 185.986 336.267 186.008 336.35 186.03C336.74 186.18 337.23 186.28 337.89 186.28C340.34 186.28 342.24 184.56 342.24 182.29C342.24 179.976 340.334 178.758 338.583 177.639C337.096 176.689 335.72 175.809 335.72 174.39C335.72 173.23 336.7 172.43 337.86 172.43C339.26 172.43 340.42 173.55 340.66 175.35H341.26L341.19 172.15C340.31 171.8 339.33 171.59 338.39 171.59C335.72 171.59 333.9 173.2 333.9 175.52C333.9 177.409 335.064 178.173 336.564 179.158C337.375 179.69 338.283 180.287 339.16 181.16C340.1 182.1 340.28 182.56 340.28 183.3C340.28 184.56 339.19 185.62 337.79 185.62Z" fill="#005EB8"/>
    <path d="M345.46 167.93C345.46 169.18 344.52 170.41 342.76 171.43L343 172.06C345.32 171.18 346.9 169.08 346.9 166.9C346.9 165.22 345.85 164 344.45 164C343.39 164 342.55 164.77 342.55 165.71C342.55 166.63 343.22 167.29 344.13 167.29C344.335 167.29 344.468 167.262 344.594 167.236C344.709 167.213 344.818 167.19 344.97 167.19C345.32 167.19 345.46 167.5 345.46 167.93Z" fill="#005EB8"/>
    <path d="M359.32 185.2C357.43 185.2 356.97 184.74 356.97 182.8V175.2C358.8 173.94 360.52 172.96 361.64 172.96C363.04 172.96 364.41 173.83 364.41 176.63C364.41 181.3 364.34 183.86 363.67 184.53C363.28 184.91 362.69 185.16 361.67 185.19V185.86H369.21V185.19H368.44C367 185.19 366.44 184.74 366.47 183.79C366.482 183.375 366.513 183.002 366.549 182.554C366.633 181.524 366.75 180.098 366.75 176.85C366.75 173.34 365.39 171.59 363 171.59C361.387 171.59 359.543 172.747 357.366 174.112C357.235 174.194 357.103 174.277 356.97 174.36V171.63H356.41L352.38 173.1V173.66L353.57 173.9C354.48 174.08 354.63 174.32 354.63 175.62V182.99C354.63 184.35 353.82 185.19 352.28 185.19V185.86H359.32V185.2Z" fill="#005EB8"/>
    <path fill-rule="evenodd" clip-rule="evenodd" d="M371.11 175.66C371.11 175.84 371.14 175.94 371.21 176.14V176.15L373.59 174.99C373.45 174.67 373.42 174.53 373.42 174.32C373.42 173.59 374.43 172.61 375.59 172.61C375.97 172.628 376.342 172.727 376.68 172.901C377.018 173.076 377.315 173.321 377.55 173.62C378.15 174.32 378.15 174.89 378.15 175.87V178.64C376.92 179.37 375.76 179.79 375.03 179.97C372.79 180.53 370.89 181.27 370.89 183.4C370.89 185.12 372.12 186.28 374.15 186.28C375.1 186.28 375.8 186.14 378.22 184.14C378.25 184.7 378.39 186.28 379.83 186.28C380.43 186.28 381.4 185.89 383.3 184.35L383.13 183.83C382.25 184.56 381.8 184.6 381.4 184.6C380.5 184.6 380.5 183.96 380.5 181.16V176.46C380.5 174.64 380.5 174.18 379.97 173.45C378.99 172.09 377.34 171.59 376.29 171.59C374.01 171.59 371.11 174.43 371.11 175.66ZM376.08 180.32C376.92 179.97 377.48 179.72 378.15 179.34V183.51C376.19 184.88 375.76 185.05 375.2 185.05C374.928 185.051 374.659 184.999 374.408 184.895C374.157 184.791 373.928 184.639 373.737 184.446C373.545 184.253 373.394 184.025 373.291 183.773C373.189 183.521 373.137 183.252 373.14 182.98C373.14 181.55 373.94 181.19 376.08 180.32Z" fill="#005EB8"/>
    <path d="M391.54 185.19C389.58 185.19 389.09 184.84 389.09 183.02L389.08 183.03V175.04C391.47 173.46 392.8 173 393.78 173C395.01 173 396.38 173.81 396.38 176.02V182.5C396.38 184.5 395.68 185.2 393.71 185.2V185.87H400.9V185.2C399.15 185.2 398.73 184.78 398.73 183.03V174.96C400.9 173.53 402.3 173 403.39 173C405.11 173 406.02 174.3 406.02 177V179.72C406.02 182.14 405.98 184.17 405.46 184.7C405.14 185.02 404.69 185.19 403.67 185.19H403.35V185.86H411.24V185.19H410.12C408.68 185.19 408.26 184.35 408.26 183.62C408.36 181.481 408.36 179.131 408.36 176.892V176.89C408.36 173.52 407.39 171.59 404.86 171.59C403.14 171.59 401.01 172.92 398.66 174.39C398.31 172.68 397.04 171.59 395.33 171.59C393.92 171.59 391.61 172.61 389.09 174.39V171.59H388.56L384.35 173.06V173.66L385.72 173.83C386.53 173.94 386.74 174.25 386.74 175.62V182.49C386.74 184.29 386.28 185.19 384.24 185.19V185.86H391.54V185.19Z" fill="#005EB8"/>
    <path fill-rule="evenodd" clip-rule="evenodd" d="M414.583 177.335C414.599 177.209 414.615 177.081 414.63 176.95H424.87V176.15C424.562 175.842 424.344 175.378 424.101 174.86C423.428 173.426 422.566 171.59 419.09 171.59C414.81 171.59 412.32 175.38 412.32 179.09C412.32 183.16 414.99 186.27 418.42 186.27C420.98 186.27 423.19 184.53 424.66 182.67L424.28 182.25C422.94 183.83 421.58 184.53 419.82 184.53C417.05 184.53 414.49 182.07 414.49 178.43C414.49 178.084 414.535 177.72 414.583 177.335ZM418.46 172.26C420.13 172.26 421.54 173.76 421.93 176.04H414.74C415.55 172.78 417.3 172.26 418.46 172.26Z" fill="#005EB8"/>
    <path fill-rule="evenodd" clip-rule="evenodd" d="M107.6 98.74C106.31 98.74 105.76 98.39 105.76 97.02V93.14C105.801 93.1422 105.841 93.1444 105.881 93.1466C106.199 93.1642 106.485 93.18 106.93 93.18C107.423 93.18 107.758 93.1673 108.162 93.1521C108.265 93.1482 108.373 93.1441 108.49 93.14C109.04 93.51 109.85 94.18 110.86 95.18L112.36 96.69C114.41 98.74 115.44 99.61 119.46 99.42V99.01C117.69 98.89 116.29 98.05 114.93 96.69L113.13 94.88C112.05 93.8 111.36 93.16 110.51 92.5C112.39 91.95 113.56 90.5 113.56 88.78C113.56 86.44 111.66 84.7 107.42 84.7C105.93 84.7 105.466 84.7197 104.539 84.7592L104.52 84.76C104.283 84.7726 104.017 84.7877 103.743 84.8033C102.929 84.8496 102.044 84.9 101.64 84.9V85.34H102.14C103.46 85.34 103.86 85.75 103.86 87.17V96.84C103.86 98.37 103.38 98.74 102.03 98.74H101.63V99.17H108.12V98.74H107.6ZM106.901 92.7514C106.521 92.7543 106.206 92.7568 105.76 92.7V85.18C106.17 85.13 106.47 85.13 106.91 85.13C110.44 85.13 111.41 86.78 111.41 88.92C111.41 91.67 109.73 92.75 107.18 92.75C107.082 92.75 106.99 92.7507 106.901 92.7514Z" fill="#005EB8"/>
    <path fill-rule="evenodd" clip-rule="evenodd" d="M120.904 93.56C120.913 93.4909 120.922 93.4209 120.93 93.35H127.63V92.82C127.432 92.6199 127.292 92.3178 127.135 91.9813C126.697 91.0401 126.134 89.83 123.85 89.83C121.05 89.83 119.41 92.31 119.41 94.75C119.41 97.41 121.16 99.45 123.41 99.45C125.09 99.45 126.53 98.3 127.49 97.08L127.24 96.81C126.37 97.84 125.48 98.31 124.33 98.31C122.52 98.31 120.84 96.69 120.84 94.31C120.84 94.0725 120.871 93.8225 120.904 93.56ZM123.43 90.27C124.54 90.27 125.45 91.25 125.7 92.75H121C121.53 90.61 122.68 90.27 123.43 90.27Z" fill="#005EB8"/>
    <path d="M132.64 98.74C131.75 98.74 131.3 98.3 131.3 97.36H131.31V83.75H130.97L128.03 84.69V85.09L129.07 85.2C129.7 85.27 129.77 85.48 129.77 86.12V97.2C129.77 98.3 129.34 98.74 127.87 98.74V99.17H133.03V98.74H132.64Z" fill="#005EB8"/>
    <path fill-rule="evenodd" clip-rule="evenodd" d="M135.211 93.4105L135.22 93.35H141.92V92.82C141.719 92.6186 141.576 92.314 141.416 91.975C140.975 91.0347 140.409 89.83 138.13 89.83C135.33 89.83 133.7 92.31 133.7 94.75C133.7 97.41 135.45 99.45 137.69 99.45C139.37 99.45 140.81 98.3 141.78 97.08L141.52 96.81C140.65 97.84 139.76 98.31 138.62 98.31C136.8 98.31 135.12 96.69 135.12 94.31C135.12 94.0279 135.164 93.728 135.211 93.4105ZM137.72 90.27C138.82 90.27 139.74 91.25 139.99 92.75H135.28C135.82 90.61 136.96 90.27 137.72 90.27Z" fill="#005EB8"/>
    <path fill-rule="evenodd" clip-rule="evenodd" d="M143.654 92.7332C143.662 92.7589 143.671 92.7873 143.68 92.82L145.24 92.06C145.15 91.85 145.13 91.76 145.13 91.62C145.13 91.14 145.79 90.5 146.55 90.5C147.06 90.5 147.53 90.8 147.83 91.17C148.23 91.63 148.23 91.99 148.23 92.63V94.45C147.593 94.8388 146.902 95.132 146.18 95.32C144.71 95.68 143.48 96.17 143.48 97.57C143.48 98.69 144.28 99.45 145.61 99.45C146.23 99.45 146.69 99.35 148.27 98.05C148.29 98.42 148.39 99.45 149.33 99.45C149.72 99.45 150.36 99.19 151.6 98.19L151.48 97.85C150.91 98.32 150.61 98.35 150.36 98.35C149.76 98.35 149.76 97.93 149.76 96.1V93.02C149.76 91.83 149.76 91.53 149.41 91.05C148.78 90.16 147.7 89.83 147.01 89.83C145.51 89.83 143.61 91.7 143.61 92.5C143.61 92.592 143.628 92.6487 143.654 92.7332ZM146.87 95.55C147.43 95.32 147.79 95.16 148.23 94.9V97.64C146.94 98.53 146.67 98.64 146.3 98.64C145.61 98.64 144.95 98.12 144.95 97.29C144.95 96.35 145.47 96.12 146.87 95.55Z" fill="#005EB8"/>
    <path d="M155.34 99.01C154.3 99.01 153.43 98.23 153.16 96.86H152.79L153.04 99.42H153.38C153.5 99.25 153.64 99.15 153.78 99.15C153.915 99.15 154.05 99.1894 154.219 99.2386C154.275 99.255 154.335 99.2725 154.4 99.29C154.725 99.4027 155.067 99.4569 155.41 99.45C157.01 99.45 158.25 98.33 158.25 96.83C158.25 95.316 157.002 94.5212 155.855 93.7912C154.881 93.1711 153.98 92.5977 153.98 91.67C153.98 90.91 154.63 90.39 155.38 90.39C156.3 90.39 157.06 91.12 157.21 92.29H157.61L157.56 90.2C156.99 89.97 156.35 89.83 155.73 89.83C153.99 89.83 152.79 90.89 152.79 92.4C152.79 93.634 153.553 94.1383 154.535 94.7867C155.065 95.1367 155.659 95.5286 156.23 96.1C156.85 96.72 156.97 97.02 156.97 97.5C156.97 98.32 156.25 99.01 155.34 99.01Z" fill="#005EB8"/>
    <path d="M162.9 85.43C162.9 84.95 162.44 84.56 161.9 84.56C161.34 84.56 160.9 84.95 160.9 85.43C160.9 85.91 161.34 86.3 161.9 86.3C162.44 86.3 162.9 85.91 162.9 85.43Z" fill="#005EB8"/>
    <path d="M164.49 98.73C163.27 98.73 162.83 98.23 162.83 97.43V89.72H162.49L159.51 90.75V91.12L160.59 91.33C161.19 91.44 161.29 91.56 161.29 92.46V97.06C161.29 98.28 160.79 98.74 159.39 98.74V99.17H164.49V98.73Z" fill="#005EB8"/>
    <path d="M170.47 98.74C169.23 98.74 168.93 98.44 168.93 97.18V92.2C170.12 91.37 171.25 90.73 171.99 90.73C172.89 90.73 173.79 91.3 173.79 93.14C173.79 96.19 173.75 97.86 173.31 98.3C173.06 98.55 172.67 98.71 172 98.74V99.17H176.93V98.74H176.43C175.49 98.74 175.12 98.44 175.15 97.82C175.156 97.5357 175.177 97.2824 175.201 96.9726C175.255 96.3018 175.33 95.3666 175.33 93.28C175.33 90.98 174.44 89.83 172.88 89.83C171.812 89.83 170.611 90.5887 169.183 91.4904C169.099 91.5432 169.015 91.5964 168.93 91.65V89.86H168.56L165.92 90.82V91.19L166.7 91.35C167.3 91.47 167.39 91.62 167.39 92.47V97.29C167.39 98.19 166.86 98.74 165.86 98.74V99.17H170.47V98.74Z" fill="#005EB8"/>
    <path fill-rule="evenodd" clip-rule="evenodd" d="M185.74 91.69C186.62 91.85 187.7 91.95 188.04 91.97V90.52C187.04 90.64 186.07 90.75 185.04 90.75C184.42 90.16 183.52 89.83 182.47 89.83C180.2 89.83 178.43 91.37 178.43 93.35C178.43 94.65 179.23 95.64 180.63 96.19C180.355 96.3962 179.993 96.5363 179.635 96.6744C178.953 96.938 178.29 97.1944 178.29 97.89C178.29 98.62 179.23 99.4 180.47 99.52C180.069 100.009 179.617 100.341 179.212 100.64C178.555 101.123 178.02 101.518 178.02 102.34C178.02 103.46 179.16 104.52 181.55 104.52C185.79 104.52 187.81 102.23 187.81 100.73C187.81 100.25 187.68 99.68 187.13 99.13C186.44 98.44 185.55 98.32 182.95 98.3C180.65 98.27 179.67 98.05 179.67 97.47C179.67 97.1477 180.066 96.9291 180.455 96.7143C180.693 96.5825 180.929 96.4521 181.07 96.3C181.48 96.44 181.69 96.49 182.12 96.49C184.67 96.49 186.14 94.86 186.14 93.16C186.14 92.43 185.89 91.95 185.74 91.69ZM186.62 101.15C186.62 102.589 184.793 103.878 182.835 103.88C180.947 103.878 179.44 102.659 179.44 101.58C179.44 100.977 179.831 100.635 180.282 100.241C180.496 100.054 180.724 99.8547 180.93 99.61C181.289 99.6583 182.285 99.6864 183.223 99.7129C184.034 99.7358 184.802 99.7576 185.08 99.79C185.91 99.86 186.62 100.3 186.62 101.15ZM179.97 92.88C179.97 90.75 181.32 90.28 182.19 90.28L182.2 90.27C183.6 90.27 184.6 91.4 184.6 93.37C184.6 94.95 183.73 96.05 182.4 96.05C180.65 96.05 179.97 94.24 179.97 92.88Z" fill="#005EB8"/>
    <path d="M199.26 99.45C201.1 99.45 202.36 98.6 203.32 97.06L202.98 96.86C202.15 98.01 201.28 98.51 200.18 98.51C198.32 98.51 196.94 96.81 196.94 94.52C196.94 92.31 198.32 90.44 199.9 90.44C200.566 90.44 200.961 90.8136 201.342 91.1747C201.698 91.5128 202.044 91.84 202.59 91.84C202.95 91.84 203.25 91.54 203.25 91.14C203.25 90.41 202.13 89.83 200.68 89.83C199.993 89.8247 199.312 89.9548 198.676 90.2128C198.039 90.4707 197.459 90.8516 196.97 91.3335C196.481 91.8154 196.091 92.3891 195.823 93.0216C195.556 93.6541 195.415 94.3332 195.41 95.02C195.41 96.83 196.51 99.45 199.26 99.45Z" fill="#005EB8"/>
    <path d="M209.31 98.74C208.11 98.74 207.81 98.44 207.81 97.36H207.82V91.85C208.94 91.14 209.76 90.78 210.52 90.78C211.28 90.78 212.6 91.1 212.6 93.55C212.6 96.97 212.52 97.96 212.1 98.37C211.85 98.62 211.42 98.74 210.82 98.74V99.17H215.77V98.74C214.43 98.74 214.08 98.48 214.03 97.86C214.1 96.63 214.15 95.35 214.15 93.25C214.15 90.93 213.37 89.83 211.6 89.83C210.43 89.83 209.33 90.38 207.81 91.28V83.75H207.45L204.72 84.69V85.09L205.7 85.22C206.18 85.29 206.28 85.48 206.28 85.98V96.97C206.28 98.24 205.98 98.67 204.71 98.74V99.17H209.31V98.74Z" fill="#005EB8"/>
    <path d="M219.7 85.43C219.7 84.95 219.24 84.56 218.7 84.56C218.14 84.56 217.7 84.95 217.7 85.43C217.7 85.91 218.14 86.3 218.7 86.3C219.24 86.3 219.7 85.91 219.7 85.43Z" fill="#005EB8"/>
    <path d="M221.29 98.73C220.07 98.73 219.63 98.23 219.63 97.43V89.72H219.29L216.31 90.75V91.12L217.39 91.33C217.99 91.44 218.09 91.56 218.09 92.46V97.06C218.09 98.28 217.59 98.74 216.19 98.74V99.17H221.29V98.73Z" fill="#005EB8"/>
    <path d="M226.65 98.74C225.75 98.74 225.32 98.3 225.32 97.36V83.75H224.97L222.04 84.69V85.09L223.08 85.2C223.71 85.27 223.78 85.48 223.78 86.12V97.2C223.78 98.3 223.35 98.74 221.88 98.74V99.17H227.04V98.74H226.65Z" fill="#005EB8"/>
    <path fill-rule="evenodd" clip-rule="evenodd" d="M234.24 85.18C234.98 85.27 235.14 85.38 235.14 85.82V90.27C234.52 90.02 233.59 89.83 232.89 89.83C232.221 89.839 231.56 89.981 230.946 90.2476C230.332 90.5142 229.778 90.9002 229.314 91.3831C228.851 91.8661 228.488 92.4362 228.247 93.0606C228.006 93.685 227.891 94.351 227.91 95.02C227.91 97.47 229.54 99.45 231.58 99.45C232.46 99.45 233.64 98.9 235.14 97.82V99.45H235.42L238.35 98.3V97.82L237.8 97.98C237.16 98.16 236.68 98 236.68 97.22V83.75L233.49 84.7V85.08L234.24 85.18ZM232.41 90.45C233.49 90.45 234.31 90.96 235.14 92.18V97.31C234.13 98.03 233.15 98.46 232.43 98.46C230.78 98.46 229.45 96.54 229.45 94.24C229.45 92.08 230.62 90.45 232.41 90.45Z" fill="#005EB8"/>
    <path d="M244.2 98.74C243.05 98.74 242.7 98.44 242.7 97.5H242.71V93.05C242.89 92.7 243.14 92.31 243.44 91.9C243.67 91.58 243.92 91.3 244.34 91.3C244.62 91.32 244.892 91.3983 245.14 91.53C245.526 91.7138 245.937 91.8386 246.36 91.9L246.91 90.52C246.782 90.485 246.66 90.4527 246.547 90.4225C246.174 90.3233 245.886 90.2467 245.71 90.17L245.684 90.1598C245.277 89.9988 245.204 89.97 244.93 89.97C244.18 89.97 243.9 90.41 242.75 92.29H242.71V89.86H242.25L239.63 90.77V91.17L241.17 91.72V97.02C241.17 98.24 240.81 98.71 239.63 98.74V99.17H245.07V98.74H244.2Z" fill="#005EB8"/>
    <path fill-rule="evenodd" clip-rule="evenodd" d="M249.281 93.41L249.29 93.35H255.99V92.82C255.789 92.6186 255.646 92.314 255.486 91.975C255.045 91.0347 254.479 89.83 252.2 89.83C249.4 89.83 247.77 92.31 247.77 94.75C247.77 97.41 249.52 99.45 251.77 99.45C253.45 99.45 254.89 98.3 255.85 97.08L255.59 96.81C254.73 97.84 253.83 98.31 252.69 98.31C250.87 98.31 249.19 96.69 249.19 94.31C249.19 94.0277 249.234 93.7277 249.281 93.41ZM251.79 90.27C252.89 90.27 253.81 91.25 254.06 92.75H249.36C249.89 90.61 251.03 90.27 251.79 90.27Z" fill="#005EB8"/>
    <path d="M261.61 98.74C260.38 98.74 260.08 98.44 260.08 97.18V92.2C261.27 91.37 262.39 90.73 263.13 90.73C264.04 90.73 264.94 91.3 264.94 93.14C264.94 96.19 264.89 97.86 264.45 98.3C264.21 98.55 263.81 98.71 263.15 98.74V99.17H268.08V98.74H267.58C266.64 98.74 266.27 98.44 266.29 97.82C266.299 97.5522 266.319 97.3119 266.344 97.026C266.401 96.3511 266.48 95.4225 266.48 93.28C266.48 90.98 265.58 89.83 264.02 89.83C262.947 89.83 261.717 90.6105 260.271 91.5291L260.08 91.65V89.86H259.71L257.07 90.82V91.19L257.85 91.35C258.44 91.47 258.54 91.62 258.54 92.47V97.29C258.54 98.19 258.01 98.74 257.01 98.74V99.17H261.61V98.74Z" fill="#005EB8"/>
    <path d="M278.02 91.1H280.5V91.09L280.34 90.09H278.02V88.34C278.02 86.11 278.91 84.81 280.57 84.81C281.604 84.81 282.329 85.3352 282.785 85.6663C282.996 85.8187 283.149 85.93 283.25 85.93C283.43 85.93 283.87 85.02 283.87 84.83C283.87 84.49 282.79 83.75 281.51 83.75C280.45 83.75 279.37 84.26 278.25 85.39C276.89 86.74 276.48 88.19 276.48 90.09C275.946 90.3752 275.373 90.5807 274.78 90.7V91.1H276.48V97.15C276.48 98.44 276.25 98.74 274.92 98.74V99.17H280.59V98.74H279.72C278.43 98.74 278.02 98.44 278.02 97.38V91.1Z" fill="#005EB8"/>
    <path d="M286.76 98.74C285.61 98.74 285.26 98.44 285.26 97.5V93.05C285.44 92.7 285.69 92.31 285.99 91.9C286.22 91.58 286.48 91.3 286.89 91.3C287.17 91.3203 287.442 91.3986 287.69 91.53C288.076 91.714 288.487 91.8387 288.91 91.9L289.46 90.52C289.347 90.4892 289.24 90.4605 289.139 90.4334C288.749 90.3289 288.453 90.2495 288.27 90.17L288.235 90.1564C287.826 89.9984 287.753 89.97 287.49 89.97C286.73 89.97 286.45 90.41 285.31 92.29H285.26V89.86H284.8L282.19 90.77V91.17L283.72 91.72V97.02C283.72 98.24 283.36 98.71 282.19 98.74V99.17H287.63V98.74H286.76Z" fill="#005EB8"/>
    <path fill-rule="evenodd" clip-rule="evenodd" d="M299.51 94.65C299.51 91.93 297.38 89.83 294.58 89.83C292.19 89.83 289.62 91.53 289.62 94.7C289.62 97.38 291.8 99.45 294.65 99.45C297.38 99.45 299.51 97.36 299.51 94.65ZM297.79 95.23C297.79 97.52 296.25 98.9 294.9 98.9C292.93 98.9 291.35 96.69 291.35 93.92C291.35 91.95 292.75 90.39 294.25 90.39C296.19 90.39 297.79 92.61 297.79 95.23Z" fill="#005EB8"/>
    <path d="M305.47 98.74C304.19 98.74 303.87 98.51 303.87 97.31V92.08C305.44 91.05 306.31 90.75 306.94 90.75C307.75 90.75 308.64 91.28 308.64 92.73V96.97C308.64 98.28 308.19 98.74 306.9 98.74V99.17H311.6V98.74C310.46 98.74 310.18 98.46 310.18 97.31V92.04C311.6 91.1 312.53 90.76 313.23 90.76C314.35 90.76 314.95 91.6 314.95 93.36V95.16C314.95 96.74 314.93 98.07 314.59 98.42C314.38 98.62 314.08 98.74 313.41 98.74H313.21V99.17H318.37V98.74H317.64C316.7 98.74 316.42 98.19 316.42 97.7C316.5 96.3 316.5 94.77 316.5 93.3C316.5 91.1 315.85 89.83 314.2 89.83C313.073 89.83 311.676 90.7061 310.15 91.6637L310.14 91.67C309.91 90.55 309.08 89.83 307.96 89.83C307.04 89.83 305.53 90.5 303.87 91.67V89.83H303.53L300.77 90.79V91.19L301.67 91.3C302.2 91.37 302.34 91.57 302.34 92.47V96.97C302.34 98.14 302.04 98.74 300.71 98.74V99.17H305.47V98.74Z" fill="#005EB8"/>
    <path fill-rule="evenodd" clip-rule="evenodd" d="M329.75 104.09C328.79 104.09 328.21 103.74 328.21 102.59V98.89C329.09 99.21 329.68 99.34 330.3 99.34C332.92 99.34 335.17 96.96 335.17 94.18C335.17 91.93 333.56 89.91 331.77 89.91C330.85 89.91 329.64 90.51 328.21 91.59V89.39H327.75L325.3 90.9V91.34L326.03 91.52C326.58 91.66 326.68 91.84 326.68 92.28V102.38C326.68 103.69 326.31 104.08 325.14 104.08H324.91V104.52H330.33V104.09H329.75ZM330.92 98.62C329.901 98.5288 328.945 98.0912 328.21 97.38L328.22 92.15C329.04 91.44 329.92 91.03 330.62 91.03C331.84 91.03 333.62 92.18 333.62 95.2C333.62 97.08 332.48 98.62 330.92 98.62Z" fill="#005EB8"/>
    <path fill-rule="evenodd" clip-rule="evenodd" d="M347.17 94.65C347.17 91.93 345.03 89.83 342.23 89.83C339.85 89.83 337.28 91.53 337.28 94.7C337.28 97.38 339.46 99.45 342.3 99.45C345.03 99.45 347.17 97.36 347.17 94.65ZM345.45 95.23C345.45 97.52 343.91 98.9 342.55 98.9C340.58 98.9 339 96.69 339 93.92C339 91.95 340.4 90.39 341.91 90.39C343.84 90.39 345.45 92.61 345.45 95.23Z" fill="#005EB8"/>
    <path d="M349.13 91.76L352.45 99.38H353.12L356.28 92.18C356.72 91.17 357.22 90.66 358.1 90.5V90.09H354.1V90.5C355.77 90.62 355.99 91.28 355.57 92.22L353.23 97.52L350.8 91.8C350.25 90.73 350.69 90.55 352.09 90.5V90.09H347.41V90.5L348.12 90.61C348.48 90.68 348.78 90.96 349.13 91.76Z" fill="#005EB8"/>
    <path fill-rule="evenodd" clip-rule="evenodd" d="M360.201 93.4105L360.21 93.35H366.91V92.82C366.709 92.6186 366.565 92.314 366.406 91.975C365.964 91.0347 365.398 89.83 363.12 89.83C360.32 89.83 358.69 92.31 358.69 94.75C358.69 97.41 360.44 99.45 362.69 99.45C364.37 99.45 365.81 98.3 366.77 97.08L366.51 96.81C365.65 97.84 364.75 98.31 363.61 98.31C361.79 98.31 360.11 96.69 360.11 94.31C360.11 94.0279 360.154 93.7281 360.201 93.4105ZM362.71 90.27C363.81 90.27 364.73 91.25 364.98 92.75H360.28C360.81 90.61 361.95 90.27 362.71 90.27Z" fill="#005EB8"/>
    <path d="M373.13 98.74C371.98 98.74 371.63 98.44 371.63 97.5V93.05C371.81 92.7 372.07 92.31 372.37 91.9C372.6 91.58 372.85 91.3 373.27 91.3C373.55 91.3209 373.822 91.3992 374.07 91.53C374.453 91.7133 374.86 91.838 375.28 91.9L375.84 90.52C375.74 90.4933 375.645 90.4682 375.555 90.4444C375.14 90.3344 374.829 90.2522 374.64 90.17L374.605 90.1564C374.196 89.9984 374.123 89.97 373.86 89.97C373.1 89.97 372.83 90.41 371.68 92.29H371.63V89.86H371.17L368.56 90.77V91.17L370.09 91.72V97.02C370.09 98.24 369.73 98.71 368.56 98.74V99.17H373.99V98.74H373.13Z" fill="#005EB8"/>
    <path d="M382.73 91.09L383.1 90.09H379.82V87.82H379.42C378.89 89.23 378.12 90.29 377.22 90.73V91.09H378.27V96.79C378.27 98.32 379.24 99.45 380.59 99.45C381.65 99.45 382.54 98.77 383.09 97.57L382.73 97.22C382.29 97.97 381.83 98.37 381.33 98.37C380.84 98.37 379.81 97.89 379.81 96.44V91.09H382.73Z" fill="#005EB8"/>
    <path d="M390.73 90.5C392.08 90.55 392.52 90.89 391.83 92.63L389.88 97.5L387.28 91.9C386.83 90.94 386.98 90.52 388.38 90.5V90.09H383.78V90.5C384.74 90.52 385.15 90.91 385.59 91.85L389.14 99.4L388.46 101.13C388.27 101.58 387.93 102.18 387.67 102.43C387.445 102.655 387.101 102.757 386.767 102.856C386.257 103.007 385.77 103.151 385.77 103.72C385.77 104.17 386.16 104.52 386.71 104.52C387.52 104.52 388.04 103.76 388.73 102.06L392.63 92.34C393.07 91.26 393.59 90.61 394.53 90.5V90.09H390.73V90.5Z" fill="#005EB8"/>
    <path d="M69.55 102.5C65.68 91.6 55.59 84.45 42.8 84.45C23.21 84.45 11.01 98.65 11.01 118.35C11.01 139.58 26.26 155.18 44.09 155.18C53.35 155.18 64.73 152.01 72.7 137.82H74.93C73.1084 143.8 70.5912 149.546 67.43 154.94C59.92 153.88 54.76 158.11 40.92 158.11C17.13 158.1 0 142.38 0 120.68C0 97.93 17.6 81.51 42.1 81.51C56.88 81.51 63.21 86.21 66.85 86.21C68.14 86.21 68.73 85.85 68.96 85.5H70.72L71.77 102.5H69.55ZM105.88 154.81C112.8 154.81 120.66 147.78 120.66 136.05C120.66 122.68 112.46 111.3 102.6 111.3C94.86 111.3 87.7 119.28 87.7 129.36C87.7 143.56 95.8 154.81 105.88 154.81ZM104.24 108.49C118.55 108.49 129.46 119.16 129.46 133.12C129.46 146.95 118.56 157.62 104.6 157.62C90.05 157.62 78.91 147.07 78.91 133.35C78.91 117.17 92.05 108.49 104.24 108.49ZM145.73 146.72C145.73 152.82 147.38 153.99 153.95 153.99V156.22H129.55V153.99C136.35 153.99 137.88 150.94 137.88 144.96V121.97C137.88 117.4 137.18 116.34 134.48 115.99L129.9 115.41V113.41L143.98 108.49H145.73V117.87C154.18 111.89 161.92 108.49 166.61 108.49C172.36 108.49 176.58 112.12 177.75 117.87C185.61 112.94 192.76 108.49 198.51 108.49C206.95 108.49 210.24 114.94 210.24 126.19C210.24 133.7 210.24 141.56 209.89 148.71C209.89 151.18 211.29 153.99 216.1 153.99H219.85V156.22H193.47V153.99H194.52C197.92 153.99 199.45 153.41 200.5 152.35C202.26 150.59 202.38 143.79 202.38 135.7V126.55C202.38 117.52 199.33 113.18 193.58 113.18C189.95 113.18 185.26 114.94 177.98 119.74V146.72C177.98 152.58 179.39 153.99 185.26 153.99V156.22H161.22V153.99C167.78 153.99 170.12 151.65 170.12 144.96V123.26C170.12 115.88 165.55 113.18 161.45 113.18C158.17 113.18 153.71 114.7 145.73 119.98V146.72Z" fill="#005EB8"/>
    <path d="M230.23 147.07C234.46 150.83 239.73 153.41 244.07 153.41C252.05 153.41 257.91 145.55 257.91 135.93C257.91 120.45 248.76 114.59 242.55 114.59C238.91 114.59 234.45 116.69 230.23 120.33V147.07ZM230.23 175.92C230.23 181.79 233.17 183.55 238.09 183.55H241.02V185.78H213.35V183.55H214.52C220.5 183.55 222.38 181.55 222.38 174.87V120.92C222.38 118.69 221.91 117.75 219.09 117.05L215.34 116.11V113.88L227.89 106.14H230.23V117.4C237.51 111.89 243.73 108.84 248.41 108.84C257.56 108.84 265.77 119.16 265.77 130.65C265.77 144.85 254.27 157.04 240.91 157.04C237.74 157.04 234.69 156.34 230.23 154.69V175.92ZM294.04 134.4C291.816 135.657 289.507 136.756 287.13 137.69C279.97 140.62 277.27 141.79 277.27 146.6C277.27 150.83 280.67 153.52 284.19 153.52C286.07 153.52 287.48 152.94 294.04 148.36V134.4ZM270.82 123.73C270.604 123.209 270.485 122.653 270.47 122.09C270.47 117.99 280.2 108.49 287.83 108.49C291.35 108.49 296.86 110.13 300.14 114.7C301.9 117.17 301.9 118.69 301.9 124.79V140.51C301.9 149.89 301.9 152 304.95 152C306.25 152 307.77 151.88 310.7 149.42L311.28 151.18C304.95 156.34 301.67 157.63 299.68 157.63C294.86 157.63 294.4 152.35 294.28 150.47C286.18 157.16 283.84 157.63 280.68 157.63C273.88 157.63 269.77 153.76 269.77 148.01C269.77 140.86 276.1 138.39 283.61 136.51C286.07 135.93 289.94 134.52 294.04 132.06V122.79C294.04 119.51 294.04 117.63 292.04 115.29C290.53 113.41 288.06 111.89 285.48 111.89C281.61 111.89 278.21 115.17 278.21 117.63C278.21 118.33 278.33 118.81 278.8 119.86L270.82 123.73ZM316.34 144.37C317.74 151.41 322.21 155.4 327.48 155.4C332.18 155.4 335.81 151.88 335.81 147.66C335.81 145.19 335.22 143.67 332.06 140.51C323.73 132.18 314.46 131.36 314.46 121.62C314.46 113.88 320.56 108.49 329.48 108.49C332.64 108.49 335.93 109.19 338.86 110.36L339.09 121.04H337.1C336.28 115.05 332.4 111.3 327.72 111.3C323.85 111.3 320.56 114 320.56 117.87C320.56 128.19 342.38 129.95 342.38 144.26C342.38 151.88 336.04 157.63 327.84 157.63C326.082 157.666 324.331 157.388 322.67 156.81C321.39 156.45 320.45 156.11 319.51 156.11C318.81 156.11 318.11 156.57 317.51 157.51H315.75L314.47 144.37H316.34ZM349.5 144.37C350.9 151.41 355.37 155.4 360.64 155.4C365.34 155.4 368.97 151.88 368.97 147.66C368.97 145.19 368.38 143.67 365.22 140.51C356.89 132.18 347.62 131.36 347.62 121.62C347.62 113.88 353.72 108.49 362.64 108.49C365.8 108.49 369.09 109.19 372.02 110.36L372.25 121.04H370.25C369.44 115.05 365.57 111.3 360.88 111.3C357.01 111.3 353.72 114 353.72 117.87C353.72 128.19 375.54 129.95 375.54 144.26C375.54 151.88 369.2 157.63 360.99 157.63C359.235 157.665 357.488 157.387 355.83 156.81C354.54 156.45 353.61 156.11 352.67 156.11C351.97 156.11 351.26 156.57 350.67 157.51H348.92L347.62 144.37H349.5ZM396.73 147.3C396.73 151.41 398.96 154 405.18 154V156.22H379.14V153.99C386.3 153.99 388.88 151.65 388.88 145.43V121.86C388.88 117.28 388.28 116.7 385.24 116.11L379.73 115.05V113.18L394.97 107.9H396.73V147.3ZM431.46 154.81C438.38 154.81 446.24 147.78 446.24 136.05C446.24 122.68 438.03 111.3 428.18 111.3C420.44 111.3 413.28 119.28 413.28 129.36C413.28 143.56 421.38 154.81 431.46 154.81ZM429.82 108.49C444.12 108.49 455.03 119.16 455.03 133.12C455.03 146.95 444.13 157.62 430.17 157.62C415.63 157.62 404.49 147.07 404.49 133.35C404.49 117.17 417.62 108.49 429.82 108.49ZM470.8 146.02C470.8 152.47 472.31 153.99 478.65 153.99V156.22H455.08V153.99C460.24 153.99 462.93 151.18 462.93 146.6V121.97C462.93 117.63 462.47 116.81 459.42 116.23L455.42 115.41V113.53L468.92 108.6H470.79V117.75C478.65 112.83 485.22 108.49 490.96 108.49C498.94 108.49 503.51 114.35 503.51 126.08C503.51 141.68 502.69 144.73 502.57 149.3C502.46 152.47 504.33 154 509.14 154H511.72V156.22H486.51V153.99C489.91 153.87 491.91 153.05 493.19 151.76C495.42 149.53 495.65 140.97 495.65 125.38C495.65 115.99 491.08 113.06 486.39 113.06C482.64 113.06 476.89 116.34 470.79 120.56V146.02" fill="#005EB8"/>
    <path d="M99.15 25.6C106.88 25.96 113.4 20.6 113.73 13.65C114.06 6.69002 108.06 0.750017 100.33 0.400017C92.6 0.0300166 86.07 5.38002 85.75 12.34C85.42 19.3 91.42 25.24 99.15 25.6Z" fill="#005EB8"/>
    <path d="M136.86 0.500017C136.86 0.500017 129.6 13.35 113.43 22.54C97.25 31.72 82.88 37.06 69.13 58.34C69.13 58.34 73.22 56.46 70.39 61.02C70.39 61.02 72.51 59.02 74.32 58.42C74.32 58.42 75.42 58.19 74.95 59.52C74.95 59.52 82.2 53.9 80.37 56.62C79.26 58.25 86.12 51.43 86.94 52.1C86.94 52.1 87.18 52.51 86.14 54.07C86.14 54.07 102.52 44.22 108.64 41.62C135.14 30.34 140.84 11.7 138.4 1.18002C138.4 1.18002 138.3 -0.929983 136.86 0.510017" fill="#005EB8"/>
    <path d="M81.575 91.3C81.575 91.3 82.715 63.66 99.915 49.53C117.115 35.39 133.515 37.99 140.355 37.51C140.355 37.51 154.335 37.91 161.325 35.55C161.325 35.55 162.345 47.88 128.025 53.77C128.025 53.77 116.725 53.61 107.065 66.49C107.065 66.49 97.475 77.25 88.605 99.47C88.605 99.47 88.525 96.25 87.275 98.53L83.975 105.99L83.855 98.96C83.855 98.96 83.265 97.19 82.485 99.63C82.485 99.63 81.855 100.45 82.915 91.11C82.915 91.11 82.635 89.11 81.575 91.31V91.3Z" fill="#005EB8"/>
    <path fill-rule="evenodd" clip-rule="evenodd" d="M504.64 92.86H501.37V101.3H502.68V97.67H504.08L506.38 101.3H507.78L505.37 97.57C506.63 97.44 507.59 96.8 507.59 95.27C507.59 93.66 506.64 92.86 504.64 92.86ZM504.06 96.6H502.68V93.92H504.42C505.31 93.92 506.28 94.09 506.28 95.22C506.28 96.55 505.21 96.6 504.06 96.6Z" fill="#005EB8"/>
    <path fill-rule="evenodd" clip-rule="evenodd" d="M506.96 90.39C506.081 90.0322 505.139 89.8521 504.19 89.86C502.272 89.86 500.433 90.6217 499.078 91.9776C497.722 93.3335 496.96 95.1725 496.96 97.09C496.96 99.0075 497.722 100.846 499.078 102.202C500.433 103.558 502.272 104.32 504.19 104.32C505.146 104.327 506.093 104.143 506.977 103.78C507.861 103.417 508.664 102.881 509.339 102.204C510.013 101.528 510.547 100.723 510.907 99.8384C511.268 98.9535 511.449 98.0056 511.44 97.05C511.44 96.1007 511.252 95.1608 510.887 94.2846C510.522 93.4083 509.987 92.613 509.313 91.9446C508.639 91.2761 507.839 90.7478 506.96 90.39ZM510.12 97.05C510.12 100.59 507.53 103.26 504.19 103.26V103.25C500.81 103.25 498.22 100.59 498.22 97.05C498.22 95.472 498.847 93.9585 499.963 92.8427C501.079 91.7269 502.592 91.1 504.17 91.1C505.748 91.1 507.261 91.7269 508.377 92.8427C509.493 93.9585 510.12 95.472 510.12 97.05Z" fill="#005EB8"/>
  </g>
</svg>
