<svg width="513" height="195" viewBox="0 0 513 195" fill="none"
  xmlns="http://www.w3.org/2000/svg">
  <g>
    <path d="M70.27 102.5C66.4 91.6 56.31 84.45 43.52 84.45C23.93 84.45 11.73 98.65 11.73 118.35C11.73 139.58 26.98 155.18 44.81 155.18C54.07 155.18 65.45 152.01 73.42 137.82H75.65C73.8284 143.8 71.3111 149.546 68.15 154.94C60.64 153.88 55.48 158.11 41.64 158.11C17.85 158.1 0.719971 142.38 0.719971 120.68C0.719971 97.93 18.32 81.51 42.82 81.51C57.6 81.51 63.93 86.21 67.57 86.21C68.86 86.21 69.45 85.85 69.68 85.5H71.44L72.49 102.5H70.27ZM106.6 154.81C113.52 154.81 121.38 147.78 121.38 136.05C121.38 122.68 113.18 111.3 103.32 111.3C95.58 111.3 88.42 119.28 88.42 129.36C88.42 143.56 96.52 154.81 106.6 154.81ZM104.96 108.49C119.27 108.49 130.18 119.16 130.18 133.12C130.18 146.95 119.28 157.62 105.32 157.62C90.77 157.62 79.63 147.07 79.63 133.35C79.63 117.17 92.77 108.49 104.96 108.49ZM146.45 146.72C146.45 152.82 148.1 153.99 154.67 153.99V156.22H130.27V153.99C137.07 153.99 138.6 150.94 138.6 144.96V121.97C138.6 117.4 137.9 116.34 135.2 115.99L130.62 115.41V113.41L144.7 108.49H146.45V117.87C154.9 111.89 162.64 108.49 167.33 108.49C173.08 108.49 177.3 112.12 178.47 117.87C186.33 112.94 193.48 108.49 199.23 108.49C207.67 108.49 210.96 114.94 210.96 126.19C210.96 133.7 210.96 141.56 210.61 148.71C210.61 151.18 212.01 153.99 216.82 153.99H220.57V156.22H194.19V153.99H195.24C198.64 153.99 200.17 153.41 201.22 152.35C202.98 150.59 203.1 143.79 203.1 135.7V126.55C203.1 117.52 200.05 113.18 194.3 113.18C190.67 113.18 185.98 114.94 178.7 119.74V146.72C178.7 152.58 180.11 153.99 185.98 153.99V156.22H161.94V153.99C168.5 153.99 170.84 151.65 170.84 144.96V123.26C170.84 115.88 166.27 113.18 162.17 113.18C158.89 113.18 154.43 114.7 146.45 119.98V146.72Z" fill="#005EB8"/>
    <path d="M230.95 147.07C235.18 150.83 240.45 153.41 244.79 153.41C252.77 153.41 258.63 145.55 258.63 135.93C258.63 120.45 249.48 114.59 243.27 114.59C239.63 114.59 235.17 116.69 230.95 120.33V147.07ZM230.95 175.92C230.95 181.79 233.89 183.55 238.81 183.55H241.74V185.78H214.07V183.55H215.24C221.22 183.55 223.1 181.55 223.1 174.87V120.92C223.1 118.69 222.63 117.75 219.81 117.05L216.06 116.11V113.88L228.61 106.14H230.95V117.4C238.23 111.89 244.45 108.84 249.13 108.84C258.28 108.84 266.49 119.16 266.49 130.65C266.49 144.85 254.99 157.04 241.63 157.04C238.46 157.04 235.41 156.34 230.95 154.69V175.92ZM294.76 134.4C292.536 135.657 290.227 136.756 287.85 137.69C280.69 140.62 277.99 141.79 277.99 146.6C277.99 150.83 281.39 153.52 284.91 153.52C286.79 153.52 288.2 152.94 294.76 148.36V134.4ZM271.54 123.73C271.324 123.209 271.205 122.653 271.19 122.09C271.19 117.99 280.92 108.49 288.55 108.49C292.07 108.49 297.58 110.13 300.86 114.7C302.62 117.17 302.62 118.69 302.62 124.79V140.51C302.62 149.89 302.62 152 305.67 152C306.97 152 308.49 151.88 311.42 149.42L312 151.18C305.67 156.34 302.39 157.63 300.4 157.63C295.58 157.63 295.12 152.35 295 150.47C286.9 157.16 284.56 157.63 281.4 157.63C274.6 157.63 270.49 153.76 270.49 148.01C270.49 140.86 276.82 138.39 284.33 136.51C286.79 135.93 290.66 134.52 294.76 132.06V122.79C294.76 119.51 294.76 117.63 292.76 115.29C291.25 113.41 288.78 111.89 286.2 111.89C282.33 111.89 278.93 115.17 278.93 117.63C278.93 118.33 279.05 118.81 279.52 119.86L271.54 123.73ZM317.06 144.37C318.46 151.41 322.93 155.4 328.2 155.4C332.9 155.4 336.53 151.88 336.53 147.66C336.53 145.19 335.94 143.67 332.78 140.51C324.45 132.18 315.18 131.36 315.18 121.62C315.18 113.88 321.28 108.49 330.2 108.49C333.36 108.49 336.65 109.19 339.58 110.36L339.81 121.04H337.82C337 115.05 333.12 111.3 328.44 111.3C324.57 111.3 321.28 114 321.28 117.87C321.28 128.19 343.1 129.95 343.1 144.26C343.1 151.88 336.76 157.63 328.56 157.63C326.802 157.666 325.051 157.388 323.39 156.81C322.11 156.45 321.17 156.11 320.23 156.11C319.53 156.11 318.83 156.57 318.23 157.51H316.47L315.19 144.37H317.06ZM350.22 144.37C351.62 151.41 356.09 155.4 361.36 155.4C366.06 155.4 369.69 151.88 369.69 147.66C369.69 145.19 369.1 143.67 365.94 140.51C357.61 132.18 348.34 131.36 348.34 121.62C348.34 113.88 354.44 108.49 363.36 108.49C366.52 108.49 369.81 109.19 372.74 110.36L372.97 121.04H370.97C370.16 115.05 366.29 111.3 361.6 111.3C357.73 111.3 354.44 114 354.44 117.87C354.44 128.19 376.26 129.95 376.26 144.26C376.26 151.88 369.92 157.63 361.71 157.63C359.955 157.665 358.208 157.387 356.55 156.81C355.26 156.45 354.33 156.11 353.39 156.11C352.69 156.11 351.98 156.57 351.39 157.51H349.64L348.34 144.37H350.22ZM397.45 147.3C397.45 151.41 399.68 154 405.9 154V156.22H379.86V153.99C387.02 153.99 389.6 151.65 389.6 145.43V121.86C389.6 117.28 389 116.7 385.96 116.11L380.45 115.05V113.18L395.69 107.9H397.45V147.3ZM432.18 154.81C439.1 154.81 446.96 147.78 446.96 136.05C446.96 122.68 438.75 111.3 428.9 111.3C421.16 111.3 414 119.28 414 129.36C414 143.56 422.1 154.81 432.18 154.81ZM430.54 108.49C444.84 108.49 455.75 119.16 455.75 133.12C455.75 146.95 444.85 157.62 430.89 157.62C416.35 157.62 405.21 147.07 405.21 133.35C405.21 117.17 418.34 108.49 430.54 108.49ZM471.52 146.02C471.52 152.47 473.03 153.99 479.37 153.99V156.22H455.8V153.99C460.96 153.99 463.65 151.18 463.65 146.6V121.97C463.65 117.63 463.19 116.81 460.14 116.23L456.14 115.41V113.53L469.64 108.6H471.51V117.75C479.37 112.83 485.94 108.49 491.68 108.49C499.66 108.49 504.23 114.35 504.23 126.08C504.23 141.68 503.41 144.73 503.29 149.3C503.18 152.47 505.05 154 509.86 154H512.44V156.22H487.23V153.99C490.63 153.87 492.63 153.05 493.91 151.76C496.14 149.53 496.37 140.97 496.37 125.38C496.37 115.99 491.8 113.06 487.11 113.06C483.36 113.06 477.61 116.34 471.51 120.56V146.02" fill="#005EB8"/>
    <path d="M99.87 25.6C107.6 25.96 114.12 20.6 114.45 13.65C114.78 6.69002 108.78 0.750017 101.05 0.400017C93.32 0.0300166 86.79 5.38002 86.47 12.34C86.14 19.3 92.14 25.24 99.87 25.6Z" fill="#005EB8"/>
    <path d="M137.58 0.500017C137.58 0.500017 130.32 13.35 114.15 22.54C97.97 31.72 83.6 37.06 69.85 58.34C69.85 58.34 73.94 56.46 71.11 61.02C71.11 61.02 73.23 59.02 75.04 58.42C75.04 58.42 76.14 58.19 75.67 59.52C75.67 59.52 82.92 53.9 81.09 56.62C79.98 58.25 86.84 51.43 87.66 52.1C87.66 52.1 87.9 52.51 86.86 54.07C86.86 54.07 103.24 44.22 109.36 41.62C135.86 30.34 141.56 11.7 139.12 1.18002C139.12 1.18002 139.02 -0.929983 137.58 0.510017" fill="#005EB8"/>
    <path d="M82.295 91.3C82.295 91.3 83.435 63.66 100.635 49.53C117.835 35.39 134.235 37.99 141.075 37.51C141.075 37.51 155.055 37.91 162.045 35.55C162.045 35.55 163.065 47.88 128.745 53.77C128.745 53.77 117.445 53.61 107.785 66.49C107.785 66.49 98.195 77.25 89.325 99.47C89.325 99.47 89.245 96.25 87.995 98.53L84.695 105.99L84.575 98.96C84.575 98.96 83.985 97.19 83.205 99.63C83.205 99.63 82.575 100.45 83.635 91.11C83.635 91.11 83.355 89.11 82.295 91.31V91.3Z" fill="#005EB8"/>
    <path fill-rule="evenodd" clip-rule="evenodd" d="M505.36 92.86H502.09V101.3H503.4V97.67H504.8L507.1 101.3H508.5L506.09 97.57C507.35 97.44 508.31 96.8 508.31 95.27C508.31 93.66 507.36 92.86 505.36 92.86ZM504.78 96.6H503.4V93.92H505.14C506.03 93.92 507 94.09 507 95.22C507 96.55 505.93 96.6 504.78 96.6Z" fill="#005EB8"/>
    <path fill-rule="evenodd" clip-rule="evenodd" d="M507.68 90.39C506.801 90.0322 505.859 89.8521 504.91 89.86C502.992 89.86 501.153 90.6217 499.798 91.9776C498.442 93.3335 497.68 95.1725 497.68 97.09C497.68 99.0075 498.442 100.846 499.798 102.202C501.153 103.558 502.992 104.32 504.91 104.32C505.866 104.327 506.813 104.143 507.697 103.78C508.581 103.417 509.384 102.881 510.058 102.204C510.733 101.528 511.267 100.723 511.627 99.8384C511.988 98.9535 512.169 98.0056 512.16 97.05C512.16 96.1007 511.972 95.1608 511.607 94.2846C511.242 93.4083 510.707 92.613 510.033 91.9446C509.359 91.2761 508.559 90.7478 507.68 90.39ZM510.84 97.05C510.84 100.59 508.25 103.26 504.91 103.26V103.25C501.53 103.25 498.94 100.59 498.94 97.05C498.94 95.472 499.567 93.9585 500.683 92.8427C501.798 91.7269 503.312 91.1 504.89 91.1C506.468 91.1 507.981 91.7269 509.097 92.8427C510.213 93.9585 510.84 95.472 510.84 97.05Z" fill="#005EB8"/>
  </g>
</svg>
